<svg xmlns="http://www.w3.org/2000/svg" width="39.193" height="39.193" viewBox="0 0 39.193 39.193">
  <path id="_041-monitor" data-name="041-monitor" d="M35.749,0H3.445A3.449,3.449,0,0,0,0,3.445V28.859A3.449,3.449,0,0,0,3.445,32.3H13.572L12.552,36.9H11.176a1.148,1.148,0,0,0,0,2.3H28.017a1.148,1.148,0,0,0,0-2.3H26.642L25.621,32.3H35.749a3.449,3.449,0,0,0,3.445-3.445V3.445A3.449,3.449,0,0,0,35.749,0ZM14.9,36.9,15.925,32.3h7.344L24.289,36.9ZM36.9,28.859a1.15,1.15,0,0,1-1.148,1.148H3.445A1.15,1.15,0,0,1,2.3,28.859V25.414H23.118v1.148a1.148,1.148,0,0,0,2.3,0V25.414h2.3v1.148a1.148,1.148,0,0,0,2.3,0V25.414h2.3v1.148a1.148,1.148,0,0,0,2.3,0V25.414h2.3Zm0-5.741H2.3V3.445A1.15,1.15,0,0,1,3.445,2.3h32.3A1.15,1.15,0,0,1,36.9,3.445Z" fill="#11578e"/>
</svg>
