<svg xmlns="http://www.w3.org/2000/svg" xmlns:xlink="http://www.w3.org/1999/xlink" width="295" height="173.49" viewBox="0 0 295 173.49">
  <defs>
    <clipPath id="clip-path">
      <rect id="Rectángulo_34799" data-name="Rectángulo 34799" width="255.917" height="173.49" fill="none"/>
    </clipPath>
    <clipPath id="clip-path-3">
      <rect id="Rectángulo_34787" data-name="Rectángulo 34787" width="128.891" height="72.779" fill="none"/>
    </clipPath>
    <clipPath id="clip-path-4">
      <rect id="Rectángulo_34790" data-name="Rectángulo 34790" width="122.166" height="75.953" fill="none"/>
    </clipPath>
    <clipPath id="clip-path-5">
      <rect id="Rectángulo_34793" data-name="Rectángulo 34793" width="16.584" height="17.818" fill="none"/>
    </clipPath>
    <clipPath id="clip-path-6">
      <rect id="Rectángulo_34794" data-name="Rectángulo 34794" width="23.285" height="15.078" fill="none"/>
    </clipPath>
    <clipPath id="clip-path-7">
      <rect id="Rectángulo_34797" data-name="Rectángulo 34797" width="32.029" height="95.804" fill="none"/>
    </clipPath>
  </defs>
  <g id="Grupo_211376" data-name="Grupo 211376" transform="translate(-285 -5117.509)">
    <path id="Trazado_116747" data-name="Trazado 116747" d="M21.263,172.322s-41.381-75.984-8.688-117C62.386-7.166,115.307,67.465,146.891,29.887,190.11-21.535,285.463-4.74,268.675,65.976c-11.774,49.6,45.87,40.042,19.2,107.515Z" transform="translate(285 5117.509)" fill="#e9e9e9"/>
    <g id="Grupo_82297" data-name="Grupo 82297" transform="translate(305 5117.509)">
      <g id="Grupo_82296" data-name="Grupo 82296" clip-path="url(#clip-path)">
        <g id="Grupo_82295" data-name="Grupo 82295" transform="translate(0 0)">
          <g id="Grupo_82294" data-name="Grupo 82294" clip-path="url(#clip-path)">
            <path id="Trazado_116748" data-name="Trazado 116748" d="M2567.987,1590.863h64.289a47.447,47.447,0,1,0-64.289,0" transform="translate(-2405.939 -1421.8)" fill="#ecf3fe"/>
            <path id="Trazado_116749" data-name="Trazado 116749" d="M3542.647,2527.01l-13.26-.106,5.079-19.3,3.412.027Z" transform="translate(-3326.494 -2363.451)" fill="#c4d7f2"/>
            <path id="Trazado_116750" data-name="Trazado 116750" d="M3517.622,2831.718l-14.651-.117a.865.865,0,0,1-.858-.872l.007-.821a.865.865,0,0,1,.872-.858l14.651.117a.865.865,0,0,1,.858.872l-.007.821a.865.865,0,0,1-.872.858" transform="translate(-3300.787 -2666.417)" fill="#c4d7f2"/>
            <path id="Trazado_116751" data-name="Trazado 116751" d="M3550.329,2725.218a16.871,16.871,0,0,1-10.383,2.3l-.608,2.311a19.321,19.321,0,0,0,11.586-2.2Z" transform="translate(-3335.873 -2568.554)" fill="#fff"/>
            <path id="Trazado_116752" data-name="Trazado 116752" d="M3572.291,2641.536l-.587-2.385a16.815,16.815,0,0,1-7.773,1.961l-.623,2.365a19.264,19.264,0,0,0,8.982-1.942" transform="translate(-3358.466 -2487.435)" fill="#fff"/>
            <path id="Trazado_116753" data-name="Trazado 116753" d="M3593.849,2552.27a16.741,16.741,0,0,1-5.1,1.458l-.644,2.446a19.215,19.215,0,0,0,6.321-1.543Z" transform="translate(-3381.84 -2405.548)" fill="#fff"/>
            <path id="Trazado_116754" data-name="Trazado 116754" d="M1237.332,2399.218h-60v-1.053h60a2.77,2.77,0,0,0,2.766-2.766v-13.208h1.053V2395.4a3.823,3.823,0,0,1-3.819,3.819" transform="translate(-1109.65 -2245.246)" fill="#fff"/>
            <path id="Trazado_116755" data-name="Trazado 116755" d="M256.474,632.6H216.658q-.65.519-1.292,1.053h41.108a2.762,2.762,0,0,1,2.759,2.761v22.946a2.763,2.763,0,0,1-2.759,2.761H192.425q-.274.524-.537,1.053h64.586a3.817,3.817,0,0,0,3.812-3.814V636.415a3.817,3.817,0,0,0-3.812-3.814" transform="translate(-180.857 -596.235)" fill="#fff"/>
            <path id="Trazado_116761" data-name="Trazado 116761" d="M47.313,826.029c-.177-2.415-.268-3.636-.446-6.048l3.322-3.478c-1.728-3.434-1.732-3.445-3.462-6.879l-4.771.6L40.183,808.7l-2.821-2.433-.108-4.81c-3.649-1.206-3.659-1.207-7.311-2.414l-2.951,3.8c-1.5.11-2.531.186-3.677.272l-.062,0-2.313.172-3.477-3.325c-.419.21-.786.4-1.115.563-.3.146-.558.279-.8.4-1.706.858-2.32,1.17-4.963,2.5l.6,4.771v0l-1.379,1.6-2.582,2.993-2.293.052-1.885.042-.633.014c-1.206,3.649-1.207,3.659-2.414,7.311l3.8,2.951c.177,2.415.268,3.636.445,6.051L.921,832.685l3.46,6.876,4.773-.6,4.594,3.962.108,4.81c3.649,1.206,3.659,1.207,7.311,2.414l2.951-3.8,6.048-.446,3.48,3.323c.3-.151.573-.29.824-.414l6.052-3.046-.6-4.773,3.962-4.594,4.81-.108c.286-.864.5-1.523.684-2.074.423-1.277.653-1.982,1.09-3.3.173-.522.376-1.144.639-1.935Zm-14.226,5.063a9.947,9.947,0,1,1-1.035-14.031,9.95,9.95,0,0,1,1.035,14.031" transform="translate(0 -753.104)" fill="#c4d7f2"/>
            <path id="Trazado_116762" data-name="Trazado 116762" d="M2906.189,746.91c-.177-2.415-.268-3.636-.446-6.048l3.322-3.478c-1.728-3.434-1.731-3.445-3.462-6.879l-4.771.6-1.773-1.529-2.821-2.433-.108-4.81c-3.649-1.206-3.659-1.207-7.312-2.414l-2.951,3.8c-1.5.11-2.531.186-3.677.272l-.062,0-2.312.172-3.478-3.325c-.419.21-.786.4-1.115.563-.3.146-.558.279-.8.4-1.706.858-2.32,1.17-4.963,2.5l.6,4.771v0l-1.379,1.6-2.582,2.993-2.293.052-1.885.042-.633.014c-1.206,3.649-1.208,3.659-2.414,7.311l3.8,2.951c.177,2.415.268,3.636.446,6.051l-3.322,3.478,3.46,6.876,4.773-.6,4.594,3.962.108,4.81c3.649,1.206,3.659,1.207,7.311,2.414l2.951-3.8,6.048-.446,3.48,3.323c.3-.151.572-.29.824-.414l6.052-3.046-.6-4.773,3.962-4.594,4.81-.108c.286-.864.5-1.523.684-2.074.423-1.277.654-1.982,1.091-3.3.173-.522.376-1.144.639-1.935Zm-14.226,5.063a9.947,9.947,0,1,1-1.035-14.031,9.95,9.95,0,0,1,1.035,14.031" transform="translate(-2694.53 -678.533)" fill="#c4d7f2"/>
            <path id="Trazado_116763" data-name="Trazado 116763" d="M201.854,2831.295c-66.841,0-121.027,2.4-121.027,5.364s54.186,5.364,121.027,5.364,121.027-2.4,121.027-5.364-54.186-5.364-121.027-5.364" transform="translate(-76.181 -2668.533)" fill="#d7e4f9"/>
            <g id="Grupo_82281" data-name="Grupo 82281" transform="translate(80.627 58.003)" opacity="0.18" style="mix-blend-mode: multiply;isolation: isolate">
              <g id="Grupo_82280" data-name="Grupo 82280">
                <g id="Grupo_82279" data-name="Grupo 82279" clip-path="url(#clip-path-3)">
                  <path id="Trazado_116764" data-name="Trazado 116764" d="M1528.23,1081.744h-113.08a4.269,4.269,0,0,1-4.109-3.639l-8.473-65.5a3.128,3.128,0,0,1,3.168-3.639h113.081a4.268,4.268,0,0,1,4.109,3.639l8.473,65.5a3.128,3.128,0,0,1-3.168,3.639" transform="translate(-1402.537 -1008.965)" fill="#003889"/>
                </g>
              </g>
            </g>
            <rect id="Rectángulo_34788" data-name="Rectángulo 34788" width="35.303" height="27.935" transform="translate(141.044 136.524)" fill="#73cede"/>
            <rect id="Rectángulo_34789" data-name="Rectángulo 34789" width="51.412" height="3.12" transform="translate(133.503 162.898)" fill="#73cede"/>
            <path id="Trazado_116765" data-name="Trazado 116765" d="M2488.808,2374.877v15.26l-35.3-5.282v-9.978Z" transform="translate(-2312.461 -2238.353)" fill="#3496a7"/>
            <path id="Trazado_116766" data-name="Trazado 116766" d="M1731.286,1054.487H1604.52a3.334,3.334,0,0,1-3.334-3.334V971.007a3.334,3.334,0,0,1,3.334-3.334h126.766a3.334,3.334,0,0,1,3.334,3.334v80.146a3.334,3.334,0,0,1-3.334,3.334" transform="translate(-1509.139 -912.044)" fill="#73cede"/>
            <path id="Trazado_116767" data-name="Trazado 116767" d="M1820.262,1134.905H1703.128a2.432,2.432,0,0,1-2.429-2.429v-67.994a2.432,2.432,0,0,1,2.429-2.429h117.134a2.432,2.432,0,0,1,2.429,2.429v67.994a2.432,2.432,0,0,1-2.429,2.429M1703.128,1062.8a1.688,1.688,0,0,0-1.686,1.686v67.994a1.688,1.688,0,0,0,1.686,1.686h117.134a1.688,1.688,0,0,0,1.686-1.686v-67.994a1.688,1.688,0,0,0-1.686-1.686Z" transform="translate(-1602.931 -1000.999)" fill="#fff"/>
            <path id="Trazado_116768" data-name="Trazado 116768" d="M2670.05,2384.867h-9.064a1.337,1.337,0,0,1,0-2.675h9.064a1.337,1.337,0,0,1,0,2.675" transform="translate(-2506.754 -2245.247)" fill="#fff"/>
            <g id="Grupo_82284" data-name="Grupo 82284" transform="translate(93.196 54.932)" opacity="0.18" style="mix-blend-mode: multiply;isolation: isolate">
              <g id="Grupo_82283" data-name="Grupo 82283">
                <g id="Grupo_82282" data-name="Grupo 82282" clip-path="url(#clip-path-4)">
                  <path id="Trazado_116769" data-name="Trazado 116769" d="M1737.737,1031.515l-113.035-3.2a3.638,3.638,0,0,1-3.534-3.74l1.853-65.476a3.639,3.639,0,0,1,3.74-3.534l113.035,3.2a3.638,3.638,0,0,1,3.534,3.74l-1.853,65.476a3.639,3.639,0,0,1-3.74,3.534" transform="translate(-1621.167 -955.564)" fill="#003889"/>
                </g>
              </g>
            </g>
            <path id="Trazado_116770" data-name="Trazado 116770" d="M1628.671,990.675H1515.591a3.639,3.639,0,0,1-3.638-3.639v-65.5a3.639,3.639,0,0,1,3.638-3.639h113.081a3.639,3.639,0,0,1,3.639,3.639v65.5a3.639,3.639,0,0,1-3.639,3.639" transform="translate(-1425.035 -865.129)" fill="#fff"/>
            <path id="Trazado_116771" data-name="Trazado 116771" d="M2268.575,1152.815c-.368-1.687-.554-2.539-.922-4.224l2-2.789c-1.565-2.25-1.568-2.258-3.135-4.508l-3.307.9-1.4-.9-2.236-1.434-.56-3.384-5.4-.969-1.7,2.977-2.568.562-.043.009-1.615.354-2.789-2c-.275.19-.515.359-.73.51-.194.133-.366.253-.524.363-1.118.777-1.52,1.059-3.252,2.263l.9,3.307v0l-.813,1.267-1.521,2.372-1.614.267-1.326.219-.445.074c-.484,2.7-.484,2.7-.969,5.4l2.977,1.7c.368,1.687.554,2.539.922,4.226l-2,2.789,3.133,4.506,3.309-.9,3.641,2.335.56,3.385,5.4.969,1.7-2.977,4.224-.922,2.791,2c.2-.136.375-.262.541-.375l3.966-2.758-.9-3.309,2.335-3.641,3.385-.56c.115-.639.2-1.125.274-1.532.17-.944.262-1.464.438-2.441.07-.386.151-.845.257-1.43Zm-9.532,5a7.092,7.092,0,1,1-2.141-9.8,7.095,7.095,0,0,1,2.141,9.8" transform="translate(-2106.135 -1070.231)" fill="#ecf3fe"/>
            <path id="Trazado_116772" data-name="Trazado 116772" d="M2610.236,1575.08c-.165-.755-.248-1.137-.413-1.892l.894-1.249c-.7-1.008-.7-1.011-1.4-2.019l-1.481.4-.629-.4-1-.642-.251-1.516-2.42-.434-.762,1.333-1.15.252-.02,0-.723.158-1.249-.895-.327.228-.234.162-1.457,1.014.4,1.481h0l-.364.567-.682,1.063-.723.12-.594.1-.2.033c-.217,1.208-.217,1.211-.434,2.42l1.333.762.413,1.893-.894,1.249,1.4,2.018,1.482-.4,1.631,1.046.251,1.516,2.42.434.762-1.333,1.892-.413,1.25.894.242-.168,1.776-1.235-.4-1.482,1.046-1.631,1.516-.251c.052-.286.09-.5.123-.687.076-.423.117-.656.2-1.093.031-.173.067-.379.115-.641Zm-4.27,2.241a3.177,3.177,0,1,1-.959-4.389,3.178,3.178,0,0,1,.959,4.389" transform="translate(-2445.837 -1477.228)" fill="#c4d7f2"/>
            <rect id="Rectángulo_34791" data-name="Rectángulo 34791" width="70.273" height="3.002" transform="translate(111.959 115.539)" fill="#ecf3fe"/>
            <rect id="Rectángulo_34792" data-name="Rectángulo 34792" width="54.648" height="3.002" transform="translate(111.959 115.539)" fill="#ffc62e"/>
            <path id="Trazado_116773" data-name="Trazado 116773" d="M229.609,2057.7a2.646,2.646,0,0,1,2.45,2.84l-.386,5.131a6.422,6.422,0,0,0,3.571-8.881,6.506,6.506,0,0,0-2.161-2.485l.959-12.841,1.2-16.133.011-.132a6.406,6.406,0,0,0,2.325-9.687,6.043,6.043,0,0,0-1-1.054,6.444,6.444,0,0,0-1.028-.707l-.38,5.132a2.655,2.655,0,1,1-5.3-.393l.38-5.132a6.438,6.438,0,0,0-4.205,5.568,6.306,6.306,0,0,0,.253,2.315,6.972,6.972,0,0,0,.386,1.007,6.6,6.6,0,0,0,2.169,2.48l-.9,12.078-1.254,16.845-.012.183c-.014,0-.023.013-.036.016a6.413,6.413,0,0,0-2.81,8.9l.009.015c.026.046.052.092.08.131a6.521,6.521,0,0,0,2.458,2.386l.386-5.131a2.649,2.649,0,0,1,2.841-2.449" transform="translate(-210.203 -1897.621)" fill="#fff"/>
            <path id="Trazado_116774" data-name="Trazado 116774" d="M202.015,2057.5a2.646,2.646,0,0,1,2.36,2.915l-.545,5.116a6.422,6.422,0,0,0,3.844-8.767,6.506,6.506,0,0,0-2.083-2.55l1.357-12.805,1.7-16.088.015-.132a6.406,6.406,0,0,0,2.624-9.61,6.044,6.044,0,0,0-.971-1.085,6.441,6.441,0,0,0-1.006-.739l-.539,5.118a2.655,2.655,0,1,1-5.281-.557l.539-5.118a6.438,6.438,0,0,0-4.376,5.435,6.3,6.3,0,0,0,.181,2.321,6.952,6.952,0,0,0,.355,1.018,6.6,6.6,0,0,0,2.091,2.546L201,2036.563l-1.776,16.8-.017.183c-.014,0-.023.012-.037.014a6.413,6.413,0,0,0-3.084,8.806l.008.015c.025.047.049.093.076.134a6.519,6.519,0,0,0,2.383,2.461l.545-5.116a2.649,2.649,0,0,1,2.915-2.36" transform="translate(-184.139 -1897.466)" fill="#c4d7f2"/>
            <g id="Grupo_82287" data-name="Grupo 82287" transform="translate(109.652 150.218)" opacity="0.18" style="mix-blend-mode: multiply;isolation: isolate">
              <g id="Grupo_82286" data-name="Grupo 82286">
                <g id="Grupo_82285" data-name="Grupo 82285" clip-path="url(#clip-path-5)">
                  <path id="Trazado_116775" data-name="Trazado 116775" d="M1922.788,2628.745h-.9l-1.669-3.088-1.1-2.041-1.169-2.162-1.087-2.012-1.2-2.223h0l-.746-1.38-1.489-2.754h-3.412l-.211,3.41-.128,2.072-.16,2.585-.124,2-.154,2.478-.121,1.958-.071,1.153h-.9c-.478,0-.787.328-.69.732l.166.694a1.082,1.082,0,0,0,1.04.731H1923.3c.478,0,.787-.327.69-.731l-.166-.694a1.082,1.082,0,0,0-1.04-.732" transform="translate(-1907.428 -2613.084)" fill="#003889"/>
                </g>
              </g>
            </g>
            <path id="Trazado_116776" data-name="Trazado 116776" d="M1965.2,2575.75h-13.26l4.924-19.339h3.412Z" transform="translate(-1839.727 -2409.451)" fill="#f4b545"/>
            <path id="Trazado_116777" data-name="Trazado 116777" d="M1940.3,2881.2h-14.652a.865.865,0,0,1-.865-.865v-.821a.865.865,0,0,1,.865-.865H1940.3a.865.865,0,0,1,.865.865v.821a.865.865,0,0,1-.865.865" transform="translate(-1814.133 -2713.164)" fill="#e59d29"/>
            <path id="Trazado_116778" data-name="Trazado 116778" d="M1972.539,2773.115a16.87,16.87,0,0,1-10.364,2.387l-.59,2.316a19.319,19.319,0,0,0,11.568-2.289Z" transform="translate(-1848.82 -2613.698)" fill="#fff"/>
            <path id="Trazado_116779" data-name="Trazado 116779" d="M1993.792,2689.6l-.606-2.38a16.811,16.811,0,0,1-7.757,2.023l-.6,2.371a19.267,19.267,0,0,0,8.966-2.014" transform="translate(-1870.725 -2532.74)" fill="#fff"/>
            <path id="Trazado_116780" data-name="Trazado 116780" d="M2014.581,2600.513a16.751,16.751,0,0,1-5.085,1.5l-.624,2.451a19.221,19.221,0,0,0,6.309-1.594Z" transform="translate(-1893.389 -2451.018)" fill="#fff"/>
            <g id="Grupo_82290" data-name="Grupo 82290" transform="translate(182.55 154.48)" opacity="0.18" style="mix-blend-mode: multiply;isolation: isolate">
              <g id="Grupo_82289" data-name="Grupo 82289">
                <g id="Grupo_82288" data-name="Grupo 82288" clip-path="url(#clip-path-6)">
                  <path id="Trazado_116781" data-name="Trazado 116781" d="M3198.8,2699.365l-2.885-2.184-1.753-1.327-2.187-1.656h0l-1.7-1.284-2.1-1.587-1.656-1.254-.976-.738.506-.777a.649.649,0,0,0-.258-1.023l-.7-.265a1.1,1.1,0,0,0-1.227.465l-8.209,12.6a.649.649,0,0,0,.258,1.023l.7.265a1.1,1.1,0,0,0,1.227-.465l.506-.776,3.655.378,2.415.25,2.559.265,2.381.247,2.63.272h0l1.874.194,3.02.313Z" transform="translate(-3175.52 -2687.22)" fill="#003889"/>
                </g>
              </g>
            </g>
            <path id="Trazado_116782" data-name="Trazado 116782" d="M3191.784,2716.389l4.658-12.415,16.376,11.4-1.2,3.194Z" transform="translate(-3008.299 -2548.531)" fill="#f4b545"/>
            <path id="Trazado_116783" data-name="Trazado 116783" d="M3158.332,2686.539l5.147-13.718a.865.865,0,0,1,1.114-.506l.769.289a.865.865,0,0,1,.506,1.114l-5.147,13.718a.865.865,0,0,1-1.114.506l-.769-.289a.865.865,0,0,1-.506-1.114" transform="translate(-2976.718 -2518.639)" fill="#e59d29"/>
            <path id="Trazado_116784" data-name="Trazado 116784" d="M3270.5,2738.225a16.87,16.87,0,0,1,1.406-10.542l-1.961-1.366a19.32,19.32,0,0,0-1.921,11.635Z" transform="translate(-3079.961 -2569.59)" fill="#fff"/>
            <path id="Trazado_116785" data-name="Trazado 116785" d="M3358.5,2789.243l2.441.269a16.806,16.806,0,0,1,.831-7.973l-2.007-1.4a19.265,19.265,0,0,0-1.265,9.1" transform="translate(-3165.338 -2620.32)" fill="#fff"/>
            <path id="Trazado_116786" data-name="Trazado 116786" d="M3451.434,2842.558a16.748,16.748,0,0,1,.383-5.287l-2.076-1.445a19.22,19.22,0,0,0-.724,6.466Z" transform="translate(-3250.713 -2672.804)" fill="#fff"/>
            <path id="Trazado_116787" data-name="Trazado 116787" d="M355.357,1455.751l-14.706-68.588a5.912,5.912,0,0,0-1.926-3.244h0a5.934,5.934,0,0,0-5.127-1.32l-35.143,7.535a5.958,5.958,0,0,0-4.619,4.878c-.028.169-.048.339-.061.51a5.922,5.922,0,0,0,.117,1.667l14.706,68.588a5.941,5.941,0,0,0,7.055,4.564l35.143-7.535a5.955,5.955,0,0,0,4.564-7.055" transform="translate(-276.87 -1302.994)" fill="#73cede"/>
            <path id="Trazado_116788" data-name="Trazado 116788" d="M521.682,1435.568l7.9,69.7a5.956,5.956,0,0,1-5.235,6.573l-35.713,4.047a5.941,5.941,0,0,1-6.573-5.235l-7.9-69.7a5.919,5.919,0,0,1,.048-1.67c.03-.17.066-.337.111-.5a5.958,5.958,0,0,1,5.076-4.4l35.713-4.047a5.934,5.934,0,0,1,4.973,1.817h0a5.912,5.912,0,0,1,1.6,3.418" transform="translate(-446.868 -1348.073)" fill="#fff"/>
            <path id="Trazado_116789" data-name="Trazado 116789" d="M693.763,1537.427l-22.978,2.6a1.132,1.132,0,1,1-.255-2.25l22.978-2.6a1.132,1.132,0,1,1,.255,2.25" transform="translate(-631.036 -1446.918)" fill="#73cede"/>
            <path id="Trazado_116790" data-name="Trazado 116790" d="M700.1,1832.383c-.48-1.412-.723-2.126-1.2-3.536l1.442-2.588c-1.562-1.779-1.566-1.785-3.13-3.564l-2.751,1.1-1.294-.636-2.059-1.013-.81-2.851-4.732-.306-1.171,2.721-2.15.732-.036.012-1.352.461-2.588-1.443c-.217.19-.407.358-.577.509-.154.133-.29.253-.415.362L674.7,1824.6l1.1,2.751h0l-.575,1.167-1.075,2.184-1.359.386-1.117.317-.375.106c-.154,2.363-.153,2.368-.306,4.732l2.721,1.171,1.2,3.538-1.442,2.588,3.128,3.563,2.753-1.1,3.353,1.65.81,2.851,4.732.306,1.171-2.721,3.536-1.2,2.589,1.442c.155-.136.3-.261.427-.375l3.136-2.753-1.1-2.753,1.65-3.353,2.851-.81c.036-.56.063-.985.087-1.342.055-.827.082-1.282.138-2.138.023-.338.047-.74.081-1.252Zm-7.7,5.222a6.127,6.127,0,1,1-2.791-8.2,6.128,6.128,0,0,1,2.791,8.2" transform="translate(-632.418 -1714.417)" fill="#ecf3fe"/>
            <path id="Trazado_116791" data-name="Trazado 116791" d="M1018.631,2178.343l-.539-1.584.646-1.159-1.4-1.6-1.232.491-.579-.285-.922-.454-.363-1.277-2.12-.137-.524,1.219-.963.328-.016.005-.605.206-1.159-.646-.259.228-.186.162-1.152,1.012.491,1.232h0l-.257.522-.482.979-.609.173-.5.142-.168.048c-.069,1.058-.068,1.061-.137,2.12l1.219.524.539,1.584-.646,1.159,1.4,1.6,1.233-.491,1.5.739.363,1.277,2.12.137.524-1.219,1.584-.539,1.16.646.191-.168,1.4-1.233-.491-1.233.739-1.5,1.277-.363c.016-.251.028-.441.039-.6.024-.37.037-.574.062-.958.01-.151.021-.331.036-.561Zm-3.447,2.339a2.744,2.744,0,1,1-1.25-3.674,2.745,2.745,0,0,1,1.25,3.674" transform="translate(-947.787 -2047.46)" fill="#c4d7f2"/>
            <rect id="Rectángulo_34795" data-name="Rectángulo 34795" width="36.444" height="3.002" transform="matrix(0.994, -0.113, 0.113, 0.994, 39.514, 150.184)" fill="#ecf3fe"/>
            <rect id="Rectángulo_34796" data-name="Rectángulo 34796" width="28.341" height="3.002" transform="matrix(0.994, -0.113, 0.113, 0.994, 39.514, 150.184)" fill="#ffc62e"/>
            <g id="Grupo_82293" data-name="Grupo 82293" transform="translate(66.297 72.144)" opacity="0.18" style="mix-blend-mode: multiply;isolation: isolate">
              <g id="Grupo_82292" data-name="Grupo 82292">
                <g id="Grupo_82291" data-name="Grupo 82291" clip-path="url(#clip-path-7)">
                  <path id="Trazado_116792" data-name="Trazado 116792" d="M1182.831,1285.111a2.193,2.193,0,0,0-1-.616s-5.314-9.64-10.751-12.156a4.791,4.791,0,0,0-.609-.455,11.291,11.291,0,0,1-.243-2.179c1.3-1.4,1.594-4.131.849-6.9-.072-.269-.153-.53-.241-.784a3.335,3.335,0,0,0,2.709-3.04,4.107,4.107,0,0,0-3.834-4,3.908,3.908,0,0,0-3.421,1.24,2.419,2.419,0,0,0-1.25-.241,2.331,2.331,0,0,0-2.1,1.952,2.965,2.965,0,0,0-2.171,1.713,3.206,3.206,0,0,0-.113,2.8,1.155,1.155,0,0,0-.117.085c-1.079.9.4,3.641,2.143,3.8a9.522,9.522,0,0,0,.509,1l-.734,3.649h0l-.012,0-4.184.575.466.706h0c-.281.139-.567.294-.851.463a8.8,8.8,0,0,0-4.195,5.052c-1.61,5.568,1.866,11.463,1.708,12.14a3.107,3.107,0,0,0,.332,1.965.247.247,0,0,0,.078.066,1.029,1.029,0,0,1,.707.861,3.64,3.64,0,0,1,.091.5h0c.014.132.026.279.034.441a1.953,1.953,0,0,0,1.766,1.781l.009.975.009,1.031h0l.022,1.674c-.627.064-1.058.107-1.118.111l-.718,1.894,1.844-.113.021.346.587,44.541a8.737,8.737,0,0,1-.873,2.667,3.2,3.2,0,0,0-.225.375c-.4.8-.262,1.729,3.164,1.716,3.94-.017,5.586.148,4.792-1.335l-.034-.062a5.629,5.629,0,0,1-.972-2.96l3.723-29.089,2.072,20.3.342,8.357c-1,0-.4,1.768-.372,2.5a3.611,3.611,0,0,0,.041.423,1.311,1.311,0,0,0,1.14,1.264c.813.1,11.989.328,12.381-.2a.927.927,0,0,0,.09-.738,2.076,2.076,0,0,0-1.531-1.56,6.763,6.763,0,0,1-1.555-.725,18.591,18.591,0,0,1-3.789-3.116.636.636,0,0,0-.1-.083c.91-16.986.658-31.747.2-41.325h0l0-.042q-.026-.54-.053-1.057l0-.085,1.107.188-.891-2.05-.323-.055c-.136-2.288-.28-4.161-.412-5.558h0c-.071-.749-.137-1.359-.2-1.825-.032-.251-.062-.471-.089-.664l2.794,1.642h0c1.646,1.1,3.277,1.257,4.407.392a3.131,3.131,0,0,0,.821-.97h0a4.81,4.81,0,0,0,.477-1.262c.716-3.01-2.344-5.953-2.344-5.953" transform="translate(-1153.254 -1254.958)" fill="#003889"/>
                </g>
              </g>
            </g>
            <path id="Trazado_116793" data-name="Trazado 116793" d="M1400.218,1456.541s1.926,9.812,6.235,9.205,4.189-2.454,4.189-2.454a26.307,26.307,0,0,1-2.211-4.58,11.8,11.8,0,0,1-.349-3.678l-5.274-2.553-1.35-.654Z" transform="translate(-1319.724 -1368.366)" fill="#fdc8aa"/>
            <path id="Trazado_116794" data-name="Trazado 116794" d="M1437.558,1465.084c1.643,3.893,4.623,4.336,5.813,4.349a11.793,11.793,0,0,1-.349-3.678l-5.274-2.553c-.5.248-.637.822-.19,1.882" transform="translate(-1354.663 -1379.087)" fill="#efa37d"/>
            <path id="Trazado_116795" data-name="Trazado 116795" d="M1260.229,1553.907a5.127,5.127,0,0,1-.556,1.262c-1.154,1.853-3.244,1.979-5.263.578l-.048-.823-.086-1.452-.946-.119-1.7-.215s.026.246.065.735c.02.24.043.538.066.9.032.465.06,1.076.084,1.825a385.883,385.883,0,0,1-3.052,52.733l-6.132.365.2-9.235-.81-20.3-5.615,29.532h-5.785l2.415-49.3.106-2.007a1.808,1.808,0,0,1-1.655-1.781c0-.162,0-.309-.006-.441-.064-1.18-.48-1.252-.713-1.365a.222.222,0,0,1-.074-.066,3.026,3.026,0,0,1-.21-1.965c.2-.677-2.91-6.572-.953-12.14a9.609,9.609,0,0,1,4.509-5.052c.3-.169.59-.323.88-.463.376-.182.743-.34,1.092-.477a15.4,15.4,0,0,1,2.706-.8l.013,0h0c.039.092,2.574,6.006,8.09,7.7h0c.022-.089,1.049-4.126.211-6.458,5.376,2.333,10.234,12.266,10.234,12.266a2.028,2.028,0,0,1,.959.616s2.876,2.943,1.973,5.953" transform="translate(-1158.266 -1445.658)" fill="#f4b545"/>
            <path id="Trazado_116796" data-name="Trazado 116796" d="M1319.491,1851.273s-12.365,8.439-18.319,7.576l.107-2.007a10.358,10.358,0,0,0,2.684-.265c.69-.295,13.99-6.087,13.99-6.087Z" transform="translate(-1226.372 -1744.111)" fill="#e59d29"/>
            <path id="Trazado_116797" data-name="Trazado 116797" d="M1641.383,1744.819s.624,2.3-.931,2.525-1.973-.54-1.973-.54Z" transform="translate(-1544.288 -1644.515)" fill="#e59d29"/>
            <path id="Trazado_116798" data-name="Trazado 116798" d="M1373.445,1747.415l-.886-2.558,3.846,3.21Z" transform="translate(-1293.655 -1644.55)" fill="#e59d29"/>
            <path id="Trazado_116799" data-name="Trazado 116799" d="M1343.255,1711.781l-3.27,3.388-.97,1.005s-.594.408-1.582,1.009c-2.713,1.651-8.4,4.754-12.985,4.859a9.479,9.479,0,0,1-1.06-.033s-.74-2.078,4.513-7.271l0,0,5.491-1.1.428-.086,1.163-.771,3.049-2.02.282-.187s.126-.166.344-.42c.978-1.146,3.791-4.095,5.145-1.878,1.656,2.709-.551,3.507-.551,3.507" transform="translate(-1247.278 -1609.313)" fill="#fdc8aa"/>
            <path id="Trazado_116800" data-name="Trazado 116800" d="M1265.446,1847.922s-3.439,2.231-4.223,4.146c-.063-1.18-.479-1.252-.712-1.365a.224.224,0,0,1-.074-.066l0,0a26.041,26.041,0,0,0,4.692-2.849Z" transform="translate(-1187.978 -1741.559)" fill="#e59d29"/>
            <path id="Trazado_116801" data-name="Trazado 116801" d="M1583.97,1755.752l-3.588.361-1.632-1.383.282-.187s.126-.166.344-.42Z" transform="translate(-1487.993 -1653.284)" fill="#efa37d"/>
            <path id="Trazado_116802" data-name="Trazado 116802" d="M1459.484,2175.077l-1.18,29.761-.81-20.3c-.017-.635,1.99-9.464,1.99-9.464" transform="translate(-1373.708 -2050.039)" fill="#e59d29"/>
            <path id="Trazado_116803" data-name="Trazado 116803" d="M1398.952,1302.494c.759,3.668,3.492,6.2,6.1,5.663s3.673-4.137,2.913-7.805-3.051-6.019-5.663-5.478-4.114,3.953-3.355,7.621" transform="translate(-1318.345 -1220.362)" fill="#fdc8aa"/>
            <path id="Trazado_116804" data-name="Trazado 116804" d="M1375.563,1311.868c1.047.586,2.542-.093,3.34-1.517s.6-3.054-.45-3.64-2.542.093-3.34,1.517-.6,3.054.45,3.64" transform="translate(-1295.603 -1231.393)" fill="#1f3a6f"/>
            <path id="Trazado_116805" data-name="Trazado 116805" d="M1467.476,1258.108a4.025,4.025,0,1,0,4.366-3.124,3.808,3.808,0,0,0-4.366,3.124" transform="translate(-1383.097 -1182.814)" fill="#1f3a6f"/>
            <path id="Trazado_116806" data-name="Trazado 116806" d="M1421.429,1275.417a2.44,2.44,0,0,0,2.6,2.345,2.56,2.56,0,0,0,2.293-2.734,2.441,2.441,0,0,0-2.6-2.345,2.56,2.56,0,0,0-2.293,2.734" transform="translate(-1339.711 -1199.513)" fill="#1f3a6f"/>
            <path id="Trazado_116807" data-name="Trazado 116807" d="M1371.709,1383.662s-1.487-1.976-2.675-1.038.307,3.907,2.154,3.809Z" transform="translate(-1289.933 -1302.903)" fill="#fdc8aa"/>
            <path id="Trazado_116808" data-name="Trazado 116808" d="M1385.063,1402.522s-1.218-.659-1.328,0a1.916,1.916,0,0,0,.94,1.593c.224.012-.524-1.047-.4-1.134s.705.19.79-.464" transform="translate(-1304.18 -1321.62)" fill="#efa37d"/>
            <path id="Trazado_116809" data-name="Trazado 116809" d="M1543.76,1616.7l.615,1.342-1.43-.4-1.973,1.5.769-2.966Z" transform="translate(-1452.387 -1523.266)" fill="#e59d29"/>
            <path id="Trazado_116810" data-name="Trazado 116810" d="M1571.564,1862.888c-.039-.49-.065-.735-.065-.735l-.182-.458h-1.2l-1.827.848,3.428,3.065c-.024-.749-.052-1.359-.084-1.825-.023-.357-.046-.655-.066-.895" transform="translate(-1478.13 -1754.672)" fill="#e59d29"/>
            <path id="Trazado_116811" data-name="Trazado 116811" d="M1538.7,1549.386s.081,6.873.131,6.806,1.772-2.291,1.772-2.291a12.222,12.222,0,0,0,1.572.117c.017-.067-1.753-3.528-3.475-4.632" transform="translate(-1450.249 -1460.317)" fill="#fff"/>
            <path id="Trazado_116812" data-name="Trazado 116812" d="M1504.63,1802.2l-.97,1.005s-.594.408-1.582,1.009l-4.038-3.549.428-.086,1.163-.771c1.239.569,3.5,1.652,5,2.391" transform="translate(-1411.922 -1696.342)" fill="#efa37d"/>
            <path id="Trazado_116813" data-name="Trazado 116813" d="M1408.047,1750.45a3.539,3.539,0,0,1-1.965,2.326,4.015,4.015,0,0,1-1.748.35l-4.8-2.928-.031-.018-4.768-2.907-2.214.444-3.705.742-.836-2.558s.045-.048.131-.131c.609-.591,3.286-2.971,6.472-2.443,3.631.6,11.122,2.574,11.122,2.574s3.211,1.673,2.342,4.549" transform="translate(-1308.191 -1643.036)" fill="#fdc8aa"/>
            <path id="Trazado_116814" data-name="Trazado 116814" d="M1392.522,1789.014l-3.705.742-.836-2.558s.045-.048.131-.131l1.037,2.2Z" transform="translate(-1308.191 -1684.334)" fill="#efa37d"/>
            <path id="Trazado_116815" data-name="Trazado 116815" d="M1676.936,1900.965c-1.154,1.853-3.244,1.979-5.263.578l-.048-.823c1.91.62,3.97.961,5.312.245" transform="translate(-1575.528 -1791.454)" fill="#e59d29"/>
            <path id="Trazado_116816" data-name="Trazado 116816" d="M1324.457,1841.214a9.416,9.416,0,0,1-1.059-.033s-.74-2.078,4.512-7.271c-.111.125-3.892,4.386-3.452,7.3" transform="translate(-1247.286 -1728.484)" fill="#efa37d"/>
            <path id="Trazado_116817" data-name="Trazado 116817" d="M1595.516,1866.681a4.013,4.013,0,0,1-1.748.35l-4.8-2.928a25.3,25.3,0,0,0,6.548,2.577" transform="translate(-1497.624 -1756.943)" fill="#efa37d"/>
            <path id="Trazado_116818" data-name="Trazado 116818" d="M1345.839,1541.533c-2.16.808-5.958-1.561-5.958-1.561l-2.715,1.955-3.227-6.812c.376-.182.742-.34,1.092-.477a15.4,15.4,0,0,1,2.706-.8l.013,0h0c.039.092,2.574,6.006,8.09,7.7" transform="translate(-1257.255 -1445.658)" fill="#e59d29"/>
            <path id="Trazado_116819" data-name="Trazado 116819" d="M1338.924,1541.524c-2.148.2-5.961-2.107-5.961-2.107l-2.676,1.154-3.265-5.464-.422-.706,4.22-.575.012,0h0c.039.092,2.574,6.007,8.091,7.7" transform="translate(-1250.338 -1445.649)" fill="#fff"/>
            <path id="Trazado_116820" data-name="Trazado 116820" d="M1266.477,2013.989c.267-.016,7.713-.79,7.713-.79l-.72,2.205-7.83.479Z" transform="translate(-1192.884 -1897.467)" fill="#f4b545"/>
            <path id="Trazado_116821" data-name="Trazado 116821" d="M1527.285,2008.811l6.171,1.069.764,2.05-6.7-1.155Z" transform="translate(-1439.487 -1893.331)" fill="#f4b545"/>
            <path id="Trazado_116822" data-name="Trazado 116822" d="M1304.545,2013.2l-.719,2.205-5.978.365v.867l6.982-.176Z" transform="translate(-1223.239 -1897.466)" fill="#e59d29"/>
            <path id="Trazado_116823" data-name="Trazado 116823" d="M1525.932,2008.811l-.083,2.921,5.908,1.2.014-1.185-5.61-.966Z" transform="translate(-1438.133 -1893.331)" fill="#e59d29"/>
            <path id="Trazado_116824" data-name="Trazado 116824" d="M1457.6,2802.106a3.54,3.54,0,0,0,.014.423c.07.7.384,1.18,1.061,1.264.807.1,11.969.328,12.394-.2a.953.953,0,0,0,.136-.738,1.91,1.91,0,0,0-1.434-1.56,6.3,6.3,0,0,1-1.51-.725,16.951,16.951,0,0,1-3.6-3.116c-.585-.635-2.065.363-2.6,1.418a6.969,6.969,0,0,1-.495.854c-.717.992-2.308.3-2.308.3-2.421-1.42-1.637,1.158-1.658,2.084" transform="translate(-1373.708 -2636.449)" fill="#1f3a6f"/>
            <path id="Trazado_116825" data-name="Trazado 116825" d="M1237.4,2807.654c3.941-.018,5.577.147,4.875-1.335l-.03-.062a5.4,5.4,0,0,1-.783-3.2,3.446,3.446,0,0,1,.027-.35,1.524,1.524,0,0,0-1.281-1.714s-3.242-1.007-4.11.775c-.132.269-.241.521-.332.758-.523,1.33-.544,2.191-1.176,3.037a3.512,3.512,0,0,0-.248.375c-.448.8-.37,1.729,3.057,1.716" transform="translate(-1163.201 -2639.705)" fill="#1f3a6f"/>
            <path id="Trazado_116826" data-name="Trazado 116826" d="M989.8,20A20.009,20.009,0,1,1,969.786,0,20.009,20.009,0,0,1,989.8,20" transform="translate(-895.177 0.005)" fill="#fff"/>
            <path id="Trazado_116828" data-name="Trazado 116828" d="M1918.443,318.413v9.621a1.582,1.582,0,0,1-1.58,1.58h-30.775a1.582,1.582,0,0,1-1.58-1.58V304.947c-.351-.063-.7-.125-1.053-.181v23.268a2.636,2.636,0,0,0,2.633,2.633h30.775a2.636,2.636,0,0,0,2.633-2.633v-8.922q-.524-.355-1.053-.7" transform="translate(-1775.182 -287.246)" fill="#fff"/>
            <path id="Trazado_116829" data-name="Trazado 116829" d="M1846.242,479.4a3.013,3.013,0,1,1-3.013-3.013,3.013,3.013,0,0,1,3.013,3.013" transform="translate(-1734.429 -448.997)" fill="#fff"/>
            <path id="Trazado_116830" data-name="Trazado 116830" d="M2240.62,696.751a3.013,3.013,0,1,1-3.013-3.013,3.013,3.013,0,0,1,3.013,3.013" transform="translate(-2106.135 -653.857)" fill="#fff"/>
            <path id="Trazado_116831" data-name="Trazado 116831" d="M1326.177,834.15a3.013,3.013,0,1,1-3.013-3.013,3.013,3.013,0,0,1,3.013,3.013" transform="translate(-1244.261 -783.357)" fill="#fff"/>
            <path id="Trazado_116832" data-name="Trazado 116832" d="M1013.168,1105.895a3.013,3.013,0,1,1-3.013-3.013,3.013,3.013,0,0,1,3.013,3.013" transform="translate(-949.246 -1039.481)" fill="#fff"/>
            <path id="Trazado_116833" data-name="Trazado 116833" d="M1724.881,2627.536a2.542,2.542,0,1,1-2.542-2.542,2.542,2.542,0,0,1,2.542,2.542" transform="translate(-1620.932 -2474.092)" fill="#fff"/>
          </g>
        </g>
      </g>
    </g>
  </g>
</svg>
