<svg id="Grupo_92226" data-name="Grupo 92226" xmlns="http://www.w3.org/2000/svg" xmlns:xlink="http://www.w3.org/1999/xlink" width="22.575" height="22.581" viewBox="0 0 22.575 22.581">
  <defs>
    <clipPath id="clip-path">
      <rect id="Rectángulo_38508" data-name="Rectángulo 38508" width="22.575" height="22.581" fill="#73cede"/>
    </clipPath>
  </defs>
  <g id="Grupo_92225" data-name="Grupo 92225" clip-path="url(#clip-path)">
    <path id="Trazado_123813" data-name="Trazado 123813" d="M22.454,13.942q-.975-.855-1.949-1.711a.163.163,0,0,1-.063-.153,8.4,8.4,0,0,0,0-1.6.113.113,0,0,1,.036-.107c.085-.077.165-.159.253-.232.554-.459,1.084-.946,1.623-1.423.076-.066.171-.114.2-.22.049-.116-.021-.216-.046-.322a.9.9,0,0,0-.071-.24.167.167,0,0,0,0-.033,11.662,11.662,0,0,0-1.1-2.507.232.232,0,0,0-.229-.127c-.066.005-.133.006-.2.01l-2.48.158a.1.1,0,0,1-.1-.039,9.611,9.611,0,0,0-1.154-1.156.1.1,0,0,1-.042-.093c.01-.147.019-.3.029-.443.047-.731.093-1.462.142-2.192a.294.294,0,0,0-.175-.3c-.274-.153-.549-.3-.832-.438A10.519,10.519,0,0,0,14.865.2a.228.228,0,0,0-.134-.042L14.577.115,14.287.03,14.249.023a.185.185,0,0,0-.212.022,1.57,1.57,0,0,0-.3.32q-.755.849-1.5,1.7a.162.162,0,0,1-.151.067,8.25,8.25,0,0,0-1.585,0,.155.155,0,0,1-.144-.058C9.789,1.436,9.223.8,8.663.154A.326.326,0,0,0,8.286.028c-.375.112-.75.222-1.115.362a13.427,13.427,0,0,0-1.68.794.39.39,0,0,0-.218.432c.061.838.11,1.676.165,2.514a.13.13,0,0,1-.052.122A9.9,9.9,0,0,0,4.251,5.387a.118.118,0,0,1-.111.051c-.476-.032-.953-.06-1.429-.09L1.5,5.271a.255.255,0,0,0-.267.137c-.114.211-.234.419-.344.632A11.752,11.752,0,0,0,.025,8.3a.3.3,0,0,0,.1.345c.283.244.559.494.841.739.351.3.691.622,1.052.914a.236.236,0,0,1,.114.229,8.017,8.017,0,0,0,0,1.541.172.172,0,0,1-.059.164q-.826.722-1.646,1.45a2.3,2.3,0,0,0-.386.362.147.147,0,0,0-.018.183.432.432,0,0,0,.045.178.484.484,0,0,0,.041.16.089.089,0,0,0,.023.064l.068.245a12,12,0,0,0,1.019,2.277.28.28,0,0,0,.287.163q.276-.023.553-.041c.686-.042,1.373-.083,2.059-.127a.149.149,0,0,1,.141.058,9.364,9.364,0,0,0,1.132,1.131.108.108,0,0,1,.047.1c-.012.151-.019.3-.029.454q-.07,1.1-.142,2.192a.276.276,0,0,0,.159.279,14.435,14.435,0,0,0,1.759.858,6.046,6.046,0,0,0,.768.278l.132.043a.255.255,0,0,0,.178.038.21.21,0,0,0,.184-.1c.5-.6,1-1.2,1.489-1.817.137-.172.264-.283.489-.194,0,0,.007,0,.011,0a9.264,9.264,0,0,0,1.695-.037.155.155,0,0,1,.158.068c.089.122.192.233.286.35.444.548.9,1.088,1.346,1.631a.257.257,0,0,0,.264.1,8.941,8.941,0,0,0,1.266-.36,11.47,11.47,0,0,0,1.717-.869.25.25,0,0,0,.139-.245c-.01-.151-.017-.3-.027-.454q-.07-1.108-.142-2.215a.108.108,0,0,1,.049-.1,9.7,9.7,0,0,0,1.142-1.144.112.112,0,0,1,.1-.046l.731.046,1.927.125a.256.256,0,0,0,.254-.144,11.786,11.786,0,0,0,1.21-2.9.292.292,0,0,0-.1-.324m-4.768-2.168a6.527,6.527,0,0,1-.338,1.622,6.408,6.408,0,0,1-1.521,2.428,6.262,6.262,0,0,1-1.3,1.006,6.416,6.416,0,0,1-7.014-.36l-.155-.109a7.793,7.793,0,0,1-.954-.914.694.694,0,0,0-.153-.181c-.147-.22-.311-.429-.448-.657a6.412,6.412,0,0,1-.914-3.684,6.493,6.493,0,0,1,.427-1.96,6.41,6.41,0,0,1,8.863-3.4,6.725,6.725,0,0,1,1.046.661l.173.138a7.223,7.223,0,0,1,.952.978l.119.169A6.181,6.181,0,0,1,17.4,9.334a6.315,6.315,0,0,1,.288,2.439" transform="translate(0 0)" fill="#73cede"/>
    <path id="Trazado_123814" data-name="Trazado 123814" d="M145.632,89.911l-1.713-1.717a.381.381,0,0,0-.3-.135.4.4,0,0,0-.407.245.41.41,0,0,0,.085.472c.084.088.172.172.257.258q1.047,1.048,2.1,2.093c.063.062.055.087,0,.143q-1.164,1.159-2.324,2.321a.432.432,0,0,0-.147.266.42.42,0,0,0,.238.447.445.445,0,0,0,.5-.105q.456-.453.909-.909.874-.873,1.749-1.746a.437.437,0,0,0,0-.7q-.472-.468-.943-.938" transform="translate(-129.92 -79.904)" fill="#73cede"/>
    <path id="Trazado_123815" data-name="Trazado 123815" d="M65.326,93.336q-1.043-1.044-2.088-2.086c-.052-.052-.062-.077,0-.136q1.168-1.16,2.33-2.327a.425.425,0,1,0-.6-.6l-.2.2-2.492,2.494a.394.394,0,0,0-.12.3.4.4,0,0,0,.134.309c.191.19.383.379.574.57q1.059,1.063,2.118,2.127a.442.442,0,0,0,.627.007.435.435,0,0,0-.027-.608l-.25-.25" transform="translate(-56.396 -79.887)" fill="#73cede"/>
    <path id="Trazado_123816" data-name="Trazado 123816" d="M106.849,81.9a.43.43,0,0,0-.549.279q-.378,1-.761,1.994-.393,1.027-.789,2.052-.266.69-.532,1.38c-.142.368-.287.736-.421,1.107a.413.413,0,0,0,.382.586.42.42,0,0,0,.416-.3q.3-.8.606-1.593.506-1.32,1.015-2.639l.535-1.395c.118-.306.242-.611.351-.92a.417.417,0,0,0-.255-.549" transform="translate(-94.158 -74.301)" fill="#73cede"/>
  </g>
</svg>
