<svg xmlns="http://www.w3.org/2000/svg" width="39.25" height="26.065" viewBox="0 0 39.25 26.065">
  <path id="Trazado_132121" data-name="Trazado 132121" d="M38.1,92.9a1.15,1.15,0,0,0,1.15-1.15v-4.6A1.15,1.15,0,0,0,38.1,86H1.15A1.15,1.15,0,0,0,0,87.15v4.6A1.15,1.15,0,0,0,1.15,92.9a1.15,1.15,0,0,1,0,2.3A1.15,1.15,0,0,0,0,96.349v7.666a1.15,1.15,0,0,0,1.15,1.15H2.376v5.75a1.15,1.15,0,0,0,1.15,1.15h9.2a1.15,1.15,0,0,0,1.15-1.15v-5.75h2.3v5.75a1.15,1.15,0,0,0,1.15,1.15h18.4a1.15,1.15,0,0,0,1.15-1.15v-5.75H38.1a1.15,1.15,0,0,0,1.15-1.15V96.349A1.15,1.15,0,0,0,38.1,95.2,1.15,1.15,0,0,1,38.1,92.9ZM11.576,109.765h-6.9v-4.6h2.3v1.15a1.15,1.15,0,0,0,2.3,0v-1.15h2.3Zm23,0h-16.1v-4.6h2.3v1.15a1.15,1.15,0,0,0,2.3,0v-1.15h2.3v1.15a1.15,1.15,0,0,0,2.3,0v-1.15h2.3v1.15a1.15,1.15,0,0,0,2.3,0v-1.15h2.3ZM36.951,90.8a3.457,3.457,0,0,0,0,6.505v5.563H2.3V97.3a3.457,3.457,0,0,0,0-6.505V88.3H36.951Z" transform="translate(0 -86)" fill="#11578e"/>
</svg>
