<svg xmlns="http://www.w3.org/2000/svg" xmlns:xlink="http://www.w3.org/1999/xlink" width="94" height="94" viewBox="0 0 94 94">
  <defs>
    <clipPath id="clip-path">
      <rect id="Rectángulo_66381" data-name="Rectángulo 66381" width="94" height="94" transform="translate(0 0)" fill="none"/>
    </clipPath>
  </defs>
  <g id="Grupo_210914" data-name="Grupo 210914" transform="translate(0)">
    <g id="Grupo_210913" data-name="Grupo 210913" transform="translate(0 0)" clip-path="url(#clip-path)">
      <path id="Trazado_132091" data-name="Trazado 132091" d="M92.8,94H9.171a10.441,10.441,0,0,1-6.12-3.116A10.43,10.43,0,0,1,0,84.833V9.08A12.934,12.934,0,0,1,.642,6.059C2.514,2.12,5.569.013,9.971.007q15.085-.018,30.17,0H91.677c.245,0,.49-.01.733,0A1.453,1.453,0,0,1,93.992,1.62c.009.183,0,.367,0,.55q0,44.891,0,89.782c0,1.449-.1,1.614-1.189,2.052" transform="translate(0 0)"/>
      <path id="Trazado_132092" data-name="Trazado 132092" d="M15.955,89.819c2.47,2.277,5.294,2.862,8.4,2.858q39.059-.056,78.118-.044c.925,0,1.131.219,1.13,1.136q-.043,34.11,0,68.22c0,.954-.261,1.119-1.15,1.118q-39.059-.038-78.118-.02a7.909,7.909,0,0,1-7.606-4.453,7.8,7.8,0,0,1-.8-3.63q-.012-32.322,0-64.644c0-.116.013-.232.031-.54" transform="translate(-12.801 -72.204)" fill="#fecc00"/>
      <path id="Trazado_132093" data-name="Trazado 132093" d="M63.079,16.3q19.848,0,39.7-.021c.859,0,1.037.244,1.029,1.055-.041,4.095-.034,8.19,0,12.285,0,.653-.183.8-.817.8Q63.242,30.4,23.5,30.405a7.05,7.05,0,1,1-.392-14.093c.336-.016.672-.008,1.008-.008H63.079" transform="translate(-13.001 -13.09)" fill="#00adee"/>
      <path id="Trazado_132094" data-name="Trazado 132094" d="M208.8,235.844c0,5.9.008,11.794-.012,17.692a1.79,1.79,0,0,0,.589,1.438c1.173,1.116,2.292,2.288,3.446,3.424a1.616,1.616,0,0,1-1.181,2.893q-9.12-.007-18.24,0a1.614,1.614,0,0,1-1.167-2.894c1.173-1.16,2.326-2.341,3.506-3.494a1.53,1.53,0,0,0,.523-1.19q-.023-15.125,0-30.25a1.529,1.529,0,0,0-.508-1.2c-1.183-1.149-2.335-2.331-3.511-3.488a1.665,1.665,0,0,1-.545-1.893,1.623,1.623,0,0,1,1.7-1c4.491-.006,8.983-.017,13.474,0,1.4.006,1.93.638,1.931,2.18q.006,8.892,0,17.783" transform="translate(-154.011 -173.533)"/>
      <path id="Trazado_132095" data-name="Trazado 132095" d="M50.922,184.5q0,10.91,0,21.82a9.47,9.47,0,0,1-.025,1.007,1.476,1.476,0,0,1-1.424,1.406,1.437,1.437,0,0,1-1.59-1.21,3.905,3.905,0,0,1-.089-.905q-.006-22.1-.006-44.19a2.956,2.956,0,0,1,.158-1.172,1.442,1.442,0,0,1,1.594-.956,1.414,1.414,0,0,1,1.328,1.192,5.155,5.155,0,0,1,.053,1.1q0,10.956,0,21.912" transform="translate(-38.415 -128.851)"/>
      <path id="Trazado_132096" data-name="Trazado 132096" d="M207.363,135.822a7.811,7.811,0,1,1,7.8-7.823,7.857,7.857,0,0,1-7.8,7.823" transform="translate(-160.388 -96.626)"/>
      <path id="Trazado_132097" data-name="Trazado 132097" d="M50.926,425.942c.018,1.553-.5,2.319-1.543,2.311s-1.575-.793-1.568-2.33a5.685,5.685,0,0,1,.078-1.083,1.467,1.467,0,0,1,1.553-1.253,1.5,1.5,0,0,1,1.475,1.446c.029.3,0,.606,0,.909" transform="translate(-38.437 -340.513)" fill="#010100"/>
      <path id="Trazado_132098" data-name="Trazado 132098" d="M50.925,122.6c.023,1.578-.484,2.321-1.554,2.309-1.044-.012-1.564-.788-1.553-2.35a4.85,4.85,0,0,1,.094-1.088,1.521,1.521,0,0,1,3.009.214c.029.3,0,.61,0,.916" transform="translate(-38.44 -96.661)" fill="#010100"/>
      <path id="Trazado_132099" data-name="Trazado 132099" d="M219.111,270.851a4.317,4.317,0,0,1,.521-.563c1.614-1.143,1.926-2.709,1.909-4.623-.086-9.84-.065-19.681-.012-29.521a3.8,3.8,0,0,0-1.422-3.36,2.154,2.154,0,0,1-.823-.943c.291-.219.606-.116.9-.118,2.139-.01,4.278-.006,6.417-.005,1.212,0,1.213,0,1.213,1.257,0,11.063.029,22.126-.033,33.189a4.189,4.189,0,0,0,1.607,3.828c.287.208.556.442.833.664l-.167.2Z" transform="translate(-176.139 -186.259)" fill="#00ba76"/>
      <path id="Trazado_132100" data-name="Trazado 132100" d="M220.17,145.509a4.681,4.681,0,1,1,.047-9.362,4.731,4.731,0,0,1,4.664,4.766,4.68,4.68,0,0,1-4.711,4.6" transform="translate(-173.241 -109.446)" fill="#00ba77"/>
    </g>
  </g>
</svg>
