<svg xmlns="http://www.w3.org/2000/svg" width="42.379" height="42.363" viewBox="0 0 42.379 42.363">
  <g id="_043-rom" data-name="043-rom" transform="translate(0 -0.095)">
    <path id="Trazado_132153" data-name="Trazado 132153" d="M41.137,10.1H39.813V5.55a1.242,1.242,0,0,0-1.242-1.242H37.33V1.329a1.242,1.242,0,0,0-2.483,0v2.98H33.605A1.242,1.242,0,0,0,32.364,5.55V10.1H29.88V5.55a1.242,1.242,0,0,0-1.242-1.242H27.4V1.329a1.242,1.242,0,0,0-2.483,0v2.98H23.673A1.242,1.242,0,0,0,22.431,5.55V10.1H19.948V5.55a1.242,1.242,0,0,0-1.242-1.242H17.465V1.329a1.242,1.242,0,0,0-2.483,0v2.98H13.74A1.242,1.242,0,0,0,12.5,5.55V10.1H10.015V5.55A1.242,1.242,0,0,0,8.774,4.308H7.532V1.329a1.242,1.242,0,0,0-2.483,0v2.98H3.807A1.242,1.242,0,0,0,2.566,5.55V10.1H1.242A1.242,1.242,0,0,0,0,11.344V31.209a1.242,1.242,0,0,0,1.242,1.242H2.566V37a1.242,1.242,0,0,0,1.242,1.242H5.049v2.98a1.242,1.242,0,0,0,2.483,0v-2.98H8.774A1.242,1.242,0,0,0,10.015,37V32.451H12.5V37a1.242,1.242,0,0,0,1.242,1.242h1.242v2.98a1.242,1.242,0,0,0,2.483,0v-2.98h1.242A1.242,1.242,0,0,0,19.948,37V32.451h2.483V37a1.242,1.242,0,0,0,1.242,1.242h1.242v2.98a1.242,1.242,0,0,0,2.483,0v-2.98h1.242A1.242,1.242,0,0,0,29.88,37V32.451h2.483V37a1.242,1.242,0,0,0,1.242,1.242h1.242v2.98a1.242,1.242,0,0,0,2.483,0v-2.98h1.242A1.242,1.242,0,0,0,39.813,37V32.451h1.324a1.242,1.242,0,0,0,1.242-1.242V11.344A1.242,1.242,0,0,0,41.137,10.1ZM34.847,6.791H37.33V10.1H34.847Zm-9.933,0H27.4V10.1H24.914Zm-9.933,0h2.483V10.1H14.982Zm-9.933,0H7.532V10.1H5.049Zm2.483,28.97H5.049V32.451H7.532Zm9.933,0H14.982V32.451h2.483Zm9.933,0H24.914V32.451H27.4Zm9.933,0H34.847V32.451H37.33ZM39.9,29.967H2.483V12.585H39.9Z" transform="translate(0 0)" fill="#11578e"/>
    <path id="Trazado_132154" data-name="Trazado 132154" d="M187.208,193.865a6.215,6.215,0,0,0,6.208-6.208c-.312-8.224-12.1-8.222-12.416,0A6.215,6.215,0,0,0,187.208,193.865Zm0-9.933a3.725,3.725,0,1,1-3.725,3.725A3.729,3.729,0,0,1,187.208,183.932Z" transform="translate(-166.018 -166.38)" fill="#11578e"/>
    <path id="Trazado_132155" data-name="Trazado 132155" d="M82.329,243.483h1.655a1.242,1.242,0,0,0,0-2.483H82.329A1.242,1.242,0,0,0,82.329,243.483Z" transform="translate(-74.383 -220.965)" fill="#11578e"/>
    <path id="Trazado_132156" data-name="Trazado 132156" d="M382.329,243.483h1.655a1.242,1.242,0,0,0,0-2.483h-1.655A1.242,1.242,0,0,0,382.329,243.483Z" transform="translate(-349.551 -220.965)" fill="#11578e"/>
    <path id="Trazado_132157" data-name="Trazado 132157" d="M242.242,243.57A1.242,1.242,0,1,0,241,242.329,1.242,1.242,0,0,0,242.242,243.57Z" transform="translate(-221.052 -221.052)" fill="#11578e"/>
  </g>
</svg>
