<svg xmlns="http://www.w3.org/2000/svg" xmlns:xlink="http://www.w3.org/1999/xlink" width="295" height="173.49" viewBox="0 0 295 173.49">
  <defs>
    <linearGradient id="linear-gradient" y1="0.5" x2="1" y2="0.5" gradientUnits="objectBoundingBox">
      <stop offset="0" stop-color="#fff"/>
      <stop offset="0.44" stop-color="#fdfeff"/>
      <stop offset="0.666" stop-color="#f5f9ff"/>
      <stop offset="0.842" stop-color="#e8f2ff"/>
      <stop offset="0.993" stop-color="#d5e8ff"/>
      <stop offset="0.999" stop-color="#d4e7ff"/>
    </linearGradient>
    <linearGradient id="linear-gradient-2" y1="0.5" x2="1" y2="0.5" gradientUnits="objectBoundingBox">
      <stop offset="0.001" stop-color="#d4e7ff"/>
      <stop offset="0.007" stop-color="#d5e8ff"/>
      <stop offset="0.158" stop-color="#e8f2ff"/>
      <stop offset="0.334" stop-color="#f5f9ff"/>
      <stop offset="0.56" stop-color="#fdfeff"/>
      <stop offset="1" stop-color="#fff"/>
    </linearGradient>
    <linearGradient id="linear-gradient-3" x1="0" y1="0.5" x2="1" y2="0.5" xlink:href="#linear-gradient-2"/>
    <linearGradient id="linear-gradient-4" y1="0.5" x2="1" y2="0.5" gradientUnits="objectBoundingBox">
      <stop offset="0" stop-color="#e9efff"/>
      <stop offset="1" stop-color="#d4e3ff"/>
    </linearGradient>
    <linearGradient id="linear-gradient-6" y1="0.5" x2="1" y2="0.5" gradientUnits="objectBoundingBox">
      <stop offset="0" stop-color="#ff0007"/>
      <stop offset="1" stop-color="#ffaaac"/>
    </linearGradient>
    <linearGradient id="linear-gradient-7" x1="0" y1="0.499" x2="0.999" y2="0.499" xlink:href="#linear-gradient-6"/>
    <linearGradient id="linear-gradient-8" x1="0.001" y1="0.5" x2="1.001" y2="0.5" xlink:href="#linear-gradient-6"/>
    <linearGradient id="linear-gradient-9" y1="0.5" x2="1" y2="0.5" gradientUnits="objectBoundingBox">
      <stop offset="0" stop-color="#6aaeff"/>
      <stop offset="1" stop-color="#005eff"/>
    </linearGradient>
    <linearGradient id="linear-gradient-10" x1="0" y1="0.499" x2="0.999" y2="0.499" xlink:href="#linear-gradient-6"/>
    <linearGradient id="linear-gradient-11" x1="0" y1="0.5" x2="1" y2="0.5" xlink:href="#linear-gradient-6"/>
    <linearGradient id="linear-gradient-12" x1="0.001" y1="0.5" x2="1.001" y2="0.5" xlink:href="#linear-gradient-6"/>
    <linearGradient id="linear-gradient-13" x1="0" y1="0.501" x2="1" y2="0.501" xlink:href="#linear-gradient-9"/>
    <linearGradient id="linear-gradient-14" x1="0" y1="0.5" x2="1" y2="0.5" xlink:href="#linear-gradient-9"/>
    <linearGradient id="linear-gradient-15" x1="0" y1="0.499" x2="1" y2="0.499" xlink:href="#linear-gradient-4"/>
    <linearGradient id="linear-gradient-16" x1="0" y1="0.501" x2="1" y2="0.501" xlink:href="#linear-gradient-9"/>
    <linearGradient id="linear-gradient-17" y1="0.5" x2="1" y2="0.5" gradientUnits="objectBoundingBox">
      <stop offset="0" stop-color="#e9f2ff"/>
      <stop offset="0.277" stop-color="#c7dbff"/>
      <stop offset="0.561" stop-color="#abc8ff"/>
      <stop offset="0.811" stop-color="#9abdff"/>
      <stop offset="0.998" stop-color="#94b9ff"/>
    </linearGradient>
    <linearGradient id="linear-gradient-18" x1="0" y1="0.501" x2="1" y2="0.501" xlink:href="#linear-gradient-4"/>
    <linearGradient id="linear-gradient-19" x1="0.001" y1="0.5" x2="1.001" y2="0.5" xlink:href="#linear-gradient-9"/>
    <linearGradient id="linear-gradient-20" x1="0.001" y1="0.499" x2="1.001" y2="0.499" xlink:href="#linear-gradient-4"/>
    <linearGradient id="linear-gradient-21" x1="0.001" y1="0.501" x2="1" y2="0.501" xlink:href="#linear-gradient-9"/>
    <linearGradient id="linear-gradient-22" x1="0.001" y1="0.501" x2="1" y2="0.501" xlink:href="#linear-gradient-4"/>
    <linearGradient id="linear-gradient-23" x1="0" y1="0.5" x2="1" y2="0.5" xlink:href="#linear-gradient-9"/>
    <linearGradient id="linear-gradient-25" x1="0" y1="0.5" x2="1" y2="0.5" xlink:href="#linear-gradient-4"/>
    <linearGradient id="linear-gradient-26" x1="-0.001" y1="0.499" x2="0.999" y2="0.499" xlink:href="#linear-gradient-4"/>
    <linearGradient id="linear-gradient-27" x1="0.001" y1="0.5" x2="1" y2="0.5" xlink:href="#linear-gradient-4"/>
    <linearGradient id="linear-gradient-28" x1="0" y1="0.5" x2="1" y2="0.5" xlink:href="#linear-gradient-4"/>
    <linearGradient id="linear-gradient-29" x1="-0.001" y1="0.499" x2="0.999" y2="0.499" xlink:href="#linear-gradient-4"/>
    <linearGradient id="linear-gradient-31" x1="0.001" y1="0.5" x2="1" y2="0.5" xlink:href="#linear-gradient-4"/>
    <linearGradient id="linear-gradient-32" x1="0" y1="0.501" x2="1" y2="0.501" xlink:href="#linear-gradient-4"/>
    <linearGradient id="linear-gradient-35" x1="0" y1="0.5" x2="1" y2="0.5" xlink:href="#linear-gradient-6"/>
    <linearGradient id="linear-gradient-36" x1="0" y1="0.499" x2="1" y2="0.499" xlink:href="#linear-gradient-6"/>
    <linearGradient id="linear-gradient-37" x1="0.001" y1="0.5" x2="1.001" y2="0.5" xlink:href="#linear-gradient-6"/>
    <linearGradient id="linear-gradient-38" x1="0" y1="0.5" x2="1" y2="0.5" xlink:href="#linear-gradient-9"/>
    <linearGradient id="linear-gradient-39" x1="0" y1="0.499" x2="1" y2="0.499" xlink:href="#linear-gradient-6"/>
    <linearGradient id="linear-gradient-41" x1="-0.001" y1="0.5" x2="0.999" y2="0.5" xlink:href="#linear-gradient-6"/>
    <linearGradient id="linear-gradient-42" x1="0" y1="0.501" x2="1" y2="0.501" xlink:href="#linear-gradient-9"/>
    <linearGradient id="linear-gradient-44" x1="0.001" y1="0.501" x2="1.001" y2="0.501" gradientUnits="objectBoundingBox">
      <stop offset="0" stop-color="#f22aff"/>
      <stop offset="1" stop-color="#6c00e9"/>
    </linearGradient>
    <linearGradient id="linear-gradient-45" x1="0" y1="0.5" x2="1" y2="0.5" xlink:href="#linear-gradient-6"/>
    <linearGradient id="linear-gradient-46" y1="0.5" x2="1" y2="0.5" gradientUnits="objectBoundingBox">
      <stop offset="0" stop-color="#e9f2ff"/>
      <stop offset="0.277" stop-color="#c7dbff"/>
      <stop offset="0.562" stop-color="#abc8ff"/>
      <stop offset="0.812" stop-color="#9abdff"/>
      <stop offset="0.999" stop-color="#94b9ff"/>
    </linearGradient>
    <linearGradient id="linear-gradient-47" x1="0" y1="0.5" x2="1" y2="0.5" xlink:href="#linear-gradient-4"/>
    <linearGradient id="linear-gradient-48" x1="0" y1="0.5" x2="1" y2="0.5" xlink:href="#linear-gradient-46"/>
    <linearGradient id="linear-gradient-49" x1="0" y1="0.5" x2="1" y2="0.5" xlink:href="#linear-gradient-46"/>
    <linearGradient id="linear-gradient-50" x1="0" y1="0.5" x2="1" y2="0.5" xlink:href="#linear-gradient-46"/>
    <linearGradient id="linear-gradient-51" x1="0" y1="0.501" x2="1" y2="0.501" xlink:href="#linear-gradient-46"/>
    <linearGradient id="linear-gradient-52" x1="0" y1="0.5" x2="1" y2="0.5" xlink:href="#linear-gradient-46"/>
    <linearGradient id="linear-gradient-53" x1="0" y1="0.5" x2="0.999" y2="0.5" xlink:href="#linear-gradient-46"/>
    <linearGradient id="linear-gradient-54" x1="0" y1="0.5" x2="1" y2="0.5" xlink:href="#linear-gradient-6"/>
    <linearGradient id="linear-gradient-55" x1="0" y1="0.5" x2="1" y2="0.5" xlink:href="#linear-gradient-44"/>
    <linearGradient id="linear-gradient-58" x1="0" y1="0.5" x2="1" y2="0.5" xlink:href="#linear-gradient-9"/>
    <linearGradient id="linear-gradient-59" x1="0" y1="0.501" x2="1" y2="0.501" xlink:href="#linear-gradient-9"/>
    <linearGradient id="linear-gradient-60" x1="0" y1="0.5" x2="1" y2="0.5" xlink:href="#linear-gradient-9"/>
    <linearGradient id="linear-gradient-61" x1="0" y1="0.5" x2="1" y2="0.5" xlink:href="#linear-gradient-9"/>
    <linearGradient id="linear-gradient-62" x1="0" y1="0.5" x2="1" y2="0.5" xlink:href="#linear-gradient-46"/>
    <linearGradient id="linear-gradient-63" x1="0" y1="0.5" x2="1" y2="0.5" xlink:href="#linear-gradient-46"/>
    <linearGradient id="linear-gradient-64" x1="0" y1="0.5" x2="1" y2="0.5" xlink:href="#linear-gradient-46"/>
    <linearGradient id="linear-gradient-65" x1="0" y1="0.5" x2="1" y2="0.5" xlink:href="#linear-gradient-44"/>
    <linearGradient id="linear-gradient-66" x1="0" y1="0.5" x2="1" y2="0.5" xlink:href="#linear-gradient-9"/>
    <linearGradient id="linear-gradient-67" x1="0" y1="0.5" x2="1" y2="0.5" xlink:href="#linear-gradient-9"/>
    <linearGradient id="linear-gradient-68" x1="0" y1="0.5" x2="1" y2="0.5" xlink:href="#linear-gradient-9"/>
    <linearGradient id="linear-gradient-69" x1="0" y1="0.5" x2="1" y2="0.5" xlink:href="#linear-gradient-9"/>
    <linearGradient id="linear-gradient-70" x1="0" y1="0.5" x2="1.001" y2="0.5" xlink:href="#linear-gradient-44"/>
    <linearGradient id="linear-gradient-71" x1="0" y1="0.5" x2="1" y2="0.5" xlink:href="#linear-gradient-9"/>
    <linearGradient id="linear-gradient-72" x1="0" y1="0.5" x2="0.999" y2="0.5" xlink:href="#linear-gradient-9"/>
    <linearGradient id="linear-gradient-73" x1="0" y1="0.5" x2="0.999" y2="0.5" xlink:href="#linear-gradient-9"/>
    <linearGradient id="linear-gradient-74" x1="-0.001" y1="0.5" x2="1" y2="0.5" xlink:href="#linear-gradient-6"/>
    <linearGradient id="linear-gradient-75" x1="0.001" y1="0.501" x2="1.001" y2="0.501" xlink:href="#linear-gradient-9"/>
    <linearGradient id="linear-gradient-76" x1="0" y1="0.5" x2="1" y2="0.5" xlink:href="#linear-gradient-9"/>
    <linearGradient id="linear-gradient-77" x1="0" y1="0.5" x2="1" y2="0.5" xlink:href="#linear-gradient-9"/>
    <linearGradient id="linear-gradient-78" x1="0" y1="0.5" x2="1" y2="0.5" xlink:href="#linear-gradient-4"/>
    <linearGradient id="linear-gradient-79" x1="0" y1="0.5" x2="1" y2="0.5" xlink:href="#linear-gradient-4"/>
    <linearGradient id="linear-gradient-80" x1="0" y1="0.5" x2="1" y2="0.5" xlink:href="#linear-gradient-4"/>
    <linearGradient id="linear-gradient-81" x1="0" y1="0.5" x2="1" y2="0.5" xlink:href="#linear-gradient-4"/>
    <linearGradient id="linear-gradient-82" x1="0" y1="0.5" x2="1" y2="0.5" xlink:href="#linear-gradient-4"/>
    <linearGradient id="linear-gradient-83" x1="0" y1="0.5" x2="1" y2="0.5" xlink:href="#linear-gradient-4"/>
    <linearGradient id="linear-gradient-84" x1="-0.005" y1="0.5" x2="1.007" y2="0.5" xlink:href="#linear-gradient-4"/>
    <linearGradient id="linear-gradient-85" x1="0" y1="0.5" x2="1" y2="0.5" xlink:href="#linear-gradient-4"/>
    <linearGradient id="linear-gradient-86" x1="0" y1="0.5" x2="1" y2="0.5" xlink:href="#linear-gradient-4"/>
    <linearGradient id="linear-gradient-87" x1="0" y1="0.5" x2="1" y2="0.5" xlink:href="#linear-gradient-4"/>
    <linearGradient id="linear-gradient-92" x1="0" y1="0.5" x2="1" y2="0.5" xlink:href="#linear-gradient-4"/>
    <linearGradient id="linear-gradient-93" x1="0" y1="0.5" x2="1" y2="0.5" xlink:href="#linear-gradient-4"/>
    <linearGradient id="linear-gradient-94" x1="0" y1="0.5" x2="1" y2="0.5" xlink:href="#linear-gradient-4"/>
    <linearGradient id="linear-gradient-95" x1="0" y1="0.5" x2="1" y2="0.5" xlink:href="#linear-gradient-4"/>
    <linearGradient id="linear-gradient-96" x1="0" y1="0.5" x2="1" y2="0.5" xlink:href="#linear-gradient-4"/>
    <linearGradient id="linear-gradient-97" x1="0" y1="0.5" x2="1" y2="0.5" xlink:href="#linear-gradient-4"/>
    <linearGradient id="linear-gradient-98" x1="0" y1="0.5" x2="1" y2="0.5" xlink:href="#linear-gradient-4"/>
    <linearGradient id="linear-gradient-99" x1="0" y1="0.5" x2="1" y2="0.5" xlink:href="#linear-gradient-4"/>
    <linearGradient id="linear-gradient-100" x1="0" y1="0.5" x2="1" y2="0.5" xlink:href="#linear-gradient-4"/>
    <linearGradient id="linear-gradient-101" x1="-0.001" y1="0.501" x2="1" y2="0.501" xlink:href="#linear-gradient-4"/>
    <linearGradient id="linear-gradient-102" x1="-0.001" y1="0.5" x2="1" y2="0.5" xlink:href="#linear-gradient-4"/>
    <linearGradient id="linear-gradient-103" x1="0" y1="0.501" x2="1" y2="0.501" xlink:href="#linear-gradient-4"/>
    <linearGradient id="linear-gradient-104" x1="0" y1="0.501" x2="0.999" y2="0.501" xlink:href="#linear-gradient-4"/>
    <linearGradient id="linear-gradient-105" x1="0" y1="0.5" x2="0.999" y2="0.5" xlink:href="#linear-gradient-4"/>
    <linearGradient id="linear-gradient-106" x1="0" y1="0.5" x2="0.999" y2="0.5" xlink:href="#linear-gradient-4"/>
    <linearGradient id="linear-gradient-107" x1="-0.001" y1="0.5" x2="0.998" y2="0.5" xlink:href="#linear-gradient-4"/>
    <linearGradient id="linear-gradient-108" x1="-0.001" y1="0.501" x2="0.998" y2="0.501" xlink:href="#linear-gradient-4"/>
    <linearGradient id="linear-gradient-109" x1="0" y1="0.501" x2="0.999" y2="0.501" xlink:href="#linear-gradient-4"/>
    <linearGradient id="linear-gradient-110" x1="-0.001" y1="0.5" x2="0.998" y2="0.5" xlink:href="#linear-gradient-4"/>
    <linearGradient id="linear-gradient-111" x1="0" y1="0.5" x2="1" y2="0.5" xlink:href="#linear-gradient-4"/>
    <linearGradient id="linear-gradient-112" x1="0" y1="0.5" x2="0.999" y2="0.5" xlink:href="#linear-gradient-4"/>
    <linearGradient id="linear-gradient-113" x1="0" y1="0.501" x2="0.998" y2="0.501" xlink:href="#linear-gradient-4"/>
    <linearGradient id="linear-gradient-114" x1="0" y1="0.5" x2="0.999" y2="0.5" xlink:href="#linear-gradient-4"/>
    <linearGradient id="linear-gradient-115" x1="0.001" y1="0.501" x2="1" y2="0.501" xlink:href="#linear-gradient-4"/>
    <linearGradient id="linear-gradient-116" x1="0" y1="0.5" x2="0.999" y2="0.5" xlink:href="#linear-gradient-4"/>
    <linearGradient id="linear-gradient-117" x1="0" y1="0.501" x2="0.999" y2="0.501" xlink:href="#linear-gradient-4"/>
    <linearGradient id="linear-gradient-118" x1="0" y1="0.501" x2="0.998" y2="0.501" xlink:href="#linear-gradient-4"/>
    <linearGradient id="linear-gradient-119" x1="0.001" y1="0.501" x2="1" y2="0.501" xlink:href="#linear-gradient-4"/>
    <linearGradient id="linear-gradient-120" x1="0" y1="0.501" x2="0.999" y2="0.501" xlink:href="#linear-gradient-4"/>
    <linearGradient id="linear-gradient-121" x1="0.001" y1="0.501" x2="1" y2="0.501" xlink:href="#linear-gradient-4"/>
    <linearGradient id="linear-gradient-122" x1="0.001" y1="0.5" x2="1" y2="0.5" xlink:href="#linear-gradient-4"/>
    <linearGradient id="linear-gradient-123" x1="0" y1="0.5" x2="0.999" y2="0.5" xlink:href="#linear-gradient-4"/>
    <linearGradient id="linear-gradient-124" y1="0.499" x2="1" y2="0.499" gradientUnits="objectBoundingBox">
      <stop offset="0" stop-color="#ff7f83"/>
      <stop offset="1" stop-color="#ffd4d5"/>
    </linearGradient>
    <linearGradient id="linear-gradient-125" x1="0" y1="0.5" x2="1" y2="0.5" xlink:href="#linear-gradient-9"/>
    <linearGradient id="linear-gradient-126" y1="0.501" x2="1" y2="0.501" gradientUnits="objectBoundingBox">
      <stop offset="0" stop-color="#025"/>
      <stop offset="1" stop-color="#003a7f"/>
    </linearGradient>
    <linearGradient id="linear-gradient-127" x1="0" y1="0.501" x2="1" y2="0.501" xlink:href="#linear-gradient-126"/>
    <linearGradient id="linear-gradient-128" x1="0" y1="0.5" x2="1" y2="0.5" xlink:href="#linear-gradient-124"/>
    <linearGradient id="linear-gradient-129" x1="0.001" y1="0.5" x2="1" y2="0.5" xlink:href="#linear-gradient-124"/>
    <linearGradient id="linear-gradient-130" x1="0" y1="0.5" x2="1" y2="0.5" xlink:href="#linear-gradient-126"/>
    <linearGradient id="linear-gradient-131" y1="0.5" x2="1" y2="0.5" gradientUnits="objectBoundingBox">
      <stop offset="0" stop-color="#6aaeff"/>
      <stop offset="1" stop-color="#0002e9"/>
    </linearGradient>
    <linearGradient id="linear-gradient-132" x1="-0.001" y1="0.5" x2="0.999" y2="0.5" xlink:href="#linear-gradient-124"/>
    <linearGradient id="linear-gradient-133" x1="0" y1="0.5" x2="1.001" y2="0.5" xlink:href="#linear-gradient-124"/>
    <linearGradient id="linear-gradient-134" x1="0" y1="0.5" x2="1" y2="0.5" xlink:href="#linear-gradient-9"/>
    <linearGradient id="linear-gradient-135" x1="0" y1="0.5" x2="0.999" y2="0.5" xlink:href="#linear-gradient-4"/>
    <linearGradient id="linear-gradient-136" y1="0.501" x2="1.001" y2="0.501" gradientUnits="objectBoundingBox">
      <stop offset="0" stop-color="#0011bf"/>
      <stop offset="0.997" stop-color="#6a8cff"/>
    </linearGradient>
    <linearGradient id="linear-gradient-137" x1="0.001" y1="0.5" x2="1" y2="0.5" xlink:href="#linear-gradient-136"/>
    <linearGradient id="linear-gradient-138" x1="0" y1="0.498" x2="1" y2="0.498" xlink:href="#linear-gradient-136"/>
    <linearGradient id="linear-gradient-139" y1="0.5" x2="1" y2="0.5" gradientUnits="objectBoundingBox">
      <stop offset="0" stop-color="#00092a"/>
      <stop offset="1" stop-color="#003a7f"/>
    </linearGradient>
    <linearGradient id="linear-gradient-140" x1="0" y1="0.5" x2="1" y2="0.5" xlink:href="#linear-gradient-126"/>
    <linearGradient id="linear-gradient-141" x1="0" y1="0.499" x2="1" y2="0.499" xlink:href="#linear-gradient-126"/>
    <linearGradient id="linear-gradient-142" x1="0" y1="0.5" x2="1" y2="0.5" xlink:href="#linear-gradient-9"/>
    <linearGradient id="linear-gradient-143" x1="0" y1="0.5" x2="1" y2="0.5" xlink:href="#linear-gradient-126"/>
    <linearGradient id="linear-gradient-144" x1="0" y1="0.5" x2="1" y2="0.5" xlink:href="#linear-gradient-46"/>
    <linearGradient id="linear-gradient-145" x1="-0.001" y1="0.501" x2="1" y2="0.501" xlink:href="#linear-gradient-46"/>
    <linearGradient id="linear-gradient-146" x1="0" y1="0.5" x2="0.999" y2="0.5" xlink:href="#linear-gradient-124"/>
    <linearGradient id="linear-gradient-147" x1="0" y1="0.5" x2="1" y2="0.5" xlink:href="#linear-gradient-124"/>
    <linearGradient id="linear-gradient-148" x1="-0.003" y1="0.499" x2="0.998" y2="0.499" xlink:href="#linear-gradient-46"/>
    <linearGradient id="linear-gradient-149" x1="0" y1="0.501" x2="1.001" y2="0.501" xlink:href="#linear-gradient-124"/>
    <linearGradient id="linear-gradient-150" x1="0" y1="0.5" x2="0.999" y2="0.5" xlink:href="#linear-gradient-9"/>
    <linearGradient id="linear-gradient-151" x1="0" y1="0.5" x2="1" y2="0.5" xlink:href="#linear-gradient-9"/>
    <linearGradient id="linear-gradient-152" x1="0" y1="0.5" x2="1" y2="0.5" xlink:href="#linear-gradient-46"/>
    <linearGradient id="linear-gradient-153" x1="0" y1="0.5" x2="1.002" y2="0.5" xlink:href="#linear-gradient-46"/>
    <linearGradient id="linear-gradient-154" x1="1" y1="0.5" x2="0" y2="0.5" xlink:href="#linear-gradient-46"/>
    <linearGradient id="linear-gradient-155" x1="0" y1="0.5" x2="1" y2="0.5" xlink:href="#linear-gradient-46"/>
    <linearGradient id="linear-gradient-156" x1="1" y1="0.5" x2="0" y2="0.5" xlink:href="#linear-gradient-46"/>
    <linearGradient id="linear-gradient-157" x1="0" y1="0.5" x2="1.002" y2="0.5" xlink:href="#linear-gradient-46"/>
    <linearGradient id="linear-gradient-158" x1="1" y1="0.5" x2="0" y2="0.5" xlink:href="#linear-gradient-46"/>
    <linearGradient id="linear-gradient-159" x1="-0.001" y1="0.5" x2="1" y2="0.5" xlink:href="#linear-gradient-46"/>
    <linearGradient id="linear-gradient-160" x1="1" y1="0.5" x2="0" y2="0.5" xlink:href="#linear-gradient-46"/>
  </defs>
  <g id="Grupo_211373" data-name="Grupo 211373" transform="translate(-285 -4072.509)">
    <path id="Trazado_116194" data-name="Trazado 116194" d="M21.263,172.322s-41.381-75.984-8.688-117C62.386-7.166,115.307,67.465,146.891,29.887,190.11-21.535,285.463-4.74,268.675,65.976c-11.774,49.6,45.87,40.042,19.2,107.515Z" transform="translate(285 4072.509)" fill="#e9e9e9"/>
    <g id="_1064_Convertido_" data-name="1064 [Convertido]" transform="translate(-147.82 3822.453)">
      <path id="Trazado_116195" data-name="Trazado 116195" d="M765.507,477.186l40.3,23.3a9.1,9.1,0,0,0,8.249,0l40.3-23.294c2.277-1.318,2.277-3.451,0-4.766l-40.265-23.249a9.125,9.125,0,0,0-8.252,0L765.514,472.42C763.233,473.735,763.23,475.872,765.507,477.186Z" transform="translate(-187.758 -128.287)" fill="url(#linear-gradient)"/>
      <path id="Trazado_116196" data-name="Trazado 116196" d="M531.427,494.534l21.867,12.641a4.937,4.937,0,0,0,4.477,0l21.867-12.638a1.366,1.366,0,0,0,0-2.587l-21.846-12.613a4.947,4.947,0,0,0-4.477,0L531.434,491.95A1.362,1.362,0,0,0,531.427,494.534Z" transform="translate(-36.699 -148.108)" fill="url(#linear-gradient-2)"/>
      <path id="Trazado_116197" data-name="Trazado 116197" d="M618.722,635.239l35.287,20.4a7.976,7.976,0,0,0,7.223,0l35.283-20.4c2-1.153,2-3.021,0-4.174L661.26,610.711a7.994,7.994,0,0,0-7.227,0l-35.308,20.358C616.727,632.218,616.727,634.083,618.722,635.239Z" transform="translate(-92.853 -232.958)" fill="url(#linear-gradient-3)"/>
      <path id="Trazado_116198" data-name="Trazado 116198" d="M605.119,319.337l-37.444,21.616L530.23,319.33l37.131-21.437.314-.183Z" transform="translate(-36.524 -30.855)" fill="#f3f6ff"/>
      <path id="Trazado_116199" data-name="Trazado 116199" d="M530.23,359.04v12.352l37.444,21.616V380.663Z" transform="translate(-36.524 -70.565)" fill="url(#linear-gradient-4)"/>
      <path id="Trazado_116200" data-name="Trazado 116200" d="M636.45,393.022l37.444-21.616V359.06L636.45,380.676Z" transform="translate(-105.3 -70.578)" fill="url(#linear-gradient-4)"/>
      <path id="Trazado_116201" data-name="Trazado 116201" d="M601.742,415.6a1.027,1.027,0,0,0-.137.73,1.8,1.8,0,0,0,.247.673,1.706,1.706,0,0,0,.219.286c.476.508,1.1.578,1.4.155a1.454,1.454,0,0,0-.331-1.685C602.659,415.25,602.035,415.18,601.742,415.6Z" transform="translate(-82.729 -107.01)" fill="url(#linear-gradient-6)"/>
      <path id="Trazado_116202" data-name="Trazado 116202" d="M610.972,421.173a1.027,1.027,0,0,0-.137.73,1.8,1.8,0,0,0,.247.673,1.7,1.7,0,0,0,.219.286c.476.508,1.1.578,1.4.155a1.454,1.454,0,0,0-.331-1.685C611.889,420.82,611.265,420.75,610.972,421.173Z" transform="translate(-88.706 -110.616)" fill="url(#linear-gradient-7)"/>
      <path id="Trazado_116203" data-name="Trazado 116203" d="M620.192,426.543a1.027,1.027,0,0,0-.137.73,1.8,1.8,0,0,0,.247.673,1.7,1.7,0,0,0,.219.286c.476.508,1.1.578,1.4.155a1.454,1.454,0,0,0-.331-1.685C621.112,426.19,620.488,426.12,620.192,426.543Z" transform="translate(-94.675 -114.093)" fill="url(#linear-gradient-8)"/>
      <path id="Trazado_116204" data-name="Trazado 116204" d="M546.99,384.7v1.065a.367.367,0,0,0,.187.321l3.772,2.179a.19.19,0,0,0,.286-.166v-1.05a.441.441,0,0,0-.222-.384L547.3,384.52A.207.207,0,0,0,546.99,384.7Z" transform="translate(-47.376 -87.046)" fill="url(#linear-gradient-9)"/>
      <path id="Trazado_116205" data-name="Trazado 116205" d="M729.377,380a1.027,1.027,0,0,1,.138.73,1.8,1.8,0,0,1-.247.673,1.7,1.7,0,0,1-.219.286c-.476.508-1.1.578-1.4.155a1.454,1.454,0,0,1,.331-1.685C728.456,379.65,729.08,379.58,729.377,380Z" transform="translate(-164.255 -83.959)" fill="url(#linear-gradient-10)"/>
      <path id="Trazado_116206" data-name="Trazado 116206" d="M720.147,385.565a1.027,1.027,0,0,1,.138.73,1.8,1.8,0,0,1-.247.673,1.706,1.706,0,0,1-.219.286c-.476.508-1.1.578-1.4.155a1.454,1.454,0,0,1,.331-1.685C719.23,385.213,719.854,385.146,720.147,385.565Z" transform="translate(-158.278 -87.562)" fill="url(#linear-gradient-11)"/>
      <path id="Trazado_116207" data-name="Trazado 116207" d="M710.917,390.943a1.027,1.027,0,0,1,.138.73,1.8,1.8,0,0,1-.247.673,1.706,1.706,0,0,1-.219.286c-.476.508-1.1.578-1.4.155a1.454,1.454,0,0,1,.331-1.685C710,390.59,710.624,390.52,710.917,390.943Z" transform="translate(-152.302 -91.043)" fill="url(#linear-gradient-12)"/>
      <path id="Trazado_116208" data-name="Trazado 116208" d="M657.444,419.631V420.7a.367.367,0,0,1-.187.321l-3.772,2.179a.19.19,0,0,1-.286-.166v-1.05a.441.441,0,0,1,.222-.384l3.712-2.143A.209.209,0,0,1,657.444,419.631Z" transform="translate(-116.145 -109.663)" fill="url(#linear-gradient-13)"/>
      <path id="Trazado_116209" data-name="Trazado 116209" d="M541.325,353.76v2.073c0,.419-.5.758-1.117.758s-1.117-.338-1.117-.758V353.76c0,.419.5.758,1.117.758S541.325,354.176,541.325,353.76Z" transform="translate(-42.261 -67.146)" fill="url(#linear-gradient-14)"/>
      <path id="Trazado_116210" data-name="Trazado 116210" d="M541.325,352.368c0,.419-.5.758-1.117.758s-1.117-.338-1.117-.758.5-.758,1.117-.758S541.325,351.948,541.325,352.368Z" transform="translate(-42.261 -65.754)" fill="url(#linear-gradient-15)"/>
      <path id="Trazado_116211" data-name="Trazado 116211" d="M635.535,299.15v2.073c0,.42-.5.758-1.117.758s-1.117-.338-1.117-.758V299.15c0,.419.5.758,1.117.758S635.535,299.569,635.535,299.15Z" transform="translate(-103.261 -31.787)" fill="url(#linear-gradient-16)"/>
      <path id="Trazado_116212" data-name="Trazado 116212" d="M635.874,340.96s6.747-25.529-.314-43.06l.314-.18,37.444,21.623Z" transform="translate(-104.724 -30.862)" fill="url(#linear-gradient-17)"/>
      <path id="Trazado_116213" data-name="Trazado 116213" d="M635.535,297.758c0,.419-.5.758-1.117.758s-1.117-.338-1.117-.758.5-.758,1.117-.758S635.535,297.342,635.535,297.758Z" transform="translate(-103.261 -30.395)" fill="url(#linear-gradient-18)"/>
      <path id="Trazado_116214" data-name="Trazado 116214" d="M732.3,352.97v2.073c0,.419-.5.758-1.117.758s-1.117-.338-1.117-.758V352.97c0,.419.5.758,1.117.758S732.3,353.386,732.3,352.97Z" transform="translate(-165.917 -66.635)" fill="url(#linear-gradient-19)"/>
      <path id="Trazado_116215" data-name="Trazado 116215" d="M732.3,351.578c0,.42-.5.758-1.117.758s-1.117-.338-1.117-.758.5-.758,1.117-.758S732.3,351.158,732.3,351.578Z" transform="translate(-165.917 -65.243)" fill="url(#linear-gradient-20)"/>
      <path id="Trazado_116216" data-name="Trazado 116216" d="M635.515,407.29v2.073c0,.419-.5.758-1.117.758s-1.117-.338-1.117-.758V407.29c0,.419.5.758,1.117.758S635.515,407.71,635.515,407.29Z" transform="translate(-103.248 -101.806)" fill="url(#linear-gradient-21)"/>
      <path id="Trazado_116217" data-name="Trazado 116217" d="M635.515,405.9c0,.419-.5.758-1.117.758s-1.117-.338-1.117-.758.5-.758,1.117-.758S635.515,405.482,635.515,405.9Z" transform="translate(-103.248 -100.414)" fill="url(#linear-gradient-22)"/>
      <path id="Trazado_116218" data-name="Trazado 116218" d="M530.29,394.1v12.352l37.444,21.616V415.723Z" transform="translate(-36.563 -93.266)" fill="url(#linear-gradient-23)"/>
      <path id="Trazado_116219" data-name="Trazado 116219" d="M636.51,428.081l37.444-21.616V394.12L636.51,415.736Z" transform="translate(-105.339 -93.279)" fill="url(#linear-gradient-23)"/>
      <path id="Trazado_116220" data-name="Trazado 116220" d="M601.8,450.663a1.027,1.027,0,0,0-.138.73,1.8,1.8,0,0,0,.247.673,1.7,1.7,0,0,0,.219.286c.476.508,1.1.578,1.4.155a1.454,1.454,0,0,0-.331-1.685C602.719,450.31,602.095,450.24,601.8,450.663Z" transform="translate(-82.768 -129.71)" fill="url(#linear-gradient-25)"/>
      <path id="Trazado_116221" data-name="Trazado 116221" d="M611.032,456.233a1.027,1.027,0,0,0-.138.73,1.8,1.8,0,0,0,.247.673,1.7,1.7,0,0,0,.219.286c.476.508,1.1.578,1.4.155a1.454,1.454,0,0,0-.331-1.685C611.949,455.88,611.325,455.81,611.032,456.233Z" transform="translate(-88.745 -133.317)" fill="url(#linear-gradient-26)"/>
      <path id="Trazado_116222" data-name="Trazado 116222" d="M620.252,461.6a1.027,1.027,0,0,0-.137.73,1.8,1.8,0,0,0,.247.673,1.7,1.7,0,0,0,.219.286c.476.508,1.1.578,1.4.155a1.454,1.454,0,0,0-.331-1.685C621.172,461.25,620.545,461.18,620.252,461.6Z" transform="translate(-94.714 -136.794)" fill="url(#linear-gradient-27)"/>
      <path id="Trazado_116223" data-name="Trazado 116223" d="M547.04,419.76v1.065a.367.367,0,0,0,.187.321L551,423.324a.19.19,0,0,0,.286-.166v-1.051a.441.441,0,0,0-.222-.384l-3.712-2.143A.208.208,0,0,0,547.04,419.76Z" transform="translate(-47.409 -109.747)" fill="url(#linear-gradient-28)"/>
      <path id="Trazado_116224" data-name="Trazado 116224" d="M729.437,415.063a1.027,1.027,0,0,1,.138.73,1.8,1.8,0,0,1-.247.673,1.706,1.706,0,0,1-.219.286c-.476.508-1.1.578-1.4.155a1.454,1.454,0,0,1,.331-1.685C728.516,414.71,729.14,414.64,729.437,415.063Z" transform="translate(-164.293 -106.66)" fill="url(#linear-gradient-29)"/>
      <path id="Trazado_116225" data-name="Trazado 116225" d="M720.207,420.625a1.027,1.027,0,0,1,.138.73,1.8,1.8,0,0,1-.247.673,1.706,1.706,0,0,1-.219.286c-.476.508-1.1.578-1.4.155a1.454,1.454,0,0,1,.331-1.685C719.29,420.273,719.914,420.206,720.207,420.625Z" transform="translate(-158.317 -110.263)" fill="url(#linear-gradient-25)"/>
      <path id="Trazado_116226" data-name="Trazado 116226" d="M710.977,426a1.027,1.027,0,0,1,.138.73,1.8,1.8,0,0,1-.247.673,1.706,1.706,0,0,1-.219.286c-.476.508-1.1.578-1.4.155a1.454,1.454,0,0,1,.331-1.685C710.06,425.65,710.684,425.58,710.977,426Z" transform="translate(-152.341 -113.743)" fill="url(#linear-gradient-31)"/>
      <path id="Trazado_116227" data-name="Trazado 116227" d="M657.5,454.69v1.065a.367.367,0,0,1-.187.321l-3.772,2.179a.19.19,0,0,1-.286-.166v-1.05a.441.441,0,0,1,.222-.384l3.712-2.143A.208.208,0,0,1,657.5,454.69Z" transform="translate(-116.184 -132.363)" fill="url(#linear-gradient-32)"/>
      <path id="Trazado_116228" data-name="Trazado 116228" d="M530.24,429.11v12.352l37.441,21.616V450.733Z" transform="translate(-36.531 -115.934)" fill="url(#linear-gradient-4)"/>
      <path id="Trazado_116229" data-name="Trazado 116229" d="M636.45,463.091l37.444-21.616V429.13L636.45,450.746Z" transform="translate(-105.3 -115.947)" fill="url(#linear-gradient-4)"/>
      <path id="Trazado_116230" data-name="Trazado 116230" d="M601.742,485.673a1.027,1.027,0,0,0-.137.73,1.8,1.8,0,0,0,.247.673,1.706,1.706,0,0,0,.219.286c.476.508,1.1.578,1.4.155a1.454,1.454,0,0,0-.331-1.685C602.662,485.32,602.035,485.25,601.742,485.673Z" transform="translate(-82.729 -152.379)" fill="url(#linear-gradient-35)"/>
      <path id="Trazado_116231" data-name="Trazado 116231" d="M610.972,491.243a1.027,1.027,0,0,0-.137.73,1.8,1.8,0,0,0,.247.673,1.7,1.7,0,0,0,.219.286c.476.508,1.1.578,1.4.155a1.454,1.454,0,0,0-.331-1.685C611.889,490.89,611.265,490.82,610.972,491.243Z" transform="translate(-88.706 -155.985)" fill="url(#linear-gradient-36)"/>
      <path id="Trazado_116232" data-name="Trazado 116232" d="M620.192,496.613a1.027,1.027,0,0,0-.137.73,1.8,1.8,0,0,0,.247.673,1.7,1.7,0,0,0,.219.286c.476.508,1.1.578,1.4.155a1.454,1.454,0,0,0-.331-1.685C621.112,496.26,620.488,496.19,620.192,496.613Z" transform="translate(-94.675 -159.462)" fill="url(#linear-gradient-37)"/>
      <path id="Trazado_116233" data-name="Trazado 116233" d="M546.99,454.77v1.065a.367.367,0,0,0,.187.321l3.772,2.179a.19.19,0,0,0,.286-.166v-1.05a.441.441,0,0,0-.222-.384L547.3,454.59A.207.207,0,0,0,546.99,454.77Z" transform="translate(-47.376 -132.415)" fill="url(#linear-gradient-38)"/>
      <path id="Trazado_116234" data-name="Trazado 116234" d="M729.377,450.073a1.027,1.027,0,0,1,.138.73,1.8,1.8,0,0,1-.247.673,1.7,1.7,0,0,1-.219.286c-.476.508-1.1.578-1.4.155a1.454,1.454,0,0,1,.331-1.685C728.456,449.72,729.084,449.65,729.377,450.073Z" transform="translate(-164.255 -129.328)" fill="url(#linear-gradient-39)"/>
      <path id="Trazado_116235" data-name="Trazado 116235" d="M720.147,455.635a1.027,1.027,0,0,1,.138.73,1.8,1.8,0,0,1-.247.673,1.706,1.706,0,0,1-.219.286c-.476.508-1.1.578-1.4.155a1.454,1.454,0,0,1,.331-1.685C719.23,455.283,719.854,455.216,720.147,455.635Z" transform="translate(-158.278 -132.931)" fill="url(#linear-gradient-35)"/>
      <path id="Trazado_116236" data-name="Trazado 116236" d="M710.927,461.013a1.027,1.027,0,0,1,.137.73,1.8,1.8,0,0,1-.247.673,1.7,1.7,0,0,1-.219.286c-.476.508-1.1.578-1.4.155a1.454,1.454,0,0,1,.331-1.685C710.006,460.66,710.63,460.59,710.927,461.013Z" transform="translate(-152.308 -136.412)" fill="url(#linear-gradient-41)"/>
      <path id="Trazado_116237" data-name="Trazado 116237" d="M657.444,489.7v1.065a.367.367,0,0,1-.187.321l-3.772,2.179a.19.19,0,0,1-.286-.166v-1.051a.441.441,0,0,1,.222-.384l3.712-2.143A.207.207,0,0,1,657.444,489.7Z" transform="translate(-116.145 -155.031)" fill="url(#linear-gradient-42)"/>
      <path id="Trazado_116238" data-name="Trazado 116238" d="M736.4,573.67l71.409-41.23,49.423,28.522L785.812,602.2Z" transform="translate(-170.016 -182.839)" fill="#f3f6ff"/>
      <path id="Trazado_116239" data-name="Trazado 116239" d="M932.146,603.99,860.93,645.347l5.513,3.183,71.42-41.241Z" transform="translate(-250.647 -229.166)" fill="url(#linear-gradient-23)"/>
      <path id="Trazado_116240" data-name="Trazado 116240" d="M883.284,714.958c0,.518-.617.938-1.382.938s-1.382-.419-1.382-.938.62-.938,1.382-.938S883.284,714.443,883.284,714.958Z" transform="translate(-263.331 -300.409)" fill="url(#linear-gradient-44)"/>
      <path id="Trazado_116241" data-name="Trazado 116241" d="M898.874,706.1c0,.518-.617.938-1.382.938s-1.382-.419-1.382-.938.62-.938,1.382-.938S898.874,705.58,898.874,706.1Z" transform="translate(-273.425 -294.672)" fill="#f3f6ff"/>
      <path id="Trazado_116242" data-name="Trazado 116242" d="M914.444,697.228c0,.518-.617.938-1.382.938s-1.382-.419-1.382-.938.62-.938,1.382-.938S914.444,696.71,914.444,697.228Z" transform="translate(-283.507 -288.929)" fill="url(#linear-gradient-45)"/>
      <path id="Trazado_116243" data-name="Trazado 116243" d="M944.4,564.651l-19.219,11.1L892.23,556.726l19.512-11.266Z" transform="translate(-270.913 -191.269)" fill="url(#linear-gradient-46)"/>
      <path id="Trazado_116244" data-name="Trazado 116244" d="M932.083,635.87l2.743,1.586-16.47,9.511-2.746-1.586Z" transform="translate(-286.051 -249.808)" fill="url(#linear-gradient-47)"/>
      <g id="Grupo_82029" data-name="Grupo 82029" transform="translate(631.934 382.519)">
        <path id="Trazado_116245" data-name="Trazado 116245" d="M922.719,631.319a.372.372,0,0,1-.183-.695l8.235-4.755a.372.372,0,0,1,.37.645l-8.235,4.755A.4.4,0,0,1,922.719,631.319Z" transform="translate(-922.349 -625.819)" fill="url(#linear-gradient-48)"/>
      </g>
      <g id="Grupo_82030" data-name="Grupo 82030" transform="translate(620.95 380.936)">
        <path id="Trazado_116246" data-name="Trazado 116246" d="M891.559,631.584a.372.372,0,0,1-.183-.694l16.473-9.511a.372.372,0,0,1,.37.645l-16.473,9.511A.4.4,0,0,1,891.559,631.584Z" transform="translate(-891.189 -621.329)" fill="url(#linear-gradient-49)"/>
      </g>
      <g id="Grupo_82031" data-name="Grupo 82031" transform="translate(626.442 379.346)">
        <path id="Trazado_116247" data-name="Trazado 116247" d="M907.139,622.318a.372.372,0,0,1-.183-.694l8.235-4.755a.372.372,0,1,1,.37.645l-8.235,4.755A.362.362,0,0,1,907.139,622.318Z" transform="translate(-906.769 -616.819)" fill="url(#linear-gradient-50)"/>
      </g>
      <g id="Grupo_82032" data-name="Grupo 82032" transform="translate(620.95 376.174)">
        <path id="Trazado_116248" data-name="Trazado 116248" d="M891.559,613.318a.372.372,0,0,1-.183-.694l8.235-4.755a.37.37,0,1,1,.37.642l-8.235,4.755A.335.335,0,0,1,891.559,613.318Z" transform="translate(-891.189 -607.818)" fill="url(#linear-gradient-51)"/>
      </g>
      <g id="Grupo_82033" data-name="Grupo 82033" transform="translate(609.969 374.591)">
        <path id="Trazado_116249" data-name="Trazado 116249" d="M860.409,613.584a.372.372,0,0,1-.183-.694l16.473-9.511a.372.372,0,0,1,.37.645L860.6,613.535A.362.362,0,0,1,860.409,613.584Z" transform="translate(-860.039 -603.329)" fill="url(#linear-gradient-52)"/>
      </g>
      <g id="Grupo_82034" data-name="Grupo 82034" transform="translate(615.461 373.005)">
        <path id="Trazado_116250" data-name="Trazado 116250" d="M875.989,604.329a.372.372,0,0,1-.183-.695l8.235-4.755a.372.372,0,1,1,.37.645l-8.235,4.755A.362.362,0,0,1,875.989,604.329Z" transform="translate(-875.619 -598.829)" fill="url(#linear-gradient-53)"/>
      </g>
      <path id="Trazado_116251" data-name="Trazado 116251" d="M847.3,661.785l-19.219,11.1-13.727-7.928,19.219-11.094Z" transform="translate(-220.487 -261.456)" fill="url(#linear-gradient-54)"/>
      <path id="Trazado_116252" data-name="Trazado 116252" d="M800.56,634.8l-19.219,11.1-13.731-7.928,19.223-11.094Z" transform="translate(-190.224 -243.987)" fill="url(#linear-gradient-55)"/>
      <g id="Grupo_82035" data-name="Grupo 82035" transform="translate(475.399 304.342)">
        <path id="Trazado_116253" data-name="Trazado 116253" d="M478.67,484.371l-.37-.645,18.987-10.96h25.2l94.235-54.411V404.05h.744v14.735l-.187.106-94.594,54.616h-25.2Z" transform="translate(-478.3 -404.05)" fill="url(#linear-gradient-4)"/>
      </g>
      <g id="Grupo_82036" data-name="Grupo 82036" transform="translate(525.802 307.842)">
        <path id="Trazado_116254" data-name="Trazado 116254" d="M621.654,498.073l-.374-.642,18.782-10.843,6.3-18.19.12-.07,69.122-39.9-.183-14.443.744.212.187,14.658-.187.109L646.968,468.9l-6.292,18.19Z" transform="translate(-621.28 -413.98)" fill="url(#linear-gradient-4)"/>
      </g>
      <path id="Trazado_116255" data-name="Trazado 116255" d="M861.154,332.944a9.134,9.134,0,0,1-.73,1.8,1.358,1.358,0,0,1-.074.141,6.966,6.966,0,0,1-1.745,2.083l-.021.014-.494.353c-2.175,1.385-5.073,1.269-7.963-.293l-.635-.367L824.94,322.46l-3.338-1.932,0,0-27.5-15.923-1.548-.9-14.386-8.33-.063-.032a15.921,15.921,0,0,1-3.948-3.176,20.422,20.422,0,0,1-2.372-3.13,21.15,21.15,0,0,1-2.891-7.53,12.742,12.742,0,0,1,1.012-8.33,6.712,6.712,0,0,1,2.3-2.471l.011-.007a6.187,6.187,0,0,1,2.517-.874,8.269,8.269,0,0,1,3.677.448c.18.063.36.127.543.2a14.051,14.051,0,0,1,4.181,2.736,8.407,8.407,0,0,1,4.526-3.233c4.068-1.17,9.25.642,13.766,5.305a24.1,24.1,0,0,1,1.992-6.063c.162-.331.335-.659.515-.98a16.182,16.182,0,0,1,5.767-6.106l.011,0a14.855,14.855,0,0,1,5.721-1.974c7.089-.948,15.624,2.69,23.041,10.724,10.872,11.774,15.74,29.051,12.236,41.17a14.817,14.817,0,0,1,5.4,3.853c.3.328.6.666.874,1.015C860.855,321.737,862.511,328.273,861.154,332.944Z" transform="translate(-190.883 -6.446)" fill="#f3f6ff"/>
      <path id="Trazado_116256" data-name="Trazado 116256" d="M838.358,280.472a24,24,0,0,0-1.992,6.063c-4.516-4.664-9.7-6.476-13.766-5.305l.384-.271C826.365,276.312,832.58,276.235,838.358,280.472Z" transform="translate(-225.829 -17.692)" fill="url(#linear-gradient-58)"/>
      <path id="Trazado_116257" data-name="Trazado 116257" d="M794.618,281.193l-.384.271a8.425,8.425,0,0,0-4.526,3.233,14.051,14.051,0,0,0-4.181-2.736c-.18-.074-.36-.141-.543-.2a8.262,8.262,0,0,0-3.677-.448,6.2,6.2,0,0,0-2.517.874L783.1,279.1l.522-.374a7.375,7.375,0,0,1,7.057-.162A14.338,14.338,0,0,1,794.618,281.193Z" transform="translate(-197.463 -17.93)" fill="url(#linear-gradient-59)"/>
      <path id="Trazado_116258" data-name="Trazado 116258" d="M931.055,302.1l-4.907,3.508c3.5-12.12-1.364-29.393-12.236-41.17-7.417-8.034-15.951-11.672-23.041-10.724a15.064,15.064,0,0,0-4.093,1.135,14.209,14.209,0,0,0-1.629.839l3.6-2.623.444-.324c7.78-5.443,19.7-2.556,29.622,8.189C929.691,272.71,934.559,289.984,931.055,302.1Z" transform="translate(-266.329)" fill="url(#linear-gradient-60)"/>
      <path id="Trazado_116259" data-name="Trazado 116259" d="M1016,420.543a6.773,6.773,0,0,1-2.133,2.365v0l-4.523,3.222a6.905,6.905,0,0,0,1.745-2.083,1.352,1.352,0,0,0,.074-.141,9.216,9.216,0,0,0,.73-1.8c1.354-4.671-.3-11.207-4.181-16.022-.279-.349-.571-.687-.874-1.015a14.818,14.818,0,0,0-5.4-3.853l4.907-3.508a14.83,14.83,0,0,1,5.4,3.857c.3.328.6.67.878,1.019C1017.081,408.1,1018.6,415.9,1016,420.543Z" transform="translate(-341.625 -95.603)" fill="url(#linear-gradient-61)"/>
      <path id="Trazado_116260" data-name="Trazado 116260" d="M898.83,297.11l0,21.824,18.9,10.91V308.02Z" transform="translate(-275.187 -30.467)" fill="url(#linear-gradient-62)"/>
      <path id="Trazado_116261" data-name="Trazado 116261" d="M807.99,308.51v13.907l12.046,6.952V315.462Z" transform="translate(-216.369 -37.848)" fill="url(#linear-gradient-63)"/>
      <path id="Trazado_116262" data-name="Trazado 116262" d="M968.05,411.24l0,11.841L978.3,429l0-11.841Z" transform="translate(-320.005 -104.364)" fill="url(#linear-gradient-64)"/>
      <path id="Trazado_116263" data-name="Trazado 116263" d="M880.96,368.97v7.276l22.054,12.733V381.7Z" transform="translate(-263.616 -76.995)" fill="url(#linear-gradient-65)"/>
      <path id="Trazado_116264" data-name="Trazado 116264" d="M904.88,311.32v5.989l5.189,3v-5.993Z" transform="translate(-279.104 -39.667)" fill="url(#linear-gradient-66)"/>
      <g id="Grupo_82037" data-name="Grupo 82037" transform="translate(625.671 281.038)">
        <path id="Trazado_116265" data-name="Trazado 116265" d="M912.228,342.757a.259.259,0,0,1-.141-.039l-7.364-4.251a.281.281,0,0,1,.282-.486l7.364,4.251a.282.282,0,0,1,.1.384A.289.289,0,0,1,912.228,342.757Z" transform="translate(-904.583 -337.943)" fill="url(#linear-gradient-67)"/>
      </g>
      <g id="Grupo_82038" data-name="Grupo 82038" transform="translate(625.668 283.163)">
        <path id="Trazado_116266" data-name="Trazado 116266" d="M914.058,349.848a.259.259,0,0,1-.141-.039l-9.2-5.312a.281.281,0,1,1,.282-.487l9.2,5.312a.282.282,0,0,1,.1.384A.273.273,0,0,1,914.058,349.848Z" transform="translate(-904.573 -343.973)" fill="url(#linear-gradient-68)"/>
      </g>
      <g id="Grupo_82039" data-name="Grupo 82039" transform="translate(625.668 285.289)">
        <path id="Trazado_116267" data-name="Trazado 116267" d="M915.9,356.943a.259.259,0,0,1-.141-.039l-11.044-6.377a.281.281,0,1,1,.282-.486l11.044,6.377a.282.282,0,0,1-.141.525Z" transform="translate(-904.573 -350.003)" fill="url(#linear-gradient-69)"/>
      </g>
      <path id="Trazado_116268" data-name="Trazado 116268" d="M813.28,320.19v3.359l2.908,1.678v-3.359Z" transform="translate(-219.794 -45.41)" fill="url(#linear-gradient-70)"/>
      <g id="Grupo_82040" data-name="Grupo 82040" transform="translate(593.428 280.042)">
        <path id="Trazado_116269" data-name="Trazado 116269" d="M817.4,337.815a.151.151,0,0,1-.078-.021l-4.128-2.383a.157.157,0,0,1,.159-.271l4.128,2.383a.157.157,0,0,1-.081.293Z" transform="translate(-813.117 -335.117)" fill="url(#linear-gradient-71)"/>
      </g>
      <g id="Grupo_82041" data-name="Grupo 82041" transform="translate(593.428 281.237)">
        <path id="Trazado_116270" data-name="Trazado 116270" d="M818.434,341.8a.15.15,0,0,1-.078-.021L813.2,338.8a.157.157,0,0,1,.159-.271l5.161,2.979a.156.156,0,0,1,.056.215A.165.165,0,0,1,818.434,341.8Z" transform="translate(-813.117 -338.507)" fill="url(#linear-gradient-72)"/>
      </g>
      <g id="Grupo_82042" data-name="Grupo 82042" transform="translate(593.428 282.425)">
        <path id="Trazado_116271" data-name="Trazado 116271" d="M819.467,345.77a.151.151,0,0,1-.078-.021l-6.194-3.578a.157.157,0,1,1,.159-.271l6.194,3.578a.156.156,0,0,1,.056.215A.165.165,0,0,1,819.467,345.77Z" transform="translate(-813.117 -341.877)" fill="url(#linear-gradient-73)"/>
      </g>
      <path id="Trazado_116272" data-name="Trazado 116272" d="M971.74,420.34v2.8l2.418,1.4v-2.8Z" transform="translate(-322.395 -110.256)" fill="url(#linear-gradient-74)"/>
      <g id="Grupo_82043" data-name="Grupo 82043" transform="translate(649.29 314.46)">
        <path id="Trazado_116273" data-name="Trazado 116273" d="M975.152,435a.158.158,0,0,1-.067-.018L971.648,433a.132.132,0,1,1,.13-.229l3.437,1.985a.132.132,0,0,1,.049.18A.127.127,0,0,1,975.152,435Z" transform="translate(-971.582 -432.752)" fill="url(#linear-gradient-75)"/>
      </g>
      <g id="Grupo_82044" data-name="Grupo 82044" transform="translate(649.293 315.454)">
        <path id="Trazado_116274" data-name="Trazado 116274" d="M976.019,438.314a.158.158,0,0,1-.067-.018l-4.294-2.478a.132.132,0,0,1,.13-.229l4.294,2.478a.132.132,0,0,1,.049.18A.13.13,0,0,1,976.019,438.314Z" transform="translate(-971.592 -435.572)" fill="url(#linear-gradient-76)"/>
      </g>
      <g id="Grupo_82045" data-name="Grupo 82045" transform="translate(649.293 316.444)">
        <path id="Trazado_116275" data-name="Trazado 116275" d="M976.875,441.621a.158.158,0,0,1-.067-.018l-5.15-2.975a.132.132,0,0,1,.13-.229l5.15,2.975a.132.132,0,0,1,.049.18A.126.126,0,0,1,976.875,441.621Z" transform="translate(-971.592 -438.382)" fill="url(#linear-gradient-77)"/>
      </g>
      <g id="Grupo_82046" data-name="Grupo 82046" transform="translate(624.123 260.217)">
        <path id="Trazado_116276" data-name="Trazado 116276" d="M921.091,294.4l-7.893-4.562-2.616-4.526-10.392-6,.247-.43,10.509,6.07,2.612,4.523,7.784,4.495Z" transform="translate(-900.19 -278.88)" fill="url(#linear-gradient-78)"/>
      </g>
      <g id="Grupo_82047" data-name="Grupo 82047" transform="translate(632.562 258.497)">
        <path id="Trazado_116277" data-name="Trazado 116277" d="M935.8,283.694l-9.335-5.372-2.334-4.079.427-.243,2.27,3.959,9.218,5.305Z" transform="translate(-924.13 -274)" fill="url(#linear-gradient-79)"/>
      </g>
      <g id="Grupo_82048" data-name="Grupo 82048" transform="translate(649.07 284.47)">
        <path id="Trazado_116278" data-name="Trazado 116278" d="M977.207,370.216l-3.564-5.732V353.556l-2.683-5.665.448-.212,2.728,5.764v10.9l3.49,5.612Z" transform="translate(-970.96 -347.68)" fill="url(#linear-gradient-80)"/>
      </g>
      <g id="Grupo_82049" data-name="Grupo 82049" transform="translate(645.573 290.072)">
        <path id="Trazado_116279" data-name="Trazado 116279" d="M967.343,367.638,961.04,364l.25-.43,6.3,3.638Z" transform="translate(-961.04 -363.57)" fill="url(#linear-gradient-81)"/>
      </g>
      <g id="Grupo_82050" data-name="Grupo 82050" transform="translate(648.658 271.649)">
        <path id="Trazado_116280" data-name="Trazado 116280" d="M971.778,321.135h-.494V314.1l-1.495-2.542.427-.25,1.562,2.654Z" transform="translate(-969.79 -311.31)" fill="url(#linear-gradient-82)"/>
      </g>
      <g id="Grupo_82051" data-name="Grupo 82051" transform="translate(613.988 266.64)">
        <path id="Trazado_116281" data-name="Trazado 116281" d="M871.852,316.7l-.412-.275,3.293-4.946-.183-14.372.494-.007.187,14.524Z" transform="translate(-871.44 -297.1)" fill="url(#linear-gradient-83)"/>
      </g>
      <g id="Grupo_82052" data-name="Grupo 82052" transform="translate(607.646 280.459)">
        <rect id="Rectángulo_34495" data-name="Rectángulo 34495" width="0.494" height="9.662" fill="url(#linear-gradient-84)"/>
      </g>
      <g id="Grupo_82053" data-name="Grupo 82053" transform="translate(582.476 267.86)">
        <path id="Trazado_116282" data-name="Trazado 116282" d="M788.357,319.476l-3.19-5.316v-7.48l-3.116-5.887.437-.233,3.173,6v7.466l3.123,5.2Z" transform="translate(-782.05 -300.56)" fill="url(#linear-gradient-85)"/>
      </g>
      <g id="Grupo_82054" data-name="Grupo 82054" transform="translate(582.533 274.593)">
        <path id="Trazado_116283" data-name="Trazado 116283" d="M785.354,322.812l-3.144-2.781.328-.37,3.144,2.781Z" transform="translate(-782.21 -319.66)" fill="url(#linear-gradient-86)"/>
      </g>
      <g id="Grupo_82055" data-name="Grupo 82055" transform="translate(661.43 315.636)">
        <path id="Trazado_116284" data-name="Trazado 116284" d="M1006.514,448.809h-.494v-7.339l2.958-5.379.434.24-2.9,5.267Z" transform="translate(-1006.02 -436.09)" fill="url(#linear-gradient-87)"/>
      </g>
      <g id="Grupo_82056" data-name="Grupo 82056" transform="translate(576.209 336.872)">
        <path id="Trazado_116285" data-name="Trazado 116285" d="M764.64,515.017l-.37-.642,12.511-7.223,6.236-10.822.645.37-6.338,11Z" transform="translate(-764.27 -496.33)" fill="url(#linear-gradient-4)"/>
      </g>
      <g id="Grupo_82057" data-name="Grupo 82057" transform="translate(566.617 331.285)">
        <path id="Trazado_116286" data-name="Trazado 116286" d="M737.7,528.26l-.642-.37,6.356-10.995.085-.049,37.7-21.768,6.529-14.6.677.3L781.777,495.6l-37.818,21.838Z" transform="translate(-737.06 -480.48)" fill="url(#linear-gradient-4)"/>
      </g>
      <g id="Grupo_82058" data-name="Grupo 82058" transform="translate(544.694 341.723)">
        <path id="Trazado_116287" data-name="Trazado 116287" d="M675.254,520.281l-.384-.635,15.839-9.557H704.14v.74H690.917Z" transform="translate(-674.87 -510.09)" fill="url(#linear-gradient-4)"/>
      </g>
      <g id="Grupo_82059" data-name="Grupo 82059" transform="translate(578.902 323.952)">
        <path id="Trazado_116288" data-name="Trazado 116288" d="M772.28,467.908l-.37-.645,9.969-5.76,15.828-1.823.088.737-15.676,1.8Z" transform="translate(-771.91 -459.68)" fill="url(#linear-gradient-78)"/>
      </g>
      <g id="Grupo_82060" data-name="Grupo 82060" transform="translate(513.193 384.049)">
        <path id="Trazado_116289" data-name="Trazado 116289" d="M585.884,656.236l-.374-.642L604.3,644.737l6.243-14.577.68.293-6.338,14.8Z" transform="translate(-585.51 -630.16)" fill="url(#linear-gradient-92)"/>
      </g>
      <g id="Grupo_82061" data-name="Grupo 82061" transform="translate(481.688 373.1)">
        <path id="Trazado_116290" data-name="Trazado 116290" d="M496.514,625.211l-.374-.642,15.789-9.116L527.676,610l18.874-10.9.37.645-18.934,10.928-15.747,5.461Z" transform="translate(-496.14 -599.1)" fill="url(#linear-gradient-93)"/>
      </g>
      <path id="Trazado_116291" data-name="Trazado 116291" d="M770.217,480.495c0,.758-.906,1.375-2.023,1.375s-2.023-.617-2.023-1.375.906-1.375,2.023-1.375S770.217,479.737,770.217,480.495Z" transform="translate(-189.292 -148.315)" fill="url(#linear-gradient-94)"/>
      <path id="Trazado_116292" data-name="Trazado 116292" d="M673.207,536.475c0,.758-.906,1.375-2.023,1.375s-2.023-.617-2.023-1.375.906-1.375,2.023-1.375S673.207,535.717,673.207,536.475Z" transform="translate(-126.479 -184.561)" fill="url(#linear-gradient-95)"/>
      <path id="Trazado_116293" data-name="Trazado 116293" d="M762.577,546.815c0,.758-.906,1.375-2.023,1.375s-2.023-.617-2.023-1.375.906-1.375,2.023-1.375S762.577,546.057,762.577,546.815Z" transform="translate(-184.345 -191.256)" fill="url(#linear-gradient-96)"/>
      <path id="Trazado_116294" data-name="Trazado 116294" d="M735.857,614.335c0,.758-.906,1.375-2.023,1.375s-2.023-.617-2.023-1.375.906-1.375,2.023-1.375S735.857,613.577,735.857,614.335Z" transform="translate(-167.044 -234.974)" fill="url(#linear-gradient-97)"/>
      <path id="Trazado_116295" data-name="Trazado 116295" d="M879.267,477.955c0,.758-.906,1.375-2.023,1.375s-2.023-.617-2.023-1.375.906-1.375,2.023-1.375S879.267,477.2,879.267,477.955Z" transform="translate(-259.9 -146.67)" fill="url(#linear-gradient-98)"/>
      <path id="Trazado_116296" data-name="Trazado 116296" d="M477.867,627.635c0,.758-.906,1.375-2.023,1.375s-2.023-.617-2.023-1.375.906-1.375,2.023-1.375S477.867,626.877,477.867,627.635Z" transform="translate(0 -243.585)" fill="url(#linear-gradient-99)"/>
      <path id="Trazado_116297" data-name="Trazado 116297" d="M638.707,596.665c0,.758-.906,1.375-2.023,1.375s-2.023-.617-2.023-1.375.906-1.375,2.023-1.375S638.707,595.907,638.707,596.665Z" transform="translate(-104.141 -223.533)" fill="url(#linear-gradient-100)"/>
      <path id="Trazado_116298" data-name="Trazado 116298" d="M496.627,669.595c0,.758-.906,1.375-2.023,1.375s-2.023-.617-2.023-1.375.906-1.375,2.023-1.375S496.627,668.837,496.627,669.595Z" transform="translate(-12.147 -270.754)" fill="url(#linear-gradient-101)"/>
      <path id="Trazado_116299" data-name="Trazado 116299" d="M619.6,649.075c0,.758-.906,1.375-2.023,1.375s-2.023-.617-2.023-1.375.906-1.375,2.023-1.375S619.6,648.317,619.6,649.075Z" transform="translate(-91.768 -257.467)" fill="url(#linear-gradient-102)"/>
      <path id="Trazado_116300" data-name="Trazado 116300" d="M585.257,699.965c0,.758-.906,1.375-2.023,1.375s-2.023-.617-2.023-1.375.906-1.375,2.023-1.375S585.257,699.21,585.257,699.965Z" transform="translate(-69.533 -290.418)" fill="url(#linear-gradient-103)"/>
      <path id="Trazado_116301" data-name="Trazado 116301" d="M779.8,298.048a.869.869,0,0,0-.116.62,1.482,1.482,0,0,0,.211.575,1.719,1.719,0,0,0,.187.243c.405.434.938.494,1.192.13a1.247,1.247,0,0,0-.282-1.438C780.586,297.748,780.053,297.688,779.8,298.048Z" transform="translate(-198.035 -30.922)" fill="url(#linear-gradient-104)"/>
      <path id="Trazado_116302" data-name="Trazado 116302" d="M779.873,316.2a.869.869,0,0,0-.116.62,1.482,1.482,0,0,0,.212.575,1.724,1.724,0,0,0,.187.243c.405.434.938.493,1.192.13a1.246,1.246,0,0,0-.282-1.438C780.656,315.9,780.123,315.84,779.873,316.2Z" transform="translate(-198.081 -42.675)" fill="url(#linear-gradient-105)"/>
      <path id="Trazado_116303" data-name="Trazado 116303" d="M798.043,350.673a.869.869,0,0,0-.116.62,1.482,1.482,0,0,0,.211.575,1.723,1.723,0,0,0,.187.243c.405.434.938.494,1.192.13a1.246,1.246,0,0,0-.282-1.438C798.829,350.37,798.293,350.31,798.043,350.673Z" transform="translate(-209.845 -64.994)" fill="url(#linear-gradient-106)"/>
      <path id="Trazado_116304" data-name="Trazado 116304" d="M851.123,333.633a.869.869,0,0,0-.116.62,1.482,1.482,0,0,0,.211.575,1.725,1.725,0,0,0,.187.243c.405.434.938.493,1.192.13a1.246,1.246,0,0,0-.282-1.438C851.906,333.33,851.373,333.27,851.123,333.633Z" transform="translate(-244.214 -53.961)" fill="url(#linear-gradient-107)"/>
      <path id="Trazado_116305" data-name="Trazado 116305" d="M851.123,361.038a.869.869,0,0,0-.116.62,1.482,1.482,0,0,0,.211.575,1.723,1.723,0,0,0,.187.243c.405.434.938.494,1.192.13a1.246,1.246,0,0,0-.282-1.438C851.906,360.738,851.373,360.678,851.123,361.038Z" transform="translate(-244.214 -71.707)" fill="url(#linear-gradient-108)"/>
      <path id="Trazado_116306" data-name="Trazado 116306" d="M878.153,292.528a.869.869,0,0,0-.116.62,1.483,1.483,0,0,0,.212.575,1.717,1.717,0,0,0,.187.243c.405.434.938.494,1.192.13a1.246,1.246,0,0,0-.282-1.438C878.936,292.228,878.4,292.168,878.153,292.528Z" transform="translate(-261.715 -27.348)" fill="url(#linear-gradient-109)"/>
      <path id="Trazado_116307" data-name="Trazado 116307" d="M860.543,387.113a.87.87,0,0,0-.116.62,1.484,1.484,0,0,0,.212.575,1.718,1.718,0,0,0,.187.243c.405.434.938.494,1.192.13a1.247,1.247,0,0,0-.282-1.438C861.326,386.81,860.794,386.75,860.543,387.113Z" transform="translate(-250.313 -88.588)" fill="url(#linear-gradient-110)"/>
      <g id="Grupo_82062" data-name="Grupo 82062" transform="translate(610.798 273.793)">
        <path id="Trazado_116308" data-name="Trazado 116308" d="M862.884,342.983h-.494v-7.424l3.148-1.815.007-10.7-3.123-5.4.43-.25,3.187,5.52,0,11.118-3.151,1.815Z" transform="translate(-862.39 -317.39)" fill="url(#linear-gradient-111)"/>
      </g>
      <path id="Trazado_116309" data-name="Trazado 116309" d="M860.553,315.083a.87.87,0,0,0-.116.62,1.483,1.483,0,0,0,.211.575,1.719,1.719,0,0,0,.187.243c.405.434.938.494,1.191.13a1.247,1.247,0,0,0-.282-1.438C861.336,314.78,860.8,314.72,860.553,315.083Z" transform="translate(-250.32 -41.95)" fill="url(#linear-gradient-112)"/>
      <path id="Trazado_116310" data-name="Trazado 116310" d="M897.453,276.218a.869.869,0,0,0-.116.62,1.483,1.483,0,0,0,.211.575,1.717,1.717,0,0,0,.187.243c.405.434.938.494,1.192.13a1.247,1.247,0,0,0-.282-1.438C898.236,275.918,897.7,275.858,897.453,276.218Z" transform="translate(-274.212 -16.787)" fill="url(#linear-gradient-113)"/>
      <path id="Trazado_116311" data-name="Trazado 116311" d="M958.543,320.236a.87.87,0,0,0-.116.62,1.484,1.484,0,0,0,.212.575,1.72,1.72,0,0,0,.187.243c.405.434.938.494,1.192.13a1.246,1.246,0,0,0-.282-1.438C959.326,319.933,958.794,319.876,958.543,320.236Z" transform="translate(-313.766 -45.287)" fill="url(#linear-gradient-114)"/>
      <path id="Trazado_116312" data-name="Trazado 116312" d="M955.6,298.226a.869.869,0,0,0-.116.62,1.484,1.484,0,0,0,.211.575,1.72,1.72,0,0,0,.187.243c.405.434.938.494,1.192.13a1.247,1.247,0,0,0-.282-1.438C956.389,297.923,955.857,297.866,955.6,298.226Z" transform="translate(-311.863 -31.036)" fill="url(#linear-gradient-115)"/>
      <path id="Trazado_116313" data-name="Trazado 116313" d="M921.8,271.333a.869.869,0,0,0-.116.62,1.483,1.483,0,0,0,.211.575,1.719,1.719,0,0,0,.187.243c.405.434.938.494,1.192.13a1.247,1.247,0,0,0-.282-1.438C922.586,271.03,922.053,270.97,921.8,271.333Z" transform="translate(-289.978 -13.623)" fill="url(#linear-gradient-116)"/>
      <path id="Trazado_116314" data-name="Trazado 116314" d="M967.873,307.958a.869.869,0,0,0-.116.62,1.483,1.483,0,0,0,.212.575,1.722,1.722,0,0,0,.187.243c.405.434.938.494,1.192.13a1.246,1.246,0,0,0-.282-1.438C968.656,307.658,968.123,307.6,967.873,307.958Z" transform="translate(-319.807 -37.338)" fill="url(#linear-gradient-117)"/>
      <path id="Trazado_116315" data-name="Trazado 116315" d="M972.363,336.516a.869.869,0,0,0-.116.62,1.482,1.482,0,0,0,.211.575,1.723,1.723,0,0,0,.187.243c.405.434.938.493,1.192.13a1.246,1.246,0,0,0-.282-1.438C973.146,336.213,972.613,336.156,972.363,336.516Z" transform="translate(-322.715 -55.828)" fill="url(#linear-gradient-118)"/>
      <path id="Trazado_116316" data-name="Trazado 116316" d="M969.9,345.7a.869.869,0,0,0-.116.62,1.482,1.482,0,0,0,.211.575,1.723,1.723,0,0,0,.187.243c.405.434.938.494,1.192.13a1.246,1.246,0,0,0-.282-1.438C970.689,345.4,970.157,345.338,969.9,345.7Z" transform="translate(-321.122 -61.774)" fill="url(#linear-gradient-119)"/>
      <path id="Trazado_116317" data-name="Trazado 116317" d="M959.163,361.5a.87.87,0,0,0-.116.62,1.484,1.484,0,0,0,.212.575,1.718,1.718,0,0,0,.187.243c.405.434.938.494,1.191.13a1.246,1.246,0,0,0-.282-1.438C959.946,361.2,959.414,361.138,959.163,361.5Z" transform="translate(-314.168 -72.004)" fill="url(#linear-gradient-120)"/>
      <path id="Trazado_116318" data-name="Trazado 116318" d="M986.993,408.573a.87.87,0,0,0-.116.62,1.483,1.483,0,0,0,.212.575,1.718,1.718,0,0,0,.187.243c.405.434.938.493,1.191.13a1.246,1.246,0,0,0-.282-1.438C987.779,408.27,987.247,408.21,986.993,408.573Z" transform="translate(-332.187 -102.483)" fill="url(#linear-gradient-121)"/>
      <path id="Trazado_116319" data-name="Trazado 116319" d="M1012.523,433.623a.869.869,0,0,0-.116.62,1.482,1.482,0,0,0,.211.575,1.721,1.721,0,0,0,.187.243c.405.434.938.494,1.192.13a1.246,1.246,0,0,0-.282-1.438C1013.309,433.32,1012.773,433.26,1012.523,433.623Z" transform="translate(-348.718 -118.703)" fill="url(#linear-gradient-122)"/>
      <path id="Trazado_116320" data-name="Trazado 116320" d="M1003.9,469.323a.869.869,0,0,0-.116.62,1.482,1.482,0,0,0,.211.575,1.723,1.723,0,0,0,.187.243c.405.434.938.494,1.192.13a1.246,1.246,0,0,0-.282-1.438C1004.686,469.02,1004.153,468.96,1003.9,469.323Z" transform="translate(-343.136 -141.818)" fill="url(#linear-gradient-123)"/>
      <path id="Trazado_116321" data-name="Trazado 116321" d="M687.74,371.537a1.089,1.089,0,0,1,.145.451c0,.215-.219.941-.088,1s.451-.37.723-.229,1.121,1.713,1.935,1.051,1.336-1.636,1.029-1.918-1.674-.412-1.847-.649a3.654,3.654,0,0,1-.25-.381l-1.068-.12Z" transform="translate(-138.509 -78.141)" fill="url(#linear-gradient-124)"/>
      <path id="Trazado_116322" data-name="Trazado 116322" d="M677.425,347.351a2.452,2.452,0,0,1-.924.613,3.218,3.218,0,0,1-1.156.264s-1-2.623-1.784-4.65c-.018-.039-.035-.088-.053-.141-.07-.18-.137-.36-.2-.525-.1-.243-.18-.469-.257-.673-.737-1.921-2.027-2.82-3.374-4.674a3.975,3.975,0,0,1-.666-1.308,1.509,1.509,0,0,1,.215-1.452s.917-1.082,2.669,1.491a24.58,24.58,0,0,1,2.7,4.227C675.644,342.719,677.425,347.351,677.425,347.351Z" transform="translate(-126.329 -54.727)" fill="url(#linear-gradient-125)"/>
      <path id="Trazado_116323" data-name="Trazado 116323" d="M673.434,345.976a18,18,0,0,0-2.676-3.31,6.072,6.072,0,0,1-1.629-3.345l0,0a4.006,4.006,0,0,0,.666,1.308c1.35,1.854,2.637,2.757,3.374,4.674C673.254,345.507,673.339,345.732,673.434,345.976Z" transform="translate(-126.46 -57.797)" fill="#b6b6f2"/>
      <path id="Trazado_116324" data-name="Trazado 116324" d="M840.249,487.032s-.708,2.263.564,2.143,3.983-1.579,3.864-2.143-3-.063-3-.063l-.91-.338Z" transform="translate(-237.129 -153.177)" fill="url(#linear-gradient-126)"/>
      <path id="Trazado_116325" data-name="Trazado 116325" d="M830.983,484.828s-.7,2.242.561,2.122,3.945-1.565,3.828-2.122-2.972-.063-2.972-.063l-.9-.335Z" transform="translate(-231.131 -151.753)" fill="url(#linear-gradient-127)"/>
      <path id="Trazado_116326" data-name="Trazado 116326" d="M836.01,445.176a15.409,15.409,0,0,1,.627,3.881c-.081,1.449.969,10.392.969,10.392s.12.2.553.176a1.247,1.247,0,0,0,.673-.229s.138-14.231-.215-15.2-2.609-.539-2.609-.539Z" transform="translate(-234.512 -125.288)" fill="url(#linear-gradient-128)"/>
      <path id="Trazado_116327" data-name="Trazado 116327" d="M826.994,443.707a15.232,15.232,0,0,1,.62,3.846c-.081,1.435.962,10.29.962,10.29s.12.2.546.173a1.238,1.238,0,0,0,.666-.226s.138-14.09-.215-15.056-2.584-.532-2.584-.532v1.505Z" transform="translate(-228.671 -124.348)" fill="url(#linear-gradient-129)"/>
      <path id="Trazado_116328" data-name="Trazado 116328" d="M832.427,432.279a4.929,4.929,0,0,0-1.78-.441c-1.682.049-1.5.5-3.278.589a6.92,6.92,0,0,1-3.56-1.128,4.342,4.342,0,0,1-.021-2.52,4.032,4.032,0,0,0,.039-2.63,1.674,1.674,0,0,1,1.639-.508,10.887,10.887,0,0,0,3.994-.462h0a7.2,7.2,0,0,1-3.042-.021c-.338-.081-.642-.159-.917-.24a7.509,7.509,0,0,1-1.812-.733s.448-.039,1.125-.092c.836-.067,2.016-.159,3.116-.236,1.488-.109,2.82-.19,2.94-.148.282.1.768.737.768.737Z" transform="translate(-226.48 -112.43)" fill="url(#linear-gradient-130)"/>
      <path id="Trazado_116329" data-name="Trazado 116329" d="M820.992,387.37s-2.052,3.783-1.932,5.341,4.107,2.253,4.107,2.253l-.183-4.026Z" transform="translate(-223.534 -88.908)" fill="url(#linear-gradient-131)"/>
      <path id="Trazado_116330" data-name="Trazado 116330" d="M835.492,368.268s.737,1.093.557,1.484c-.088.19.712,1.269.187,1.632-.719.5-1.823.43-2.982-.5s-.43-2.616-.43-2.616l1.2-1Z" transform="translate(-232.302 -75.894)" fill="url(#linear-gradient-132)"/>
      <path id="Trazado_116331" data-name="Trazado 116331" d="M857.46,377.046s1.117-3.046,1.311-2.852-.236,1.163.109,1.565.8.585.353,1.149a7.272,7.272,0,0,1-1.678,1.241Z" transform="translate(-248.4 -80.371)" fill="url(#linear-gradient-133)"/>
      <path id="Trazado_116332" data-name="Trazado 116332" d="M832.222,389.392a5.239,5.239,0,0,1-2.253-2.027c.046.113.353.864.19,1.237a2.068,2.068,0,0,1-.211.345l-.018.025a.167.167,0,0,0-.021.032.107.107,0,0,1-.018.025.969.969,0,0,0-.166.909c.12.4.338.8.568,1.484h0a11.453,11.453,0,0,1,.441,1.847,30.254,30.254,0,0,1,.36,3.687s-.116.07-.324.176a8.842,8.842,0,0,1-2.179.737,7.2,7.2,0,0,1-3.042-.021c-.338-.081-.642-.159-.917-.24a7.51,7.51,0,0,1-1.812-.733c-.465-.282-.55-.476-.55-.476s.025-.24.067-.627c.134-1.209.441-3.857.687-5a12.117,12.117,0,0,0-.208-3.642,13.459,13.459,0,0,1-.145-2.193c.088-2.718,3.36-2.824,3.36-2.824a4.652,4.652,0,0,1,3.687,1.657,7.127,7.127,0,0,0,2.246,2.217c.254.1.441.06.536-.137.06-.134.173-.434.317-.814v0c.539-1.414,1.558-3.966,2.355-3.434C836.194,382.271,833.914,390.256,832.222,389.392Z" transform="translate(-225.615 -85.125)" fill="url(#linear-gradient-134)"/>
      <path id="Trazado_116333" data-name="Trazado 116333" d="M838.36,416.549a6.336,6.336,0,0,0,1.255-.324,3.2,3.2,0,0,0,.811-.635,3.34,3.34,0,0,1-.536,1.139,2.039,2.039,0,0,1-.444.427s.187-.649-.169-.6A4.8,4.8,0,0,1,838.36,416.549Z" transform="translate(-236.033 -107.18)" fill="url(#linear-gradient-135)"/>
      <path id="Trazado_116334" data-name="Trazado 116334" d="M841.756,405.2a4.554,4.554,0,0,0-1.392-1.1c-.546-.152-.515-.194.071-.487a2.819,2.819,0,0,0,.92-.807.969.969,0,0,0-.166.909C841.309,404.121,841.531,404.52,841.756,405.2Z" transform="translate(-237.078 -98.905)" fill="url(#linear-gradient-136)"/>
      <path id="Trazado_116335" data-name="Trazado 116335" d="M825.255,403.433a7.813,7.813,0,0,0-1.837,2.02c-.254.486-.271.927.116,1.244a4.806,4.806,0,0,1,.416.384,7.474,7.474,0,0,1,.691.828,7.51,7.51,0,0,1-1.812-.733c-.465-.282-.55-.476-.55-.476s.025-.24.067-.628c.134-1.209.441-3.857.687-5a12.117,12.117,0,0,0-.208-3.641s1.879,1.3,1.375,1.9-.871,1.791-.367,2.15S826.549,402.341,825.255,403.433Z" transform="translate(-225.622 -95.422)" fill="url(#linear-gradient-137)"/>
      <path id="Trazado_116336" data-name="Trazado 116336" d="M850.615,392.72c.039.374-.825-.279-.825-.279h0c.254.1.441.06.536-.137.06-.134.173-.434.317-.814A3.382,3.382,0,0,0,850.615,392.72Z" transform="translate(-243.434 -91.576)" fill="url(#linear-gradient-138)"/>
      <path id="Trazado_116337" data-name="Trazado 116337" d="M829.58,426.068a10.886,10.886,0,0,1-3.994.462,1.659,1.659,0,0,0-1.639.508c-.014-.053-.028-.106-.039-.162a6.631,6.631,0,0,1-.1-1.8,7.574,7.574,0,0,0,1.812.733c.275.081.578.159.917.24a7.263,7.263,0,0,0,3.042.025Z" transform="translate(-226.598 -113.318)" fill="url(#linear-gradient-139)"/>
      <path id="Trazado_116338" data-name="Trazado 116338" d="M829.716,366.615s-1.022.2-.56,1.639.927,2.126.219,2.63-.367.909-.173,1.375c.437,1.054.6,2.767-1.727,2.584s-4.332-1.414-3.67-3.13c.37-.955,1.861-1.375,1.079-2.076-.405-.363-.412-1.456,0-2.616.532-1.505,1.41-2.51,3.014-2.267A2.217,2.217,0,0,1,829.716,366.615Z" transform="translate(-226.526 -74.241)" fill="#012860"/>
      <path id="Trazado_116339" data-name="Trazado 116339" d="M683.3,434.877c.162.635,4.879,3.321,5.542,2.979s-2.436-4.4-2.436-4.4a1.8,1.8,0,0,1-1.2.821,3.164,3.164,0,0,1-1.632-.021h0A.714.714,0,0,0,683.3,434.877Z" transform="translate(-135.626 -118.751)" fill="url(#linear-gradient-140)"/>
      <path id="Trazado_116340" data-name="Trazado 116340" d="M695.13,421.83c.159.606,4.646,3.162,5.277,2.838.585-.3-1.879-3.606-2.267-4.117a4.74,4.74,0,0,1-1.033.465,3.826,3.826,0,0,1-1.579.1C695.44,421.181,695.049,421.512,695.13,421.83Z" transform="translate(-143.287 -110.392)" fill="url(#linear-gradient-141)"/>
      <path id="Trazado_116341" data-name="Trazado 116341" d="M658.68,348.283c.515.987,4.16,2.115,6.275.145s3.141-1.4,3.141-1.4a18.949,18.949,0,0,0-.913-3.458,14.132,14.132,0,0,1-.892-4.632c-.028-.2-.06-.412-.1-.613a5.2,5.2,0,0,0-.5-1.5,7.781,7.781,0,0,0-2.246-2.394c-.074-.053-.148-.1-.215-.152v0a9.911,9.911,0,0,0-1-.617l-1.343-.434a4.807,4.807,0,0,0-2.425,2.334c-.557,1.544.342,6.257,0,7.889A8.914,8.914,0,0,0,658.68,348.283Z" transform="translate(-119.412 -53.847)" fill="url(#linear-gradient-142)"/>
      <path id="Trazado_116342" data-name="Trazado 116342" d="M660.615,378.173c1.713,1.932,4.886,4.008,5.27,5.8s1.882,10.442,1.882,10.442a.693.693,0,0,0,.275.162h0a3.163,3.163,0,0,0,1.632.021,1.922,1.922,0,0,0,1.407-1.23s-1.6-10.709-2.672-12.673c-1.047-1.918-3.18-4.97-3.275-5.111.148.113,4.829,3.744,5.376,5.277a88.706,88.706,0,0,1,1.47,8.866s.141.032.36.056a3.888,3.888,0,0,0,1.579-.1,4.911,4.911,0,0,0,1.033-.465c.183-.12.279-.2.279-.2s-.776-9.818-2.743-11.961-4.17-4.893-4.17-4.893h-3.292l-5.658,1.333A6.122,6.122,0,0,0,660.615,378.173Z" transform="translate(-120.102 -79.067)" fill="url(#linear-gradient-143)"/>
      <path id="Trazado_116343" data-name="Trazado 116343" d="M667.509,336.209a1.27,1.27,0,0,0-.8.229,1.321,1.321,0,0,0-.374.61l-.589-3.828,1.449,1.456Z" transform="translate(-124.271 -53.847)" fill="url(#linear-gradient-144)"/>
      <path id="Trazado_116344" data-name="Trazado 116344" d="M671.424,337.484a.584.584,0,0,1,.483-.053.75.75,0,0,1,.37.31l-.885-2.542-.293.353Z" transform="translate(-127.735 -55.129)" fill="url(#linear-gradient-145)"/>
      <path id="Trazado_116345" data-name="Trazado 116345" d="M665.951,328.464l-.2,1.188s.49,1,.878,1.886c.356.814,1,1.385,1.333,1.1s-.032-2.281-.032-2.281l.2-.564.317-.994-2.288-1.086Z" transform="translate(-124.271 -50.28)" fill="url(#linear-gradient-146)"/>
      <path id="Trazado_116346" data-name="Trazado 116346" d="M670.361,318.6a6.383,6.383,0,0,1-.215,2.379,5,5,0,0,1-1.414,2.249,4.947,4.947,0,0,1-2.164-1.435c-1.008-1.114-.793-1.865-.793-1.865l1.692-2.207,1.223-.515Z" transform="translate(-124.275 -43.481)" fill="url(#linear-gradient-147)"/>
      <path id="Trazado_116347" data-name="Trazado 116347" d="M667.738,312.64s1.029,2.1-.215,2.7-2.143.451-2.429.793-.07.959-.2,1.216a.554.554,0,0,1-.37.3s-.145-1.456-.758-.959.328,1.262-.159,1.7-1.946-1.04-1.636-2.432c.271-1.216.578-1.35.578-1.35s-.278-2.038,1.456-2.379,2.7.9,3.194,1.008S667.738,312.64,667.738,312.64Z" transform="translate(-121.797 -40.219)" fill="#012860"/>
      <path id="Trazado_116348" data-name="Trazado 116348" d="M670.848,341.68a.852.852,0,0,1,.19.441.318.318,0,0,1-.046.173.418.418,0,0,1-.712.025.471.471,0,0,1-.07-.247c0-.377.187-.384.187-.384Z" transform="translate(-127.159 -59.325)" fill="url(#linear-gradient-148)"/>
      <path id="Trazado_116349" data-name="Trazado 116349" d="M650.46,380.254a1.208,1.208,0,0,0,0,.5c.063.219.525.881.409.984s-.575-.229-.807,0-.585,2.1-1.622,1.689-1.882-1.227-1.664-1.611,1.565-.959,1.664-1.255a3.045,3.045,0,0,0,.13-.469l1.043-.465Z" transform="translate(-111.964 -83.897)" fill="url(#linear-gradient-149)"/>
      <path id="Trazado_116350" data-name="Trazado 116350" d="M651.22,352.482a2.588,2.588,0,0,0,1.135.321,3.43,3.43,0,0,0,1.258-.106s.173-2.982.307-5.291a1.114,1.114,0,0,0,.007-.162c.014-.2.025-.409.039-.6.018-.279.032-.536.046-.765.127-2.186,1.142-3.515,1.911-5.831a4.271,4.271,0,0,0,.254-1.54,1.612,1.612,0,0,0-.687-1.4s-1.28-.8-2.221,2.372a26.062,26.062,0,0,0-1.375,5.157C651.527,347.211,651.22,352.482,651.22,352.482Z" transform="translate(-114.863 -56.304)" fill="url(#linear-gradient-150)"/>
      <path id="Trazado_116351" data-name="Trazado 116351" d="M659,349.38a19.42,19.42,0,0,1,1.643-4.223,6.478,6.478,0,0,0,.571-3.916l0,0a4.271,4.271,0,0,1-.254,1.54c-.768,2.316-1.784,3.645-1.911,5.831C659.032,348.844,659.018,349.1,659,349.38Z" transform="translate(-119.901 -59.04)" fill="url(#linear-gradient-151)"/>
      <path id="Trazado_116352" data-name="Trazado 116352" d="M670.73,343.42a23.481,23.481,0,0,0,.123,2.7,46.236,46.236,0,0,0,1.082,5.51l-.6,1.53-1.2-1.678s-.367-3.751-.324-5.394a21.673,21.673,0,0,1,.2-2.64Z" transform="translate(-126.9 -60.451)" fill="url(#linear-gradient-152)"/>
      <path id="Trazado_116353" data-name="Trazado 116353" d="M500.78,436.09s.331,23.428.479,45.443c0,0,.338-35.456.479-45.443Z" transform="translate(-17.456 -120.454)" fill="url(#linear-gradient-153)"/>
      <circle id="Elipse_4741" data-name="Elipse 4741" cx="3.553" cy="3.553" r="3.553" transform="translate(480.25 309.27)" fill="url(#linear-gradient-154)"/>
      <path id="Trazado_116354" data-name="Trazado 116354" d="M1063.06,483.57s.264,18.754.384,36.373c0,0,.271-28.378.384-36.373Z" transform="translate(-381.523 -151.196)" fill="url(#linear-gradient-155)"/>
      <circle id="Elipse_4742" data-name="Elipse 4742" cx="2.845" cy="2.845" r="2.845" transform="translate(679.077 327.276)" fill="url(#linear-gradient-156)"/>
      <path id="Trazado_116355" data-name="Trazado 116355" d="M751.17,282.84s.331,23.428.479,45.443c0,0,.338-35.456.479-45.443Z" transform="translate(-179.579 -21.227)" fill="url(#linear-gradient-157)"/>
      <circle id="Elipse_4743" data-name="Elipse 4743" cx="3.553" cy="3.553" r="3.553" transform="translate(568.517 255.247)" fill="url(#linear-gradient-158)"/>
      <path id="Trazado_116356" data-name="Trazado 116356" d="M710.83,636.48s.264,18.754.384,36.373c0,0,.271-28.378.384-36.373Z" transform="translate(-153.46 -250.203)" fill="url(#linear-gradient-159)"/>
      <circle id="Elipse_4744" data-name="Elipse 4744" cx="2.845" cy="2.845" r="2.845" transform="translate(554.91 381.18)" fill="url(#linear-gradient-160)"/>
    </g>
  </g>
</svg>
