<svg xmlns="http://www.w3.org/2000/svg" xmlns:xlink="http://www.w3.org/1999/xlink" width="46" height="46" viewBox="0 0 46 46">
  <defs>
    <clipPath id="clip-path">
      <rect id="Rectángulo_66429" data-name="Rectángulo 66429" width="28.822" height="28.818" fill="#cba400"/>
    </clipPath>
  </defs>
  <g id="Grupo_211377" data-name="Grupo 211377" transform="translate(1748 2722)">
    <circle id="Elipse_4908" data-name="Elipse 4908" cx="23" cy="23" r="23" transform="translate(-1748 -2722)" fill="#f4f4f5"/>
    <g id="Grupo_210955" data-name="Grupo 210955" transform="translate(-1739.818 -2713.818)">
      <g id="Grupo_210954" data-name="Grupo 210954" clip-path="url(#clip-path)">
        <path id="Trazado_140458" data-name="Trazado 140458" d="M28.561,22.286a7.025,7.025,0,0,0-2.195-4.747,1.012,1.012,0,0,1-.192-.2,7.119,7.119,0,0,1,1.876.924c.294.2.577.416.854.638.442.354.761.3,1.048-.18v-.338c-.1.015-.151-.061-.212-.116a10.225,10.225,0,0,0-5.8-2.56,15.158,15.158,0,0,0-1.573-.052c-.449-.006-.495-.048-.5-.506,0-2.9-.007-5.8.006-8.695a1.346,1.346,0,0,0-.429-1.046q-1.976-1.943-3.92-3.919a1.276,1.276,0,0,0-1.022-.418c-.74.024-1.482,0-2.223.008-.438,0-.664.169-.662.479s.231.469.67.472c.553,0,1.107,0,1.66,0,.4,0,.459.06.461.455,0,.825,0,1.651,0,2.476,0,.113,0,.225,0,.338a1.077,1.077,0,0,0,1.224,1.231c.882,0,1.763,0,2.645,0,.624,0,.633.009.633.623q0,3.939,0,7.879c0,.075,0,.15,0,.225-.013.338-.074.407-.4.454a7.016,7.016,0,0,0-6.07,6.514,7,7,0,0,0,1.9,5.3,6.874,6.874,0,0,0,.931.813,1.855,1.855,0,0,1,.2.156c.042.043.1.087.082.155l.042.03h-.053c-.03.056-.1.06-.154.071a1.616,1.616,0,0,1-.309.014H2.738c-.075,0-.15,0-.225,0a.291.291,0,0,1-.332-.325c0-.1,0-.206,0-.309q0-12.719,0-25.437c0-.657,0-.66.654-.66H8.712A1.4,1.4,0,0,0,9.131,2a.458.458,0,0,0,.341-.461.449.449,0,0,0-.348-.427,1.243,1.243,0,0,0-.363-.031q-3.152,0-6.3,0c-.848,0-1.233.39-1.234,1.247q0,5.881,0,11.762,0,7.105,0,14.21c0,.141-.005.282.007.422a1.052,1.052,0,0,0,.587.9c.085.045.211.051.221.188H22.13c.417-.119.85-.152,1.269-.271a7.127,7.127,0,0,0,5.162-7.257M17.64,5.5c-.117,0-.187,0-.185-.158.008-.784,0-1.568,0-2.3L19.92,5.5c-.729,0-1.5,0-2.28,0m3.792,23.185A6,6,0,1,1,27.452,22.7a6.011,6.011,0,0,1-6.021,5.989" transform="translate(-1.131 -0.995)" fill="#cba400"/>
        <path id="Trazado_140459" data-name="Trazado 140459" d="M.686,28.661a1.051,1.051,0,0,1-.587-.9c-.012-.14-.007-.281-.007-.422q0-7.105,0-14.21,0-5.881,0-11.762C.094.511.48.122,1.328.121q3.152,0,6.3,0a1.243,1.243,0,0,1,.363.031.449.449,0,0,1,.348.427A.458.458,0,0,1,8,1.04a1.394,1.394,0,0,1-.419.034H1.7c-.651,0-.654,0-.654.66q0,12.719,0,25.437c0,.1,0,.206,0,.309a.291.291,0,0,0,.332.325c.075,0,.15,0,.225,0H15.958a1.6,1.6,0,0,0,.309-.014c.057-.011.124-.015.154-.071h-.151q-7.456,0-14.912.006c-.223,0-.227-.089-.227-.26q0-13.027,0-26.054c0-.207.044-.262.257-.261,2.1.009,4.2.006,6.3.005a1.877,1.877,0,0,0,.281-.008A.568.568,0,0,0,8.446.636.567.567,0,0,0,8.07.069.873.873,0,0,0,7.737.035H1.35C.429.034.007.453.007,1.367q0,13.055-.007,26.11a1.271,1.271,0,0,0,.907,1.372c-.01-.137-.136-.143-.221-.188" transform="translate(0 -0.031)" fill="#cba400"/>
        <path id="Trazado_140460" data-name="Trazado 140460" d="M180.887,17.092a10.164,10.164,0,0,0-1.949-1.32,10.62,10.62,0,0,0-5.422-1.192c-.268.01-.356-.04-.355-.338.014-3.011.007-6.021.011-9.032a.794.794,0,0,0-.23-.607q-2.192-2.185-4.378-4.376A.728.728,0,0,0,168.013,0c-.872.007-1.744,0-2.617,0-.408,0-.665.219-.666.56s.257.563.662.564c.638,0,1.276.01,1.913,0,.2,0,.244.055.242.248-.01,1.013-.006,2.026,0,3.039a1.133,1.133,0,0,0,1.23,1.221c1,0,2.007.009,3.01-.006.233,0,.267.073.266.28q-.01,4.023,0,8.047c0,.63,0,.614-.612.735a6.873,6.873,0,0,0-5.476,4.664,6.859,6.859,0,0,0,1.324,7,7.25,7.25,0,0,0,1.49,1.315c.015-.068-.039-.112-.082-.155a1.859,1.859,0,0,0-.2-.156,6.871,6.871,0,0,1-.931-.813,7,7,0,0,1-1.9-5.3,7.016,7.016,0,0,1,6.07-6.514c.33-.046.391-.116.4-.454,0-.075,0-.15,0-.225q0-3.939,0-7.879c0-.614-.009-.622-.633-.623-.882,0-1.763,0-2.645,0a1.077,1.077,0,0,1-1.224-1.231c0-.113,0-.225,0-.338,0-.825,0-1.651,0-2.476,0-.4-.062-.452-.461-.455-.553,0-1.107,0-1.66,0-.44,0-.669-.167-.67-.472s.224-.477.662-.479c.741,0,1.483.016,2.223-.008A1.276,1.276,0,0,1,168.742.5q1.945,1.975,3.92,3.919a1.346,1.346,0,0,1,.429,1.046c-.013,2.9-.008,5.8-.006,8.695,0,.458.046.5.5.506a15.158,15.158,0,0,1,1.573.052,10.224,10.224,0,0,1,5.8,2.56c.061.055.112.131.212.116a3.294,3.294,0,0,0-.274-.3" transform="translate(-152.34 -0.001)" fill="#cba400"/>
        <path id="Trazado_140461" data-name="Trazado 140461" d="M49.083,106.462a.567.567,0,0,0-.346.586.552.552,0,0,0,.476.482,2.575,2.575,0,0,0,.309.008h9.73c.806,0,1.612,0,2.418,0a.548.548,0,0,0,.569-.538.568.568,0,0,0-.508-.576,1.518,1.518,0,0,0-.224-.008H49.47a1.026,1.026,0,0,0-.388.05" transform="translate(-45.067 -98.408)" fill="#cba400"/>
        <path id="Trazado_140462" data-name="Trazado 140462" d="M61.682,149.548c-.093-.007-.187,0-.281,0H49.534c-.1,0-.207,0-.309.007a.525.525,0,0,0-.491.431.531.531,0,0,0,.26.6.8.8,0,0,0,.462.087H61.491a1.45,1.45,0,0,0,.252-.01.568.568,0,0,0,.48-.572.555.555,0,0,0-.541-.538" transform="translate(-45.051 -138.296)" fill="#cba400"/>
        <path id="Trazado_140463" data-name="Trazado 140463" d="M58.655,192.459h-9.22a.922.922,0,0,0-.359.05.568.568,0,0,0-.342.588.554.554,0,0,0,.48.479,2.592,2.592,0,0,0,.309.009h6.8c.806,0,1.612,0,2.418,0a.563.563,0,0,0,.6-.615c-.04-.326-.284-.508-.692-.508" transform="translate(-45.064 -177.982)" fill="#cba400"/>
        <path id="Trazado_140464" data-name="Trazado 140464" d="M56.619,235.576c-1.21,0-2.419,0-3.629,0H50.149c-.3,0-.6-.008-.9.008a.541.541,0,0,0-.513.5.563.563,0,0,0,.4.579,1.009,1.009,0,0,0,.334.033h6.977c.066,0,.131,0,.2,0a.579.579,0,0,0,.586-.562.561.561,0,0,0-.606-.561" transform="translate(-45.069 -217.854)" fill="#cba400"/>
        <path id="Trazado_140465" data-name="Trazado 140465" d="M56.033,278.5a2.482,2.482,0,0,0-.253,0H51.032c-.571,0-1.143-.005-1.714,0a.574.574,0,0,0-.592.491.557.557,0,0,0,.368.6,1.271,1.271,0,0,0,.361.034q1.588,0,3.175,0h1.18c.73,0,1.461,0,2.192,0a.538.538,0,0,0,.562-.54.556.556,0,0,0-.53-.578" transform="translate(-45.056 -257.546)" fill="#cba400"/>
        <path id="Trazado_140466" data-name="Trazado 140466" d="M131.6,1.169a.569.569,0,0,0,.569-.54.562.562,0,0,0-1.123-.043.569.569,0,0,0,.554.584" transform="translate(-121.186 -0.042)" fill="#cba400"/>
        <path id="Trazado_140467" data-name="Trazado 140467" d="M249.445,227.087a1.687,1.687,0,1,0-1.681-1.684,1.7,1.7,0,0,0,1.681,1.684m.01-2.248a.56.56,0,0,1,.559.574.562.562,0,1,1-1.123-.034.56.56,0,0,1,.565-.541" transform="translate(-229.128 -206.886)" fill="#cba400"/>
        <path id="Trazado_140468" data-name="Trazado 140468" d="M249.447,308.311a1.688,1.688,0,1,0,1.693,1.7,1.693,1.693,0,0,0-1.693-1.7m0,2.25a.562.562,0,1,1,.563-.575.569.569,0,0,1-.563.575" transform="translate(-229.128 -285.121)" fill="#cba400"/>
        <path id="Trazado_140469" data-name="Trazado 140469" d="M207.136,266a1.685,1.685,0,1,0,.026,3.369,1.685,1.685,0,0,0-.026-3.369m-.019,2.242a.555.555,0,0,1-.543-.559.559.559,0,1,1,1.118.008.548.548,0,0,1-.575.552" transform="translate(-189.995 -245.992)" fill="#cba400"/>
        <path id="Trazado_140470" data-name="Trazado 140470" d="M293.536,267.68a1.685,1.685,0,1,0-3.369.013,1.685,1.685,0,0,0,3.369-.013m-1.682.563a.547.547,0,0,1-.56-.538.554.554,0,0,1,.551-.579.564.564,0,0,1,.565.57.555.555,0,0,1-.556.546" transform="translate(-268.342 -245.993)" fill="#cba400"/>
      </g>
    </g>
  </g>
</svg>
