<svg xmlns="http://www.w3.org/2000/svg" xmlns:xlink="http://www.w3.org/1999/xlink" width="46" height="46" viewBox="0 0 46 46">
  <defs>
    <clipPath id="clip-path">
      <rect id="Rectángulo_66428" data-name="Rectángulo 66428" width="31.145" height="28.027" fill="#cba400"/>
    </clipPath>
  </defs>
  <g id="Grupo_211376" data-name="Grupo 211376" transform="translate(1748 2786)">
    <circle id="Elipse_4907" data-name="Elipse 4907" cx="23" cy="23" r="23" transform="translate(-1748 -2786)" fill="#f4f4f5"/>
    <g id="Grupo_210953" data-name="Grupo 210953" transform="translate(-1740.675 -2776.608)">
      <g id="Grupo_210952" data-name="Grupo 210952" clip-path="url(#clip-path)">
        <path id="Trazado_140450" data-name="Trazado 140450" d="M32.085,23.389a5.045,5.045,0,0,0-1.136-2.355,4.675,4.675,0,0,0-.865-.761.671.671,0,0,1-.3-.562,4.792,4.792,0,0,0-9.468-.746,2.575,2.575,0,0,1-.211.637.483.483,0,0,1-.237.367,2.664,2.664,0,0,1-.5.458A4.421,4.421,0,0,0,17.5,24.074c-.007.414-.066.479-.479.479q-6.417,0-12.834,0a1.915,1.915,0,0,1-1.953-2.009q-.008-5.291,0-10.582,0-3.786,0-7.572A1.954,1.954,0,0,1,4.38,2.232H25.7a1.953,1.953,0,0,1,2.143,2.159q0,3.147,0,6.295a1.464,1.464,0,0,0,.044.482.49.49,0,0,0,.944.005,1.436,1.436,0,0,0,.045-.482q0-3.223,0-6.447A2.974,2.974,0,0,0,25.836,1.2Q17.67,1.2,9.5,1.2q-2.615,0-5.231,0A2.982,2.982,0,0,0,1.2,4.272q0,9.123,0,18.245a2.979,2.979,0,0,0,3.075,3.071h12.59c.111,0,.224.008.334,0a.549.549,0,0,1,.617.412,4.406,4.406,0,0,0,1.418,1.94,4.666,4.666,0,0,0,5.189.578.768.768,0,0,1,.746-.007,4.807,4.807,0,0,0,6.715-2.671c.076-.211.12-.429.175-.645.03-.119.02-.274.194-.306V23.673c-.167-.028-.147-.176-.167-.284m-6.795-7.07A3.729,3.729,0,0,1,28.6,19.235c.031.181.053.273-.2.215a4.687,4.687,0,0,0-3.318.44.485.485,0,0,1-.523.005,4.81,4.81,0,0,0-3.195-.491,3.68,3.68,0,0,1,3.923-3.087m.555,4.542a3.747,3.747,0,0,1,2.537-.169c.188.052.221.117.163.306a3.688,3.688,0,0,1-1.493,2.06,5.085,5.085,0,0,0-1.207-2.2m-.105,2.754a3.958,3.958,0,0,1-1.827-.088c-.154-.045-.172-.094-.129-.248a3.748,3.748,0,0,1,1.024-1.725,3.632,3.632,0,0,1,1.059,1.835c.03.124.039.2-.127.226m-2.072-2.625a4.989,4.989,0,0,0-1.029,1.843,3.7,3.7,0,0,1-1.23-2.012c-.028-.123-.036-.168.112-.2a3.683,3.683,0,0,1,2.087.165c.13.05.161.09.06.2m-4.65,4.959a3.669,3.669,0,0,1,1.208-4.757,5.464,5.464,0,0,0,.689,1.534,4.836,4.836,0,0,0,1.32,1.324.373.373,0,0,1,.221.327,4.772,4.772,0,0,0,1.21,3.1c.032.037.057.08.086.122a3.648,3.648,0,0,1-4.734-1.645m5.879.883c-.09.094-.128.035-.186-.026A3.691,3.691,0,0,1,23.7,24.735a5.212,5.212,0,0,0,2.2.086A3.529,3.529,0,0,1,24.9,26.829m5.559-.622a3.652,3.652,0,0,1-4.593,1.382A5.17,5.17,0,0,0,26.925,25.8a4.834,4.834,0,0,0,.24-1.154.373.373,0,0,1,.151-.337,4.956,4.956,0,0,0,2.4-2.891,3.675,3.675,0,0,1,.744,4.787" transform="translate(-1.107 -1.107)" fill="#cba400"/>
        <path id="Trazado_140451" data-name="Trazado 140451" d="M30.951,24.089c-.054.216-.1.434-.175.645A4.807,4.807,0,0,1,24.062,27.4a.767.767,0,0,0-.746.007,4.666,4.666,0,0,1-5.189-.578,4.407,4.407,0,0,1-1.418-1.94.549.549,0,0,0-.617-.412c-.111.009-.223,0-.334,0H3.167A2.979,2.979,0,0,1,.093,21.41q0-9.123,0-18.245A2.982,2.982,0,0,1,3.167.092q2.615,0,5.231,0,8.166,0,16.331,0a2.974,2.974,0,0,1,3.04,3.045q0,3.223,0,6.447a1.435,1.435,0,0,1-.045.482.49.49,0,0,1-.944-.005,1.462,1.462,0,0,1-.044-.482q0-3.147,0-6.295a1.953,1.953,0,0,0-2.143-2.159H3.274A1.954,1.954,0,0,0,1.126,3.28q0,3.786,0,7.572,0,5.291,0,10.582a1.915,1.915,0,0,0,1.953,2.009q6.417.015,12.834,0c.413,0,.472-.065.479-.479a4.421,4.421,0,0,1,1.874-3.647,2.659,2.659,0,0,0,.5-.458l-.024.016a4.75,4.75,0,0,0-2.448,4.168c-.006.245-.059.318-.317.318Q9.6,23.35,3.232,23.356a1.849,1.849,0,0,1-2.014-2.025q0-9.047,0-18.094a1.852,1.852,0,0,1,2.02-2.021h21.38A1.849,1.849,0,0,1,26.644,3.23q0,3.239,0,6.477a1.19,1.19,0,0,0,.043.421.564.564,0,0,0,.544.407.57.57,0,0,0,.586-.393,1.093,1.093,0,0,0,.044-.421q0-3.269,0-6.538A3.061,3.061,0,0,0,24.663,0H3.192A3.062,3.062,0,0,0,0,3.192q0,9.092,0,18.185a3.06,3.06,0,0,0,3.185,3.2q6.508,0,13.016,0a.341.341,0,0,1,.388.265,4.867,4.867,0,0,0,6.8,2.649.613.613,0,0,1,.635,0A4.887,4.887,0,0,0,31,24.322c.048-.18.022-.381.147-.539-.174.032-.164.188-.194.306" transform="translate(0 0)" fill="#cba400"/>
        <path id="Trazado_140452" data-name="Trazado 140452" d="M259.279,188.5a.376.376,0,0,1-.185-.348,4.605,4.605,0,0,0-.284-1.481,4.9,4.9,0,0,0-9.485,1.236c0,.014,0,.026-.006.039a2.57,2.57,0,0,0,.211-.637,4.792,4.792,0,0,1,9.468.746.671.671,0,0,0,.3.562,4.675,4.675,0,0,1,.865.761,5.046,5.046,0,0,1,1.137,2.355c.02.108,0,.256.167.284-.017-.022-.046-.042-.049-.065a4.806,4.806,0,0,0-2.135-3.451" transform="translate(-230.318 -169.455)" fill="#cba400"/>
        <path id="Trazado_140453" data-name="Trazado 140453" d="M100.247,66.246a6.812,6.812,0,1,0,6.772,6.868,6.832,6.832,0,0,0-6.772-6.868m-.068,12.408A5.6,5.6,0,1,1,105.8,73.08a5.611,5.611,0,0,1-5.624,5.575" transform="translate(-86.276 -61.198)" fill="#cba400"/>
        <path id="Trazado_140454" data-name="Trazado 140454" d="M39.524,125.92a.609.609,0,1,0-1.212-.011q-.007,2.9,0,5.8a.635.635,0,0,0,.239.533.563.563,0,0,0,.627.07.63.63,0,0,0,.351-.622q0-1.442,0-2.885c0-.962,0-1.923,0-2.885" transform="translate(-35.389 -115.699)" fill="#cba400"/>
        <path id="Trazado_140455" data-name="Trazado 140455" d="M350.3,155.587a.615.615,0,0,0-.624.573.6.6,0,1,0,1.209.039.617.617,0,0,0-.585-.611" transform="translate(-323.026 -143.73)" fill="#cba400"/>
        <path id="Trazado_140456" data-name="Trazado 140456" d="M38.96,93.739a.629.629,0,0,0,.611-.591.6.6,0,0,0-1.209-.045.632.632,0,0,0,.6.636" transform="translate(-35.439 -85.481)" fill="#cba400"/>
        <path id="Trazado_140457" data-name="Trazado 140457" d="M156.137,111.821c-1.046-.69-2.107-1.357-3.162-2.032a1.356,1.356,0,0,0-2.146,1.189c0,.678,0,1.357,0,2.035,0,.658,0,1.316,0,1.974a1.356,1.356,0,0,0,.706,1.286,1.328,1.328,0,0,0,1.436-.088c1.058-.671,2.117-1.342,3.163-2.032a1.335,1.335,0,0,0,0-2.332m-.717,1.351c-1.023.649-2.041,1.307-3.062,1.959-.249.159-.309.125-.311-.175,0-.658,0-1.315,0-1.973s0-1.3,0-1.943c0-.1-.042-.213.072-.274.1-.053.171.032.243.079,1.021.652,2.04,1.308,3.063,1.958.215.137.2.236-.006.369" transform="translate(-139.334 -101.182)" fill="#cba400"/>
      </g>
    </g>
  </g>
</svg>
