<svg xmlns="http://www.w3.org/2000/svg" xmlns:xlink="http://www.w3.org/1999/xlink" width="46" height="46" viewBox="0 0 46 46">
  <defs>
    <clipPath id="clip-path">
      <rect id="Rectángulo_66431" data-name="Rectángulo 66431" width="30.492" height="29.313" fill="#cba400"/>
    </clipPath>
  </defs>
  <g id="Grupo_211378" data-name="Grupo 211378" transform="translate(1748 2541)">
    <circle id="Elipse_4910" data-name="Elipse 4910" cx="23" cy="23" r="23" transform="translate(-1748 -2541)" fill="#f4f4f5"/>
    <g id="Grupo_210961" data-name="Grupo 210961" transform="translate(-1740.606 -2530.66)">
      <g id="Grupo_210961-2" data-name="Grupo 210961" clip-path="url(#clip-path)">
        <path id="Trazado_140471" data-name="Trazado 140471" d="M.227,22.908a3.17,3.17,0,0,0,.724,1.316,2.664,2.664,0,0,0,2.143.905c1.429-.022,2.858-.006,4.287-.006.1,0,.2,0,.3,0,.324.018.363.073.252.386a1.412,1.412,0,0,0,.36,1.583c.287.288.572.578.864.862a1.4,1.4,0,0,0,1.983.1.687.687,0,0,1,.928-.1,2.937,2.937,0,0,0,.69.275.474.474,0,0,1,.377.5,1.534,1.534,0,0,0,.274.9,1.431,1.431,0,0,0,1.167.617c.417.01.834.007,1.25,0a1.429,1.429,0,0,0,1.514-1.4.641.641,0,0,1,.536-.668,3.49,3.49,0,0,0,.74-.31.464.464,0,0,1,.6.083,1.519,1.519,0,0,0,.947.451,1.4,1.4,0,0,0,1.181-.443c.3-.316.621-.614.923-.93a1.367,1.367,0,0,0,.313-1.461c-.128-.395-.1-.439.328-.44,1.518,0,3.037-.013,4.555,0a2.712,2.712,0,0,0,2.578-1.644A3.423,3.423,0,0,0,30.4,21.9q0-1.578,0-3.156a1.337,1.337,0,0,0-.035-.384.468.468,0,0,0-.5-.373.478.478,0,0,0-.46.428,2.185,2.185,0,0,0-.013.357c0,1.022,0,2.044,0,3.067a2.653,2.653,0,0,1-.423,1.467,1.616,1.616,0,0,1-1.411.8q-2.4.01-4.793,0c-.216,0-.332-.019-.376-.089h0v0c-.04-.066-.018-.177.044-.361.177-.524.177-.524.723-.561a1.452,1.452,0,0,0,1.345-1.421,9.558,9.558,0,0,0,0-1.309,1.422,1.422,0,0,0-1.475-1.434.489.489,0,0,1-.542-.4,5.13,5.13,0,0,0-.391-.932.4.4,0,0,1,.081-.537,1.5,1.5,0,0,0-.086-2.306c-.251-.226-.471-.484-.721-.71a1.434,1.434,0,0,0-2.1-.006.5.5,0,0,1-.641.1,6.828,6.828,0,0,0-.964-.393.482.482,0,0,1-.353-.489,1.4,1.4,0,0,0-1.568-1.474c-.387,0-.774-.007-1.161,0a1.4,1.4,0,0,0-1.439,1.426c-.013.4-.043.451-.419.581a5.206,5.206,0,0,0-.8.33.557.557,0,0,1-.725-.1,1.367,1.367,0,0,0-.875-.4,1.5,1.5,0,0,0-1.149.39c-.338.307-.658.633-.97.966a1.486,1.486,0,0,0,.038,2c.288.25.283.369.12.71a6.725,6.725,0,0,0-.358.882.467.467,0,0,1-.482.356,1.455,1.455,0,0,0-1.525,1.6c0,.357-.012.715,0,1.072a1.467,1.467,0,0,0,1.485,1.5.568.568,0,0,1,.269.093.138.138,0,0,1,.1.077.793.793,0,0,1,.287.66.188.188,0,0,1-.031.081l0,.009h-.01a.237.237,0,0,1-.147.074,1.819,1.819,0,0,1-.356.017c-1.489,0-2.977-.021-4.465.008a1.858,1.858,0,0,1-1.9-1.446,2.726,2.726,0,0,1-.128-.85q0-5.553,0-11.105c0-.5.042-.539.546-.54q2.069,0,4.138,0c.1,0,.2,0,.3,0a.5.5,0,0,0,.533-.484A.546.546,0,0,0,6.1,9.172a2.858,2.858,0,0,0-.327-.008c-1.389,0-2.778,0-4.168,0-.447,0-.5-.054-.5-.494q0-2.143,0-4.287A2.648,2.648,0,0,1,1.378,3.2a1.776,1.776,0,0,1,1.735-1.07q9.794.013,19.588,0c1.548,0,3.1.018,4.644-.006a1.869,1.869,0,0,1,1.926,1.489,2.782,2.782,0,0,1,.115.823c0,1.389,0,2.779,0,4.168,0,.515-.038.552-.564.552H11.911a2.4,2.4,0,0,0-.475.02.494.494,0,0,0,.039.984,3.993,3.993,0,0,0,.416.007h16.82c.673,0,.673,0,.673.681s0,1.35,0,2.025a2.094,2.094,0,0,0,.01.3.468.468,0,0,0,.42.432.508.508,0,0,0,.546-.365,1.385,1.385,0,0,0,.036-.414c0-2.828.008-5.657,0-8.485A3.35,3.35,0,0,0,29.35,1.837a2.551,2.551,0,0,0-1.688-.71c-.119-.007-.238,0-.357,0-8.048,0-16.1.016-24.143-.014A2.959,2.959,0,0,0,.247,3.281C.2,3.439.223,3.651,0,3.716V22.533c.2.049.189.233.227.376M7.489,22a.33.33,0,0,1-.375-.362q-.01-.625,0-1.25a.325.325,0,0,1,.373-.361c.248,0,.5.006.744,0a.6.6,0,0,0,.642-.5,6.976,6.976,0,0,1,.8-1.94.6.6,0,0,0-.1-.81c-.172-.179-.349-.353-.525-.528a.326.326,0,0,1-.012-.518c.3-.3.6-.6.9-.906a.3.3,0,0,1,.24-.1.35.35,0,0,1,.28.139c.167.17.333.34.506.5a.594.594,0,0,0,.809.1,6.857,6.857,0,0,1,1.936-.809.61.61,0,0,0,.518-.663c0-.238,0-.476,0-.714a.334.334,0,0,1,.376-.389c.407,0,.814,0,1.221,0a.332.332,0,0,1,.379.384c0,.238-.005.477,0,.715a.594.594,0,0,0,.5.643,7.271,7.271,0,0,1,1.994.823.582.582,0,0,0,.806-.1c.18-.171.352-.35.528-.524a.329.329,0,0,1,.52,0q.444.44.884.884a.326.326,0,0,1-.009.518c-.182.183-.37.36-.547.548a.586.586,0,0,0-.092.762,7.016,7.016,0,0,1,.834,2.021.593.593,0,0,0,.611.468c.258.009.516,0,.774,0a.315.315,0,0,1,.36.342c.008.427.007.854,0,1.28,0,.243-.142.355-.384.351s-.5-.005-.744,0a.589.589,0,0,0-.623.487,7.017,7.017,0,0,1-.817,1.965.6.6,0,0,0,.106.809c.172.179.351.351.525.527a.327.327,0,0,1,0,.519c-.294.3-.587.592-.885.883a.329.329,0,0,1-.52-.009c-.182-.182-.364-.366-.55-.545a.586.586,0,0,0-.763-.092,6.907,6.907,0,0,1-1.993.826.582.582,0,0,0-.485.623c-.007.248,0,.5,0,.744a.355.355,0,0,1-.4.4c-.387,0-.774,0-1.161,0-.3,0-.414-.113-.422-.411-.006-.238,0-.476,0-.714a.591.591,0,0,0-.5-.646,6.917,6.917,0,0,1-1.965-.814.593.593,0,0,0-.786.1c-.18.17-.353.349-.528.524a.338.338,0,0,1-.542.008q-.432-.431-.865-.861a.335.335,0,0,1,0-.541c.176-.174.355-.347.525-.527a.586.586,0,0,0,.1-.785,7.158,7.158,0,0,1-.825-1.993A.58.58,0,0,0,8.263,22c-.258-.007-.516,0-.774,0" transform="translate(0 -1.022)" fill="#cba400"/>
        <path id="Trazado_140472" data-name="Trazado 140472" d="M3.117,219.175c1.159-.047,2.322-.009,3.483-.009H7.95c-.021.061-.03.1-.045.134a1.5,1.5,0,0,0,.319,1.823c.243.248.491.491.737.736a1.535,1.535,0,0,0,2.437.033.244.244,0,0,1,.331-.053,5.847,5.847,0,0,0,.953.407.431.431,0,0,1,.376.506,1.5,1.5,0,0,0,1.551,1.533c.367,0,.734,0,1.1,0a1.54,1.54,0,0,0,1.723-1.7.25.25,0,0,1,.217-.285,4.036,4.036,0,0,0,.959-.391.405.405,0,0,1,.6.087,1.435,1.435,0,0,0,1.5.4,4.79,4.79,0,0,0,1.985-1.96,1.648,1.648,0,0,0-.162-1.277h.33q2.367,0,4.733,0a2.559,2.559,0,0,0,1.762-.672,3.3,3.3,0,0,0,1.121-2.472c.028-1.16.01-2.322.009-3.483,0-.442-.218-.7-.587-.707-.384-.006-.608.251-.609.712,0,1.072,0,2.144,0,3.215a3.647,3.647,0,0,1-.055.621,1.793,1.793,0,0,1-1.9,1.591H22.381c.044.07.16.089.376.089q2.4.006,4.793,0a1.616,1.616,0,0,0,1.411-.8,2.654,2.654,0,0,0,.423-1.467c0-1.022,0-2.044,0-3.067a2.187,2.187,0,0,1,.013-.357.477.477,0,0,1,.46-.427.468.468,0,0,1,.5.373,1.341,1.341,0,0,1,.035.384q0,1.578,0,3.156a3.424,3.424,0,0,1-.363,1.583,2.712,2.712,0,0,1-2.578,1.643c-1.518-.015-3.036-.006-4.555,0-.432,0-.456.045-.328.44a1.367,1.367,0,0,1-.313,1.461c-.3.316-.621.614-.923.93a1.4,1.4,0,0,1-1.181.443,1.519,1.519,0,0,1-.947-.451.464.464,0,0,0-.6-.083,3.491,3.491,0,0,1-.74.31.641.641,0,0,0-.536.668,1.429,1.429,0,0,1-1.514,1.4c-.417.005-.834.008-1.25,0a1.431,1.431,0,0,1-1.167-.617,1.534,1.534,0,0,1-.274-.9.474.474,0,0,0-.377-.5,2.939,2.939,0,0,1-.69-.275.687.687,0,0,0-.928.1,1.4,1.4,0,0,1-1.983-.1c-.291-.284-.576-.575-.864-.863a1.412,1.412,0,0,1-.36-1.583c.111-.313.072-.368-.252-.386-.1-.005-.2,0-.3,0-1.429,0-2.858-.016-4.287.006a2.664,2.664,0,0,1-2.143-.905,3.171,3.171,0,0,1-.724-1.316c-.038-.142-.027-.327-.227-.375.1.083.089.21.115.318a2.976,2.976,0,0,0,3,2.372" transform="translate(0 -194.973)" fill="#cba400"/>
        <path id="Trazado_140473" data-name="Trazado 140473" d="M98.573,279.557a.275.275,0,0,1,.021.054c.062.223.149.44.236.686a.188.188,0,0,0,.031-.081.793.793,0,0,0-.287-.66" transform="translate(-90.728 -257.309)" fill="#cba400"/>
        <path id="Trazado_140474" data-name="Trazado 140474" d="M.246,2.258A2.959,2.959,0,0,1,3.161.088C11.208.118,19.256.1,27.3.1c.119,0,.238,0,.357,0a2.551,2.551,0,0,1,1.688.71,3.35,3.35,0,0,1,1.043,2.512c.013,2.828,0,5.657,0,8.485a1.388,1.388,0,0,1-.036.414.508.508,0,0,1-.546.365.468.468,0,0,1-.42-.432,2.094,2.094,0,0,1-.01-.3q0-1.012,0-2.024c0-.681,0-.681-.673-.681H11.89a4.017,4.017,0,0,1-.417-.007.494.494,0,0,1-.039-.984,2.412,2.412,0,0,1,.475-.02H28.819c.526,0,.564-.037.564-.552,0-1.389,0-2.779,0-4.168A2.786,2.786,0,0,0,29.27,2.6a1.869,1.869,0,0,0-1.926-1.489c-1.548.024-3.1.006-4.644.006q-9.794,0-19.588,0a1.776,1.776,0,0,0-1.735,1.07A2.649,2.649,0,0,0,1.1,3.359Q1.1,5.5,1.1,7.646c0,.44.056.493.5.494,1.389,0,2.778,0,4.168,0a2.859,2.859,0,0,1,.327.008.546.546,0,0,1,.517.518.5.5,0,0,1-.533.484c-.1.006-.2,0-.3,0q-2.069,0-4.138,0c-.5,0-.546.041-.546.54q0,5.553,0,11.105a2.728,2.728,0,0,0,.128.85,1.858,1.858,0,0,0,1.9,1.446c1.488-.029,2.977-.007,4.465-.008a1.825,1.825,0,0,0,.356-.017A.237.237,0,0,0,8.094,23H7.882c-1.637,0-3.275,0-4.912,0a1.548,1.548,0,0,1-1.3-.654A2.324,2.324,0,0,1,1.2,20.9q-.005-5.7-.008-11.4c0-.228.088-.25.277-.249,1.389.007,2.779,0,4.168,0,.169,0,.338.006.506,0a.586.586,0,0,0,.585-.558.6.6,0,0,0-.516-.627,1.893,1.893,0,0,0-.3-.01c-1.479,0-2.957,0-4.436,0-.2,0-.29-.021-.288-.265.014-1.479,0-2.957.01-4.436a3.173,3.173,0,0,1,.059-.591A1.777,1.777,0,0,1,2.974,1.21q12.265,0,24.531,0a1.559,1.559,0,0,1,1.322.671,2.407,2.407,0,0,1,.461,1.477c0,1.459-.008,2.918.009,4.376,0,.283-.084.331-.343.331q-8.6-.011-17.207-.005c-.1,0-.2-.006-.3,0a.591.591,0,0,0-.566.608.577.577,0,0,0,.584.584c.1.005.2,0,.3,0q8.6,0,17.207-.007c.264,0,.33.062.324.325-.018.843-.012,1.687,0,2.531a.576.576,0,0,0,.572.6.6.6,0,0,0,.621-.584c0-.04,0-.079,0-.119q0-4.332,0-8.664a4.268,4.268,0,0,0-.058-.68A3.062,3.062,0,0,0,27.382,0C19.294.031,11.207.013,3.119.013A2.908,2.908,0,0,0,.171,2.175c-.055.173-.037.372-.172.518.223-.064.2-.277.247-.435" transform="translate(0.001 0)" fill="#cba400"/>
        <path id="Trazado_140475" data-name="Trazado 140475" d="M74.272,143.526c-.014-.357-.007-.714,0-1.072a1.455,1.455,0,0,1,1.525-1.6.467.467,0,0,0,.482-.356,6.723,6.723,0,0,1,.358-.882c.164-.341.169-.46-.12-.71a1.486,1.486,0,0,1-.038-2c.313-.333.632-.658.97-.966a1.5,1.5,0,0,1,1.149-.39,1.368,1.368,0,0,1,.875.4.557.557,0,0,0,.725.1,5.206,5.206,0,0,1,.8-.33c.375-.129.406-.177.419-.581a1.4,1.4,0,0,1,1.439-1.426c.387-.009.774,0,1.161,0a1.4,1.4,0,0,1,1.568,1.474.482.482,0,0,0,.353.489,6.825,6.825,0,0,1,.964.392.5.5,0,0,0,.641-.1,1.434,1.434,0,0,1,2.1.006c.25.226.471.485.721.71a1.5,1.5,0,0,1,.086,2.306.4.4,0,0,0-.081.537,5.131,5.131,0,0,1,.391.932.49.49,0,0,0,.542.4,1.422,1.422,0,0,1,1.475,1.434,9.559,9.559,0,0,1,0,1.309,1.452,1.452,0,0,1-1.345,1.421c-.547.037-.547.037-.723.561-.062.184-.084.3-.044.362a2.351,2.351,0,0,0,.139-.388c.058-.355.248-.454.606-.448a1.453,1.453,0,0,0,1.413-1.212,7.91,7.91,0,0,0,.037-1.367,1.538,1.538,0,0,0-1.7-1.773.244.244,0,0,1-.269-.2,6.882,6.882,0,0,0-.413-1.015.381.381,0,0,1,.08-.547,1.5,1.5,0,0,0,0-2.223c-.243-.249-.491-.492-.737-.737a1.542,1.542,0,0,0-2.457-.028.215.215,0,0,1-.3.05,3.752,3.752,0,0,0-.98-.417c-.313-.075-.411-.218-.409-.544a1.4,1.4,0,0,0-1.152-1.427,5.813,5.813,0,0,0-2.041,0,1.429,1.429,0,0,0-1.16,1.542.35.35,0,0,1-.3.408,5.15,5.15,0,0,0-.928.39.368.368,0,0,1-.524-.083,1.5,1.5,0,0,0-2.224-.005c-.249.242-.492.49-.738.736a1.539,1.539,0,0,0-.029,2.457.238.238,0,0,1,.041.334,4.44,4.44,0,0,0-.412.983.38.38,0,0,1-.448.33,1.5,1.5,0,0,0-1.571,1.571c0,.417-.006.834,0,1.25a1.52,1.52,0,0,0,.495,1.139,1.551,1.551,0,0,0,1.175.4.775.775,0,0,1,.164-.005.567.567,0,0,0-.269-.093,1.467,1.467,0,0,1-1.485-1.5" transform="translate(-68.284 -122.949)" fill="#cba400"/>
        <path id="Trazado_140476" data-name="Trazado 140476" d="M218.849,37.083c1.15.013,2.3,0,3.451,0,1.17,0,2.341.016,3.51-.005a2.024,2.024,0,0,0-.027-4.046c-2.31-.013-4.621-.005-6.931,0a1.9,1.9,0,0,0-1.157.4,2.023,2.023,0,0,0,1.155,3.649m.182-2.857q3.286,0,6.571,0a.839.839,0,1,1,0,1.664q-1.65,0-3.3,0t-3.271,0a.84.84,0,1,1,0-1.664" transform="translate(-199.615 -30.399)" fill="#cba400"/>
        <path id="Trazado_140477" data-name="Trazado 140477" d="M47.443,33.062a2.028,2.028,0,1,0,2.027,2.023,2.021,2.021,0,0,0-2.027-2.023m0,2.86a.832.832,0,0,1-.026-1.663.832.832,0,1,1,.026,1.663" transform="translate(-41.791 -30.431)" fill="#cba400"/>
        <path id="Trazado_140478" data-name="Trazado 140478" d="M115.974,35.089a2.034,2.034,0,1,0-2.025,2.025,2.039,2.039,0,0,0,2.025-2.025m-2.862.007a.829.829,0,0,1,.815-.843.832.832,0,1,1,.02,1.664.827.827,0,0,1-.836-.821" transform="translate(-103 -30.426)" fill="#cba400"/>
        <path id="Trazado_140479" data-name="Trazado 140479" d="M368.65,178.185a.6.6,0,0,0,.007,1.2.6.6,0,0,0-.007-1.2" transform="translate(-338.767 -164.005)" fill="#cba400"/>
        <path id="Trazado_140480" data-name="Trazado 140480" d="M103.7,101.264a.594.594,0,0,0-.6.6.578.578,0,0,0,.6.592.59.59,0,0,0,.6-.594.609.609,0,0,0-.6-.6" transform="translate(-94.894 -93.205)" fill="#cba400"/>
        <path id="Trazado_140481" data-name="Trazado 140481" d="M154.465,206.565a.7.7,0,0,0,1.024.585,2.882,2.882,0,0,0,.341-.177q2.737-1.577,5.473-3.156c.734-.424.732-1.071-.008-1.5q-2.117-1.227-4.239-2.445c-.5-.286-.987-.587-1.495-.852a.715.715,0,0,0-1.106.589,3.273,3.273,0,0,0-.019.415q0,1.517,0,3.034c0,.813,0,1.626,0,2.439a9.862,9.862,0,0,0,.029,1.069m1.2-6.111,4.531,2.613-4.531,2.616Z" transform="translate(-142.144 -183.08)" fill="#cba400"/>
      </g>
    </g>
  </g>
</svg>
