<svg xmlns="http://www.w3.org/2000/svg" xmlns:xlink="http://www.w3.org/1999/xlink" width="46" height="46" viewBox="0 0 46 46">
  <defs>
    <clipPath id="clip-path">
      <rect id="Rectángulo_66432" data-name="Rectángulo 66432" width="30.457" height="25.379" fill="#cba400"/>
    </clipPath>
  </defs>
  <g id="Grupo_211379" data-name="Grupo 211379" transform="translate(1748 2440)">
    <circle id="Elipse_4912" data-name="Elipse 4912" cx="23" cy="23" r="23" transform="translate(-1748 -2440)" fill="#f4f4f5"/>
    <g id="Grupo_210963" data-name="Grupo 210963" transform="translate(-1740.606 -2429.505)">
      <g id="Grupo_210962" data-name="Grupo 210962" clip-path="url(#clip-path)">
        <path id="Trazado_140482" data-name="Trazado 140482" d="M31.245,2.176a1.458,1.458,0,0,0-1.411-.85q-13.589.01-27.177-.006A1.533,1.533,0,0,0,1.1,2.889q.019,11.018,0,22.035A1.539,1.539,0,0,0,2.686,26.5q13.559-.03,27.118-.006a1.48,1.48,0,0,0,1.455-.877c.046-.092.068-.216.209-.223V2.425c-.153-.013-.171-.15-.222-.249m-.791,22.612c0,.664-.129.791-.8.791H2.8c-.646,0-.778-.134-.778-.785V3.026c0-.657.13-.791.772-.791h26.88c.646,0,.778.134.778.785V24.788" transform="translate(-1.011 -1.215)" fill="#cba400"/>
        <path id="Trazado_140483" data-name="Trazado 140483" d="M28.774,0Q15.231.013,1.687.008a2.172,2.172,0,0,0-.53.048A1.533,1.533,0,0,0,0,1.706Q0,12.693,0,23.68a3.151,3.151,0,0,0,.011.327A1.513,1.513,0,0,0,1.1,25.316a2.138,2.138,0,0,0,.647.063q13.484,0,26.968,0c.109,0,.218,0,.327-.01a1.483,1.483,0,0,0,1.321-.991c.028-.068,0-.164.094-.2-.141.007-.163.131-.209.223a1.48,1.48,0,0,1-1.455.877q-13.559-.012-27.118.006A1.539,1.539,0,0,1,.087,23.71q.019-11.018,0-22.035A1.533,1.533,0,0,1,1.646.106Q15.234.133,28.823.112a1.458,1.458,0,0,1,1.411.85c.051.1.069.237.222.249A1.651,1.651,0,0,0,28.774,0" transform="translate(0 -0.001)" fill="#cba400"/>
        <path id="Trazado_140484" data-name="Trazado 140484" d="M97.531,54.622a8.12,8.12,0,1,0-8.108-8.144,8.139,8.139,0,0,0,8.108,8.144m.005-15.227a7.106,7.106,0,1,1-7.1,7.11,7.106,7.106,0,0,1,7.1-7.11" transform="translate(-82.312 -35.329)" fill="#cba400"/>
        <path id="Trazado_140485" data-name="Trazado 140485" d="M51.491,256.132q-8.624.013-17.247,0c-.225,0-.532.1-.653-.044s-.063-.433-.039-.655c.029-.274-.073-.348-.327-.316-.224.029-.532-.094-.653.049s-.062.435-.036.657c.032.281-.084.317-.33.315-2.042-.01-4.084-.005-6.126-.005-.665,0-.653,0-.67.679-.007.259.047.345.33.343,2.022-.014,4.044-.01,6.066,0,.233,0,.543-.109.679.052.115.135.059.435.039.659-.022.249.055.334.305.3.225-.026.526.071.662-.043.161-.136.062-.449.047-.68-.017-.259.076-.3.314-.3q4.416.013,8.832.006h8.445c.691,0,.678,0,.7-.682.007-.266-.059-.339-.334-.339" transform="translate(-23.388 -234.818)" fill="#cba400"/>
        <path id="Trazado_140486" data-name="Trazado 140486" d="M25.961,26.623c.543,0,.543,0,.543-.531,0-.483,0-.483-.47-.483H26c-.515,0-.515,0-.515.529,0,.485,0,.485.472.485" transform="translate(-23.462 -23.573)" fill="#cba400"/>
        <path id="Trazado_140487" data-name="Trazado 140487" d="M51.517,26.622c.517,0,.517,0,.517-.526,0-.488,0-.488-.494-.488-.522,0-.522,0-.522.525,0,.49,0,.49.5.49" transform="translate(-46.963 -23.572)" fill="#cba400"/>
        <path id="Trazado_140488" data-name="Trazado 140488" d="M77.075,26.623c.508,0,.508,0,.508-.508s0-.506-.506-.506-.512,0-.512.506,0,.508.51.508" transform="translate(-70.478 -23.572)" fill="#cba400"/>
        <path id="Trazado_140489" data-name="Trazado 140489" d="M147.726,86.736l4.47-2.511c1.128-.634,2.258-1.265,3.382-1.906a.524.524,0,0,0,.005-.99l-.078-.043L147.7,76.9c-.56-.315-.915-.1-.915.552q0,2.184,0,4.369t0,4.369c0,.665.357.872.937.547m.332-8.471q2.248,1.262,4.5,2.526c.6.338,1.2.678,1.813,1.023-.336.23-6.309,3.576-6.562,3.673,0-2.394,0-4.76,0-7.127,0-.321.142-.16.258-.095" transform="translate(-135.118 -70.654)" fill="#cba400"/>
      </g>
    </g>
  </g>
</svg>
