<svg xmlns="http://www.w3.org/2000/svg" xmlns:xlink="http://www.w3.org/1999/xlink" width="46" height="46" viewBox="0 0 46 46">
  <defs>
    <clipPath id="clip-path">
      <rect id="Rectángulo_66424" data-name="Rectángulo 66424" width="28.393" height="28.406" fill="#cba400"/>
    </clipPath>
  </defs>
  <g id="Grupo_211373" data-name="Grupo 211373" transform="translate(-810 -8914)">
    <circle id="Elipse_4814" data-name="Elipse 4814" cx="23" cy="23" r="23" transform="translate(810 8914)" fill="#f4f4f5"/>
    <g id="Grupo_210943" data-name="Grupo 210943" transform="translate(818.604 8922.604)">
      <g id="Grupo_210942" data-name="Grupo 210942" clip-path="url(#clip-path)">
        <path id="Trazado_140427" data-name="Trazado 140427" d="M8.062.029c-.346.1-.71.108-1.06.189A8.817,8.817,0,0,0,4.851.994c-.3.162-.385.35-.258.6s.327.292.634.143a7.754,7.754,0,0,1,5.8-.611,6.632,6.632,0,0,1,4.913,5.439,7.636,7.636,0,0,1-.275,3.26A18.456,18.456,0,0,0,15,13.013a3.821,3.821,0,0,0,.008.885c.028.168-.023.2-.18.2-.286-.011-.573,0-.859,0a1.141,1.141,0,0,0-.78.22.4.4,0,0,1-.528-.133c-.051-.114.065-.14.115-.19a5.873,5.873,0,0,0,1.554-2.609,7.568,7.568,0,0,0,.19-2.5,1.008,1.008,0,0,0-.861-.89,3.2,3.2,0,0,1-2.2-1.827q-.041-.087-.086-.173a.961.961,0,0,0-1.168-.493.875.875,0,0,0-.514.4A4.542,4.542,0,0,1,6.344,7.994a9.988,9.988,0,0,1-2.071.112A1.089,1.089,0,0,0,3.04,9.294a6.056,6.056,0,0,0,1.081,3.9,4.9,4.9,0,0,0,.71.812c.124.111.107.169,0,.277a5.795,5.795,0,0,0-1.775,4.19c0,1.054,0,2.108,0,3.162v.321a4.014,4.014,0,0,1-1.22-2.316,9.977,9.977,0,0,1,.247-3.6,10.541,10.541,0,0,0,.309-3.35c-.107-.881-.3-1.745-.477-2.613A10.014,10.014,0,0,1,1.655,6.8,6.484,6.484,0,0,1,3.379,3.135c.038-.041.078-.079.115-.12.208-.232.212-.446.013-.63a.4.4,0,0,0-.607.052A7.38,7.38,0,0,0,1,5.79a8.5,8.5,0,0,0,.026,3.925c.163.8.341,1.587.478,2.388a9.483,9.483,0,0,1-.136,3.358A16.766,16.766,0,0,0,1,18.954a4.936,4.936,0,0,0,1.923,4,.3.3,0,0,1,.134.277c-.007.342,0,.684,0,1.026a2.406,2.406,0,0,0,.242,1.37H.6c-.484,0-.6.116-.6.607q0,.791,0,1.581c0,.469.122.592.586.592H11.566q8.123,0,16.247,0a.6.6,0,0,0,.58-.282V25.906a.545.545,0,0,0-.548-.289c-.378.017-.758,0-1.137.007-.121,0-.146-.027-.139-.155a61.566,61.566,0,0,1,1.192-6.974c.164-.982.377-1.957.568-2.935.01-.05-.008-.115.064-.138v-.444c-.1.006-.117-.077-.145-.141a1.092,1.092,0,0,0-1.107-.67q-5.363.008-10.726,0c-.637,0-.686-.045-.689-.7a9.333,9.333,0,0,1,.3-2.163c.21-.9.492-1.781.638-2.7a6.9,6.9,0,0,0-1.485-5.584A7.726,7.726,0,0,0,10.106.14C10,.124,9.854.169,9.816,0H8.152a.132.132,0,0,1-.076.028H8.062M3.926,10.547A11.051,11.051,0,0,1,3.877,9.22c0-.195.092-.287.288-.285.249,0,.5,0,.748,0A7.292,7.292,0,0,0,8.589,8.1,4.771,4.771,0,0,0,10.3,6.481c.058-.091.1-.22.234-.2.12.015.126.145.169.233a3.96,3.96,0,0,0,2.7,2.261.345.345,0,0,1,.3.382,5.636,5.636,0,0,1-.689,3.2,4.913,4.913,0,0,1-9.1-1.8m6.284,4.877a1.59,1.59,0,0,1-2.835,0,6.023,6.023,0,0,0,2.835,0m-6,1.255a5.221,5.221,0,0,1,1.277-1.885c.112-.106.2-.145.328-.036a.152.152,0,0,0,.047.029,1.134,1.134,0,0,1,.694.8,2.372,2.372,0,0,0,2.328,1.548,2.423,2.423,0,0,0,2.233-1.766.642.642,0,0,1,.38-.451c.5-.245.482-.244.871.14a.735.735,0,0,1,.235.753q-.8,3.974-1.547,7.958c-.035.186-.107.214-.268.212-.656-.007-1.312,0-1.968,0a.406.406,0,0,1-.165-.007,5.367,5.367,0,0,0-2.346-.231c-.217-.006-.276-.058-.272-.275.013-.8.005-1.608.005-2.412s0-1.627,0-2.44a.413.413,0,0,0-.588-.428.385.385,0,0,0-.242.4c0,.333-.006.666,0,1,0,.14-.03.2-.182.191-.332-.011-.665-.006-1,0-.1,0-.152-.014-.151-.133a7.8,7.8,0,0,1,.325-2.952m-.082,3.912a7.889,7.889,0,0,0,.858,0c.182-.009.232.048.23.231-.009,1.053,0,2.106,0,3.158,0,.452.125.579.571.581.628,0,1.256-.009,1.883.006a1.417,1.417,0,0,1,1.26.813c.1.174.091.252-.148.247-.674-.013-1.348,0-2.022,0-.637,0-1.274,0-1.911,0a.875.875,0,0,1-.958-.965c0-1.274,0-2.549-.006-3.823,0-.2.052-.254.246-.242m23.187,5.858c.209,0,.275.05.253.257-.029.281.115.66-.058.821-.151.14-.525.043-.8.043q-12.78,0-25.56.008c-.274,0-.35-.07-.32-.331a4.181,4.181,0,0,0,0-.637c0-.119.029-.172.154-.157a1.609,1.609,0,0,0,.194,0H19.862a1.533,1.533,0,0,0,.331-.016.377.377,0,0,0,.308-.431.369.369,0,0,0-.365-.38c-.092-.006-.185,0-.277,0q-4.851,0-9.7,0c-.205,0-.315-.032-.355-.259a3.062,3.062,0,0,0-.218-.56H9.9q7.748,0,15.5.008c.127,0,.381-.163.39.171.011.372-.144.619-.427.633-.258.012-.517,0-.776,0-.7,0-1.4,0-2.107,0-.328,0-.505.152-.5.417s.179.413.511.413c1.608,0,3.216.005,4.824,0M27.17,14.925c.346,0,.411.078.347.412q-.811,4.212-1.619,8.424c-.038.2-.132.217-.3.216q-3.382-.007-6.764,0c-2.236,0-4.472,0-6.708,0-.227,0-.263-.042-.218-.271q.829-4.222,1.632-8.449a.353.353,0,0,1,.407-.339q6.611.01,13.222.005" transform="translate(0 -0.001)" fill="#cba400"/>
        <path id="Trazado_140428" data-name="Trazado 140428" d="M132.679.139a7.726,7.726,0,0,1,5.075,2.891,6.9,6.9,0,0,1,1.485,5.584c-.146.915-.428,1.8-.638,2.7a9.337,9.337,0,0,0-.3,2.163c0,.65.052.7.689.7q5.363,0,10.726,0a1.092,1.092,0,0,1,1.107.67c.029.063.046.147.145.141a1.26,1.26,0,0,0-1.394-.895c-3.271.02-6.543.009-9.815.009-.37,0-.74-.008-1.109,0-.156,0-.224-.025-.238-.2a6.289,6.289,0,0,1,0-1.024,16.9,16.9,0,0,1,.609-2.865,8.126,8.126,0,0,0,.338-3.447A7.579,7.579,0,0,0,133.753.281c-.444-.143-.912-.169-1.363-.281.037.168.183.123.289.139" transform="translate(-122.574)" fill="#cba400"/>
        <path id="Trazado_140429" data-name="Trazado 140429" d="M241.681,243.892A1.885,1.885,0,1,0,239.8,242a1.891,1.891,0,0,0,1.878,1.891m0-2.937a1.044,1.044,0,0,1,1.054,1.053,1.05,1.05,0,1,1-2.1-.022,1.04,1.04,0,0,1,1.046-1.031" transform="translate(-222.024 -222.32)" fill="#cba400"/>
        <path id="Trazado_140430" data-name="Trazado 140430" d="M85.732,135.732a.392.392,0,0,0,.43-.4.4.4,0,1,0-.807-.025.394.394,0,0,0,.377.421" transform="translate(-79.026 -124.904)" fill="#cba400"/>
        <path id="Trazado_140431" data-name="Trazado 140431" d="M141.313,135.744a.393.393,0,0,0,.411-.414.4.4,0,1,0-.8.01.389.389,0,0,0,.393.4" transform="translate(-130.472 -124.914)" fill="#cba400"/>
      </g>
    </g>
  </g>
</svg>
