<svg xmlns="http://www.w3.org/2000/svg" xmlns:xlink="http://www.w3.org/1999/xlink" width="46" height="46" viewBox="0 0 46 46">
  <defs>
    <clipPath id="clip-path">
      <rect id="Rectángulo_66425" data-name="Rectángulo 66425" width="25.741" height="26.699" fill="#cba400"/>
    </clipPath>
  </defs>
  <g id="Grupo_211374" data-name="Grupo 211374" transform="translate(-810 -8978)">
    <circle id="Elipse_4815" data-name="Elipse 4815" cx="23" cy="23" r="23" transform="translate(810 8978)" fill="#f4f4f5"/>
    <g id="Grupo_210944" data-name="Grupo 210944" transform="translate(820.344 8987.394)">
      <g id="Grupo_210944-2" data-name="Grupo 210944" clip-path="url(#clip-path)">
        <path id="Trazado_140432" data-name="Trazado 140432" d="M52.078.4c-.21.231-.217.225.009.452.263.265.533.523.79.794.11.116.183.116.294,0,.458-.477.434-.341,0-.783-.206-.212-.419-.416-.624-.628C52.488.172,52.393.118,52.424,0h-.052c0,.206-.183.28-.294.4" transform="translate(-48.313)" fill="#cba400"/>
        <path id="Trazado_140433" data-name="Trazado 140433" d="M50.586.5c-.095.095-.1.149,0,.245.228.212.443.439.664.659.153.153.318.434.46.423.174-.014.323-.278.492-.423.125-.107.136-.177.006-.3C51.833.746,51.476.37,51.114,0c-.031.118.064.172.127.237.205.212.419.416.624.628.429.442.453.306,0,.783-.111.116-.185.115-.294,0-.257-.271-.526-.53-.789-.794C50.55.626,50.557.632,50.768.4c.111-.122.3-.2.294-.4a3.01,3.01,0,0,1-.476.5" transform="translate(-47.003)" fill="#cba400"/>
        <path id="Trazado_140434" data-name="Trazado 140434" d="M59.488,22.727a14.529,14.529,0,0,1,1.521-2.478,19.483,19.483,0,0,0,2.963-6.4,11.411,11.411,0,0,0,.392-4.661,8.381,8.381,0,0,0-2.78-5.159,10.176,10.176,0,0,0-8.873-2.384A9.462,9.462,0,0,0,47.9,3.966a8.7,8.7,0,0,0-2.57,4,9.518,9.518,0,0,0-.163,4.611,19.691,19.691,0,0,0,2.5,6.541c.576.96,1.284,1.832,1.849,2.8a5.71,5.71,0,0,1,.69,1.618c.025.112.029.18-.094.249A1.257,1.257,0,0,0,49.66,25.7a.186.186,0,0,1-.012.265,1.184,1.184,0,0,0-.248.672,1.322,1.322,0,0,0,1.362,1.415c1.312.007,2.624,0,3.936,0s2.641,0,3.962,0a1.282,1.282,0,0,0,1.213-.709,1.244,1.244,0,0,0-.106-1.4c-.08-.11-.055-.171.01-.267a1.253,1.253,0,0,0-.454-1.9.178.178,0,0,1-.106-.243,4.548,4.548,0,0,1,.272-.811m-.762,4.436a1.98,1.98,0,0,1-.234,0H50.935a1.951,1.951,0,0,1-.234,0,.439.439,0,0,1,0-.878,1.811,1.811,0,0,1,.208,0h7.61a1.794,1.794,0,0,1,.208,0,.439.439,0,0,1,0,.878m-8.436-2.294c.023-.223.193-.317.4-.351a1.618,1.618,0,0,1,.26-.01h7.529a2.123,2.123,0,0,1,.234.006.441.441,0,0,1,.433.406.484.484,0,0,1-.416.462,1.865,1.865,0,0,1-.286.012h-7.5a.8.8,0,0,1-.358-.048.455.455,0,0,1-.289-.477m8.356-2.439a3.423,3.423,0,0,0-.3.964c-.024.213-.129.233-.306.232-1.112-.006-2.224,0-3.336,0s-2.241,0-3.362,0c-.091,0-.2.05-.232-.121a7.519,7.519,0,0,0-1.384-2.911,23.06,23.06,0,0,1-2.392-4.041,16.858,16.858,0,0,1-1.456-5.5A7.563,7.563,0,0,1,48.658,4.5a9.2,9.2,0,0,1,7.391-2.061A8.787,8.787,0,0,1,60.89,4.6,7.681,7.681,0,0,1,63.475,9.25a10.486,10.486,0,0,1-.386,4.452,18.549,18.549,0,0,1-2.826,6.066,14.439,14.439,0,0,0-1.617,2.661" transform="translate(-41.843 -1.357)" fill="#cba400"/>
        <path id="Trazado_140435" data-name="Trazado 140435" d="M299.724,5.543c.093.107.151.089.242,0q.5-.512,1.01-1.009c.089-.087.122-.145.01-.243a4.366,4.366,0,0,1-.4-.4c-.087-.1-.142-.083-.226,0-.339.346-.684.686-1.026,1.029-.036.036-.065.077-.1.12.035.038.063.071.093.1.134.135.276.263.4.406" transform="translate(-278.453 -3.55)" fill="#cba400"/>
        <path id="Trazado_140436" data-name="Trazado 140436" d="M1.2,128.821c-.095-.006-.19,0-.286,0H.685c-.705,0-.705,0-.677.707a.36.36,0,0,1,0,.052c-.011.107.047.129.141.129.5,0,1,0,1.506,0,.063,0,.128,0,.127-.086a2.3,2.3,0,0,0-.038-.765c-.043-.111-.351-.024-.539-.035" transform="translate(0 -119.856)" fill="#cba400"/>
        <path id="Trazado_140437" data-name="Trazado 140437" d="M346.259,128.816c-.233.009-.467,0-.7,0-.069,0-.139,0-.208,0-.215,0-.512-.072-.624.038-.145.142-.027.44-.05.668-.016.155.052.187.192.183.3-.009.606,0,.909,0,.7,0,.7,0,.681-.709,0-.158-.062-.185-.2-.18" transform="translate(-320.721 -119.854)" fill="#cba400"/>
        <path id="Trazado_140438" data-name="Trazado 140438" d="M310.9,252.822c-.1-.1-.143-.072-.22.01-.129.14-.263.277-.4.4-.1.085-.09.14,0,.226.239.227.467.465.7.7.147.144.3.4.446.393s.3-.257.449-.4c.055-.053.105-.11.166-.174-.037-.041-.063-.074-.092-.1-.349-.349-.7-.694-1.046-1.05" transform="translate(-288.669 -235.208)" fill="#cba400"/>
        <path id="Trazado_140439" data-name="Trazado 140439" d="M36.167,254.039c-.081-.088-.134-.1-.227-.006-.377.382-.763.756-1.163,1.149.187.179.362.334.523.5.091.1.148.109.244.005.207-.222.431-.427.64-.647.158-.166.458-.316.438-.5s-.3-.335-.456-.507" transform="translate(-32.362 -236.333)" fill="#cba400"/>
        <path id="Trazado_140440" data-name="Trazado 140440" d="M163.192,121.278h0c-.015-.295-.031-.59-.046-.885-.057-1.163-.111-2.326-.172-3.488-.023-.437-.167-.568-.6-.569q-.717,0-1.434,0c-.5,0-.625.121-.65.627-.03.607-.055,1.215-.085,1.822q-.169,3.358-.339,6.716c-.021.419.149.586.572.587q1.147,0,2.294,0c.56,0,.7-.138.667-.7q-.1-2.056-.211-4.112m-.9,3.927q-.651-.018-1.3,0c-.173,0-.212-.041-.2-.216.07-1.257.126-2.515.165-3.308.088-1.739.155-3.014.215-4.289.006-.132.036-.182.175-.174.208.012.417.009.625,0,.116,0,.142.038.147.148.064,1.344.136,2.688.2,4.032.06,1.2.112,2.394.179,3.59.01.176-.031.22-.2.215" transform="translate(-148.768 -108.257)" fill="#cba400"/>
        <path id="Trazado_140441" data-name="Trazado 140441" d="M161.6,52.525a1.771,1.771,0,1,0,1.778,1.764,1.778,1.778,0,0,0-1.778-1.764m0,2.655a.9.9,0,0,1-.881-.879.886.886,0,1,1,1.771.009.9.9,0,0,1-.891.87" transform="translate(-148.737 -48.878)" fill="#cba400"/>
      </g>
    </g>
  </g>
</svg>
