<svg xmlns="http://www.w3.org/2000/svg" xmlns:xlink="http://www.w3.org/1999/xlink" width="46" height="46" viewBox="0 0 46 46">
  <defs>
    <clipPath id="clip-path">
      <rect id="Rectángulo_66427" data-name="Rectángulo 66427" width="31.47" height="31.457" fill="#cba400"/>
    </clipPath>
  </defs>
  <g id="Grupo_211375" data-name="Grupo 211375" transform="translate(1748 2852)">
    <circle id="Elipse_4906" data-name="Elipse 4906" cx="23" cy="23" r="23" transform="translate(-1748 -2852)" fill="#f4f4f5"/>
    <g id="Grupo_210951" data-name="Grupo 210951" transform="translate(-1741 -2845)">
      <g id="Grupo_210950" data-name="Grupo 210950" clip-path="url(#clip-path)">
        <path id="Trazado_140442" data-name="Trazado 140442" d="M14.761,31.43a15.293,15.293,0,0,1-8.595-3.218A15.5,15.5,0,0,1,.324,18.894,14.817,14.817,0,0,1,.022,15,15.485,15.485,0,0,1,5.36,3.914a15.248,15.248,0,0,1,7-3.551,15.884,15.884,0,0,1,9.263.771.724.724,0,0,1,.515.74.712.712,0,0,1-1,.6,14.723,14.723,0,0,0-1.92-.628A14.3,14.3,0,0,0,5.573,5.672a13.781,13.781,0,0,0-3.895,7.414A13.933,13.933,0,0,0,4.314,24.329a13.994,13.994,0,0,0,8.524,5.418,13.5,13.5,0,0,0,4.126.24,14.116,14.116,0,0,0,9.31-4.621,14,14,0,0,0,3.531-7.029,14.2,14.2,0,0,0,.212-3.6c-.016-.246-.045-.49-.07-.735a.711.711,0,0,1,.583-.789.7.7,0,0,1,.816.581,8.3,8.3,0,0,1,.095,1.079c.032.1-.014.215.027.319v1.038a1.407,1.407,0,0,0-.016.329,11.247,11.247,0,0,1-.306,2.568,15.608,15.608,0,0,1-3.166,6.547,14.8,14.8,0,0,1-1.269,1.393,16.233,16.233,0,0,1-3.42,2.517A15.636,15.636,0,0,1,18.847,31.2a10.374,10.374,0,0,1-2.182.24,1.651,1.651,0,0,0-.36.016H15.079c-.1-.041-.214.006-.317-.027" transform="translate(0 0)" fill="#cba400"/>
        <path id="Trazado_140443" data-name="Trazado 140443" d="M124.638,239.456a.026.026,0,0,0,0,.028h-.378a.928.928,0,0,1,.381-.028" transform="translate(-107.951 -208.027)" fill="#cba400"/>
        <path id="Trazado_140444" data-name="Trazado 140444" d="M239.565,124.039l-.012.009-.014,0a.712.712,0,0,1,.026-.352Z" transform="translate(-208.097 -107.461)" fill="#cba400"/>
        <path id="Trazado_140445" data-name="Trazado 140445" d="M239.569,113.665a.617.617,0,0,1-.027-.319.034.034,0,0,1,.027,0Z" transform="translate(-208.101 -98.471)" fill="#cba400"/>
        <path id="Trazado_140446" data-name="Trazado 140446" d="M112.49,239.474a.766.766,0,0,1,.317.027h-.315a.04.04,0,0,0,0-.027" transform="translate(-97.728 -208.044)" fill="#cba400"/>
        <path id="Trazado_140447" data-name="Trazado 140447" d="M52.068,60.786A8.857,8.857,0,0,0,60.7,53.763a8.7,8.7,0,0,0,.151-2.61.713.713,0,0,1,.6-.805.7.7,0,0,1,.8.631,9.02,9.02,0,0,1-.016,2.149A10.286,10.286,0,0,1,53.9,62.035a10.252,10.252,0,0,1-4.4-20.013,10.06,10.06,0,0,1,6.156.332.71.71,0,1,1-.518,1.32,8.735,8.735,0,0,0-3.088-.558,8.834,8.834,0,0,0-1.98,17.443,8.968,8.968,0,0,0,1.994.227" transform="translate(-36.321 -36.219)" fill="#cba400"/>
        <path id="Trazado_140448" data-name="Trazado 140448" d="M131.943,29.684c-.336.244-.642.469-.951.691-.736.528-1.447,1.091-2.207,1.582a3.709,3.709,0,0,1-2.508.552c-.25-.029-.5-.047-.75-.075a.27.27,0,0,0-.2.059q-4.134,3-8.271,6.007a1.02,1.02,0,0,1-.621.265.775.775,0,0,1-.728-.5.745.745,0,0,1,.212-.856c.2-.17.427-.32.643-.477q3.913-2.842,7.829-5.68a.423.423,0,0,0,.162-.285,8.931,8.931,0,0,1,.335-1.32,3.767,3.767,0,0,1,1.287-1.688c.961-.707,1.93-1.4,2.9-2.1.012-.008.025-.014.059-.032-.042.352-.081.686-.123,1.02-.088.7-.175,1.4-.271,2.1-.017.127.053.132.136.148l2.85.547.223.045" transform="translate(-100.474 -22.433)" fill="#cba400"/>
        <path id="Trazado_140449" data-name="Trazado 140449" d="M88.515,93.165a4.752,4.752,0,0,1-.826-9.444,4.7,4.7,0,0,1,1.947.095.7.7,0,0,1,.535.871.708.708,0,0,1-.895.5,3.3,3.3,0,0,0-1.991.1,3.332,3.332,0,1,0,4.461,3.491q.02-.2.026-.392a.7.7,0,0,1,.745-.666.667.667,0,0,1,.671.667,4.771,4.771,0,0,1-3.779,4.68,4.707,4.707,0,0,1-.894.1" transform="translate(-72.698 -72.682)" fill="#cba400"/>
      </g>
    </g>
  </g>
</svg>
