<svg xmlns="http://www.w3.org/2000/svg" xmlns:xlink="http://www.w3.org/1999/xlink" width="101" height="101" viewBox="0 0 101 101">
  <defs>
    <clipPath id="clip-path">
      <rect id="Rectángulo_41540" data-name="Rectángulo 41540" width="43.901" height="42.899" fill="#1f4889"/>
    </clipPath>
  </defs>
  <g id="Grupo_211384" data-name="Grupo 211384" transform="translate(-750 -9149.279)">
    <circle id="Elipse_1145" data-name="Elipse 1145" cx="50.5" cy="50.5" r="50.5" transform="translate(750 9149.279)" fill="#f7cb50"/>
    <g id="Grupo_98710" data-name="Grupo 98710" transform="translate(778.611 9178.648)">
      <g id="Grupo_98709" data-name="Grupo 98709" clip-path="url(#clip-path)">
        <path id="Trazado_130924" data-name="Trazado 130924" d="M96.747,33.8H97.7V27.782A4.79,4.79,0,0,1,102.488,23h2.936a4.79,4.79,0,0,1,4.784,4.784V33.8h.957a.957.957,0,0,1,.957.957V27.782a6.705,6.705,0,0,0-6.7-6.7h-2.936a6.705,6.705,0,0,0-6.7,6.7v6.976a.957.957,0,0,1,.957-.957" transform="translate(-81.684 -17.979)" fill="#1f4889"/>
        <path id="Trazado_130925" data-name="Trazado 130925" d="M102.487,126.338h2.936a6.705,6.705,0,0,0,6.7-6.7v-5.7a.957.957,0,0,1-.957.957h-.957v4.744a4.789,4.789,0,0,1-4.784,4.784h-2.936A4.789,4.789,0,0,1,97.7,119.64V114.9h-.957a.957.957,0,0,1-.957-.957v5.7a6.705,6.705,0,0,0,6.7,6.7" transform="translate(-81.683 -97.161)" fill="#1f4889"/>
        <path id="Trazado_130926" data-name="Trazado 130926" d="M96.747,109.354h14.418a.957.957,0,0,0,0-1.914H96.747a.957.957,0,0,0,0,1.914" transform="translate(-81.684 -91.619)" fill="#1f4889"/>
        <path id="Trazado_130927" data-name="Trazado 130927" d="M93.353,167.941a.957.957,0,0,0-1.249.521c-1.662,4.047-4.8,5.932-9.886,5.932-5.119,0-8.385-2.019-9.982-6.172a.957.957,0,0,0-1.786.687c1.788,4.647,5.434,7.123,10.84,7.374v-.932a.957.957,0,0,1,1.914,0v.932c5.32-.251,8.817-2.577,10.672-7.094a.957.957,0,0,0-.521-1.248" transform="translate(-60.02 -142.927)" fill="#1f4889"/>
        <path id="Trazado_130928" data-name="Trazado 130928" d="M145.388,213.691a.957.957,0,0,0-.957.957v8.561h1.914v-8.561a.957.957,0,0,0-.957-.957" transform="translate(-123.163 -182.224)" fill="#1f4889"/>
        <path id="Trazado_130929" data-name="Trazado 130929" d="M101.494,278.328H95.037a.957.957,0,1,0,0,1.914h14.669a.957.957,0,0,0,0-1.914h-8.212Z" transform="translate(-80.226 -237.343)" fill="#1f4889"/>
        <path id="Trazado_130930" data-name="Trazado 130930" d="M4.7,39.053a8.2,8.2,0,0,0-2.2-6.03.957.957,0,0,0-1.476,1.219c.232.281.434.56.621.839a5.788,5.788,0,0,1,1.15,3.787,5.453,5.453,0,0,1-1.723,3.3,9.467,9.467,0,0,1-.72.659A.957.957,0,0,0,1.564,44.3,7.8,7.8,0,0,0,4.7,39.053" transform="translate(0 -27.864)" fill="#1f4889"/>
        <path id="Trazado_130931" data-name="Trazado 130931" d="M19.16,28.407a11.343,11.343,0,0,0-2.873-8.345.957.957,0,0,0-1.476,1.219,9.48,9.48,0,0,1,2.444,6.941,8.859,8.859,0,0,1-3.465,5.955A.957.957,0,1,0,15,35.657a10.724,10.724,0,0,0,4.157-7.25" transform="translate(-11.461 -16.812)" fill="#1f4889"/>
        <path id="Trazado_130932" data-name="Trazado 130932" d="M31.555,5.853a.957.957,0,0,0-1.476,1.219,12.708,12.708,0,0,1,3.268,9.31,11.9,11.9,0,0,1-4.647,8,.957.957,0,1,0,1.213,1.48,13.761,13.761,0,0,0,5.338-9.3,14.569,14.569,0,0,0-3.7-10.714" transform="translate(-24.175 -4.695)" fill="#1f4889"/>
        <path id="Trazado_130933" data-name="Trazado 130933" d="M270.394,37.317a9.547,9.547,0,0,1-.72-.659,5.453,5.453,0,0,1-1.723-3.295,5.791,5.791,0,0,1,1.15-3.788c.187-.278.389-.558.621-.839a.957.957,0,0,0-1.476-1.219,8.2,8.2,0,0,0-2.2,6.031,7.791,7.791,0,0,0,3.135,5.249.957.957,0,1,0,1.213-1.48" transform="translate(-226.843 -23.169)" fill="#1f4889"/>
        <path id="Trazado_130934" data-name="Trazado 130934" d="M247.479,22.715a9.48,9.48,0,0,1,2.444-6.941.957.957,0,0,0-1.476-1.219,11.344,11.344,0,0,0-2.873,8.344,10.726,10.726,0,0,0,4.157,7.25.957.957,0,1,0,1.214-1.48,8.86,8.86,0,0,1-3.466-5.955" transform="translate(-209.373 -12.116)" fill="#1f4889"/>
        <path id="Trazado_130935" data-name="Trazado 130935" d="M224.475,10.876a12.706,12.706,0,0,1,3.268-9.31A.957.957,0,0,0,226.267.347a14.57,14.57,0,0,0-3.7,10.714,13.757,13.757,0,0,0,5.338,9.3.957.957,0,1,0,1.213-1.48,11.9,11.9,0,0,1-4.647-8" transform="translate(-189.746 0)" fill="#1f4889"/>
      </g>
    </g>
  </g>
</svg>
