<svg xmlns="http://www.w3.org/2000/svg" xmlns:xlink="http://www.w3.org/1999/xlink" width="101" height="101" viewBox="0 0 101 101">
  <defs>
    <clipPath id="clip-path">
      <rect id="Rectángulo_41545" data-name="Rectángulo 41545" width="54.92" height="57.197" fill="#1f4889"/>
    </clipPath>
  </defs>
  <g id="Grupo_211389" data-name="Grupo 211389" transform="translate(-750 -9954.279)">
    <circle id="Elipse_4817" data-name="Elipse 4817" cx="50.5" cy="50.5" r="50.5" transform="translate(750 9954.279)" fill="#f7cb50"/>
    <g id="Grupo_98717" data-name="Grupo 98717" transform="translate(772.833 9976.271)">
      <g id="Grupo_98717-2" data-name="Grupo 98717" clip-path="url(#clip-path)">
        <path id="Trazado_131159" data-name="Trazado 131159" d="M128.433,263.025a4.643,4.643,0,0,0,.14-.654c.064-.564-.131-.912-.559-1.006-.4-.089-.729.123-.916.625-.235.628-.377,1.285-.55,1.931q-1.87,7.008-3.762,14.01a1.22,1.22,0,0,0,.291,1.423.229.229,0,0,1,.085.248h.558c1.086-1.88,1.312-4.034,1.891-6.07.991-3.488,1.9-7,2.821-10.508" transform="translate(-104.409 -222.406)" fill="#1f4889"/>
        <path id="Trazado_131160" data-name="Trazado 131160" d="M123.347,277.458q1.742-6.565,3.5-13.124c.254-.95.53-1.9.764-2.85.2-.832-.328-1.491-1.049-1.335-.509.11-.7.505-.82.957q-2.129,7.96-4.259,15.919c-.226.846-.136,1.079.559,1.541a.229.229,0,0,0-.085-.248,1.22,1.22,0,0,1-.291-1.423q1.888-7,3.762-14.011c.172-.646.315-1.3.55-1.931.188-.5.513-.713.916-.625.428.094.622.443.559,1.006a4.655,4.655,0,0,1-.141.654c-.919,3.509-1.829,7.02-2.821,10.508-.579,2.036-.805,4.19-1.891,6.07a1.621,1.621,0,0,0,.742-1.107" transform="translate(-103.293 -221.369)" fill="#1f4889"/>
        <path id="Trazado_131161" data-name="Trazado 131161" d="M32.114,26.283a.77.77,0,0,1,.236-.87c1.984-1.964,3.949-3.947,5.928-5.915a1.145,1.145,0,0,0,.444-1.229c-.145-.435-.544-.58-.937-.711q-5.412-1.8-10.826-3.592a2.933,2.933,0,0,1-1.209-.74c-3.282-3.3-6.582-6.577-9.865-9.875a3.052,3.052,0,0,0-2.751-1.016A3.72,3.72,0,0,0,11.046,3.67c0-.909,0-1.685,0-2.461C11.041.338,10.7.006,9.818,0Q8.2,0,6.58,0c-.909,0-1.233.329-1.234,1.252,0,2.512-.012,5.025.01,7.537A1.28,1.28,0,0,1,4.923,9.8c-1.276,1.25-2.534,2.519-3.8,3.784a2.922,2.922,0,0,0,.014,4.622q4.991,5,9.988,9.989a1.829,1.829,0,0,1,.466.739q1.84,5.545,3.69,11.086c.4,1.2,1.1,1.367,1.989.476,1.949-1.946,3.9-3.889,5.836-5.85a.811.811,0,0,1,.914-.251,6.571,6.571,0,0,0,8.09-8.116M7.237,2.4c0-.42.1-.553.517-.51.44.045,1.034-.144,1.293.079.306.263.091.871.1,1.329.014,1.6.006,3.2.006,4.8,0,1.9-.011,3.8.009,5.7,0,.386-.088.538-.487.489-.456-.056-1.046.191-1.341-.1-.27-.263-.077-.848-.077-1.29-.006-3.5,0-7-.014-10.5m4.774,24q-4.845-4.87-9.7-9.726a.935.935,0,0,1-.085-1.471c1-1.024,2.025-2.016,3.122-3.1,0,1.022,0,1.93,0,2.838,0,.884.336,1.232,1.2,1.238q1.647.013,3.295,0c.86-.007,1.2-.364,1.2-1.238,0-2.7.007-5.4-.007-8.1a1.007,1.007,0,0,1,.341-.827c.492-.454.946-.949,1.427-1.415a1.006,1.006,0,0,1,1.642,0q4.847,4.828,9.686,9.664c.2.2.236.3.014.524Q18.332,20.59,12.538,26.406c-.21.21-.319.209-.527,0M16.747,38.26c-.152-.1-.149-.31-.2-.477-1.012-3.006-2.006-6.018-3.027-9.021a.715.715,0,0,1,.207-.864Q19.7,21.95,25.648,15.978c.2-.2.357-.349.7-.231,3.143,1.067,6.3,2.108,9.445,3.157a1.708,1.708,0,0,1,.215.11L16.747,38.26M25.2,32.717c.19-.356,4.662-4.873,5.25-5.288a4.757,4.757,0,0,1-5.25,5.288" transform="translate(0 0)" fill="#1f4889"/>
        <path id="Trazado_131162" data-name="Trazado 131162" d="M261.949,143.12l-13.334,3.571c-.95.254-1.9.494-2.85.763a.963.963,0,0,0-.777,1.12.952.952,0,0,0,1.032.764c.084-.02.247-.053.407-.1,1.184-.312,2.369-.622,3.552-.94q6.209-1.665,12.418-3.332a1.244,1.244,0,0,0,.871-.542.89.89,0,0,0-.094-1.044,1.063,1.063,0,0,0-1.225-.265" transform="translate(-208.475 -121.73)" fill="#1f4889"/>
        <path id="Trazado_131163" data-name="Trazado 131163" d="M226.927,240.861a1.73,1.73,0,0,0-.342-.282.88.88,0,0,0-1.126.1.865.865,0,0,0-.166,1.159,2.427,2.427,0,0,0,.392.468q5.782,5.788,11.57,11.57a2.375,2.375,0,0,0,.514.421.945.945,0,0,0,1.377-.8,1.344,1.344,0,0,0-.449-.868q-5.887-5.881-11.769-11.766" transform="translate(-191.597 -204.6)" fill="#1f4889"/>
        <path id="Trazado_131164" data-name="Trazado 131164" d="M195.615,257.794q-.653-2.447-1.31-4.893c-.174-.644-.507-.951-1-.944-.675.011-1.063.6-.858,1.37q1.425,5.352,2.875,10.7a.952.952,0,1,0,1.828-.475c-.5-1.92-1.02-3.838-1.532-5.756" transform="translate(-163.724 -214.417)" fill="#1f4889"/>
        <path id="Trazado_131165" data-name="Trazado 131165" d="M248.736,210.56q-4.781-1.289-9.566-2.567c-.482-.129-.967-.252-1.31-.342-.647-.008-1.031.289-1.112.744a.955.955,0,0,0,.767,1.126q5.425,1.468,10.856,2.909a.93.93,0,0,0,1.116-.417c.372-.6.046-1.238-.751-1.453" transform="translate(-201.459 -176.712)" fill="#1f4889"/>
      </g>
    </g>
  </g>
</svg>
