<svg xmlns="http://www.w3.org/2000/svg" xmlns:xlink="http://www.w3.org/1999/xlink" width="101" height="101" viewBox="0 0 101 101">
  <defs>
    <clipPath id="clip-path">
      <rect id="Rectángulo_41543" data-name="Rectángulo 41543" width="58.994" height="58.995" fill="#1f4889"/>
    </clipPath>
  </defs>
  <g id="Grupo_211382" data-name="Grupo 211382" transform="translate(-750 -8826.279)">
    <circle id="Elipse_1146" data-name="Elipse 1146" cx="50.5" cy="50.5" r="50.5" transform="translate(750 8826.279)" fill="#f7cb50"/>
    <g id="Grupo_98714" data-name="Grupo 98714" transform="translate(770.503 8847.225)">
      <g id="Grupo_98714-2" data-name="Grupo 98714" clip-path="url(#clip-path)">
        <path id="Trazado_130999" data-name="Trazado 130999" d="M43.516,55.431a2.862,2.862,0,0,1,1.467-.372c1.977.024,3.955.014,5.933.008a2.947,2.947,0,0,0,3.15-3.119c.01-1.9.006-3.8,0-5.7a1.305,1.305,0,0,1,.2-.756,29.17,29.17,0,0,0,4.619-13.564c.008-.092-.005-.2.109-.239V27.423c-.113-.7-.055-1.409-.15-2.108a28.761,28.761,0,0,0-4.13-11.39,3.146,3.146,0,0,1-.522-1.781c.03-1.766,0-3.532.014-5.3a2.818,2.818,0,0,0-.467-1.633,3.158,3.158,0,0,0-2.728-1.453q-2.85-.036-5.7,0a3.755,3.755,0,0,1-1.929-.449,25.331,25.331,0,0,0-3.508-1.6A23.149,23.149,0,0,0,31.684.059h0A.112.112,0,0,0,31.7.1,2.218,2.218,0,0,1,30.534,0H28.46a2.224,2.224,0,0,1-1.167.1A28.729,28.729,0,0,0,15.327,3.643a2.238,2.238,0,0,1-1.141.291c-1.978-.015-3.958.051-5.933-.024A3.107,3.107,0,0,0,4.909,7.275c.081,1.821.013,3.648.02,5.472a1.305,1.305,0,0,1-.2.756A29.115,29.115,0,0,0,.108,27.068c-.008.092.005.195-.108.24V31.8a9.275,9.275,0,0,1,.317,2,29.226,29.226,0,0,0,4.31,11.524A1.854,1.854,0,0,1,4.932,46.4c-.015,1.8.049,3.609-.021,5.41a3.078,3.078,0,0,0,3.255,3.272c2.071-.057,4.144-.01,6.216-.017a1.482,1.482,0,0,1,.761.19A29.282,29.282,0,0,0,26.962,58.88c.092.008.2-.007.231.114h4.263a18.035,18.035,0,0,1,2.362-.321,28.965,28.965,0,0,0,9.7-3.243M57.029,29.492a25.905,25.905,0,0,1-2.956,12.16q0-12.153,0-24.305c1.3,1.231,2.964,8.053,2.957,12.145M4.9,41.621A25.778,25.778,0,0,1,1.967,29.555,25.836,25.836,0,0,1,4.9,17.373Zm9.272,11.5c-2-.032-3.993-.012-5.99-.014-.961,0-1.29-.322-1.29-1.266q0-22.348,0-44.7c0-.914.335-1.247,1.249-1.248,2.016,0,4.032.021,6.048-.016.524-.01.568.18.567.619q-.019,11.491-.009,22.982,0,11.52.011,23.039c0,.468-.094.609-.586.6M39.41,3.893H19.6a26.643,26.643,0,0,1,19.807,0M16.7,52.458q.025-11.491.012-22.981T16.7,6.5c0-.523.141-.616.632-.616Q34,5.9,50.678,5.891c1.149,0,1.423.273,1.423,1.423q0,22.175,0,44.35c0,1.177-.268,1.44-1.465,1.44q-16.646,0-33.291.013c-.537,0-.647-.148-.646-.659m2.9,2.62H39.4a26.414,26.414,0,0,1-19.8,0" fill="#1f4889"/>
        <path id="Trazado_131000" data-name="Trazado 131000" d="M199.823.059a.107.107,0,0,1,0-.059h-1.152a4.6,4.6,0,0,0,1.15.059" transform="translate(-168.139)" fill="#1f4889"/>
        <path id="Trazado_131001" data-name="Trazado 131001" d="M199.841.1a.11.11,0,0,1-.017-.041A4.589,4.589,0,0,1,198.674,0a2.218,2.218,0,0,0,1.167.1" transform="translate(-168.14)" fill="#1f4889"/>
        <path id="Trazado_131002" data-name="Trazado 131002" d="M177.722.057A4.044,4.044,0,0,0,178.834,0h-1.152c.029.022.043.041.04.057" transform="translate(-150.374)" fill="#1f4889"/>
        <path id="Trazado_131003" data-name="Trazado 131003" d="M177.639.057a.031.031,0,0,1-.008.016.065.065,0,0,1-.048.027A2.221,2.221,0,0,0,178.75,0a4.044,4.044,0,0,1-1.112.057" transform="translate(-150.29)" fill="#1f4889"/>
        <path id="Trazado_131004" data-name="Trazado 131004" d="M177.684.059l.038,0c0-.017-.011-.036-.04-.057a.108.108,0,0,1,0,.059" transform="translate(-150.374)" fill="#1f4889"/>
        <path id="Trazado_131005" data-name="Trazado 131005" d="M177.639.373l-.038,0a.114.114,0,0,1-.017.041.065.065,0,0,0,.048-.027.031.031,0,0,0,.008-.016" transform="translate(-150.29 -0.316)" fill="#1f4889"/>
        <path id="Trazado_131006" data-name="Trazado 131006" d="M140.619,69.249a1.687,1.687,0,0,0,.671,1.521.839.839,0,0,1,.324.784q-.01,5.068,0,10.136c0,1.122.265,1.388,1.384,1.388h18.831c1.143,0,1.411-.271,1.411-1.433q0-5.068,0-10.136a.808.808,0,0,1,.309-.74,1.772,1.772,0,0,0,.669-1.465c0-.941.008-1.881,0-2.822a.961.961,0,0,0-1.057-1.08c-.806-.015-1.612,0-2.419,0H146.961c.138-.226.361-.244.546-.318q7.139-2.851,14.281-5.7c.881-.352,1.054-.772.7-1.663-.308-.784-.614-1.568-.933-2.346a1.952,1.952,0,0,0-2.711-1.165c-1,.387-1.99.792-2.984,1.188q-7.515,3-15.029,5.993a1.879,1.879,0,0,0-1.2,2.633,10.1,10.1,0,0,1,.989,5.226m17.532-12.485a4.477,4.477,0,0,1,1.488-.746.54.54,0,0,1,.156.228c.761,1.509.761,1.51-.781,2.128-.583.234-1.169.461-1.866.736.361-.849.679-1.6,1-2.347m2.436,10.707a5.365,5.365,0,0,1,1.576-.1,4.668,4.668,0,0,1-.009,1.938.993.993,0,0,1-.341.018H158.88l-.1-.124c.6-.579,1.2-1.161,1.8-1.736m-5.934.02a.406.406,0,0,1,.307-.126c.935,0,1.87,0,2.939,0-.675.675-1.266,1.26-1.85,1.853a.52.52,0,0,1-.427.111c-.88,0-1.76,0-2.821,0,.691-.687,1.273-1.262,1.852-1.84m6.1,3.792c.454,0,.523.136.52.545q-.027,4.347,0,8.694c0,.463-.084.609-.582.6-2.764-.028-5.527-.014-8.291-.014s-5.527-.008-8.291.009c-.4,0-.554-.049-.549-.514.026-2.936.021-5.873,0-8.809,0-.386.069-.514.489-.513q8.349.024,16.7,0m-11.913-3.866a.345.345,0,0,1,.218-.049c.931,0,1.862,0,2.793,0l.06.134c-.547.532-1.1,1.061-1.64,1.6a.709.709,0,0,1-.551.238c-.877-.013-1.754-.005-2.81-.005.707-.7,1.315-1.313,1.929-1.914m3.859-8.531a.409.409,0,0,1,.259-.211c.848-.342,1.7-.679,2.694-1.076-.379.884-.7,1.619-1.008,2.355a.475.475,0,0,1-.275.274l-2.7,1.066c.372-.872.7-1.639,1.026-2.409M147.21,61.09a.527.527,0,0,1,.35-.267l2.606-1.038-.985,2.317a.531.531,0,0,1-.3.318c-.864.335-1.724.678-2.687,1.058.367-.859.7-1.622,1.02-2.388m-2.966,8.126a4.194,4.194,0,0,1-1.562.091.272.272,0,0,1-.1-.183c-.008-.515,0-1.031-.005-1.546,0-.186.119-.213.265-.213h3.309c-.715.7-1.307,1.277-1.9,1.851m-2.459-6.1c.929-.346,1.845-.726,2.9-1.147a22.35,22.35,0,0,1-1.05,2.4c-.271.468-.924.473-1.406.682-.129.056-.148-.14-.188-.237-.16-.388-.3-.787-.478-1.164-.139-.289-.093-.419.22-.535" transform="translate(-118.003 -45.724)" fill="#1f4889"/>
        <path id="Trazado_131007" data-name="Trazado 131007" d="M161.053,294.332a4.116,4.116,0,0,0-.631-.026q-6.16,0-12.32,0-5.958,0-11.917,0a8.486,8.486,0,0,0-.977.025.96.96,0,0,0-.1,1.889,2.481,2.481,0,0,0,.569.053q12.435,0,24.87,0a2.622,2.622,0,0,0,.571-.048.923.923,0,0,0,.756-1,.9.9,0,0,0-.821-.889" transform="translate(-113.71 -249.072)" fill="#1f4889"/>
        <path id="Trazado_131008" data-name="Trazado 131008" d="M191.815,268.648q-5.753,0-11.506,0a1.366,1.366,0,0,0-.451.071.907.907,0,0,0-.655.967.891.891,0,0,0,.754.888,3.012,3.012,0,0,0,.629.04q2.7,0,5.408,0H189.5c.825,0,1.65.02,2.473-.014a.94.94,0,0,0,.932-1.218.991.991,0,0,0-1.092-.738" transform="translate(-151.659 -227.359)" fill="#1f4889"/>
        <path id="Trazado_131009" data-name="Trazado 131009" d="M54.131,57.034a2.948,2.948,0,0,0-.017-5.9,2.948,2.948,0,1,0,.017,5.9m-.062-3.925a.977.977,0,0,1,.993.973.942.942,0,0,1-.972.98.978.978,0,0,1-.979-.929,1.011,1.011,0,0,1,.958-1.023" transform="translate(-43.279 -43.278)" fill="#1f4889"/>
        <path id="Trazado_131010" data-name="Trazado 131010" d="M54.085,294.346a2.952,2.952,0,0,0-2.947,2.977,2.988,2.988,0,0,0,2.961,2.92,2.948,2.948,0,0,0-.014-5.9m-.012,3.926a1.01,1.01,0,0,1-.963-1.018.978.978,0,0,1,.973-.935.942.942,0,0,1,.978.973.98.98,0,0,1-.988.979" transform="translate(-43.278 -249.108)" fill="#1f4889"/>
        <path id="Trazado_131011" data-name="Trazado 131011" d="M54.128,172.715a2.953,2.953,0,1,0,2.908,2.959,2.975,2.975,0,0,0-2.908-2.959m-.03,3.925a.974.974,0,1,1,.021-1.946.973.973,0,0,1-.021,1.946" transform="translate(-43.28 -146.17)" fill="#1f4889"/>
      </g>
    </g>
  </g>
</svg>
