<svg xmlns="http://www.w3.org/2000/svg" xmlns:xlink="http://www.w3.org/1999/xlink" width="101" height="101" viewBox="0 0 101 101">
  <defs>
    <clipPath id="clip-path">
      <rect id="Rectángulo_41547" data-name="Rectángulo 41547" width="63.948" height="65" fill="#1f4889"/>
    </clipPath>
  </defs>
  <g id="Grupo_211386" data-name="Grupo 211386" transform="translate(-750 -9471.279)">
    <circle id="Elipse_1149" data-name="Elipse 1149" cx="50.5" cy="50.5" r="50.5" transform="translate(750 9471.279)" fill="#f7cb50"/>
    <g id="Grupo_98720" data-name="Grupo 98720" transform="translate(769 9489.279)">
      <g id="Grupo_98720-2" data-name="Grupo 98720" clip-path="url(#clip-path)">
        <path id="Trazado_131171" data-name="Trazado 131171" d="M37.322,209.36a8.126,8.126,0,0,0-1.463.006c-.618.08-.708-.169-.7-.725.027-3.174.015-6.348.012-9.522,0-.723-.3-1.139-.856-1.237-.746-.132-1.269.358-1.271,1.218-.006,3.218-.015,6.437.011,9.655,0,.5-.124.611-.616.61q-13.251-.025-26.5,0c-.5,0-.615-.113-.613-.612q.028-10.055,0-20.109c0-.492.107-.622.61-.616,2.685.029,5.371.009,8.057.017a1.108,1.108,0,0,0,1.205-.733c.261-.758-.276-1.4-1.184-1.4q-4.694-.01-9.389,0c-1.081,0-1.418.343-1.418,1.439q0,9.589,0,19.177c0,.8-.019,1.6.009,2.4.012.359-.105.453-.447.437-.554-.026-1.11-.023-1.664,0A1.049,1.049,0,0,0,.01,210.451c-.02.6-.005,1.2,0,1.8a5.335,5.335,0,0,0,5.636,5.628q6.759,0,13.517,0,6.858,0,13.717,0a5.292,5.292,0,0,0,5.427-4.581,14.491,14.491,0,0,0,.041-2.991.974.974,0,0,0-1.022-.944m-4.766,6.387h-.333c-.4,0-.879.133-1.177-.042-.344-.2-.087-.726-.141-1.105a1.066,1.066,0,0,0-2.126.02c-.044.366.178.881-.106,1.062s-.769.065-1.165.065c-5.768,0-11.536,0-17.3.013-.478,0-.706-.085-.613-.6a1.97,1.97,0,0,0,0-.531,1.063,1.063,0,0,0-2.12-.03c0,.022,0,.044,0,.066-.041.346.165.833-.087,1.005s-.72.08-1.092.077a8.119,8.119,0,0,1-1.525-.06c-1.711-.342-2.834-1.724-2.631-3.941.019-.2.09-.271.28-.26.155.009.311,0,.466,0H19.183c5.479,0,10.959.006,16.438-.011.468,0,.634.07.629.6-.022,2.426-1.253,3.676-3.695,3.676" transform="translate(0 -152.879)" fill="#1f4889"/>
        <path id="Trazado_131172" data-name="Trazado 131172" d="M74.123,143.193c-.973-1.688-1.937-3.381-2.921-5.062a1.084,1.084,0,0,0-1.815-.3,1.122,1.122,0,0,0-.012,1.412c1.446,2.488,2.869,4.989,4.327,7.471.229.389.181.509-.232.662-3.919,1.453-7.818,2.962-11.749,4.382a45.973,45.973,0,0,0-9.418,4.374,2.077,2.077,0,0,1-3.16-.836q-.978-1.659-1.929-3.335a2.124,2.124,0,0,1,.825-3.078c1.027-.61,2.081-1.178,3.1-1.8.389-.239.536-.124.731.225.734,1.314,1.494,2.613,2.253,3.913.415.712,1.02.935,1.59.609s.676-.946.255-1.682c-.758-1.326-1.511-2.656-2.3-3.963-.247-.41-.245-.626.158-.955q6.132-5.011,12.227-10.068c.64-.528.639-.529,1.089.142a1.067,1.067,0,1,0,1.846-1.062c-.269-.508-.569-1-.86-1.5-.572-.979-1.169-1.089-2.039-.372-2.38,1.961-4.749,3.934-7.138,5.883-3.892,3.175-7.564,6.652-12.15,8.879a1.427,1.427,0,0,0-.223.145,3.869,3.869,0,0,0-1.766,3.526c.088.94-.142,1.441-.98,1.735a.717.717,0,0,0-.168.107,3.19,3.19,0,0,0,.93,5.7,3.461,3.461,0,0,0,3.021-.617c.34-.229.586-.276.906.048a3.052,3.052,0,0,0,1.143.657,4.342,4.342,0,0,0,4.044-.583c.366-.236.53-.183.734.192.561,1.03,1.159,2.04,1.751,3.053a3.2,3.2,0,1,0,5.537-3.171c-.6-1.059-1.207-2.111-1.825-3.191.252-.106.472-.207.7-.291l14.721-5.514c1.377-.516,1.546-.976.825-2.23q-1.01-1.755-2.025-3.509M46.731,155.7a1.9,1.9,0,0,1-1.108.627c-.7-.021-1.026-.25-1.2-.681a.946.946,0,0,1,.279-1.137,8.781,8.781,0,0,1,.89-.561c.183-.12.276-.041.363.115.139.25.3.487.421.746.135.3.6.638.352.889M60.1,159.581a1.039,1.039,0,0,1-.7,1.119.929.929,0,0,1-1.177-.352c-.719-1.164-1.384-2.362-2.076-3.544-.1-.163-.115-.284.076-.376a1.057,1.057,0,0,0,.116-.065c1.445-.95,1.444-.95,2.3.528q.616,1.06,1.235,2.118a1.27,1.27,0,0,1,.228.573" transform="translate(-34.759 -108.475)" fill="#1f4889"/>
        <path id="Trazado_131173" data-name="Trazado 131173" d="M252.937,12.33a1.077,1.077,0,0,0,1.078-1.177c.012-.577,0-1.154,0-1.731,0-.991.367-1.35,1.373-1.35q6.092,0,12.184,0c1,0,1.359.365,1.359,1.365q0,6.092,0,12.184c0,1-.364,1.367-1.358,1.367q-6.092,0-12.184,0c-1.006,0-1.372-.36-1.374-1.35,0-1.953,0-3.906,0-5.859,0-.827-.413-1.321-1.077-1.313s-1.051.495-1.052,1.337q0,2.93,0,5.859a3.2,3.2,0,0,0,3.433,3.457q6.159,0,12.317,0a3.2,3.2,0,0,0,3.428-3.462q0-3.063,0-6.126c0-2.131.013-4.261,0-6.392a3.131,3.131,0,0,0-3.021-3.184q-6.558-.054-13.116,0a3.14,3.14,0,0,0-3.032,3.04c-.026.731-.018,1.465,0,2.2a1.068,1.068,0,0,0,1.046,1.141" transform="translate(-207.127 -4.875)" fill="#1f4889"/>
        <path id="Trazado_131174" data-name="Trazado 131174" d="M270.068,204.693a1.074,1.074,0,0,0-1.091,1.163c-.013.6,0,1.2,0,1.8-.008.911-.386,1.3-1.293,1.3q-6.159.005-12.318,0c-.916,0-1.3-.381-1.305-1.284q-.006-6.159,0-12.317c0-.947.377-1.313,1.342-1.314q6.125,0,12.251,0c.948,0,1.321.378,1.323,1.334,0,1.953,0,3.906,0,5.859,0,.835.4,1.326,1.062,1.328s1.066-.49,1.067-1.323c0-2,.007-3.995,0-5.992a3.186,3.186,0,0,0-3.352-3.336q-6.225-.008-12.451,0a3.19,3.19,0,0,0-3.375,3.38q-.006,6.192,0,12.384a3.2,3.2,0,0,0,3.409,3.414q3.1.006,6.192,0c2.131,0,4.261.015,6.392,0a3.178,3.178,0,0,0,3.184-3.169q.02-1.032,0-2.064a1.074,1.074,0,0,0-1.034-1.154" transform="translate(-207.165 -157.808)" fill="#1f4889"/>
        <path id="Trazado_131175" data-name="Trazado 131175" d="M1.347,79.143q6.122,0,12.245,0c.992,0,1.355-.367,1.355-1.369q0-8.219,0-16.437c0-1-.361-1.371-1.351-1.372q-6.089,0-12.178,0c-1.037,0-1.387.355-1.387,1.4q0,4.059,0,8.119,0,4.159,0,8.319c0,.961.37,1.339,1.317,1.339m.814-9.588c0-2.308.012-4.617-.01-6.925,0-.434.108-.547.544-.545q4.794.029,9.589,0c.434,0,.546.109.544.544q-.025,6.925,0,13.85c0,.433-.108.547-.543.545q-4.794-.029-9.589,0c-.434,0-.549-.109-.545-.544.023-2.308.011-4.617.011-6.925" transform="translate(-0.024 -49.31)" fill="#1f4889"/>
        <path id="Trazado_131176" data-name="Trazado 131176" d="M105.475,19.178A9.589,9.589,0,1,0,96,9.6a9.6,9.6,0,0,0,9.478,9.581m.138-17.047a7.457,7.457,0,1,1-7.484,7.548,7.47,7.47,0,0,1,7.484-7.548" transform="translate(-78.941 -0.001)" fill="#1f4889"/>
        <path id="Trazado_131177" data-name="Trazado 131177" d="M281.924,226.172A4.262,4.262,0,1,0,286.2,221.9a4.27,4.27,0,0,0-4.274,4.267m6.392-.073a2.131,2.131,0,1,1-2.164-2.063,2.141,2.141,0,0,1,2.164,2.063" transform="translate(-231.836 -182.48)" fill="#1f4889"/>
        <path id="Trazado_131178" data-name="Trazado 131178" d="M282.96,34.2a1.083,1.083,0,0,0-1.025,1.028,1.067,1.067,0,0,0,1.019,1.1,3.669,3.669,0,0,0,.664,0c.326-.031.484.05.453.425-.035.44-.008.886-.008,1.329,0,.465-.013.931,0,1.4a1.063,1.063,0,1,0,2.123-.019c.017-.62,0-1.241.005-1.861,0-.4-.117-.879.066-1.164s.7-.061,1.061-.1a1.08,1.08,0,0,0,1-1.054,1.063,1.063,0,0,0-1.046-1.071c-.243-.017-.487,0-.731-.006-.123,0-.261.046-.345-.112a1.436,1.436,0,0,1,1.165-2.014c.642-.015,1.285.008,1.928-.006a1.066,1.066,0,1,0,.011-2.125c-.709-.014-1.419-.018-2.127,0a3.193,3.193,0,0,0-3.11,3.1c-.012.354.121.8-.048,1.038-.211.3-.7.08-1.058.12" transform="translate(-231.844 -24.613)" fill="#1f4889"/>
        <path id="Trazado_131179" data-name="Trazado 131179" d="M246.856,162.758c-.118-.659-.691-.982-1.487-.824q-2.569.512-5.134,1.036a1.087,1.087,0,0,0-.943,1.168,1.125,1.125,0,0,0,1.233.96,2.262,2.262,0,0,0,.323-.028c1.668-.337,3.337-.671,5-1.02.769-.161,1.124-.636,1.006-1.292" transform="translate(-196.772 -133.131)" fill="#1f4889"/>
        <path id="Trazado_131180" data-name="Trazado 131180" d="M204.4,102.118c.523.388,1.116.259,1.6-.375.99-1.3,1.969-2.617,2.952-3.927a1.336,1.336,0,0,0,.332-.966,1.014,1.014,0,0,0-.754-.86,1.042,1.042,0,0,0-1.214.456q-1.517,2.015-3.024,4.037a1.069,1.069,0,0,0,.112,1.635" transform="translate(-167.732 -78.891)" fill="#1f4889"/>
        <path id="Trazado_131181" data-name="Trazado 131181" d="M221.976,130.462a1.044,1.044,0,0,0,.907.66,1.4,1.4,0,0,0,.914-.366q1.328-1,2.656-1.991c.478-.359.97-.7,1.424-1.087a1,1,0,0,0,.2-1.422.93.93,0,0,0-1.34-.318c-1.531,1.091-3.032,2.224-4.519,3.373a.912.912,0,0,0-.239,1.15" transform="translate(-182.453 -103.421)" fill="#1f4889"/>
        <path id="Trazado_131182" data-name="Trazado 131182" d="M25.188,110.058c1.35.014,2.7.012,4.049,0a1.069,1.069,0,1,0,0-2.126c-.664-.011-1.328,0-1.991,0-.686,0-1.372-.011-2.058,0a1.065,1.065,0,1,0,0,2.124" transform="translate(-19.766 -88.752)" fill="#1f4889"/>
        <path id="Trazado_131183" data-name="Trazado 131183" d="M25.22,134.043c.664.012,1.328,0,1.991,0,.686,0,1.372.011,2.058,0a1.066,1.066,0,1,0,.01-2.124c-1.35-.013-2.7-.011-4.049,0a1.069,1.069,0,1,0-.01,2.126" transform="translate(-19.769 -108.474)" fill="#1f4889"/>
        <path id="Trazado_131184" data-name="Trazado 131184" d="M37.1,86.025c.352.02.707,0,1.06,0s.708.016,1.061,0a1.065,1.065,0,0,0,1.07-1.044,1.045,1.045,0,0,0-1.033-1.075c-.728-.028-1.459-.028-2.187,0a1.045,1.045,0,0,0-1.036,1.071A1.064,1.064,0,0,0,37.1,86.025" transform="translate(-29.632 -68.982)" fill="#1f4889"/>
        <path id="Trazado_131185" data-name="Trazado 131185" d="M131.969,37.3c.01,1.075.73,1.549,1.678,1.083,2.042-1,4.072-2.03,6.109-3.045a1.091,1.091,0,0,0,.009-2.051c-2.036-1.015-4.067-2.042-6.109-3.046-.949-.467-1.676.006-1.687,1.075-.01.975,0,1.95,0,2.925,0,1.019-.007,2.039,0,3.058m2.181-4.438,2.877,1.444-2.877,1.458Z" transform="translate(-108.518 -24.719)" fill="#1f4889"/>
      </g>
    </g>
  </g>
</svg>
