<svg xmlns="http://www.w3.org/2000/svg" xmlns:xlink="http://www.w3.org/1999/xlink" width="101" height="101" viewBox="0 0 101 101">
  <defs>
    <clipPath id="clip-path">
      <rect id="Rectángulo_41542" data-name="Rectángulo 41542" width="59.984" height="49.802" fill="#1f4889"/>
    </clipPath>
  </defs>
  <g id="Grupo_211388" data-name="Grupo 211388" transform="translate(-750 -9793.279)">
    <circle id="Elipse_4818" data-name="Elipse 4818" cx="50.5" cy="50.5" r="50.5" transform="translate(750 9793.279)" fill="#f7cb50"/>
    <g id="Grupo_98713" data-name="Grupo 98713" transform="translate(770.503 9819.379)">
      <g id="Grupo_98713-2" data-name="Grupo 98713" clip-path="url(#clip-path)">
        <path id="Trazado_130956" data-name="Trazado 130956" d="M52.941,0H7.043A7.05,7.05,0,0,0,0,7.043V42.759A7.05,7.05,0,0,0,7.043,49.8h45.9a7.05,7.05,0,0,0,7.043-7.043V7.043A7.05,7.05,0,0,0,52.941,0M58.3,42.759a5.365,5.365,0,0,1-5.359,5.359H7.043a5.365,5.365,0,0,1-5.359-5.359V7.043A5.365,5.365,0,0,1,7.043,1.684h45.9A5.365,5.365,0,0,1,58.3,7.043Z" transform="translate(0)" fill="#1f4889"/>
        <path id="Trazado_130957" data-name="Trazado 130957" d="M280.58,299.132H268.834a2.461,2.461,0,0,1,0,1.684H280.58a.842.842,0,1,0,0-1.684" transform="translate(-229.2 -255.031)" fill="#1f4889"/>
        <path id="Trazado_130958" data-name="Trazado 130958" d="M280.58,299.132H268.834a2.461,2.461,0,0,1,0,1.684H280.58a.842.842,0,1,0,0-1.684" transform="translate(-229.2 -255.031)" fill="#1f4889"/>
        <path id="Trazado_130959" data-name="Trazado 130959" d="M280.58,299.132H268.834a2.461,2.461,0,0,1,0,1.684H280.58a.842.842,0,1,0,0-1.684" transform="translate(-229.2 -255.031)" fill="#1f4889"/>
        <path id="Trazado_130960" data-name="Trazado 130960" d="M75.372,299.132H48.642a.842.842,0,1,0,0,1.684h26.73a2.461,2.461,0,0,1,0-1.684" transform="translate(-40.753 -255.031)" fill="#1f4889"/>
        <path id="Trazado_130961" data-name="Trazado 130961" d="M75.372,299.132H48.642a.842.842,0,1,0,0,1.684h26.73a2.461,2.461,0,0,1,0-1.684" transform="translate(-40.753 -255.031)" fill="#1f4889"/>
        <path id="Trazado_130962" data-name="Trazado 130962" d="M75.372,299.132H48.642a.842.842,0,1,0,0,1.684h26.73a2.461,2.461,0,0,1,0-1.684" transform="translate(-40.753 -255.031)" fill="#1f4889"/>
        <path id="Trazado_130963" data-name="Trazado 130963" d="M238.975,288.578a2.461,2.461,0,1,0,.148.842,2.652,2.652,0,0,0-.148-.842m-2.507,1.826a.984.984,0,1,1,.972-.984.979.979,0,0,1-.972.984" transform="translate(-199.341 -244.477)" fill="#1f4889"/>
        <path id="Trazado_130964" data-name="Trazado 130964" d="M238.975,288.578a2.461,2.461,0,1,0,.148.842,2.652,2.652,0,0,0-.148-.842m-2.507,1.826a.984.984,0,1,1,.972-.984.979.979,0,0,1-.972.984" transform="translate(-199.341 -244.477)" fill="#1f4889"/>
        <path id="Trazado_130965" data-name="Trazado 130965" d="M238.975,288.578a2.461,2.461,0,1,0,.148.842,2.652,2.652,0,0,0-.148-.842m-2.507,1.826a.984.984,0,1,1,.972-.984.979.979,0,0,1-.972.984" transform="translate(-199.341 -244.477)" fill="#1f4889"/>
        <path id="Trazado_130966" data-name="Trazado 130966" d="M74.573,27.861H32.613a4.949,4.949,0,0,0-4.931,4.956V64.491a.842.842,0,0,0,.842.842H78.662a.842.842,0,0,0,.842-.842V32.817a4.949,4.949,0,0,0-4.93-4.956M77.82,63.65H29.366V32.817a3.264,3.264,0,0,1,3.247-3.273H74.573a3.263,3.263,0,0,1,3.247,3.273Z" transform="translate(-23.601 -23.753)" fill="#1f4889"/>
        <path id="Trazado_130967" data-name="Trazado 130967" d="M74.573,27.861H32.613a4.949,4.949,0,0,0-4.931,4.956V64.491a.842.842,0,0,0,.842.842H78.662a.842.842,0,0,0,.842-.842V32.817a4.949,4.949,0,0,0-4.93-4.956M77.82,63.65H29.366V32.817a3.264,3.264,0,0,1,3.247-3.273H74.573a3.263,3.263,0,0,1,3.247,3.273Z" transform="translate(-23.601 -23.753)" fill="#1f4889"/>
        <path id="Trazado_130968" data-name="Trazado 130968" d="M74.573,27.861H32.613a4.949,4.949,0,0,0-4.931,4.956V64.491a.842.842,0,0,0,.842.842H78.662a.842.842,0,0,0,.842-.842V32.817a4.949,4.949,0,0,0-4.93-4.956M77.82,63.65H29.366V32.817a3.264,3.264,0,0,1,3.247-3.273H74.573a3.263,3.263,0,0,1,3.247,3.273Z" transform="translate(-23.601 -23.753)" fill="#1f4889"/>
        <path id="Trazado_130969" data-name="Trazado 130969" d="M181.28,119.392a1.3,1.3,0,0,0-2.084,1.04v8.815a1.3,1.3,0,0,0,2.059,1.058h0l6-4.3a1.3,1.3,0,0,0,.025-2.1Zm-.4,9.109v-7.3l4.969,3.742Z" transform="translate(-152.777 -101.566)" fill="#1f4889"/>
        <path id="Trazado_130970" data-name="Trazado 130970" d="M181.28,119.392a1.3,1.3,0,0,0-2.084,1.04v8.815a1.3,1.3,0,0,0,2.059,1.058h0l6-4.3a1.3,1.3,0,0,0,.025-2.1Zm-.4,9.109v-7.3l4.969,3.742Z" transform="translate(-152.777 -101.566)" fill="#1f4889"/>
        <path id="Trazado_130971" data-name="Trazado 130971" d="M181.28,119.392a1.3,1.3,0,0,0-2.084,1.04v8.815a1.3,1.3,0,0,0,2.059,1.058h0l6-4.3a1.3,1.3,0,0,0,.025-2.1Zm-.4,9.109v-7.3l4.969,3.742Z" transform="translate(-152.777 -101.566)" fill="#1f4889"/>
        <path id="Trazado_130972" data-name="Trazado 130972" d="M181.28,119.392a1.3,1.3,0,0,0-2.084,1.04v8.815a1.3,1.3,0,0,0,2.059,1.058h0l6-4.3a1.3,1.3,0,0,0,.025-2.1Zm-.4,9.109v-7.3l4.969,3.742Z" transform="translate(-152.777 -101.566)" fill="#1f4889"/>
        <path id="Trazado_130973" data-name="Trazado 130973" d="M181.28,119.392a1.3,1.3,0,0,0-2.084,1.04v8.815a1.3,1.3,0,0,0,2.059,1.058h0l6-4.3a1.3,1.3,0,0,0,.025-2.1Zm-.4,9.109v-7.3l4.969,3.742Z" transform="translate(-152.777 -101.566)" fill="#1f4889"/>
        <path id="Trazado_130974" data-name="Trazado 130974" d="M205.293,57.959a.836.836,0,0,1-.886.8,12.655,12.655,0,0,1,1.657.2,12.9,12.9,0,0,1,8.162,5.275c.021.031.04.063.062.094l1.137.2.214-1.211A14.567,14.567,0,0,0,204.5,57.073a.842.842,0,0,1,.8.886" transform="translate(-174.271 -48.659)" fill="#1f4889"/>
        <path id="Trazado_130975" data-name="Trazado 130975" d="M205.293,57.959a.836.836,0,0,1-.886.8,12.655,12.655,0,0,1,1.657.2,12.9,12.9,0,0,1,8.162,5.275c.021.031.04.063.062.094l1.137.2.214-1.211A14.567,14.567,0,0,0,204.5,57.073a.842.842,0,0,1,.8.886" transform="translate(-174.271 -48.659)" fill="#1f4889"/>
        <path id="Trazado_130976" data-name="Trazado 130976" d="M205.293,57.959a.836.836,0,0,1-.886.8,12.655,12.655,0,0,1,1.657.2,12.9,12.9,0,0,1,8.162,5.275c.021.031.04.063.062.094l1.137.2.214-1.211A14.567,14.567,0,0,0,204.5,57.073a.842.842,0,0,1,.8.886" transform="translate(-174.271 -48.659)" fill="#1f4889"/>
        <path id="Trazado_130977" data-name="Trazado 130977" d="M205.293,57.959a.836.836,0,0,1-.886.8,12.655,12.655,0,0,1,1.657.2,12.9,12.9,0,0,1,8.162,5.275c.021.031.04.063.062.094l1.137.2.214-1.211A14.567,14.567,0,0,0,204.5,57.073a.842.842,0,0,1,.8.886" transform="translate(-174.271 -48.659)" fill="#1f4889"/>
        <path id="Trazado_130978" data-name="Trazado 130978" d="M205.293,57.959a.836.836,0,0,1-.886.8,12.655,12.655,0,0,1,1.657.2,12.9,12.9,0,0,1,8.162,5.275c.021.031.04.063.062.094l1.137.2.214-1.211A14.567,14.567,0,0,0,204.5,57.073a.842.842,0,0,1,.8.886" transform="translate(-174.271 -48.659)" fill="#1f4889"/>
        <path id="Trazado_130979" data-name="Trazado 130979" d="M102.369,71.52a.842.842,0,0,0,.84-.8c.016-.293.045-.583.08-.872a12.8,12.8,0,0,1,12.529-11.237c.291,0,.583,0,.875.015a.842.842,0,1,0,.091-1.682,14.493,14.493,0,0,0-15.258,13.685.842.842,0,0,0,.8.886h.046" transform="translate(-86.559 -48.533)" fill="#1f4889"/>
        <path id="Trazado_130980" data-name="Trazado 130980" d="M102.369,71.52a.842.842,0,0,0,.84-.8c.016-.293.045-.583.08-.872a12.8,12.8,0,0,1,12.529-11.237c.291,0,.583,0,.875.015a.842.842,0,1,0,.091-1.682,14.493,14.493,0,0,0-15.258,13.685.842.842,0,0,0,.8.886h.046" transform="translate(-86.559 -48.533)" fill="#1f4889"/>
        <path id="Trazado_130981" data-name="Trazado 130981" d="M102.369,71.52a.842.842,0,0,0,.84-.8c.016-.293.045-.583.08-.872a12.8,12.8,0,0,1,12.529-11.237c.291,0,.583,0,.875.015a.842.842,0,1,0,.091-1.682,14.493,14.493,0,0,0-15.258,13.685.842.842,0,0,0,.8.886h.046" transform="translate(-86.559 -48.533)" fill="#1f4889"/>
        <path id="Trazado_130982" data-name="Trazado 130982" d="M102.369,71.52a.842.842,0,0,0,.84-.8c.016-.293.045-.583.08-.872a12.8,12.8,0,0,1,12.529-11.237c.291,0,.583,0,.875.015a.842.842,0,1,0,.091-1.682,14.493,14.493,0,0,0-15.258,13.685.842.842,0,0,0,.8.886h.046" transform="translate(-86.559 -48.533)" fill="#1f4889"/>
        <path id="Trazado_130983" data-name="Trazado 130983" d="M102.369,71.52a.842.842,0,0,0,.84-.8c.016-.293.045-.583.08-.872a12.8,12.8,0,0,1,12.529-11.237c.291,0,.583,0,.875.015a.842.842,0,1,0,.091-1.682,14.493,14.493,0,0,0-15.258,13.685.842.842,0,0,0,.8.886h.046" transform="translate(-86.559 -48.533)" fill="#1f4889"/>
        <path id="Trazado_130984" data-name="Trazado 130984" d="M248.331,79.442l-3.005-.53a.842.842,0,1,0-.292,1.658l4.971.877a.838.838,0,0,0,.975-.683l.877-4.971A.842.842,0,0,0,250.2,75.5l-.517,2.932-.213,1.211Z" transform="translate(-208.315 -63.776)" fill="#1f4889"/>
        <path id="Trazado_130985" data-name="Trazado 130985" d="M248.331,79.442l-3.005-.53a.842.842,0,1,0-.292,1.658l4.971.877a.838.838,0,0,0,.975-.683l.877-4.971A.842.842,0,0,0,250.2,75.5l-.517,2.932-.213,1.211Z" transform="translate(-208.315 -63.776)" fill="#1f4889"/>
        <path id="Trazado_130986" data-name="Trazado 130986" d="M248.331,79.442l-3.005-.53a.842.842,0,1,0-.292,1.658l4.971.877a.838.838,0,0,0,.975-.683l.877-4.971A.842.842,0,0,0,250.2,75.5l-.517,2.932-.213,1.211Z" transform="translate(-208.315 -63.776)" fill="#1f4889"/>
        <path id="Trazado_130987" data-name="Trazado 130987" d="M248.331,79.442l-3.005-.53a.842.842,0,1,0-.292,1.658l4.971.877a.838.838,0,0,0,.975-.683l.877-4.971A.842.842,0,0,0,250.2,75.5l-.517,2.932-.213,1.211Z" transform="translate(-208.315 -63.776)" fill="#1f4889"/>
        <path id="Trazado_130988" data-name="Trazado 130988" d="M248.331,79.442l-3.005-.53a.842.842,0,1,0-.292,1.658l4.971.877a.838.838,0,0,0,.975-.683l.877-4.971A.842.842,0,0,0,250.2,75.5l-.517,2.932-.213,1.211Z" transform="translate(-208.315 -63.776)" fill="#1f4889"/>
        <path id="Trazado_130989" data-name="Trazado 130989" d="M144.85,154.5a.841.841,0,0,0-.907.772,12.808,12.808,0,0,1-13.795,11.74,12.874,12.874,0,0,1-9.728-5.818l-1.136-.231-.244,1.2a14.567,14.567,0,0,0,10.972,6.528q.6.048,1.187.048a14.493,14.493,0,0,0,14.421-13.331.842.842,0,0,0-.772-.907" transform="translate(-101.491 -131.719)" fill="#1f4889"/>
        <path id="Trazado_130990" data-name="Trazado 130990" d="M144.85,154.5a.841.841,0,0,0-.907.772,12.808,12.808,0,0,1-13.795,11.74,12.874,12.874,0,0,1-9.728-5.818l-1.136-.231-.244,1.2a14.567,14.567,0,0,0,10.972,6.528q.6.048,1.187.048a14.493,14.493,0,0,0,14.421-13.331.842.842,0,0,0-.772-.907" transform="translate(-101.491 -131.719)" fill="#1f4889"/>
        <path id="Trazado_130991" data-name="Trazado 130991" d="M144.85,154.5a.841.841,0,0,0-.907.772,12.808,12.808,0,0,1-13.795,11.74,12.874,12.874,0,0,1-9.728-5.818l-1.136-.231-.244,1.2a14.567,14.567,0,0,0,10.972,6.528q.6.048,1.187.048a14.493,14.493,0,0,0,14.421-13.331.842.842,0,0,0-.772-.907" transform="translate(-101.491 -131.719)" fill="#1f4889"/>
        <path id="Trazado_130992" data-name="Trazado 130992" d="M144.85,154.5a.841.841,0,0,0-.907.772,12.808,12.808,0,0,1-13.795,11.74,12.874,12.874,0,0,1-9.728-5.818l-1.136-.231-.244,1.2a14.567,14.567,0,0,0,10.972,6.528q.6.048,1.187.048a14.493,14.493,0,0,0,14.421-13.331.842.842,0,0,0-.772-.907" transform="translate(-101.491 -131.719)" fill="#1f4889"/>
        <path id="Trazado_130993" data-name="Trazado 130993" d="M144.85,154.5a.841.841,0,0,0-.907.772,12.808,12.808,0,0,1-13.795,11.74,12.874,12.874,0,0,1-9.728-5.818l-1.136-.231-.244,1.2a14.567,14.567,0,0,0,10.972,6.528q.6.048,1.187.048a14.493,14.493,0,0,0,14.421-13.331.842.842,0,0,0-.772-.907" transform="translate(-101.491 -131.719)" fill="#1f4889"/>
        <path id="Trazado_130994" data-name="Trazado 130994" d="M107.344,187.965l2.986.607a.842.842,0,1,0,.335-1.65l-4.947-1.006a.839.839,0,0,0-.993.657l-1.006,4.947a.842.842,0,1,0,1.65.336l.594-2.922.244-1.2Z" transform="translate(-88.414 -158.491)" fill="#1f4889"/>
        <path id="Trazado_130995" data-name="Trazado 130995" d="M107.344,187.965l2.986.607a.842.842,0,1,0,.335-1.65l-4.947-1.006a.839.839,0,0,0-.993.657l-1.006,4.947a.842.842,0,1,0,1.65.336l.594-2.922.244-1.2Z" transform="translate(-88.414 -158.491)" fill="#1f4889"/>
        <path id="Trazado_130996" data-name="Trazado 130996" d="M107.344,187.965l2.986.607a.842.842,0,1,0,.335-1.65l-4.947-1.006a.839.839,0,0,0-.993.657l-1.006,4.947a.842.842,0,1,0,1.65.336l.594-2.922.244-1.2Z" transform="translate(-88.414 -158.491)" fill="#1f4889"/>
        <path id="Trazado_130997" data-name="Trazado 130997" d="M107.344,187.965l2.986.607a.842.842,0,1,0,.335-1.65l-4.947-1.006a.839.839,0,0,0-.993.657l-1.006,4.947a.842.842,0,1,0,1.65.336l.594-2.922.244-1.2Z" transform="translate(-88.414 -158.491)" fill="#1f4889"/>
        <path id="Trazado_130998" data-name="Trazado 130998" d="M107.344,187.965l2.986.607a.842.842,0,1,0,.335-1.65l-4.947-1.006a.839.839,0,0,0-.993.657l-1.006,4.947a.842.842,0,1,0,1.65.336l.594-2.922.244-1.2Z" transform="translate(-88.414 -158.491)" fill="#1f4889"/>
      </g>
    </g>
  </g>
</svg>
