<svg xmlns="http://www.w3.org/2000/svg" xmlns:xlink="http://www.w3.org/1999/xlink" width="295" height="340.428" viewBox="0 0 295 340.428">
  <defs>
    <linearGradient id="linear-gradient" x1="0.5" x2="0.5" y2="1" gradientUnits="objectBoundingBox">
      <stop offset="0" stop-color="#fcdb12"/>
      <stop offset="1" stop-color="#f9aa19"/>
    </linearGradient>
    <clipPath id="clip-path">
      <rect id="Rectángulo_39934" data-name="Rectángulo 39934" width="52.545" height="64.303" fill="none"/>
    </clipPath>
  </defs>
  <g id="Grupo_211381" data-name="Grupo 211381" transform="translate(-495 -10349.033)">
    <rect id="Rectángulo_35962" data-name="Rectángulo 35962" width="295" height="340.427" rx="21" transform="translate(495 10349.033)" fill="#f6f6f6"/>
    <path id="Trazado_141246" data-name="Trazado 141246" d="M76.956,4.781h2.93v9.844a4.707,4.707,0,0,1-.6,2.4,4.076,4.076,0,0,1-1.694,1.606,5.293,5.293,0,0,1-2.471.566A5.031,5.031,0,0,1,71.6,18.048a4.169,4.169,0,0,1-1.26-3.247h2.949a2.286,2.286,0,0,0,.439,1.543,1.758,1.758,0,0,0,1.387.5,1.679,1.679,0,0,0,1.338-.576,2.434,2.434,0,0,0,.5-1.641ZM85.188,19H82.356V8.434h2.832Zm-3-13.3a1.39,1.39,0,0,1,.425-1.045,1.831,1.831,0,0,1,2.31,0,1.382,1.382,0,0,1,.43,1.045,1.386,1.386,0,0,1-.435,1.055,1.81,1.81,0,0,1-2.295,0A1.386,1.386,0,0,1,82.19,5.7Zm7.92,2.734L90.2,9.654a3.689,3.689,0,0,1,3.037-1.416,3.066,3.066,0,0,1,2.5.986,4.6,4.6,0,0,1,.84,2.949V19H93.753V12.227a1.838,1.838,0,0,0-.391-1.307,1.746,1.746,0,0,0-1.3-.406,1.941,1.941,0,0,0-1.787,1.018V19H87.454V8.434ZM98.3,13.639a6.193,6.193,0,0,1,1.157-3.916,3.75,3.75,0,0,1,3.12-1.484,3.289,3.289,0,0,1,2.705,1.191l.117-1h2.559V18.648a4.516,4.516,0,0,1-.63,2.412,4.045,4.045,0,0,1-1.772,1.563,6.231,6.231,0,0,1-2.676.537,5.794,5.794,0,0,1-2.266-.464,4.021,4.021,0,0,1-1.67-1.2l1.25-1.719a3.306,3.306,0,0,0,2.559,1.182,2.42,2.42,0,0,0,1.748-.6,2.253,2.253,0,0,0,.625-1.7v-.566a3.264,3.264,0,0,1-2.568,1.1,3.74,3.74,0,0,1-3.081-1.489,6.191,6.191,0,0,1-1.177-3.95Zm2.822.2A3.877,3.877,0,0,0,101.7,16.1a1.831,1.831,0,0,0,1.582.819,1.958,1.958,0,0,0,1.846-.971V11.485a1.954,1.954,0,0,0-1.826-.971,1.843,1.843,0,0,0-1.6.834A4.37,4.37,0,0,0,101.126,13.839Z" transform="translate(553 10589.947)" fill="#12263f"/>
    <g id="Elipse_4914" data-name="Elipse 4914" transform="translate(563 10389.553)" fill="#fff" stroke="#f0cc66" stroke-width="1">
      <circle cx="79.5" cy="79.5" r="79.5" stroke="none"/>
      <circle cx="79.5" cy="79.5" r="79" fill="none"/>
    </g>
    <g id="Grupo_95781" data-name="Grupo 95781" transform="translate(-210 4037.553)">
      <rect id="Rectángulo_39933" data-name="Rectángulo 39933" width="85" height="85" rx="9" transform="translate(810 6389)" fill="url(#linear-gradient)"/>
      <g id="Grupo_95780" data-name="Grupo 95780" transform="translate(826.21 6399.315)">
        <g id="Grupo_95779" data-name="Grupo 95779" clip-path="url(#clip-path)">
          <path id="Trazado_127751" data-name="Trazado 127751" d="M8.148,10.209c-1.4-1.513-2.931-2.9-4.332-4.415C2.79,4.685,1.714,3.627.68,2.526c-.9-.96-.916-1.514.013-2.443A4.588,4.588,0,0,1,1.839.009Q21.4.008,40.969,0a1.727,1.727,0,0,1,1.337.6c1.6,1.66,3.216,3.3,4.827,4.947s3.194,3.324,4.848,4.927a1.426,1.426,0,0,1-.17,2.387l-.494.083a1.323,1.323,0,0,1-.492.031c-3.479,0-6.964-.133-10.434.037-4,.2-8,.194-11.984.075-5.6-.167-11.193-.026-16.788-.111a.457.457,0,0,1-.242-.036,1.49,1.49,0,0,1-1.087-.584c-.709-.72-1.38-1.479-2.143-2.145" transform="translate(0 0)" fill="#fefefe"/>
          <path id="Trazado_127752" data-name="Trazado 127752" d="M137.309,155.913c.138-.007.275-.019.413-.019q7.513,0,15.026,0c4.249,0,8.5.019,12.748.02,3.739,0,7.478-.014,11.217-.02.179,0,.358.014.536.022a1.241,1.241,0,0,1-.531.045q-5.05,0-10.1,0c-.54,0-.541,0-.541.547q0,18.689-.008,37.377c0,.182.081.388-.088.547a3.057,3.057,0,0,1-.816.108c-3.753,0-7.506,0-11.259-.008-.271,0-.592.105-.789-.209.006-.138.017-.275.017-.413q0-11.9,0-23.8c0-.124-.009-.248-.013-.372q.006-3.706.013-7.412,0-2.878,0-5.756c0-.611,0-.611-.594-.611q-7.351,0-14.7,0a1.128,1.128,0,0,1-.53-.049" transform="translate(-125.932 -142.976)" fill="#fddba2"/>
          <path id="Trazado_127753" data-name="Trazado 127753" d="M27.361,619.734c1.295.005,2.589.014,3.884.016q4.235,0,8.471,0c.172,0,.362-.059.51.09q-2.125,2.177-4.251,4.354-3.912,3.992-7.826,7.982a1.577,1.577,0,0,1-1.21.507q-7.6-.016-15.2,0a1.539,1.539,0,0,1-1.171-.5q-4.574-4.677-9.157-9.344c-.27-.276-.538-.555-.808-.831A1.286,1.286,0,0,1,.31,620.52a1.216,1.216,0,0,1,1.208-.778H26.781c.193,0,.386,0,.58-.006" transform="translate(-0.175 -568.384)" fill="#fefefe"/>
        </g>
      </g>
    </g>
  </g>
</svg>
