<svg id="Grupo_97714" data-name="Grupo 97714" xmlns="http://www.w3.org/2000/svg" xmlns:xlink="http://www.w3.org/1999/xlink" width="308.986" height="190.417" viewBox="0 0 308.986 190.417">
  <defs>
    <clipPath id="clip-path">
      <rect id="Rectángulo_41047" data-name="Rectángulo 41047" width="308.986" height="190.417" fill="none"/>
    </clipPath>
    <clipPath id="clip-path-3">
      <rect id="Rectángulo_41033" data-name="Rectángulo 41033" width="131.293" height="109.392" fill="none"/>
    </clipPath>
    <clipPath id="clip-path-4">
      <rect id="Rectángulo_41035" data-name="Rectángulo 41035" width="37.217" height="36.376" fill="none"/>
    </clipPath>
    <clipPath id="clip-path-5">
      <rect id="Rectángulo_41036" data-name="Rectángulo 41036" width="32.416" height="2.75" fill="none"/>
    </clipPath>
    <clipPath id="clip-path-7">
      <rect id="Rectángulo_41038" data-name="Rectángulo 41038" width="55.387" height="12.087" fill="none"/>
    </clipPath>
    <clipPath id="clip-path-8">
      <rect id="Rectángulo_41039" data-name="Rectángulo 41039" width="51.45" height="7.308" fill="none"/>
    </clipPath>
  </defs>
  <g id="Grupo_97735" data-name="Grupo 97735" clip-path="url(#clip-path)">
    <g id="Grupo_97734" data-name="Grupo 97734" transform="translate(0 0)">
      <g id="Grupo_97733" data-name="Grupo 97733" clip-path="url(#clip-path)">
        <path id="Trazado_129946" data-name="Trazado 129946" d="M61.434,190.414l101.324-.514,27.009-.008,8.948,0,27.06-.008,123.627-.033s28.277-35.441-1.928-69.1c-31.317-34.9-46.545-6.477-56.171-55.6C267.072-58.515,27.5,13.457,90.341,118.684c22.625,37.889-44.536,17.751-28.907,71.73" transform="translate(-52.43 0.004)" fill="#ebf3fa"/>
        <path id="Trazado_129947" data-name="Trazado 129947" d="M902.565,1445.466l-.548-.293a1.17,1.17,0,0,1-.48-1.6l2.517-4.493a1.225,1.225,0,0,1,1.642-.469l.785.42a.229.229,0,0,1,.094.314.24.24,0,0,1-.321.092l-.785-.42a.746.746,0,0,0-1,.285l-2.517,4.493a.712.712,0,0,0,.292.976l.548.293a.746.746,0,0,0,1-.286l1.671-2.983a.239.239,0,0,1,.321-.092.228.228,0,0,1,.094.314L904.206,1445a1.225,1.225,0,0,1-1.641.469" transform="translate(-800.345 -1280.856)" fill="#afcdfb"/>
        <path id="Trazado_129948" data-name="Trazado 129948" d="M875.769,1454.545l-.982-.526a1.891,1.891,0,0,1-.683-2.617l3.784-6.755a.24.24,0,0,1,.321-.092.229.229,0,0,1,.094.314l-3.784,6.755a1.434,1.434,0,0,0,.5,1.989l.982.526a1.5,1.5,0,0,0,1.982-.663l4.311-7.695a1.434,1.434,0,0,0-.5-1.989.229.229,0,0,1-.094-.314.24.24,0,0,1,.321-.092A1.891,1.891,0,0,1,882.7,1446l-4.311,7.694a1.98,1.98,0,0,1-2.624.847" transform="translate(-775.885 -1285.217)" fill="#afcdfb"/>
        <g id="Grupo_97717" data-name="Grupo 97717" transform="translate(68.573 30.228)" opacity="0.6">
          <g id="Grupo_97716" data-name="Grupo 97716">
            <g id="Grupo_97715" data-name="Grupo 97715" clip-path="url(#clip-path-3)">
              <path id="Trazado_129949" data-name="Trazado 129949" d="M737.657,385.284H617.1a5.307,5.307,0,0,1-5.367-5.245v-98.9a5.307,5.307,0,0,1,5.367-5.245h120.56a5.307,5.307,0,0,1,5.367,5.245v98.9a5.307,5.307,0,0,1-5.367,5.245" transform="translate(-611.731 -275.892)" fill="#fff"/>
            </g>
          </g>
        </g>
        <path id="Trazado_129950" data-name="Trazado 129950" d="M743.024,288.031H611.731v-8.223a3.962,3.962,0,0,1,4.006-3.916h123.28a3.962,3.962,0,0,1,4.006,3.916Z" transform="translate(-543.158 -245.664)" fill="#1a0f91"/>
        <path id="Trazado_129951" data-name="Trazado 129951" d="M659.095,318.825a1.485,1.485,0,1,1,1.485,1.451,1.468,1.468,0,0,1-1.485-1.451" transform="translate(-585.212 -282.601)" fill="#dde7fe"/>
        <path id="Trazado_129952" data-name="Trazado 129952" d="M714.689,318.825a1.485,1.485,0,1,1,1.485,1.451,1.468,1.468,0,0,1-1.485-1.451" transform="translate(-634.574 -282.601)" fill="#dde7fe"/>
        <path id="Trazado_129953" data-name="Trazado 129953" d="M770.283,318.825a1.485,1.485,0,1,1,1.485,1.451,1.468,1.468,0,0,1-1.485-1.451" transform="translate(-683.936 -282.601)" fill="#dde7fe"/>
        <g id="Grupo_97720" data-name="Grupo 97720" transform="translate(78.978 51.999)" opacity="0.5">
          <g id="Grupo_97719" data-name="Grupo 97719">
            <g id="Grupo_97718" data-name="Grupo 97718" clip-path="url(#clip-path-4)">
              <rect id="Rectángulo_41034" data-name="Rectángulo 41034" width="37.217" height="36.376" transform="translate(0)" fill="#cde0fb"/>
            </g>
          </g>
        </g>
        <g id="Grupo_97723" data-name="Grupo 97723" transform="translate(124.909 51.96)" opacity="0.5">
          <g id="Grupo_97722" data-name="Grupo 97722">
            <g id="Grupo_97721" data-name="Grupo 97721" clip-path="url(#clip-path-5)">
              <path id="Trazado_129954" data-name="Trazado 129954" d="M1145.3,476.992h-29.6a1.375,1.375,0,1,1,0-2.75h29.6a1.375,1.375,0,1,1,0,2.75" transform="translate(-1114.287 -474.242)" fill="#7c9af2"/>
            </g>
          </g>
        </g>
        <g id="Grupo_97726" data-name="Grupo 97726" transform="translate(160.309 50.116)" opacity="0.5">
          <g id="Grupo_97725" data-name="Grupo 97725">
            <g id="Grupo_97724" data-name="Grupo 97724" clip-path="url(#clip-path-5)">
              <path id="Trazado_129955" data-name="Trazado 129955" d="M1461.095,460.163h-29.6a1.375,1.375,0,1,1,0-2.75h29.6a1.375,1.375,0,1,1,0,2.75" transform="translate(-1430.086 -457.413)" fill="#7c9af2"/>
            </g>
          </g>
        </g>
        <g id="Grupo_97729" data-name="Grupo 97729" transform="translate(124.909 63.511)" opacity="0.3">
          <g id="Grupo_97728" data-name="Grupo 97728">
            <g id="Grupo_97727" data-name="Grupo 97727" clip-path="url(#clip-path-7)">
              <path id="Trazado_129956" data-name="Trazado 129956" d="M1151.157,581.445H1115.2a.891.891,0,1,1,0-1.782h35.958a.891.891,0,1,1,0,1.782" transform="translate(-1114.287 -579.663)" fill="#bdd1f9"/>
              <path id="Trazado_129957" data-name="Trazado 129957" d="M1482.734,581.445h-9.492a.891.891,0,1,1,0-1.782h9.492a.891.891,0,1,1,0,1.782" transform="translate(-1432.195 -579.663)" fill="#bdd1f9"/>
              <path id="Trazado_129958" data-name="Trazado 129958" d="M1128.766,631.884H1115.2a.891.891,0,1,1,0-1.782h13.567a.891.891,0,1,1,0,1.782" transform="translate(-1114.287 -624.575)" fill="#bdd1f9"/>
              <path id="Trazado_129959" data-name="Trazado 129959" d="M1285.013,631.884h-18.591a.891.891,0,1,1,0-1.782h18.591a.891.891,0,1,1,0,1.782" transform="translate(-1248.56 -624.575)" fill="#bdd1f9"/>
              <path id="Trazado_129960" data-name="Trazado 129960" d="M1482.734,631.884h-9.492a.891.891,0,1,1,0-1.782h9.492a.891.891,0,1,1,0,1.782" transform="translate(-1432.195 -624.575)" fill="#bdd1f9"/>
              <path id="Trazado_129961" data-name="Trazado 129961" d="M1133.608,675.5H1115.2a.891.891,0,1,1,0-1.782h18.41a.891.891,0,1,1,0,1.782" transform="translate(-1114.287 -663.409)" fill="#bdd1f9"/>
              <path id="Trazado_129962" data-name="Trazado 129962" d="M1354.546,675.5h-30.109a.891.891,0,1,1,0-1.782h30.109a.891.891,0,1,1,0,1.782" transform="translate(-1300.07 -663.409)" fill="#bdd1f9"/>
            </g>
          </g>
        </g>
        <g id="Grupo_97732" data-name="Grupo 97732" transform="translate(124.909 81.067)" opacity="0.3">
          <g id="Grupo_97731" data-name="Grupo 97731">
            <g id="Grupo_97730" data-name="Grupo 97730" clip-path="url(#clip-path-8)">
              <path id="Trazado_129963" data-name="Trazado 129963" d="M1151.157,741.677H1115.2a.891.891,0,1,1,0-1.782h35.958a.891.891,0,1,1,0,1.782" transform="translate(-1114.287 -739.895)" fill="#bdd1f9"/>
              <path id="Trazado_129964" data-name="Trazado 129964" d="M1482.734,741.677h-9.492a.891.891,0,1,1,0-1.782h9.492a.891.891,0,1,1,0,1.782" transform="translate(-1432.195 -739.895)" fill="#bdd1f9"/>
              <path id="Trazado_129965" data-name="Trazado 129965" d="M1128.766,792.115H1115.2a.891.891,0,1,1,0-1.782h13.567a.891.891,0,1,1,0,1.782" transform="translate(-1114.287 -784.807)" fill="#bdd1f9"/>
              <path id="Trazado_129966" data-name="Trazado 129966" d="M1285.013,792.115h-18.591a.891.891,0,1,1,0-1.782h18.591a.891.891,0,1,1,0,1.782" transform="translate(-1248.56 -784.807)" fill="#bdd1f9"/>
            </g>
          </g>
        </g>
        <path id="Trazado_129967" data-name="Trazado 129967" d="M771.159,524.08H775l10.384,23.232H781l-2.394-5.569h-11.16l-2.428,5.569h-4.248Zm5.934,14.071-4.08-9.227-4.046,9.227Z" transform="translate(-675.494 -466.659)" fill="#bdd1f9"/>
        <rect id="Rectángulo_41040" data-name="Rectángulo 41040" width="20.79" height="3.923" transform="translate(78.978 95.703)" fill="#f99746"/>
        <rect id="Rectángulo_41041" data-name="Rectángulo 41041" width="20.79" height="3.923" transform="translate(78.978 99.625)" fill="#ed7d2b"/>
        <rect id="Rectángulo_41042" data-name="Rectángulo 41042" width="20.79" height="3.923" transform="translate(78.978 103.548)" fill="#474fea"/>
        <path id="Trazado_129968" data-name="Trazado 129968" d="M929.193,879.977H917.755a.847.847,0,1,1,0-1.694h11.439a.847.847,0,1,1,0,1.694" transform="translate(-814.107 -782.054)" fill="#bdd1f9"/>
        <path id="Trazado_129969" data-name="Trazado 129969" d="M925.34,907.231h-7.585a.847.847,0,1,1,0-1.694h7.585a.847.847,0,1,1,0,1.694" transform="translate(-814.107 -806.322)" fill="#bdd1f9"/>
        <rect id="Rectángulo_41043" data-name="Rectángulo 41043" width="20.79" height="8.016" transform="translate(78.978 115.985)" fill="#f99746"/>
        <rect id="Rectángulo_41044" data-name="Rectángulo 41044" width="20.79" height="5.733" transform="translate(78.978 122.022)" fill="#b5453c"/>
        <path id="Trazado_129970" data-name="Trazado 129970" d="M704.551,1058.6l7.458,6.123-7.458,5.646Z" transform="translate(-625.573 -942.613)" fill="#474fea"/>
        <path id="Trazado_129971" data-name="Trazado 129971" d="M929.193,1065.1H917.755a.847.847,0,1,1,0-1.694h11.439a.847.847,0,1,1,0,1.694" transform="translate(-814.107 -946.894)" fill="#bdd1f9"/>
        <path id="Trazado_129972" data-name="Trazado 129972" d="M925.34,1092.354h-7.585a.847.847,0,1,1,0-1.694h7.585a.847.847,0,1,1,0,1.694" transform="translate(-814.107 -971.162)" fill="#bdd1f9"/>
        <path id="Trazado_129973" data-name="Trazado 129973" d="M1521.4,1360.244H1456.55v-24.081h65.063a9.416,9.416,0,0,1,9.522,9.307v5.256a9.63,9.63,0,0,1-9.738,9.518" transform="translate(-1293.275 -1189.766)" fill="#fcecdb"/>
        <path id="Trazado_129974" data-name="Trazado 129974" d="M1559.353,1346.068v3.623a10.854,10.854,0,0,1-1.368,5.307,10.007,10.007,0,0,1-8.718,5.243H1427.144a1.5,1.5,0,0,1-1.463-1.529v-.542a1.5,1.5,0,0,1,1.463-1.529h74.445a9.924,9.924,0,0,0,1.045-1.643,10.153,10.153,0,0,0,1.091-4.6v-4.605a10.024,10.024,0,0,0-.3-2.451,9.785,9.785,0,0,0-1.726-3.576h-74.554a1.5,1.5,0,0,1-1.463-1.531v-.541a1.5,1.5,0,0,1,1.463-1.531h122.738a9.546,9.546,0,0,1,9.105,7.178,10.309,10.309,0,0,1,.365,2.73" transform="translate(-1265.866 -1189.764)" fill="#1a0f91"/>
        <path id="Trazado_129975" data-name="Trazado 129975" d="M1558.988,1343.338h-55.564a9.785,9.785,0,0,0-1.726-3.576h-74.554a1.5,1.5,0,0,1-1.463-1.531v-.541a1.5,1.5,0,0,1,1.463-1.531h122.738a9.547,9.547,0,0,1,9.105,7.178" transform="translate(-1265.866 -1189.764)" fill="#07014a"/>
        <path id="Trazado_129976" data-name="Trazado 129976" d="M1456.549,1446.058l9.042.4-9.042.244Z" transform="translate(-1293.274 -1287.621)" fill="#f4d2b8"/>
        <path id="Trazado_129977" data-name="Trazado 129977" d="M1456.549,1480.544l21.513.4-21.513.244Z" transform="translate(-1293.274 -1318.328)" fill="#f4d2b8"/>
        <path id="Trazado_129978" data-name="Trazado 129978" d="M1299.177,1574.222h63.657v-18.731h-64.218a8.54,8.54,0,0,0-8.635,8.441v1.3a9.094,9.094,0,0,0,9.2,8.988" transform="translate(-1145.378 -1385.063)" fill="#f99746"/>
        <path id="Trazado_129979" data-name="Trazado 129979" d="M1841.41,1574.222h72.551v-18.731h-72.75a8.683,8.683,0,0,0-8.78,8.582v1.373a8.879,8.879,0,0,0,8.979,8.776" transform="translate(-1627.021 -1385.063)" fill="#fcecdb"/>
        <path id="Trazado_129980" data-name="Trazado 129980" d="M1779.107,1703.682h88.772a1.319,1.319,0,0,0,1.333-1.3v-.195a1.318,1.318,0,0,0-1.333-1.3h-88.772a1.319,1.319,0,0,0-1.333,1.3v.195a1.319,1.319,0,0,0,1.333,1.3" transform="translate(-1578.49 -1514.524)" fill="#f99746"/>
        <path id="Trazado_129981" data-name="Trazado 129981" d="M1779.107,1558.292h88.772a1.318,1.318,0,0,0,1.333-1.3v-.195a1.319,1.319,0,0,0-1.333-1.3h-88.772a1.319,1.319,0,0,0-1.333,1.3v.195a1.319,1.319,0,0,0,1.333,1.3" transform="translate(-1578.49 -1385.063)" fill="#f99746"/>
        <path id="Trazado_129982" data-name="Trazado 129982" d="M2481.452,1640.97l-9.885.315,9.885.19Z" transform="translate(-2194.512 -1461.177)" fill="#f4d2b8"/>
        <path id="Trazado_129983" data-name="Trazado 129983" d="M2373.48,1601.627l-23.516.315,23.516.19Z" transform="translate(-2086.54 -1426.144)" fill="#f4d2b8"/>
        <path id="Trazado_129984" data-name="Trazado 129984" d="M2352.125,1603.928a4.346,4.346,0,0,1,1.341,2.128,3.4,3.4,0,0,1,.1.74c.056,1.758,0,5.735,0,5.735l2.975-1.989,2.968,1.989v-5.391a4.668,4.668,0,0,0-.727-2.661,1.11,1.11,0,0,0-.822-.551Z" transform="translate(-2088.458 -1428.193)" fill="#699dee"/>
        <path id="Trazado_129985" data-name="Trazado 129985" d="M2352.125,1603.928a4.346,4.346,0,0,1,1.341,2.128l5.962.079s-.234-1.894-1.464-2.207Z" transform="translate(-2088.458 -1428.193)" fill="#568cdb"/>
        <path id="Trazado_129986" data-name="Trazado 129986" d="M1373.236,1112.97h-62.653v-27.52h62.881a9.955,9.955,0,0,1,10.067,9.84v7.618a10.181,10.181,0,0,1-10.3,10.063" transform="translate(-1163.67 -966.522)" fill="#fcecdb"/>
        <path id="Trazado_129987" data-name="Trazado 129987" d="M1356.764,1096.134v5.923a7.1,7.1,0,0,1-2.978,5.9,5.286,5.286,0,0,1-2.936.905h-68.99a1.6,1.6,0,0,0-1.464,1.709v.7a1.6,1.6,0,0,0,1.464,1.709h119.181a9.75,9.75,0,0,0,8.267-5.022,13.116,13.116,0,0,0,1.827-6.761v-4.673a12.558,12.558,0,0,0-.941-4.812c-1.533-3.7-4.778-6.252-8.536-6.252h-119.8a1.6,1.6,0,0,0-1.464,1.708v.7a1.6,1.6,0,0,0,1.464,1.709h69.2a5.378,5.378,0,0,1,4.2,2.137,7.176,7.176,0,0,1,1.507,4.426" transform="translate(-1136.867 -966.528)" fill="#afcdfb"/>
        <path id="Trazado_129988" data-name="Trazado 129988" d="M1280.4,1293.408v.7a1.6,1.6,0,0,0,1.464,1.709h119.181a9.75,9.75,0,0,0,8.267-5.022h-55.522a5.286,5.286,0,0,1-2.936.905h-68.99a1.6,1.6,0,0,0-1.464,1.709" transform="translate(-1136.867 -1149.368)" fill="#a4c4f4"/>
        <path id="Trazado_129989" data-name="Trazado 129989" d="M1310.583,1211.038l8.844.463-8.844.279Z" transform="translate(-1163.671 -1078.35)" fill="#f4d2b8"/>
        <path id="Trazado_129990" data-name="Trazado 129990" d="M1310.583,1153.233l21.041.463-21.041.279Z" transform="translate(-1163.671 -1026.879)" fill="#f4d2b8"/>
        <path id="Trazado_129991" data-name="Trazado 129991" d="M1415.708,1156.616a4.853,4.853,0,0,0-1.848,2.307,2.953,2.953,0,0,0-.144.8c-.077,1.906,0,6.219,0,6.219l-4.1-2.156-4.089,2.156V1160.1a4.3,4.3,0,0,1,1-2.885,1.6,1.6,0,0,1,1.133-.6Z" transform="translate(-1247.971 -1029.891)" fill="#f99746"/>
        <path id="Trazado_129992" data-name="Trazado 129992" d="M1416.636,1156.616a4.854,4.854,0,0,0-1.848,2.307l-8.216.085s.322-2.054,2.018-2.392Z" transform="translate(-1248.899 -1029.891)" fill="#ed7d2b"/>
        <path id="Trazado_129993" data-name="Trazado 129993" d="M541.134,1314.408s12.843,5.469,15.174,5.369S573,1315.5,573,1315.5l-.366,2.415s-11.086,6.232-14.962,6.585c-3.816.348-16.863-3.347-18.123-4.127s-2.081-5.176,1.58-5.966" transform="translate(-478.125 -1170.395)" fill="#ed985f"/>
        <path id="Trazado_129994" data-name="Trazado 129994" d="M382.41,1128.92s-4.738-.88-7.1.8c-4.274,3.051-4.5,13.569-6.106,15.136s-5.464.9-5.807,9.006,1.537,8.785-.7,12.4.948,7.241.948,7.241-1.306-2-.746-3.44c0,0,.544,3.182,2.612,3.928s2.375,1.293,2.7,2.387c0,0,17.647-8.838,17.666-15.107s3.473-12.479,1.777-15.2a5.925,5.925,0,0,1,.848,2.455,3.176,3.176,0,0,0-.746-3.68c-1.764-1.774,2.069-5.445,1.5-9.7a6.9,6.9,0,0,0-6.851-6.244" transform="translate(-321.331 -1005.025)" fill="#233862"/>
        <path id="Trazado_129995" data-name="Trazado 129995" d="M461.314,1261.915a12.507,12.507,0,0,1-4.318,1.8c-6.655,1.5-9.206-4-10.164-7.769a5.817,5.817,0,0,1,2.255-.677c.481-.056.987-.092,1.406-.113.747-.56,1.861-2.849,2.107-6.4l.313.082,5.245,1.4s-.24,1.63-.358,3.17a5.964,5.964,0,0,0,.128,2.639c.409.087.655.144.655.144a.013.013,0,0,0,0,0,32.69,32.69,0,0,1,2.727,5.724" transform="translate(-396.744 -1111.929)" fill="#ffb27d"/>
        <path id="Trazado_129996" data-name="Trazado 129996" d="M506.323,1250.911s-.241,1.628-.358,3.17c-2.972-.291-4.351-3.056-4.888-4.573Z" transform="translate(-444.909 -1112.606)" fill="#ed985f"/>
        <path id="Trazado_129997" data-name="Trazado 129997" d="M502.3,1180.076s-7.053-.38-6.743-4.67-.392-7.228,4.125-7.166,5.272,1.759,5.525,3.215-1.064,8.609-2.907,8.621" transform="translate(-439.993 -1040.241)" fill="#ffb27d"/>
        <path id="Trazado_129998" data-name="Trazado 129998" d="M487.71,1161.872c-.994-1.366-1.838-1.141-2.328-.786a5.015,5.015,0,0,0-6.4.546,8.224,8.224,0,0,1-3.1,4.648s1.227.865,4.242.329a5.071,5.071,0,0,0,2.516-1.449,16.287,16.287,0,0,1-3.076,3.178c3.653-1.35,5.426-6.057,5.6-6.555a5.4,5.4,0,0,1,1.389,2.109c.271,1.117,1.44,2.863,2.116,2.833a7,7,0,0,0-.963-4.854" transform="translate(-422.536 -1033.057)" fill="#233862"/>
        <path id="Trazado_129999" data-name="Trazado 129999" d="M398.02,1322.112c-.637-3.182-2.714-15.9-.637-19.989.746-1.47,3.673-1.6,6.884-1.474,1,.631,4.807,3.013,6.371,2.716l.088-.02c.736-.18,1.014-.686.4-1.122a14.351,14.351,0,0,1,3.565.214,26.691,26.691,0,0,1,4.124,1.727,9.346,9.346,0,0,1-3.749,3.6c.38,3.322-.185,4.787-3.711,12.46a14.3,14.3,0,0,0,.4,12.324s-17.538,13.783-17.636,6.765c-.073-5.283,4.713-13.132,3.9-17.2" transform="translate(-349.94 -1158.109)" fill="#f9ddbf"/>
        <path id="Trazado_130000" data-name="Trazado 130000" d="M474,1422.446a3.272,3.272,0,0,0,2.346-1.4l.271-.4c2-2.954,2.773-12,7.264-21.637,1.094-2.346,5.02-2.768,6.09-5.421,0,0,2.635-8.6-5.043-8.85s-20.564,23.92-20.767,26.455c-.2,2.456-5.076,12.893,9.84,11.248" transform="translate(-411.317 -1233.022)" fill="#dd6d22"/>
        <path id="Trazado_130001" data-name="Trazado 130001" d="M743.975,1682.029H733.046a4.347,4.347,0,0,1,.309-2.863,2.022,2.022,0,0,0-.079-2.459,4.334,4.334,0,0,0,1.841.339,3.91,3.91,0,0,0,1.625-.559,38.833,38.833,0,0,0,3.114,3.2c.714.5,3.9.323,4.119,2.344" transform="translate(-650.771 -1492.803)" fill="#233862"/>
        <path id="Trazado_130002" data-name="Trazado 130002" d="M628.907,1384.469c.658,4.822,3.228,20.042,7.761,27.467,1.462,2.394-3.682,3.736-3.71,3.729a8.734,8.734,0,0,1-2.369-1.718c-3.68-3.242-11.151-12.422-11.151-19.781,0-3.589-.065-10.442,2.605-12.184,1.644-1.073,6.6.572,6.864,2.487" transform="translate(-550.001 -1230.262)" fill="#ed7d2b"/>
        <path id="Trazado_130003" data-name="Trazado 130003" d="M401.473,1417.791s.4-.551,1.111-1.6a37.39,37.39,0,0,0,2.9-6.832c1.185-3.295,2.592-7.349,4.349-11.567.542-1.3,1.118-2.62,1.731-3.935,1.094-2.346,4.1-2.022,5.173-4.674,0,0,4.177-9.195-3.5-9.448s-22.269,24.6-23.107,27c-.918,2.635-5.4,13.575,11.345,11.05" transform="translate(-345.304 -1228.565)" fill="#f99746"/>
        <path id="Trazado_130004" data-name="Trazado 130004" d="M672.408,1682.029H661.479a4.346,4.346,0,0,1,.309-2.863,2.022,2.022,0,0,0-.079-2.459,4.335,4.335,0,0,0,1.841.339,3.91,3.91,0,0,0,1.625-.559,38.834,38.834,0,0,0,3.114,3.2c.714.5,3.9.323,4.119,2.344" transform="translate(-587.227 -1492.803)" fill="#2b478b"/>
        <path id="Trazado_130005" data-name="Trazado 130005" d="M529,1498.289c1.185-3.3,2.592-7.349,4.349-11.567-.459-3.2-1.449-5.991-3.114-7.118,0,0-4.039,12.229-1.235,18.685" transform="translate(-468.824 -1317.491)" fill="#ed7d2b"/>
        <path id="Trazado_130006" data-name="Trazado 130006" d="M558.984,1385.681c.658,4.822,1.585,20.384,6.118,27.809,1.461,2.394-3.682,3.736-3.71,3.729a8.738,8.738,0,0,1-2.369-1.718c-3.68-3.242-11.151-12.422-11.151-19.781,0-3.589,4.309-10.154,6.978-11.9a2.7,2.7,0,0,1,4.134,1.857" transform="translate(-486.457 -1231.816)" fill="#f99746"/>
        <path id="Trazado_130007" data-name="Trazado 130007" d="M547.423,1252.5a6.658,6.658,0,0,0-2.543-.109s.1.715,1.483.786a1.1,1.1,0,0,0,1.06-.677" transform="translate(-483.8 -1115.129)" fill="#fff"/>
        <path id="Trazado_130008" data-name="Trazado 130008" d="M801.857,1245.795l-2.266-4-4.9,13.368,2.892,3.034Z" transform="translate(-705.607 -1105.741)" fill="#163560"/>
        <path id="Trazado_130009" data-name="Trazado 130009" d="M717,1280.608l-4.556,12.722,12.111-2.656,4.275-12.407Z" transform="translate(-632.581 -1138.214)" fill="#1c468a"/>
        <path id="Trazado_130010" data-name="Trazado 130010" d="M712.917,1309.092l-.212-.363,4.311-12.039.216.322Z" transform="translate(-632.812 -1154.617)" fill="#efdece"/>
        <path id="Trazado_130011" data-name="Trazado 130011" d="M751.166,1278.939l11.482-2.184.564.166-11.831,2.34Z" transform="translate(-666.962 -1136.867)" fill="#fcecdb"/>
        <path id="Trazado_130012" data-name="Trazado 130012" d="M826.85,1247.373l-2.45-3.8-1.562,4.292,3.448-.656Z" transform="translate(-730.6 -1107.32)" fill="#efdece"/>
        <path id="Trazado_130013" data-name="Trazado 130013" d="M463.7,1301.644c-.394-.074-1.239-.385-2.094-.615a1.729,1.729,0,0,0,.619-.676c.153-.471.254-.623-.254-.474s-2.289.947-2.289.947l0,0a4.675,4.675,0,0,0-1.943,1.686s-12.522,4.3-14.028,4.376c-2.33.115-17.842-5.469-17.842-5.469-3.661.79-2.839,5.186-1.58,5.966s12.421,4.749,19.036,4.823c3.35.038,15.538-7.618,15.538-7.618a5.287,5.287,0,0,1,2.544-.437c1.119.2,3.714,0,4.274-.9s-1.323-1.492-1.984-1.616" transform="translate(-375.784 -1157.409)" fill="#ffb27d"/>
        <path id="Trazado_130014" data-name="Trazado 130014" d="M429.444,1314.3a8.432,8.432,0,0,1-6.152,5.269s-7.868-2.369-3.951-7.608c0,0,3.873-2.813,10.1,2.339" transform="translate(-371.364 -1167.534)" fill="#f9ddbf"/>
        <path id="Trazado_130015" data-name="Trazado 130015" d="M836.685,1301.706h0a1.154,1.154,0,0,0-.042-.349s-1.122-1.735-1.49-1.806c-1.12-.216-1.12,1.225-.882,2.154a3.758,3.758,0,0,0,.927,1.6h0l-.044,1.358a2.877,2.877,0,0,0,1.532-2.962" transform="translate(-740.639 -1157.147)" fill="#ffb27d"/>
        <path id="Trazado_130016" data-name="Trazado 130016" d="M1940.729,1287.861a13.377,13.377,0,0,0,4.669,4.945l10.9.075s-17.142-7.735-15.572-5.021" transform="translate(-1723.088 -1146.242)" fill="#233862"/>
        <path id="Trazado_130017" data-name="Trazado 130017" d="M1942.929,1471.254a.968.968,0,0,1,.172,1.055.009.009,0,0,1,0,.005,6.6,6.6,0,0,1-2.134,2.255c-.128.1-.242.19-.342.275-.026.022-.052.044-.077.066l-.059.052c-.937.832-.588,1.026-2.272,2.716-1.92,1.926-3.233,1.951-3.605,1.772-.315-.153.335-1.177,1.054-2.327l.1-.168c.1-.153.191-.308.286-.462.843-1.385.634-2.039.452-4.11-.148-1.683-2.609-9.416-2.609-9.416l3.658-.59s1.056,6.151,2.261,7.106c.645.509,1.37.52,1.99.9.044.026.087.053.129.081a4.777,4.777,0,0,1,.994.792" transform="translate(-1717.113 -1302.151)" fill="#ffb27d"/>
        <path id="Trazado_130018" data-name="Trazado 130018" d="M1947.931,1536.3a.968.968,0,0,1,.172,1.055.009.009,0,0,1,0,.005,7.651,7.651,0,0,1-2.137,2.248c-.127.1-.239.195-.338.282-.026.022-.052.044-.077.066l-.059.051c-.937.832-.588,1.026-2.272,2.716-1.92,1.925-3.233,1.951-3.605,1.772-.315-.153.335-1.177,1.054-2.327a8.13,8.13,0,0,0,3.416-2.424c1.158-1.424,1.937-3.258,2.726-4.318.044.026.087.053.129.081a4.772,4.772,0,0,1,.994.792" transform="translate(-1722.114 -1367.199)" fill="#233862"/>
        <path id="Trazado_130019" data-name="Trazado 130019" d="M1665.055,1458.611c-.233,1.1-1.84.906-3.632.464s-1.37.072-3.924-.223-3.322-1.231-3.4-1.6c-.067-.33,1.2-.438,2.552-.581.171-.017.342-.037.513-.056,1.531-.177,2.658-1.134,4.052-1.916,1.321-.741,3.307-3.785,3.307-3.785l3.5.3s-1.859,2.718-2.579,3.9a4.056,4.056,0,0,0-.361,2.332,4.3,4.3,0,0,1-.035,1.172" transform="translate(-1468.68 -1291.942)" fill="#ffb27d"/>
        <path id="Trazado_130020" data-name="Trazado 130020" d="M1661.422,1505.868c-1.793-.441-1.37.072-3.924-.223s-3.321-1.231-3.4-1.6c-.067-.33,1.2-.437,2.552-.581l.012.026a7.31,7.31,0,0,0,3.652,1.137c1.734.053,3.574-.42,4.771-.393a4.292,4.292,0,0,1-.035,1.172c-.234,1.1-1.84.906-3.632.464" transform="translate(-1468.679 -1338.735)" fill="#233862"/>
        <path id="Trazado_130021" data-name="Trazado 130021" d="M1873.07,1277.727l3.214,8.641,4.2,11.282a7.087,7.087,0,0,0,2.274-.187,9.937,9.937,0,0,0,2.206-1.031s-1.1-12.09-3.266-19.041a12.223,12.223,0,0,0-1.878-4.044c-3.406-3.992-6.747,4.38-6.747,4.38" transform="translate(-1663.104 -1132.872)" fill="#233862"/>
        <path id="Trazado_130022" data-name="Trazado 130022" d="M1748.49,1185.022c2.151-.662,8.268.249,14.41,1.468l1.3-2.067,13.292-.922s4.315,9.532,1.871,15.57a2.354,2.354,0,0,1-2.43,1.267l0,0s-7.928.135-10.5.117c-6.607-.046-13.95-4.535-14.9-4.728-1.559-.316-2.206,2.732-3.791,5.927s-14.782,14.094-14.782,14.094a11.8,11.8,0,0,1-2.847-.305,2.806,2.806,0,0,1-1.218-.763s14.739-28.165,19.591-29.658" transform="translate(-1535.094 -1053.831)" fill="#2b478b"/>
        <path id="Trazado_130023" data-name="Trazado 130023" d="M2018.679,858.241c4.712,2.578,14.271,7.922,14.321,7.889,0,0,3.518,1.324,5.529.038,3.351-2.142,5.182-7.956-.882-13.013-3.024-2.522-5.181-3.145-5.48-7.141-.162-2.168-3.141-9.338-8.179-8.712a7.86,7.86,0,0,1-1.27.073,4.8,4.8,0,0,0-2.559.627c-2.861,1.638-8.564,19.2-1.479,20.238" transform="translate(-1789.363 -745.529)" fill="#233862"/>
        <path id="Trazado_130024" data-name="Trazado 130024" d="M2076.734,950.358a6.388,6.388,0,0,0,3.9.144c1.482-.628,2.618-3,2.6-3-.672-.035-1.406-.614-1.946-4.386l-.287.1-4.823,1.659s.338,1.511.552,2.949c.181,1.208.275,2.364.011,2.532" transform="translate(-1843.438 -839.786)" fill="#ffb27d"/>
        <path id="Trazado_130025" data-name="Trazado 130025" d="M2076.17,945.676s.206,1.059.491,2.573a5.551,5.551,0,0,0,4.333-4.232Z" transform="translate(-1843.437 -840.586)" fill="#ed975d"/>
        <path id="Trazado_130026" data-name="Trazado 130026" d="M2043.353,880.933s6.589-.818,6-4.821-.128-6.8-4.359-6.451-4.824,1.994-4.961,3.377,1.587,8,3.316,7.9" transform="translate(-1811.348 -774.35)" fill="#ffb27d"/>
        <path id="Trazado_130027" data-name="Trazado 130027" d="M2042.379,867.934s4.188,3.578,7.052,3.884,3.956-.586,3.956-.586a10.972,10.972,0,0,1-2.681-3.6,2.012,2.012,0,0,0-1.653-1.173c-2.045-.187-5.925-.292-6.675,1.477" transform="translate(-1813.434 -771.436)" fill="#233862"/>
        <path id="Trazado_130028" data-name="Trazado 130028" d="M2038.833,871.658a10.193,10.193,0,0,0-1.871,2.308,7.619,7.619,0,0,0-.246,4.138s-2.166-4.189-.908-6.209c1.334-2.141,3.024-.237,3.024-.237" transform="translate(-1807.251 -775.46)" fill="#233862"/>
        <path id="Trazado_130029" data-name="Trazado 130029" d="M2031.136,994.185c.105,13.025-.02,10.3,1.429,11.549a5.7,5.7,0,0,0,2.634.577c4.084.293,11.271-.315,11.55-1.051.961-2.547.3-3.345,1.116-7.249.085-.415.19-.865.312-1.354.675-2.681,1.32-3.59-.975-7.92-2.081-3.922-4.249-7.109-4.447-7-5.588,3.19-6.017.473-6.017.473s-5.653,5.618-5.6,11.971" transform="translate(-1803.451 -874.173)" fill="#f9ddbf"/>
        <path id="Trazado_130030" data-name="Trazado 130030" d="M1901.746,1328l4.2,11.282a7.084,7.084,0,0,0,2.274-.187,9.951,9.951,0,0,0,2.205-1.031s-1.1-12.09-3.267-19.041Z" transform="translate(-1688.566 -1174.503)" fill="#2b478b"/>
        <path id="Trazado_130031" data-name="Trazado 130031" d="M1992.613,986.078s-5.733.91-6.423,3.314-4.749,16.544-4.749,16.544,2.907.531,4.261-.774S1990.47,993,1990.47,993Z" transform="translate(-1759.327 -878.038)" fill="#f9ddbf"/>
        <path id="Trazado_130032" data-name="Trazado 130032" d="M2067.384,1094.367c4.084.293,11.271-.315,11.55-1.051.961-2.547.3-3.345,1.115-7.249l-1.932-5.438s.283,6.042-1.551,7.618-7.484,3.015-8.379,4.336a4.813,4.813,0,0,0-.8,1.783" transform="translate(-1835.636 -962.23)" fill="#f2ccaa"/>
        <path id="Trazado_130033" data-name="Trazado 130033" d="M2052.687,1177.939s-4.025-.905-4.677-.56a9.411,9.411,0,0,0-2.454,2.049c-.2.442,1.45-.326,1.987-.463a4.865,4.865,0,0,1,1.71.378,5.813,5.813,0,0,0,3.066.322Z" transform="translate(-1816.24 -1048.309)" fill="#ffb27d"/>
        <path id="Trazado_130034" data-name="Trazado 130034" d="M2106.951,981.738s5.41.363,7.265,2.93c2.612,3.614,7.733,18.973,4.72,21-3.394,2.278-15.374.5-15.374.5a4.655,4.655,0,0,1,.176-2.7c.562-.878,9.6-2.24,10.014-2.645s-5.148-7.973-5.14-9.194-1.662-9.88-1.662-9.88" transform="translate(-1867.645 -874.174)" fill="#f9ddbf"/>
        <path id="Trazado_130035" data-name="Trazado 130035" d="M2053.2,1188.013a7.7,7.7,0,0,1-1.13,1.184.841.841,0,0,1-.456.092l.576-1Z" transform="translate(-1821.637 -1057.848)" fill="#ffb27d"/>
        <path id="Trazado_130036" data-name="Trazado 130036" d="M2048.065,1178.017l-2.464,1.149a.44.44,0,0,0,.406.156,5.955,5.955,0,0,0,1.067-.279Z" transform="translate(-1816.295 -1048.947)" fill="#ffb27d"/>
        <path id="Trazado_130037" data-name="Trazado 130037" d="M1861.046,1097.67l-19.425-.134-5.741-14.243,19.395.134Z" transform="translate(-1630.083 -964.602)" fill="#f99746"/>
        <path id="Trazado_130038" data-name="Trazado 130038" d="M1885.1,1208.221l25.65.177,0,.553-25.423-.175Z" transform="translate(-1673.783 -1075.842)" fill="#ed7d2b"/>
        <path id="Trazado_130039" data-name="Trazado 130039" d="M1931.009,1141.473a.661.661,0,0,1,.666-.9,1.32,1.32,0,0,1,1.183.912.661.661,0,0,1-.666.9,1.32,1.32,0,0,1-1.184-.912" transform="translate(-1714.517 -1015.607)" fill="#fff"/>
        <rect id="Rectángulo_41045" data-name="Rectángulo 41045" width="59.019" height="11.468" transform="translate(112.912 177.89)" fill="#c65447"/>
        <path id="Trazado_130040" data-name="Trazado 130040" d="M898.587,1635.021l-8.674-3.627-5.045-2.109,5.164-2.157,8.558-3.575a17.006,17.006,0,0,1,1.159,5.418c.027,4.121-1.162,6.05-1.162,6.05" transform="translate(-785.677 -1445.668)" fill="#fcecdb"/>
        <path id="Trazado_130041" data-name="Trazado 130041" d="M1540.619,1627.461v3.625a4.085,4.085,0,0,1-4.132,4.037h-2.73l0-11.468h2.969a3.849,3.849,0,0,1,3.892,3.8" transform="translate(-1361.826 -1445.76)" fill="#fcecdb"/>
        <path id="Trazado_130042" data-name="Trazado 130042" d="M890.032,1656.18a8.444,8.444,0,0,1-.119,4.266l-5.045-2.109Z" transform="translate(-785.677 -1474.721)" fill="#2b478b"/>
        <path id="Trazado_130043" data-name="Trazado 130043" d="M1120.455,1067.6s1.057,4.483,4.139,4.483c2.641,0,6.265-5.836,6.265-5.836Z" transform="translate(-994.855 -949.425)" fill="#f99746"/>
        <path id="Trazado_130044" data-name="Trazado 130044" d="M1246.71,1220.545l-1.98,1.33s-9.522-9.92-11.821-19.428a14.468,14.468,0,0,1-.4-4.961s-.139-.431-.382-1.192l-.032-.1c-.106-.334-.234-.727-.376-1.172-.461-1.437-1.1-3.4-1.818-5.642-1.664-5.151-5.47-16.77-7.1-21.6l11.689-4.134s1.328,2.959,3.236,11c.294,1.05.589,2.211.863,3.476.312,1.433.6,3,.845,4.692a70.452,70.452,0,0,1,.7,9.631c.006,1.439-.03,2.932-.117,4.472a19.3,19.3,0,0,0,.43,4.345c1.473,7.826,6.259,19.284,6.259,19.284" transform="translate(-1085.731 -1036.148)" fill="#2b478b"/>
        <path id="Trazado_130045" data-name="Trazado 130045" d="M1415.973,1687.672h-9.451a3.758,3.758,0,0,1,.267-2.476,1.748,1.748,0,0,0-.068-2.126,3.746,3.746,0,0,0,1.592.293,3.375,3.375,0,0,0,1.405-.483,33.586,33.586,0,0,0,2.693,2.765c.618.434,3.372.279,3.562,2.027" transform="translate(-1248.766 -1498.495)" fill="#233862"/>
        <path id="Trazado_130046" data-name="Trazado 130046" d="M1239.437,1182.813l-7.342,13.379c-.106-.334-.234-.727-.376-1.172-.461-1.437-1.1-3.4-1.818-5.642-1.664-5.151-5.47-16.77-7.1-21.6l11.689-4.134s1.328,2.959,3.236,11c.294,1.05.589,2.211.863,3.476.312,1.433.6,3,.845,4.692" transform="translate(-1085.731 -1036.148)" fill="#233862"/>
        <path id="Trazado_130047" data-name="Trazado 130047" d="M1218.712,1698.206a4.037,4.037,0,0,0-.038,2.891h5.141s.107-1.193-1.759-2.576a3.876,3.876,0,0,0-3.344-.315" transform="translate(-1081.829 -1511.921)" fill="#233862"/>
        <path id="Trazado_130048" data-name="Trazado 130048" d="M1218.2,742.165c0-.25.135-2.947,4.327-3.187,0,0-2.057.289-2.392,1.184a3.426,3.426,0,0,1,2.531-.8c1.153.325,1.873,2.269,1.9,2.913s-.562,2.736-1.284,2.93a2.267,2.267,0,0,1-.879.022,9.639,9.639,0,0,1,.588.97c1.757,3.32.241,7.23-1.185,6.9-.915-.211-1.471,1.338-1.471,1.338l-8.8-7.394s3.082-6.637,6.667-4.874" transform="translate(-1075.727 -658.012)" fill="#2c3a64"/>
        <path id="Trazado_130049" data-name="Trazado 130049" d="M1221.68,880.595a10.816,10.816,0,0,0,3.734,1.553c5.755,1.3,7.961-3.455,8.789-6.718a5.035,5.035,0,0,0-1.95-.585c-.416-.048-.853-.08-1.216-.1-.646-.484-1.609-2.464-1.822-5.538l-.271.071-4.536,1.213s.208,1.409.31,2.741a5.159,5.159,0,0,1-.111,2.282c-.354.075-.566.124-.566.124l0,0a28.28,28.28,0,0,0-2.359,4.95" transform="translate(-1084.733 -773.974)" fill="#ffb27d"/>
        <path id="Trazado_130050" data-name="Trazado 130050" d="M1246.019,871.079s.208,1.408.309,2.741c2.57-.251,3.762-2.643,4.227-3.954Z" transform="translate(-1106.344 -774.559)" fill="#ed985f"/>
        <path id="Trazado_130051" data-name="Trazado 130051" d="M1214.214,813.977s5.916-1.486,4.913-5.073-.916-6.195-4.736-5.4-4.168,2.361-4.131,3.638,2.389,7.127,3.954,6.832" transform="translate(-1074.591 -715.342)" fill="#ffb27d"/>
        <path id="Trazado_130052" data-name="Trazado 130052" d="M1204.975,799.915c.607-1.323,1.362-1.271,1.838-1.05a4.343,4.343,0,0,1,5.526-.593,7.2,7.2,0,0,0,3.429,3.432s-.891.936-3.541.979a4.429,4.429,0,0,1-2.385-.814,14.272,14.272,0,0,0,3.158,2.188c-3.331-.542-5.648-4.242-5.885-4.635a4.619,4.619,0,0,0-.814,2.018c-.037.992.359,2.907-.219,2.994,0,0-2.018-2.533-1.107-4.517" transform="translate(-1069.691 -710.153)" fill="#2c3a64"/>
        <path id="Trazado_130053" data-name="Trazado 130053" d="M1172.268,918.849s9.936-2.358,14.257,1.125l-2.159,29.433-19.433-4.589s.547-1.862,4.273-6.815,2.106-12.217,3.062-19.154" transform="translate(-1034.347 -817.481)" fill="#ffb27d"/>
        <path id="Trazado_130054" data-name="Trazado 130054" d="M1169.619,1154.591s-.011.1-.032.29c-.009.082-.02.181-.033.3-.084.763-.242,2.227-.446,4.13-.533,4.992-1.37,13.009-1.94,19.337a79.127,79.127,0,0,0-.576,9.492c.46,1.892,0,24.511,0,24.511-1.652.774-4.156,0-4.156,0s-4.4-20.383-3.784-23.216a9.554,9.554,0,0,0-.412-5.251c-3.416-15.549-3.042-24.166-2.363-28.292a17.025,17.025,0,0,1,.584-2.519,5.161,5.161,0,0,1,.234-.619,16.374,16.374,0,0,1,12.923,1.841" transform="translate(-1025.906 -1025.942)" fill="#2b478b"/>
        <path id="Trazado_130055" data-name="Trazado 130055" d="M1172.93,930.193c-.479,3.541-2.4,7.874-3.084,10.206,0,0,1.146,8.1.052,10.321a1,1,0,0,1-.466.511c-4.052,1.725-19.833.05-20.5-4.925-.242-1.808,6.011-8.167,6.375-8.938.151-.319.313-1.354-.421-3.5-1.039,3.131-6.774,2.231-6.774,2.231.673-1.126,2.35-8.914,4.223-12.43,1.408-2.643,5.167-3.026,5.167-3.026a5.667,5.667,0,0,0,5.348,2.081c3.784-.344,4.475-2.608,4.475-2.608s3.356.436,4.39,1.251a16.54,16.54,0,0,1,1.214,8.824" transform="translate(-1019.413 -819.305)" fill="#f99746"/>
        <path id="Trazado_130056" data-name="Trazado 130056" d="M1304.232,1053.221s1.146,8.1.052,10.321c-2.952-1.448-5.279-5.366-4.741-9.731.4-3.226.987-3.962,2.753-5.809,1.3-1.356,4.3-1.433,4.063-.788-.7,1.922-1.764,4.775-2.126,6.007" transform="translate(-1153.798 -932.127)" fill="#ed7d2b"/>
        <path id="Trazado_130057" data-name="Trazado 130057" d="M1143.4,1017.832l6.766,10.61H1138.65l-6.447-10.38Z" transform="translate(-1005.286 -906.313)" fill="#1c468a"/>
        <path id="Trazado_130058" data-name="Trazado 130058" d="M1238.47,1025.193l.117-.371-6.4-10.04-.128.334Z" transform="translate(-1093.945 -903.597)" fill="#efdece"/>
        <path id="Trazado_130059" data-name="Trazado 130059" d="M1143.525,1014.783l-10.845.3-.476.262,11.193-.23Z" transform="translate(-1005.287 -903.598)" fill="#fcecdb"/>
        <path id="Trazado_130060" data-name="Trazado 130060" d="M1084.011,993.767l-6.084-3.219,7.092,10.886,5.439,2.713Z" transform="translate(-957.094 -882.019)" fill="#163560"/>
        <path id="Trazado_130061" data-name="Trazado 130061" d="M1284.527,1061.677c-.651.291-2.324,2.217-2.922,2.413-2.684.878-14.11-1.458-14.11-1.458l.354-1.956s11.214.291,12.446-.031c.232-.061,1.444-1.914,1.91-2.18Z" transform="translate(-1125.413 -942.493)" fill="#ffb27d"/>
        <path id="Trazado_130062" data-name="Trazado 130062" d="M1220.107,1071.583s-1.352-1.076-2.266-.833a14.71,14.71,0,0,0-2.757,1.64c-.5.267-1.855,1.224-1.168,1.8s2.828.082,3.675-.362a4.479,4.479,0,0,1,2.162-.292Z" transform="translate(-1077.669 -953.401)" fill="#ffb27d"/>
        <path id="Trazado_130063" data-name="Trazado 130063" d="M1233.8,1069.233s-1.644-.192-2.092-.183-.327.1-.079.445,1.1.471,1.143.59,1.029-.852,1.029-.852" transform="translate(-1093.365 -951.92)" fill="#ffb27d"/>
        <path id="Trazado_130064" data-name="Trazado 130064" d="M1308.124,920.118s4.874.565,6.215,2.608c1.7,2.583,5.7,12.869,5.572,15.461,0,0-2.927,4.87-12.967,4.091,0,0-1.045-3.606,1.067-4.8,0,0,5.156-.9,5.75-1.408l-4.2-7.467Z" transform="translate(-1160.211 -819.305)" fill="#f99746"/>
        <path id="Trazado_130065" data-name="Trazado 130065" d="M1122.481,1052.75c-.151-.6-1.49-.225-1.941.12a1.8,1.8,0,0,0-.343.394c-.014-.1-.026-.2-.033-.271-.025-.282-.361-.787-.445-.409s-.221,1.967-.221,1.967c-.016,1.28.825,1.807,1.366,1.391s1.768-2.592,1.617-3.192" transform="translate(-994.005 -937.123)" fill="#ffb27d"/>
        <path id="Trazado_130066" data-name="Trazado 130066" d="M307.365,1727.608H.4a.392.392,0,0,1-.4-.386v-.253a.392.392,0,0,1,.4-.386h306.97a.392.392,0,0,1,.4.386v.253a.392.392,0,0,1-.4.386" transform="translate(0 -1537.409)" fill="#2e3552"/>
      </g>
    </g>
  </g>
</svg>
