<svg id="Grupo_210934" data-name="Grupo 210934" xmlns="http://www.w3.org/2000/svg" xmlns:xlink="http://www.w3.org/1999/xlink" width="39.25" height="40.079" viewBox="0 0 39.25 40.079">
  <defs>
    <clipPath id="clip-path">
      <rect id="Rectángulo_66404" data-name="Rectángulo 66404" width="39.25" height="40.079" fill="#11578e"/>
    </clipPath>
  </defs>
  <g id="Grupo_210933" data-name="Grupo 210933" clip-path="url(#clip-path)">
    <path id="Trazado_132142" data-name="Trazado 132142" d="M33.55,17.239c.849.013,1.7.005,2.547.005.71,0,1.42.011,2.13,0a1,1,0,0,0,1.015-.869A.982.982,0,0,0,38.57,15.3a2.053,2.053,0,0,0-.577-.055c-1.448,0-2.9-.014-4.343.007-.343,0-.422-.1-.405-.422.026-.486.022-.975,0-1.461-.012-.273.07-.359.348-.352.709.019,1.42.008,2.13,0a.942.942,0,0,0,.938-.632.994.994,0,0,0-.987-1.364c-.723-.024-1.448-.009-2.171,0-.195,0-.307-.013-.372-.261a4.943,4.943,0,0,0-3.8-3.791c-.205-.052-.291-.124-.286-.354.018-.723.013-1.448,0-2.171a1,1,0,0,0-1.019-1.077.985.985,0,0,0-.981,1.067c-.007.7-.011,1.392,0,2.088.005.235-.062.31-.3.3a15.124,15.124,0,0,0-1.544,0c-.339.023-.378-.109-.376-.4.012-1.7.007-3.4.006-5.095,0-.849-.347-1.317-.983-1.332S22.835.47,22.835,1.335c0,1.712,0,3.424,0,5.136,0,.256-.042.368-.334.353-.528-.026-1.058-.02-1.586,0-.241.008-.3-.071-.3-.3.015-.682.009-1.364,0-2.046a.994.994,0,0,0-.984-1.107,1.007,1.007,0,0,0-1.018,1.121c-.005.64-.026,1.282.009,1.92.02.366-.105.441-.439.418a9.931,9.931,0,0,0-1.335,0c-.335.023-.444-.056-.439-.419.022-1.768.016-3.536.007-5.3a1,1,0,1,0-2,0c-.007.877,0,1.754,0,2.631,0,.933-.006,1.865,0,2.8,0,.211-.046.3-.275.289-.556-.016-1.114-.014-1.67,0-.217.005-.288-.059-.283-.281.014-.668.006-1.336,0-2A1.436,1.436,0,0,0,12.142,4a1,1,0,0,0-1.936.381c-.019.737-.014,1.476,0,2.213,0,.215-.05.315-.27.37a4.958,4.958,0,0,0-3.811,3.78c-.06.224-.142.28-.358.276-.738-.012-1.476-.021-2.213,0a1,1,0,1,0,.05,1.995c.654.007,1.31.03,1.962-.009.392-.023.466.117.443.466a11.115,11.115,0,0,0,0,1.377c.018.308-.064.4-.385.395-1.475-.019-2.951-.008-4.427-.009a1.31,1.31,0,0,0-.688.128,1.007,1.007,0,0,0,.584,1.875c1.531.007,3.063.009,4.594,0,.258,0,.332.066.322.324-.021.528-.02,1.058,0,1.586.009.247-.08.3-.307.294-.71-.013-1.42-.016-2.13,0a1,1,0,1,0,.013,2c.7.006,1.392.011,2.088,0,.238,0,.35.032.337.311-.024.528-.022,1.058,0,1.586.01.26-.07.329-.326.326-1.03-.014-2.06-.008-3.09,0-.57,0-1.142-.012-1.711.026a.959.959,0,0,0-.879.95.989.989,0,0,0,.829,1,3.042,3.042,0,0,0,.5.029c1.448,0,2.9.006,4.343,0,.238,0,.349.032.336.311-.024.542-.018,1.086,0,1.628.007.228-.072.278-.285.275-.7-.012-1.392-.008-2.088,0a1.008,1.008,0,1,0,.011,2c.7,0,1.392.012,2.088,0,.252-.006.337.069.4.322a4.985,4.985,0,0,0,3.771,3.773c.246.065.3.164.3.4-.014.682-.008,1.364,0,2.046.005.726.4,1.171,1.018,1.166s.979-.431.984-1.145c0-.682.01-1.364,0-2.046,0-.233.061-.319.3-.31a12.24,12.24,0,0,0,1.461,0c.408-.034.472.127.467.489-.018,1.489-.013,2.979,0,4.468a.98.98,0,0,0,1.146,1.053,1.017,1.017,0,0,0,.853-1.111c.006-1.5.012-3.007-.006-4.51,0-.321.087-.4.4-.387.486.027.975.021,1.461,0,.266-.011.361.057.352.341-.022.681-.011,1.364-.006,2.046a1.006,1.006,0,0,0,1.023,1.115.994.994,0,0,0,.979-1.11c0-.7.011-1.392,0-2.088-.005-.24.069-.31.306-.3.529.016,1.058.019,1.587,0,.264-.01.33.082.326.334-.013,1-.005,2-.005,3.007,0,.557-.015,1.114.007,1.67a.976.976,0,0,0,1.124,1,1,1,0,0,0,.872-1.13c.007-1.5.01-3.007,0-4.51,0-.3.087-.381.376-.369.514.022,1.03.018,1.545,0,.245-.008.3.079.3.31-.014.682-.007,1.364,0,2.046,0,.706.379,1.14.986,1.145.623.005,1.014-.439,1.017-1.163,0-.682.01-1.364,0-2.046,0-.228.043-.334.292-.4a4.97,4.97,0,0,0,3.778-3.766c.078-.292.191-.333.444-.328.682.014,1.364.008,2.046,0a1.007,1.007,0,1,0,.019-2c-.654-.005-1.309-.017-1.963.005-.311.01-.446-.051-.42-.4a11.241,11.241,0,0,0,0-1.419c-.017-.307.063-.4.387-.4,1.447.018,2.9.009,4.343.006a2.557,2.557,0,0,0,.5-.037.987.987,0,0,0-.063-1.94,3.58,3.58,0,0,0-.5-.025c-1.406,0-2.812-.017-4.218.009-.385.007-.471-.111-.448-.467.031-.485.02-.974,0-1.461-.009-.244.078-.3.309-.3.682.014,1.364.007,2.046,0a1.012,1.012,0,0,0,1.135-1,1.032,1.032,0,0,0-1.149-1c-.668-.006-1.336-.01-2,0-.236,0-.352-.03-.339-.311.024-.528.018-1.058,0-1.586-.007-.237.064-.31.3-.306M31.242,29.051a2.926,2.926,0,0,1-3.044,3.01c-2.853.008-5.706,0-8.558,0-2.811,0-5.623-.043-8.433.015a3.119,3.119,0,0,1-3.218-3.212c.046-5.594.016-11.188.018-16.782a3.008,3.008,0,0,1,3.238-3.26q8.475-.008,16.949,0a2.968,2.968,0,0,1,3.047,3.026q.017,8.6,0,17.2" transform="translate(0 0)" fill="#11578e"/>
    <path id="Trazado_132143" data-name="Trazado 132143" d="M165.49,161.9q-6.285-.006-12.569,0a1.044,1.044,0,0,0-1.177,1.189q0,6.285,0,12.569a1.033,1.033,0,0,0,1.178,1.175q3.132,0,6.264,0,3.153,0,6.305,0c.83,0,1.188-.361,1.188-1.2q0-6.264,0-12.527c0-.823-.372-1.209-1.189-1.209m-.907,7.457c0,1.711-.006,3.421.006,5.132,0,.265-.058.348-.338.348q-5.069-.015-10.138,0c-.285,0-.373-.064-.372-.362q.017-5.09,0-10.18c0-.3.064-.4.386-.4q5.048.019,10.1,0c.3,0,.368.082.366.371-.014,1.7-.007,3.393-.007,5.09" transform="translate(-139.539 -148.874)" fill="#11578e"/>
  </g>
</svg>
