<svg id="Grupo_81121" data-name="Grupo 81121" xmlns="http://www.w3.org/2000/svg" xmlns:xlink="http://www.w3.org/1999/xlink" width="295" height="173.49" viewBox="0 0 295 173.49">
  <defs>
    <clipPath id="clip-path">
      <rect id="Rectángulo_34137" data-name="Rectángulo 34137" width="295" height="173.49" fill="none"/>
    </clipPath>
  </defs>
  <g id="Grupo_81120" data-name="Grupo 81120" clip-path="url(#clip-path)">
    <path id="Trazado_114310" data-name="Trazado 114310" d="M21.263,172.322s-41.381-75.984-8.688-117C62.386-7.166,115.307,67.465,146.891,29.887,190.11-21.535,285.463-4.74,268.675,65.976c-11.774,49.6,45.87,40.042,19.2,107.515Z" transform="translate(0 0)" fill="#e9e9e9"/>
    <path id="Trazado_114311" data-name="Trazado 114311" d="M627.123,765.5h-40.9a2.813,2.813,0,0,1-2.813-2.813v-1.829h43.715Z" transform="translate(-481.864 -628.426)" fill="#77a4e5"/>
    <path id="Trazado_114312" data-name="Trazado 114312" d="M698.684,821.1h-2.638l-.74-33.572h4.03Z" transform="translate(-574.285 -650.454)" fill="#677282"/>
    <path id="Trazado_114313" data-name="Trazado 114313" d="M658.833,963.816H633.175V961.5l13.078-1.179,12.581,1.179Z" transform="translate(-522.969 -793.173)" fill="#677282"/>
    <path id="Trazado_114314" data-name="Trazado 114314" d="M618.853,968.306a2.111,2.111,0,1,1,2.111,2.111,2.11,2.11,0,0,1-2.111-2.111" transform="translate(-511.14 -798.026)" fill="#677282"/>
    <path id="Trazado_114315" data-name="Trazado 114315" d="M766.273,968.306a2.111,2.111,0,1,1,2.11,2.111,2.11,2.11,0,0,1-2.11-2.111" transform="translate(-632.901 -798.026)" fill="#677282"/>
    <path id="Trazado_114316" data-name="Trazado 114316" d="M664.528,789.727H646.792a1.926,1.926,0,0,1-1.926-1.926v-.276h21.589v.276a1.926,1.926,0,0,1-1.926,1.926" transform="translate(-532.625 -650.453)" fill="#677282"/>
    <path id="Trazado_114317" data-name="Trazado 114317" d="M587.072,581.518a3.663,3.663,0,0,1-3.663-3.663V548.6c0-5.793,3.787-10.489,8.459-10.489H611c4.672,0,8.46,4.7,8.46,10.489v32.923Z" transform="translate(-481.865 -444.447)" fill="#b8c0c7"/>
    <path id="Trazado_114318" data-name="Trazado 114318" d="M597.093,581.518a2.008,2.008,0,0,1-2.008-2.008V548.6c0-5.793,3.787-10.489,8.459-10.489h19.13c4.672,0,8.46,4.7,8.46,10.489v32.923Z" transform="translate(-491.509 -444.447)" fill="#677282"/>
    <path id="Trazado_114319" data-name="Trazado 114319" d="M628.256,765.5h-46.8a2.321,2.321,0,0,1,0-4.642h46.8a2.321,2.321,0,1,1,0,4.642" transform="translate(-478.337 -628.426)" fill="#b8c0c7"/>
    <path id="Trazado_114320" data-name="Trazado 114320" d="M927.728,950.428H910.306c-.838-1.023-1.308-5.832-1.181-7.064.026-.248.339-1.4.339-1.4s6.433-2.714,7.25.93c.025.114.055.226.088.336,1.03,3.408,5.648,4.957,8.314,5.388a3.02,3.02,0,0,1,2.611,1.811" transform="translate(-750.872 -777.209)" fill="#43a1f6"/>
    <path id="Trazado_114321" data-name="Trazado 114321" d="M690.138,682.764c.629,0,23.851,3.247,28.683,8.678,2.414,2.713,8.725,38.265,8.725,38.265s-2.935,2.082-9.385.13c0,0-8.514-23-8.164-29.505.1-1.8-20.643-2.55-24.314-3.413s-8.227-2.979-6.25-6.511,10.7-7.643,10.7-7.643" transform="translate(-560.781 -563.927)" fill="#151f2c"/>
    <path id="Trazado_114322" data-name="Trazado 114322" d="M864.108,952.933H846.685c-.838-1.023-.529-4.8-.4-6.028.026-.248.044-.393.044-.393s5.949-4.759,6.767-1.115c.025.114.055.226.088.336,1.03,3.408,5.647,4.957,8.314,5.388a3.02,3.02,0,0,1,2.612,1.811" transform="translate(-698.852 -779.714)" fill="#43a1f6"/>
    <path id="Trazado_114323" data-name="Trazado 114323" d="M655.006,679.906c.629,0,28.363,1.378,33.2,7.359,2.414,2.988,2.773,37.5,2.773,37.5s-2.987,3.7-9.437,1.553c0,0-5.927-18.31-5.492-30.778.069-1.981-17.263-2.209-22.024-2.587-6.038-.48-7.564-10.614-5.587-14.505s6.571,1.459,6.571,1.459" transform="translate(-534.9 -559.19)" fill="#384152"/>
    <path id="Trazado_114324" data-name="Trazado 114324" d="M655.87,525.082c-3.477,5.553-25.192,7.227-25.192,7.227-.366-.888-2.017-15.2-2.3-16.191a48.048,48.048,0,0,1-1.455-7.86l-.011-.1a91.673,91.673,0,0,1-.435-11.748c.039-1.547.1-2.5.1-2.546h0l.159-.065c1.314-.551,2.574-1.026,3.782-1.438l.01,0c1.015-.346,1.993-.645,2.933-.9a42.868,42.868,0,0,1,4.613-1.006,33.75,33.75,0,0,1,4.555-.42c.061,0,.121,0,.183,0q.538-.009,1.043,0a19.8,19.8,0,0,1,6.79,1.2c.159.063.3.121.409.174l.045.019c.129.058.229.106.3.141a.152.152,0,0,1,.027.015c.034.018.066.036.1.055l1.787,18.777Z" transform="translate(-517.412 -404.73)" fill="#43a1f6"/>
    <path id="Trazado_114325" data-name="Trazado 114325" d="M769.349,518.19c-2.483,1.152-17.247,2.12-18.666,1.711-.727-.21-3.771-2.891-6.834-6.19l0,0c-2.9-3.12-5.82-6.792-6.806-9.435a16.171,16.171,0,0,1-.284-10.252s3.767-.016,5.3.912,10.317,17.1,11.491,17.529,15.084,1.224,16.677,1.98c0,0,1.6,2.6-.879,3.747" transform="translate(-607.946 -408.036)" fill="#43a1f6"/>
    <path id="Trazado_114326" data-name="Trazado 114326" d="M676.007,468.8l0,.914s.254,2.859-3.267,3.282-6.19-1.106-6.1-3.312a25.876,25.876,0,0,0,.682-4.3,9.935,9.935,0,0,0-.128-1.712l6.823-.147,2.01.325Z" transform="translate(-550.606 -382.853)" fill="#ee805f"/>
    <path id="Trazado_114327" data-name="Trazado 114327" d="M678.666,464.553l-.018,4.946a5.77,5.77,0,0,1-2.459.547c-3.136,0-6.257-5.041-6.356-5.671Z" transform="translate(-553.247 -383.548)" fill="#de6b4d"/>
    <path id="Trazado_114328" data-name="Trazado 114328" d="M671.244,410.789s-8.735,1.779-9.759-3.678-2.841-8.9,2.693-10.269,7.011.512,7.8,2.25,1.516,11.094-.73,11.7" transform="translate(-545.423 -327.382)" fill="#ee805f"/>
    <path id="Trazado_114329" data-name="Trazado 114329" d="M662.224,379.968a18.313,18.313,0,0,1-5.313-1.429c-2.334-1.011-5.276.111-6.23.616a1.424,1.424,0,0,1,.232-.575,1.282,1.282,0,0,0-.491.73c-.044.033-.064.055-.053.063a1.642,1.642,0,0,0-.8.053s.219-.032.3.109a.133.133,0,0,0,.035.039c-3.636,1.764-3.963,7.515-2.79,8.844a29.19,29.19,0,0,1,3.106,5.2,3.091,3.091,0,0,0,.356-2.261c-.258-1.408.959-1.41,2.494-2.053s.252-2.434,1.6-3.525,6.275-.458,6.21-1.29c1.829-.67,1.35-4.334,1.349-4.521" transform="translate(-533.98 -312.316)" fill="#151f2c"/>
    <path id="Trazado_114330" data-name="Trazado 114330" d="M632.071,608.047c-.418-2.827-1.415-6.417-1.882-9.47-.388-2.54-.761-6.627-1.053-9.294,0-.034-.008-.069-.011-.1.019.009.05.06.07.035.965-1.172,3.6-2.454,6.787,2.214.636.93,3.241,6.647,3.148,7.82-.424,5.342-7.059,8.8-7.059,8.8" transform="translate(-519.624 -485.754)" fill="#2b6eb2"/>
    <path id="Trazado_114331" data-name="Trazado 114331" d="M657.878,641.407a2.651,2.651,0,0,1,.336-1.613s.409-.265.951-.574a5.542,5.542,0,0,1,2.417-.92c.09.016.211.043.355.078,1.189.285,3.961,1.139,4.379,1.639.345.411.815.935,1.139,1.39Z" transform="translate(-543.352 -527.194)" fill="#ee805f"/>
    <path id="Trazado_114332" data-name="Trazado 114332" d="M557.525,532.369H534.181a1.415,1.415,0,0,1,.018-.785c.7-1.759,2.055-4.654,3.62-7.761,1.151-2.285,2.413-4.686,3.6-6.832a48.222,48.222,0,0,1,4.059-6.5,10.541,10.541,0,0,1,2.512-2.035,17.678,17.678,0,0,1,2.343-1.17h0c.053-.023.106-.044.159-.065a20.651,20.651,0,0,1,2.914-.948s.018.738.019,1.872c.005,3.29-.121,9.921-1.171,11.539a21.639,21.639,0,0,1-1.519,1.931l-.059.068c-.369.432-.778.9-1.207,1.376-2.437,2.729-5.522,5.935-5.9,6.325l-.039.04h.045l6.546.091,2.008.027,4.163.058a1.576,1.576,0,0,1,.683.58,4.215,4.215,0,0,1,.545,2.186" transform="translate(-441.167 -418.156)" fill="#43a1f6"/>
    <path id="Trazado_114333" data-name="Trazado 114333" d="M806.312,609.406c-2.483,1.152-17.247,2.12-18.666,1.711-.727-.21-3.771-2.891-6.834-6.19.151.02,1.552-2.314,7.938,3.272,0,0,1.672.744,6.224.328s10.4-.57,11.338.879" transform="translate(-644.909 -499.252)" fill="#2b6eb2"/>
    <path id="Trazado_114334" data-name="Trazado 114334" d="M358.139,936.814c.1,1.4,2.082,1.418,4.328,1.157s1.649.308,4.793.352,4.229-1,4.381-1.445c.136-.4-1.379-.734-3-1.129-.2-.049-.408-.1-.613-.152-1.827-.465-3.037-1.832-4.6-3.026-1.481-1.131-3.39-5.224-3.39-5.224l-4.3-.194s1.809,3.669,2.488,5.251a5.18,5.18,0,0,1,.056,2.951,5.5,5.5,0,0,0-.149,1.459" transform="translate(-293.825 -765.779)" fill="#ee805f"/>
    <path id="Trazado_114335" data-name="Trazado 114335" d="M373.795,976.891c2.246-.261,1.649.308,4.793.352s4.229-1,4.381-1.445c.136-.4-1.379-.734-3-1.129l-.019.03a8.813,8.813,0,0,1-4.614.826c-2.111-.211-4.264-1.093-5.721-1.25a5.5,5.5,0,0,0-.149,1.459c.1,1.4,2.082,1.418,4.328,1.157" transform="translate(-305.153 -804.7)" fill="#151f2c"/>
    <path id="Trazado_114336" data-name="Trazado 114336" d="M199.01,924.85c.1,1.4,2.081,1.42,4.327,1.162s1.648.31,4.793.357,4.229-.991,4.382-1.44c.136-.4-1.378-.736-3-1.132-.2-.049-.408-.1-.613-.153-1.827-.466-3.035-1.835-4.6-3.03-1.48-1.133,0-7.837,0-7.837l-4.725-.46s.227,5.645.223,8.212a14.449,14.449,0,0,1-.642,2.864,5.5,5.5,0,0,0-.15,1.459" transform="translate(-164.365 -753.525)" fill="#ee805f"/>
    <path id="Trazado_114337" data-name="Trazado 114337" d="M203.337,978.568c2.246-.258,1.648.309,4.793.357s4.23-.991,4.382-1.441c.136-.4-1.378-.736-3-1.132l-.019.03a8.812,8.812,0,0,1-4.615.822c-2.111-.214-4.263-1.1-5.719-1.256a5.5,5.5,0,0,0-.15,1.459c.1,1.4,2.081,1.42,4.327,1.162" transform="translate(-164.365 -806.081)" fill="#151f2c"/>
    <path id="Trazado_114338" data-name="Trazado 114338" d="M168.828,275.1c.813-3.345-.366-4.9-1.429-5.733a5.071,5.071,0,0,0-1.669-2.453,6.026,6.026,0,0,0-3.261-.624,1.525,1.525,0,0,1,.688-.326,5.058,5.058,0,0,0-1.8.471c-7.764-2.992-8.984,8.44-8.821,11.1s.14,5.784-3.9,7.876c-7.707,3.993,2.561,19.039,2.561,19.039-.2-2.146,9.707-13.472,14.873-16.864a14.934,14.934,0,0,0,1.738-5.38,14.122,14.122,0,0,1-1.057,4.867c2.355-2.167,2.7-7.371,2.08-11.968" transform="translate(-120.393 -219.649)" fill="#151f2c"/>
    <path id="Trazado_114339" data-name="Trazado 114339" d="M225.94,354.947c.026.012-2.495,1.32-4.39.8-1.783-.486-2.948-2.8-2.924-2.8.755-.15.973-1.188.957-5.647l.341.067,5.74,1.137s-.131,1.807-.135,3.508c0,1.429.083,2.784.41,2.937" transform="translate(-180.573 -286.85)" fill="#ee805f"/>
    <path id="Trazado_114340" data-name="Trazado 114340" d="M231.827,348.821s-.131,1.807-.135,3.508c-3.212-.09-4.91-3.021-5.606-4.645Z" transform="translate(-186.736 -287.169)" fill="#de6b4d"/>
    <path id="Trazado_114341" data-name="Trazado 114341" d="M236.373,637.659a1.409,1.409,0,0,1-1.276,1.835l-2.243.1-2.373.073a1.905,1.905,0,0,1-1.536-.7,66.712,66.712,0,0,1-11.26-21.319q-.149-.473-.315-.958c-2.336-6.81-7.177-15.358-9.729-23.095-.406-1.232-.771-2.392-1.1-3.49-.1-.352-.207-.7-.3-1.037a82.058,82.058,0,0,1-2.927-15.406l18.424.147a405.845,405.845,0,0,0,14.636,63.846" transform="translate(-167.926 -473.817)" fill="#43a1f6"/>
    <path id="Trazado_114342" data-name="Trazado 114342" d="M197.713,400.386c-.046,8.767,1.286,12.529,1.286,12.529a24.758,24.758,0,0,1-17.264,1.057c-.11-.035-2.575-14.485-2.34-15.792a27.8,27.8,0,0,0,.228-7.345,58.952,58.952,0,0,0-2.273-11.535,59.857,59.857,0,0,0,7.606-2.6,5.941,5.941,0,0,0,4.1,1.522c1.867-.041,2.473-.841,2.376-1.714,1.99,1.107,3.578,2.154,3.578,2.154,1.691,2.938,5.122,5.791,5.37,10.3.061,1.108-2.668,11.179-2.669,11.425" transform="translate(-146.481 -310.977)" fill="#b8c0c7"/>
    <path id="Trazado_114343" data-name="Trazado 114343" d="M173.934,447c-.806,1.14-2.35,8.068-6.191,8.939,1.98-4.938,3.482-7.1,3.717-8.621a37.449,37.449,0,0,0,.228-8.532c1.286-2.254,2.246-3.8,2.246-3.8.1-.364,2.043-6.371,2.666-1A24.811,24.811,0,0,1,173.934,447" transform="translate(-138.547 -356.617)" fill="#5f9aa8"/>
    <path id="Trazado_114344" data-name="Trazado 114344" d="M278.333,385.179a15.676,15.676,0,0,1,3.885,2.947c1.152,1.464,7.9,13.59,7.9,14.8s-6.849.421-6.849.421Z" transform="translate(-229.888 -318.137)" fill="#384152"/>
    <path id="Trazado_114345" data-name="Trazado 114345" d="M228.736,302.617s-7.6.125-7.605-4.609-.99-7.906,3.863-8.187,5.8,1.525,6.183,3.1-.464,9.536-2.44,9.69" transform="translate(-182.572 -239.353)" fill="#ee805f"/>
    <path id="Trazado_114346" data-name="Trazado 114346" d="M216.859,284.727s-2.081,5.554-5.275,6.375-4.579-.034-4.579-.034a9.042,9.042,0,0,0,2.958-5.343s5.326-3.642,6.9-1" transform="translate(-170.976 -234.375)" fill="#151f2c"/>
    <path id="Trazado_114347" data-name="Trazado 114347" d="M260.652,287.586a6.712,6.712,0,0,1,1.933,2.445c.379,1.206.549,3.687,1.273,3.6,0,0,1.568-3.775-.194-5.911-1.868-2.264-3.011-.138-3.011-.138" transform="translate(-215.285 -236.783)" fill="#151f2c"/>
    <path id="Trazado_114348" data-name="Trazado 114348" d="M258.271,376.51s4.4,10.863,4.526,13.061.517,35.95.517,35.95-.259,1.552,2.716.905,3.75-1.293,3.75-1.293-2.845-20.82-2.069-28.062-5.949-19.053-5.949-19.053Z" transform="translate(-213.318 -310.977)" fill="#384152"/>
    <path id="Trazado_114349" data-name="Trazado 114349" d="M246.741,702.935l-2.576.079a1.489,1.489,0,0,1-1.195-.539,66.491,66.491,0,0,1-11.4-21.487q-.149-.473-.316-.958c-2.335-6.81-7.177-15.358-9.729-23.095-.406-1.232-.771-2.392-1.1-3.49-.1-.352-.207-.7-.3-1.037l2.713-2.059s8.146,13.19,10.667,25.6c2.191,10.782,10.963,23.757,13.234,26.983" transform="translate(-181.812 -537.153)" fill="#2b6eb2"/>
    <path id="Trazado_114350" data-name="Trazado 114350" d="M170.383,660.5c.044,5.71-.227,18.439-.922,24.661a1.124,1.124,0,0,1-1.118,1h-1.922c-.81,0-1.416-.006-1.819-.012a.74.74,0,0,1-.713-.6c-1.911-9.728-3.28-17.81-4.281-24.793-.838-5.845-1.583-10.856-2.156-15.17-.577-4.341-.978-7.976-1.121-11.047-.022-.484-.039-.954-.048-1.411s-.011-.905-.008-1.338l15.919-1.552c-.2,10.577-1.836,26.752-1.81,30.26" transform="translate(-129.073 -520.541)" fill="#43a1f6"/>
    <path id="Trazado_114351" data-name="Trazado 114351" d="M166.693,706.565c-.728,0-1.291,0-1.69-.01a.9.9,0,0,1-.867-.724c-1.9-9.672-3.259-17.714-4.257-24.667-.838-5.845-1.583-10.856-2.156-15.17-.577-4.341-.978-7.976-1.121-11.047l5.841,3.436s-3.728,1.315-2.306,11.273,4.575,35.5,6.555,36.911" transform="translate(-129.345 -540.951)" fill="#2b6eb2"/>
    <path id="Trazado_114352" data-name="Trazado 114352" d="M150.577,425.925s-1.121,4.051-5,3.534a46.758,46.758,0,0,1-9.4-2.845s1.658-5.239,3.719-12.121c2.5-8.332,5.585-19.073,7.041-25.848a41.9,41.9,0,0,0,.791-4.619l3.219-6.245s4.8,10.771,5.058,13.486-5.431,34.657-5.431,34.657" transform="translate(-112.477 -312.028)" fill="#384152"/>
    <path id="Trazado_114353" data-name="Trazado 114353" d="M168.054,448.512c-.173,4.4-1.208,12.932-10.432,17.5-.025.012-.049.025-.074.035,2.5-8.332,5.585-19.073,7.041-25.848,1.694,2.532,3.559,5.892,3.464,8.313" transform="translate(-130.126 -363.581)" fill="#151f2c"/>
    <path id="Trazado_114354" data-name="Trazado 114354" d="M164.462,390.864l4.248-13.082a65.519,65.519,0,0,0-8.058,2.954s-1.683,2.17-2.725,7.177c0,0-1.1,12.02,1.357,16.417,0,0,7.759,1.552,20.173-2.716v-2.845s-13.578.711-16.359,1.035Z" transform="translate(-130.236 -312.028)" fill="#ee805f"/>
    <path id="Trazado_114355" data-name="Trazado 114355" d="M166.754,377.782s-7.875.555-9.771,4.779-2.5,18.277-.086,22.415c0,0,3.324.946,9.2-.152l.217-.041s1.875-4.591.194-5.5c0,0-4.957.259-4.44-1.379s4.685-20.125,4.685-20.125" transform="translate(-128.28 -312.028)" fill="#384152"/>
    <path id="Trazado_114356" data-name="Trazado 114356" d="M271.535,489.384l-.232.745-12.921-4.02a.5.5,0,0,1-.087-.457.365.365,0,0,1,.319-.289Z" transform="translate(-213.318 -400.885)" fill="#a9453d"/>
    <path id="Trazado_114357" data-name="Trazado 114357" d="M334.312,509.163l-.935-.7-.232.745Z" transform="translate(-275.161 -419.96)" fill="#a9453d"/>
    <path id="Trazado_114358" data-name="Trazado 114358" d="M277.093,490.972s2.931-1.805,4.161-1.528,4.364,2.548,2.856,3.039-2.728-.024-3.308.333-1.008,1.01-3.709,1,0-2.845,0-2.845" transform="translate(-227.872 -404.231)" fill="#ee805f"/>
    <path id="Trazado_114359" data-name="Trazado 114359" d="M276.6,497.524l13.427.005,5.168-19.522-13.426,0Z" transform="translate(-228.461 -394.804)" fill="#151f2c"/>
    <path id="Trazado_114360" data-name="Trazado 114360" d="M306.342,470.271s-1.028.168-.581,1.345h4.584l-1.467-1.345Z" transform="translate(-252.45 -388.419)" fill="#9db0f4"/>
    <path id="Trazado_114361" data-name="Trazado 114361" d="M309.632,470.271a3.107,3.107,0,0,1,2.727,1.631c.859,1.993.492,7.562.492,7.562h10.772s1.7-6.544-1.855-9.193Z" transform="translate(-255.74 -388.419)" fill="#fff"/>
    <path id="Trazado_114362" data-name="Trazado 114362" d="M357.63,530.4s-1.622-1.215-2.123-.514.386,4.274,1.446,4.01,1.073-2.769.677-3.5" transform="translate(-293.511 -437.48)" fill="#ee805f"/>
    <path id="Trazado_114363" data-name="Trazado 114363" d="M488.893,724.273h-.03c-.177,0-.32-.393-.316-.872l.478-55.97,1.409-.444-1.2,56.418c-.01.487-.16.867-.34.867" transform="translate(-403.514 -550.897)" fill="#151f2c"/>
    <path id="Trazado_114364" data-name="Trazado 114364" d="M471,659.427h81.785a1.176,1.176,0,0,0,1.175-1.175v-1.026a1.175,1.175,0,0,0-1.175-1.175H471a1.175,1.175,0,0,0-1.175,1.175v1.026A1.175,1.175,0,0,0,471,659.427" transform="translate(-388.049 -541.863)" fill="#151f2c"/>
    <path id="Trazado_114365" data-name="Trazado 114365" d="M1524.433,724.273h.03c.177,0,.319-.393.315-.872l-.478-55.97-1.41-.444,1.2,56.418c.01.487.16.867.341.867" transform="translate(-1257.827 -550.897)" fill="#151f2c"/>
    <path id="Trazado_114366" data-name="Trazado 114366" d="M907.715,659.427H1016.9a1.356,1.356,0,0,0,1.355-1.356v-.666a1.356,1.356,0,0,0-1.355-1.356H907.715a1.356,1.356,0,0,0-1.356,1.356v.666a1.356,1.356,0,0,0,1.356,1.356" transform="translate(-748.605 -541.863)" fill="#151f2c"/>
    <path id="Trazado_114367" data-name="Trazado 114367" d="M770.869,649.553H753.99a1.346,1.346,0,0,1,1.345-1.346h15.534Z" transform="translate(-622.756 -535.385)" fill="#384152"/>
    <path id="Trazado_114368" data-name="Trazado 114368" d="M846.277,550.318,840.018,568.7H813.753l6.429-18.383Z" transform="translate(-672.117 -454.534)" fill="#384152"/>
    <path id="Trazado_114369" data-name="Trazado 114369" d="M848.1,550.318l-6.2,18.213-.057.17H815.958l6.429-18.383Z" transform="translate(-673.938 -454.534)" fill="#384152"/>
    <path id="Trazado_114370" data-name="Trazado 114370" d="M909.765,596.118a1.7,1.7,0,0,1-1.565,1.272.979.979,0,0,1-.978-1.272,1.7,1.7,0,0,1,1.565-1.272.979.979,0,0,1,.978,1.272" transform="translate(-749.289 -491.311)" fill="#43a1f6"/>
    <path id="Trazado_114371" data-name="Trazado 114371" d="M1027.932,550.318l6.3,18.4,26.224-.02-6.429-18.383Z" transform="translate(-849.017 -454.534)" fill="#151f2c"/>
    <path id="Trazado_114372" data-name="Trazado 114372" d="M1032.223,552.639l6.057,17.813.056.166h25.281l-6.28-17.979Z" transform="translate(-852.562 -456.451)" fill="#f4f4f4"/>
    <path id="Trazado_114373" data-name="Trazado 114373" d="M1062.344,649.571l36.626-.02a1.346,1.346,0,0,0-1.345-1.346h-35.657Z" transform="translate(-877.129 -535.384)" fill="#151f2c"/>
    <path id="Trazado_114374" data-name="Trazado 114374" d="M1186.945,949.984s-.37,5.759-1.484,5.839c-.148.011-5.651,0-5.651,0l-7.025-.056a2.279,2.279,0,0,1,2.1-2.046c2.054-.354,5.495-1.789,6.744-4.5,1.315-2.852,5.312.765,5.312.765" transform="translate(-968.658 -783.1)" fill="#151f2c"/>
    <path id="Trazado_114375" data-name="Trazado 114375" d="M1242.662,686.678c.268.226,7.423,7.978,6.839,13.933a3.435,3.435,0,0,1-3.436,3.064h-8.715s-8.893,1.589-9.105,3.511-2.032,12.281-5.638,27c0,0-2.657.915-4.269.261-2.132-.864-2.441-1.781-2.441-1.781s2.15-32.964,3.847-35.284,19.179-9.217,24.84-9.9-1.921-.8-1.921-.8" transform="translate(-1004.267 -567.16)" fill="#151f2c"/>
    <path id="Trazado_114376" data-name="Trazado 114376" d="M1041.052,636.958s-5.057-1.176-6.35,0a6.374,6.374,0,0,0-1.705,2.881h8.056Z" transform="translate(-853.2 -525.662)" fill="#ee805f"/>
    <path id="Trazado_114377" data-name="Trazado 114377" d="M1116.206,949.984s-.37,5.759-1.484,5.839c-.148.011-5.651,0-5.651,0l-7.025-.056a2.279,2.279,0,0,1,2.1-2.046c2.054-.354,5.494-1.789,6.744-4.5,1.315-2.852,5.312.765,5.312.765" transform="translate(-910.232 -783.1)" fill="#151f2c"/>
    <path id="Trazado_114378" data-name="Trazado 114378" d="M1192.508,686.678a47.884,47.884,0,0,1,2.786,9.07,6.529,6.529,0,0,1-6.376,7.926h-20.274s-8.893,1.589-9.1,3.511-2.032,12.281-5.638,27a8.487,8.487,0,0,1-4.749-.19,5.878,5.878,0,0,1-1.981-1.608s2.168-32.685,3.865-35.005,19.179-9.217,24.84-9.9,16.631-.8,16.631-.8" transform="translate(-947.503 -567.16)" fill="#384152"/>
    <path id="Trazado_114379" data-name="Trazado 114379" d="M1302.847,480.151l-3.135,3.01-5.342,0c-.006-.43.012-2.221.031-3.844,0-.1,0-.191,0-.285,0-.36.009-.708.013-1.025.011-.894.02-1.542.02-1.542l1.373-.939,3.051-2.089,1.65-1.128c0,.028.137,1.5.157,1.718a12.514,12.514,0,0,0,2.179,6.123" transform="translate(-1069.08 -390.103)" fill="#ee805f"/>
    <path id="Trazado_114380" data-name="Trazado 114380" d="M1288.485,502.727c.1-.043,5.882-2.636,6.558-2.413s1.519,2.288,1.519,2.288l-10.178,2.3a5.056,5.056,0,0,1,2.1-2.176" transform="translate(-1062.485 -413.222)" fill="#2b6eb2"/>
    <path id="Trazado_114381" data-name="Trazado 114381" d="M1142.428,530.971c-1.1-6.791-5.751-11.874-7.741-13.779-1.336-2.01-9.183-3.668-9.183-3.668l-10.178,2.3a12.971,12.971,0,0,0-8.972,5.973c-2,3.309-7.731,10.878-11.494,11.113s-15.582,2.528-15.582,2.528v2.907l18.018.495a3.079,3.079,0,0,0,.656-.052c1.551-.293,8.2-1.613,11.5-3.334.528,8.511,1.152,21.508,4.124,23.572,3.144,2.183,25.255,2.475,27.6-.852,1.2-1.7-.271-11.785-2.107-21.507,2.282-1.086,3.823-2.85,3.361-5.7" transform="translate(-891.427 -424.144)" fill="#43a1f6"/>
    <path id="Trazado_114382" data-name="Trazado 114382" d="M1299.887,489.013l-.272.169a21.869,21.869,0,0,1-4.967,2.622c.011-.894.02-1.543.02-1.543l1.373-.939Z" transform="translate(-1069.311 -403.899)" fill="#de6b4d"/>
    <path id="Trazado_114383" data-name="Trazado 114383" d="M1274.971,431.643s8.22.972,8.747-4.156,1.943-8.457-3.283-9.294-6.448,1.014-7.04,2.683-.547,10.382,1.577,10.767" transform="translate(-1051.486 -345.233)" fill="#ee805f"/>
    <path id="Trazado_114384" data-name="Trazado 114384" d="M1270.839,406.908s1.552,5.563,2.675,5.1,2.151-.844,2.3.893.8,3.773,4.461,3.4,5.2-10.4,3.881-11.976c-3.806-4.545-18.6-2.842-13.315,2.582" transform="translate(-1048.714 -331.79)" fill="#151f2c"/>
    <path id="Trazado_114385" data-name="Trazado 114385" d="M1242.747,768.767h40.66a2.8,2.8,0,0,0,2.8-2.8v-1.818h-43.456Z" transform="translate(-1026.443 -631.15)" fill="#77a4e5"/>
    <path id="Trazado_114386" data-name="Trazado 114386" d="M1204.942,768.767H1235.7a2.068,2.068,0,0,0,2.068-2.067v-.479a2.068,2.068,0,0,0-2.068-2.068h-30.761a2.067,2.067,0,0,0-2.067,2.068v.479a2.067,2.067,0,0,0,2.067,2.067" transform="translate(-993.511 -631.15)" fill="#b8c0c7"/>
    <path id="Trazado_114387" data-name="Trazado 114387" d="M1358.812,824.038h2.623l.736-33.374h-4.006Z" transform="translate(-1121.771 -653.047)" fill="#b8c0c7"/>
    <path id="Trazado_114388" data-name="Trazado 114388" d="M1296.4,965.911h25.507v-2.3l-13-1.172-12.506,1.172Z" transform="translate(-1070.758 -794.921)" fill="#b8c0c7"/>
    <path id="Trazado_114389" data-name="Trazado 114389" d="M1437.269,970.374a2.1,2.1,0,1,0-2.1,2.1,2.1,2.1,0,0,0,2.1-2.1" transform="translate(-1183.643 -799.745)" fill="#b8c0c7"/>
    <path id="Trazado_114390" data-name="Trazado 114390" d="M1290.723,970.374a2.1,2.1,0,1,0-2.1,2.1,2.1,2.1,0,0,0,2.1-2.1" transform="translate(-1062.603 -799.745)" fill="#b8c0c7"/>
    <path id="Trazado_114391" data-name="Trazado 114391" d="M1291.261,792.854h23.678a2.19,2.19,0,0,0,2.189-2.19h-28.057a2.189,2.189,0,0,0,2.189,2.19" transform="translate(-1064.705 -653.047)" fill="#b8c0c7"/>
    <path id="Trazado_114392" data-name="Trazado 114392" d="M1308.758,585.877a2,2,0,0,0,2-2V553.149c0-5.759-3.765-10.427-8.41-10.427h-19.017c-4.645,0-8.41,4.669-8.41,10.427v32.728Z" transform="translate(-1053.015 -448.26)" fill="#b8c0c7"/>
    <path id="Trazado_114393" data-name="Trazado 114393" d="M1318.721,585.877a3.641,3.641,0,0,0,3.641-3.641V553.149c0-5.759-3.765-10.427-8.41-10.427h-19.017c-4.645,0-8.41,4.669-8.41,10.427v32.728Z" transform="translate(-1062.603 -448.26)" fill="#677282"/>
    <path id="Trazado_114394" data-name="Trazado 114394" d="M362.091,990.5v.154c0,.245-.143.447-.318.447H82.028c-.174,0-.318-.2-.318-.447V990.5c0-.245.143-.447.318-.447H361.773c.174,0,.318.2.318.447" transform="translate(-67.488 -817.731)" fill="#151f2c"/>
  </g>
</svg>
