<svg xmlns="http://www.w3.org/2000/svg" width="39.193" height="39.187" viewBox="0 0 39.193 39.187">
  <g id="_010-graphics_card" data-name="010-graphics card" transform="translate(0 -0.048)">
    <path id="Trazado_132107" data-name="Trazado 132107" d="M128.8,159.347a8.813,8.813,0,0,0,8.8-8.8c-.443-11.663-17.166-11.659-17.606,0A8.813,8.813,0,0,0,128.8,159.347Zm6.507-8.8a6.5,6.5,0,0,1-2.691,5.266,3.821,3.821,0,0,0-1.175-3.057,3.429,3.429,0,0,0,.8-2.209A1.531,1.531,0,0,1,135.31,150.544Zm-6.507-6.507a6.5,6.5,0,0,1,5.266,2.691,3.82,3.82,0,0,0-3.057,1.175,3.429,3.429,0,0,0-2.209-.8A1.531,1.531,0,0,1,128.8,144.037Zm1.148,6.507A1.148,1.148,0,1,1,128.8,149.4,1.15,1.15,0,0,1,129.951,150.544Zm-1.148,3.445a1.531,1.531,0,0,1,0,3.062,6.5,6.5,0,0,1-5.266-2.691,3.821,3.821,0,0,0,3.057-1.175A3.429,3.429,0,0,0,128.8,153.989Zm-3.815-8.711a3.821,3.821,0,0,0,1.175,3.057,3.429,3.429,0,0,0-.8,2.209,1.531,1.531,0,0,1-3.062,0A6.5,6.5,0,0,1,124.988,145.278Z" transform="translate(-110.814 -130.899)" fill="#11578e"/>
    <path id="Trazado_132108" data-name="Trazado 132108" d="M38.045,5.483H6.889V1.2A1.148,1.148,0,0,0,5.741.048H1.148a1.148,1.148,0,0,0,0,2.3H4.593V7.779H1.148A1.148,1.148,0,0,0,0,8.928v6.124A1.148,1.148,0,0,0,1.148,16.2H4.593v2.3H1.148A1.148,1.148,0,0,0,0,19.645v6.124a1.148,1.148,0,0,0,1.148,1.148H4.593V38.093a1.148,1.148,0,0,0,2.3,0V33.806h8.42v3.445A1.148,1.148,0,0,0,16.458,38.4H34.83a1.148,1.148,0,0,0,1.148-1.148V33.806h2.067a1.148,1.148,0,0,0,1.148-1.148V6.631a1.148,1.148,0,0,0-1.148-1.148ZM4.593,24.62H2.3V20.793h2.3Zm0-10.717H2.3V10.076h2.3ZM19.9,36.1h-2.3v-2.3h2.3Zm4.593,0H22.2v-2.3h2.3Zm4.593,0h-2.3v-2.3h2.3Zm4.593,0h-2.3v-2.3h2.3ZM36.9,31.51H6.889V7.779H36.9Z" fill="#11578e"/>
    <path id="Trazado_132109" data-name="Trazado 132109" d="M382.236,333.345H385.3a1.148,1.148,0,0,0,0-2.3h-3.062A1.148,1.148,0,0,0,382.236,333.345Z" transform="translate(-351.922 -305.662)" fill="#11578e"/>
    <path id="Trazado_132110" data-name="Trazado 132110" d="M382.236,273.345H385.3a1.148,1.148,0,0,0,0-2.3h-3.062A1.148,1.148,0,0,0,382.236,273.345Z" transform="translate(-351.922 -250.255)" fill="#11578e"/>
    <path id="Trazado_132111" data-name="Trazado 132111" d="M382.236,213.344H385.3a1.148,1.148,0,0,0,0-2.3h-3.062A1.148,1.148,0,0,0,382.236,213.344Z" transform="translate(-351.922 -194.848)" fill="#11578e"/>
    <path id="Trazado_132112" data-name="Trazado 132112" d="M382.236,153.344H385.3a1.148,1.148,0,0,0,0-2.3h-3.062A1.148,1.148,0,0,0,382.236,153.344Z" transform="translate(-351.922 -139.441)" fill="#11578e"/>
  </g>
</svg>
