<svg xmlns="http://www.w3.org/2000/svg" width="78" height="78" viewBox="0 0 78 78">
  <g id="Grupo_209854" data-name="Grupo 209854" transform="translate(-213 -3910)">
    <circle id="Elipse_4901" data-name="Elipse 4901" cx="39" cy="39" r="39" transform="translate(213 3910)" fill="#fff" opacity="0.6"/>
    <g id="Grupo_209853" data-name="Grupo 209853">
      <circle id="Elipse_4899" data-name="Elipse 4899" cx="16" cy="16" r="16" transform="translate(236 3933)" fill="#f7cb50"/>
      <path id="Trazado_141302" data-name="Trazado 141302" d="M5.237,18.373H1.9L1.379,6.227H5.762ZM1.257,22.157a1.894,1.894,0,0,1,.653-1.483,2.365,2.365,0,0,1,1.63-.58,2.365,2.365,0,0,1,1.63.58,2.011,2.011,0,0,1,0,2.966,2.365,2.365,0,0,1-1.63.58,2.365,2.365,0,0,1-1.63-.58A1.894,1.894,0,0,1,1.257,22.157Z" transform="translate(249 3935)" fill="#1b3f5e"/>
    </g>
  </g>
</svg>
