<svg id="Grupo_210939" data-name="Grupo 210939" xmlns="http://www.w3.org/2000/svg" xmlns:xlink="http://www.w3.org/1999/xlink" width="94.182" height="94" viewBox="0 0 94.182 94">
  <defs>
    <clipPath id="clip-path">
      <rect id="Rectángulo_66406" data-name="Rectángulo 66406" width="94.182" height="94" fill="none"/>
    </clipPath>
  </defs>
  <g id="Grupo_210939-2" data-name="Grupo 210939" clip-path="url(#clip-path)">
    <path id="Trazado_132158" data-name="Trazado 132158" d="M.354,52.968a46.593,46.593,0,0,0,6.6,18.743,49.771,49.771,0,0,0,7.362,9.2,1.572,1.572,0,0,0,.89.61c.229-.247.042-.594.2-.86A31.657,31.657,0,0,1,35.314,52.232c.253-.1.5-.228.743-.343h0A19.412,19.412,0,0,1,40.7,17.542a22.256,22.256,0,0,1,6.4-1.111V.133A44.368,44.368,0,0,0,25.469,5.377C11.264,13.027,2.912,24.88.411,40.811.237,41.923.135,43.046,0,44.164v6.426a.686.686,0,0,1,.059.127,6.966,6.966,0,0,1,.295,2.252" transform="translate(0 -0.1)" fill="#fea920"/>
    <path id="Trazado_132159" data-name="Trazado 132159" d="M62.707,328.334a2.148,2.148,0,0,0-.015.328,2.236,2.236,0,0,0,.015-.328" transform="translate(-47.309 -247.774)" fill="#fea920"/>
    <path id="Trazado_132160" data-name="Trazado 132160" d="M191.907,66.6l-.016-.034-.021.034h.037" transform="translate(-144.793 -50.23)" fill="#fea920"/>
    <path id="Trazado_132161" data-name="Trazado 132161" d="M238.854,39.854A47.207,47.207,0,0,0,201.138.8,36.46,36.46,0,0,0,192.4.03a.5.5,0,0,1,.132.159,2.545,2.545,0,0,1,.176,1.253q.017,6.754,0,13.508a2.792,2.792,0,0,1-.141,1.166.879.879,0,0,1-.137.251A18.634,18.634,0,0,1,205.1,21.156a18.831,18.831,0,0,1,6.375,11.25,19.032,19.032,0,0,1-3.763,15.264,24.055,24.055,0,0,1-4.26,4.141,33.027,33.027,0,0,1,11.473,7.53,31.289,31.289,0,0,1,8.833,18.083c.185,1.4.226,2.8.345,4.2a43.926,43.926,0,0,0,8.907-10.98,45.831,45.831,0,0,0,6.181-19.4c.013-.151.008-.307.183-.379V43.329a.681.681,0,0,1-.1-.357,31.21,31.21,0,0,1-.415-3.119" transform="translate(-145.191 0)" fill="#fe8800"/>
    <path id="Trazado_132162" data-name="Trazado 132162" d="M192.089,16.46a.873.873,0,0,0,.137-.251,2.792,2.792,0,0,0,.141-1.166q.019-6.754,0-13.508a2.547,2.547,0,0,0-.176-1.253.5.5,0,0,0-.132-.158l-.11,0v16.3l.016.034h.122" transform="translate(-144.853 -0.093)" fill="#fe8800"/>
    <path id="Trazado_132163" data-name="Trazado 132163" d="M196.045,253.418c1.088-.147,2.178-.286,3.26-.465a46.162,46.162,0,0,0,24.36-11.809l-.025-.009a2.77,2.77,0,0,1-.518-1.979,31.417,31.417,0,0,0-18.9-26.842c-.49-.207-1.118-.291-1.286-.937a21.626,21.626,0,0,1-6.916,2.923,15.939,15.939,0,0,1-4.158.428l-.03.058q0,18.675,0,37.351c0,.459.014.917.021,1.376h3.5a1.122,1.122,0,0,1,.694-.095" transform="translate(-144.765 -159.513)" fill="#4b5be5"/>
    <path id="Trazado_132164" data-name="Trazado 132164" d="M257.484,236.776a31.289,31.289,0,0,0-8.833-18.083,33.029,33.029,0,0,0-11.473-7.53h0l-.088.052c.168.647.8.731,1.286.938A31.416,31.416,0,0,1,257.275,239a2.77,2.77,0,0,0,.518,1.979l.025.009.011-.01c-.118-1.4-.16-2.8-.345-4.2" transform="translate(-178.918 -159.352)" fill="#4b5be5"/>
    <path id="Trazado_132165" data-name="Trazado 132165" d="M94.223,252.577c-.016-.336-.025-.672-.025-1.008q0-17.556,0-35.112A5.182,5.182,0,0,1,94.311,215a2.874,2.874,0,0,1,.124-.278,20.975,20.975,0,0,1-8.791-2.272c-.664-.358-1.305-.759-1.955-1.143-.088.48-.524.627-.9.784A31.257,31.257,0,0,0,63.765,235.75a25.028,25.028,0,0,0-.409,4.183,3.388,3.388,0,0,1-.365.882,2.906,2.906,0,0,0,1.03,1.341,46.951,46.951,0,0,0,25.317,10.979,10.118,10.118,0,0,1,2.713.326h2.575a1.114,1.114,0,0,1-.4-.885" transform="translate(-47.536 -159.462)" fill="#909aee"/>
    <path id="Trazado_132166" data-name="Trazado 132166" d="M83.369,211.076c-.247.115-.489.243-.743.344A31.656,31.656,0,0,0,62.71,239.846a2.168,2.168,0,0,1-.015.328,1.828,1.828,0,0,0,.073.467,3.391,3.391,0,0,0,.365-.882,25,25,0,0,1,.409-4.183,31.254,31.254,0,0,1,19.02-23.658c.38-.158.816-.3.9-.785l-.1-.057" transform="translate(-47.312 -159.287)" fill="#909aee"/>
    <path id="Trazado_132167" data-name="Trazado 132167" d="M190.578,225.239l-.169-.012a2.959,2.959,0,0,0-.124.278,5.184,5.184,0,0,0-.111,1.455q-.007,17.556,0,35.112c0,.336.009.672.025,1.008a1.114,1.114,0,0,0,.4.885c-.007-.459-.021-.917-.021-1.376q0-18.675,0-37.351" transform="translate(-143.51 -169.966)" fill="#909aee"/>
    <path id="Trazado_132168" data-name="Trazado 132168" d="M192.035.055c-.028.007-.057.012-.086.02l.11,0c-.008-.006-.016-.011-.025-.017" transform="translate(-144.853 -0.042)" fill="#fefefe"/>
    <path id="Trazado_132169" data-name="Trazado 132169" d="M62.433,329.668c-.024.219-.067.441-.085.658a.975.975,0,0,0,.158-.192,1.828,1.828,0,0,1-.073-.467" transform="translate(-47.05 -248.781)" fill="#d0c3cb"/>
    <path id="Trazado_132170" data-name="Trazado 132170" d="M321.581,332.66l-.011.01.012,0S321.582,332.665,321.581,332.66Z" transform="translate(-242.67 -251.039)" fill="#fefefe"/>
    <path id="Trazado_132171" data-name="Trazado 132171" d="M133.295,67.344a1.715,1.715,0,0,1-.819.225,22.344,22.344,0,0,0-6.832,1.675,18.827,18.827,0,0,0-8.52,7.4A18.14,18.14,0,0,0,114.26,87a18.719,18.719,0,0,0,6.777,14.109c.494.42,1.172.709,1.35,1.44h0c.407-.18.748.08,1.067.271a18.581,18.581,0,0,0,8.459,2.7,1.616,1.616,0,0,1,1.293.466c.035-.029.071-.055.107-.08q0-18.629-.007-37.258c0-.436-.007-.872-.012-1.308" transform="translate(-86.216 -50.821)" fill="#fedaa8"/>
    <path id="Trazado_132172" data-name="Trazado 132172" d="M121.114,101.963c-.179-.731-.857-1.02-1.35-1.44a18.719,18.719,0,0,1-6.777-14.109,18.138,18.138,0,0,1,2.864-10.362,18.826,18.826,0,0,1,8.52-7.4A22.337,22.337,0,0,1,131.2,66.98a1.715,1.715,0,0,0,.819-.225c0-.053,0-.106,0-.158l.021-.034a22.265,22.265,0,0,0-6.4,1.111A19.413,19.413,0,0,0,121,102.02h0a.827.827,0,0,1,.114-.056h0" transform="translate(-84.943 -50.23)" fill="#fedaa8"/>
    <path id="Trazado_132173" data-name="Trazado 132173" d="M191.518,224.6a1.009,1.009,0,0,1,.077.1l.03-.058v-.126c-.036.025-.072.051-.107.08" transform="translate(-144.527 -169.436)" fill="#fedaa8"/>
    <path id="Trazado_132174" data-name="Trazado 132174" d="M158.185,214.1a1.615,1.615,0,0,0-1.293-.465,18.587,18.587,0,0,1-8.459-2.7c-.319-.191-.66-.451-1.067-.271a.876.876,0,0,1-.018.113c.65.384,1.291.785,1.955,1.143a20.974,20.974,0,0,0,8.791,2.272c0-.007.006-.015.01-.022.027-.025.054-.047.082-.07" transform="translate(-111.194 -158.927)" fill="#fedaa8"/>
    <path id="Trazado_132175" data-name="Trazado 132175" d="M146.957,210.9l.1.057a.876.876,0,0,0,.019-.113.8.8,0,0,0-.114.056" transform="translate(-110.9 -159.113)" fill="#fedaa8"/>
    <path id="Trazado_132176" data-name="Trazado 132176" d="M191.154,224.921c0,.007-.006.015-.01.022l.169.012a1.153,1.153,0,0,0-.077-.1c-.027.023-.055.045-.082.07" transform="translate(-144.245 -169.682)" fill="#fedaa8"/>
    <path id="Trazado_132177" data-name="Trazado 132177" d="M204.566,101.611a18.689,18.689,0,0,0,6.887-11.944,18.254,18.254,0,0,0-3.731-14.393,18.867,18.867,0,0,0-14.127-7.505,1.6,1.6,0,0,1-.784-.159,1.547,1.547,0,0,1,.2.924q.039,18.273,0,36.548a1.687,1.687,0,0,1-.155.888,5.685,5.685,0,0,1,1.637-.234,19.809,19.809,0,0,0,7.532-2.4c.488-.276.958-.825,1.635-.547.038-.59.525-.859.907-1.174" transform="translate(-145.502 -51.021)" fill="#fec373"/>
    <path id="Trazado_132178" data-name="Trazado 132178" d="M191.907,66.7h-.037c.022.015.039.032.058.047l-.022-.047" transform="translate(-144.793 -50.334)" fill="#fec373"/>
    <path id="Trazado_132179" data-name="Trazado 132179" d="M192.262,66.782a.872.872,0,0,1,.134.145,1.6,1.6,0,0,0,.784.159,18.869,18.869,0,0,1,14.127,7.506,18.253,18.253,0,0,1,3.731,14.392,18.688,18.688,0,0,1-6.887,11.944c-.382.315-.869.584-.907,1.174.034.014.068.028.1.047h0a24.057,24.057,0,0,0,4.26-4.142,19.032,19.032,0,0,0,3.763-15.264A18.83,18.83,0,0,0,205,71.495a18.633,18.633,0,0,0-12.672-4.789.781.781,0,0,1-.063.077" transform="translate(-145.089 -50.339)" fill="#fec373"/>
    <path id="Trazado_132180" data-name="Trazado 132180" d="M192.041,66.748l.038.031a.778.778,0,0,0,.063-.077h-.122l.022.047" transform="translate(-144.905 -50.335)" fill="#fec373"/>
    <path id="Trazado_132181" data-name="Trazado 132181" d="M203.013,210.738c-.677-.278-1.147.271-1.635.547a19.8,19.8,0,0,1-7.532,2.4,5.677,5.677,0,0,0-1.637.234.841.841,0,0,1-.254.266,15.94,15.94,0,0,0,4.158-.428,21.625,21.625,0,0,0,6.916-2.923c-.007-.025-.014-.05-.019-.077,0-.008,0-.014,0-.022" transform="translate(-144.856 -158.974)" fill="#fec373"/>
    <path id="Trazado_132182" data-name="Trazado 132182" d="M237.12,211.02h0c-.035-.018-.07-.033-.1-.047,0,.008,0,.014,0,.022.005.027.013.052.019.077l.088-.052" transform="translate(-178.86 -159.209)" fill="#fec373"/>
    <path id="Trazado_132183" data-name="Trazado 132183" d="M192.3,68.132a1.546,1.546,0,0,0-.2-.924.7.7,0,0,1-.15-.127l0,0a.718.718,0,0,1-.078.065c0,.436.012.872.012,1.308q0,18.629.007,37.258a1.555,1.555,0,0,1,.255-.141,1.693,1.693,0,0,0,.155-.888q.034-18.274,0-36.548" transform="translate(-144.798 -50.62)" fill="#fec373"/>
    <path id="Trazado_132184" data-name="Trazado 132184" d="M191.928,66.747c-.02-.016-.036-.033-.058-.047,0,.053,0,.106,0,.158a.75.75,0,0,0,.078-.066l-.021-.045" transform="translate(-144.793 -50.335)" fill="#fec373"/>
    <path id="Trazado_132185" data-name="Trazado 132185" d="M192.193,67.037a.7.7,0,0,0,.15.127.882.882,0,0,0-.134-.145l-.017.014v0" transform="translate(-145.036 -50.575)" fill="#fec373"/>
    <path id="Trazado_132186" data-name="Trazado 132186" d="M192.145,66.924l-.038-.031.021.045.017-.014" transform="translate(-144.972 -50.48)" fill="#fec373"/>
    <path id="Trazado_132187" data-name="Trazado 132187" d="M192.209,223.952a1.556,1.556,0,0,0-.255.141v.125a.841.841,0,0,0,.255-.266" transform="translate(-144.856 -169.003)" fill="#fec373"/>
  </g>
</svg>
