<svg xmlns="http://www.w3.org/2000/svg" xmlns:xlink="http://www.w3.org/1999/xlink" width="46" height="46" viewBox="0 0 46 46">
  <defs>
    <clipPath id="clip-path">
      <rect id="Rectángulo_66423" data-name="Rectángulo 66423" width="26.085" height="26.143" fill="#cba400"/>
    </clipPath>
  </defs>
  <g id="Grupo_211372" data-name="Grupo 211372" transform="translate(-810 -8848)">
    <circle id="Elipse_4813" data-name="Elipse 4813" cx="23" cy="23" r="23" transform="translate(810 8848)" fill="#f4f4f5"/>
    <g id="Grupo_210941" data-name="Grupo 210941" transform="translate(820 8858)">
      <g id="Grupo_210941-2" data-name="Grupo 210941" clip-path="url(#clip-path)">
        <path id="Trazado_140415" data-name="Trazado 140415" d="M19.462,25.2c-.019-.339,0-.679-.007-1.019,0-.148.044-.2.186-.179a.674.674,0,0,0,.1,0c.593,0,.762-.141.871-.742l1.078.856a2.146,2.146,0,0,0,3.352-.567q.329-.514.657-1.028a2.1,2.1,0,0,0,.338-.869l0-.626a2.124,2.124,0,0,0-1.229-1.668c-1.313-.666-2.623-1.339-3.943-1.994a.45.45,0,0,1-.294-.478c.009-5.35,0-10.7.013-16.049A.82.82,0,0,0,20.122,0H5.7c.017.1-.059.155-.093.23a.293.293,0,0,0,.221.443A1.833,1.833,0,0,0,6.21.688H19.3c.589,0,.589,0,.589.6q0,7.492,0,14.984a2.41,2.41,0,0,1-.009.357c-.029.191-.1.228-.281.166-.338-.113-.4-.226-.3-.567a1.419,1.419,0,0,0-1.051-1.846c-.148-.04-.3-.071-.448-.1a.343.343,0,0,1-.305-.348c-.037-.355-.041-.713-.1-1.066a6.225,6.225,0,0,0-3.472-4.786,6.233,6.233,0,0,0-6.886.67,5.977,5.977,0,0,0-2.459,4.39,6.253,6.253,0,0,0,3.09,6.27,6.279,6.279,0,0,0,5.939.4c.427-.173.43-.181.7.208a1.521,1.521,0,0,0,1.643.763,1.353,1.353,0,0,0,.7-.391.305.305,0,0,1,.467-.018c.848.668,1.684,1.351,2.536,2.013a.69.69,0,0,1,.224.713.213.213,0,0,1-.2.2,2.166,2.166,0,0,1-.305.012H3.881c-.342-.008-.4-.058-.4-.407,0-1.319,0-2.638,0-3.957q0-4.212,0-8.424a2.33,2.33,0,0,0-.011-.331.291.291,0,0,0-.281-.28c-.163-.011-.24.105-.285.244a1.2,1.2,0,0,0-.032.38q0,5.986,0,11.972c0,.17,0,.34,0,.51s-.089.286-.279.289q-.815.012-1.63,0c-.191,0-.273-.107-.277-.291,0-.094,0-.187,0-.281q0-10.16,0-20.319a1.877,1.877,0,0,1,.268-1.1A1.373,1.373,0,0,1,1.981.7,5.363,5.363,0,0,1,2.567.691c.215,0,.306.111.3.318,0,.1,0,.2,0,.306q0,3.472,0,6.943a1.109,1.109,0,0,0,.044.429c.058.143.15.26.322.231a.286.286,0,0,0,.236-.293c.009-.1.007-.2.007-.306q0-3.5,0-6.994c0-.077,0-.153,0-.23.008-.348.057-.4.4-.406.11,0,.221,0,.331-.006.337-.03.445-.234.275-.521C4.459.112,4.415.067,4.426,0H1.675c-.035.089-.126.074-.192.1A2.109,2.109,0,0,0,0,2.108C0,2.627,0,3.146,0,3.665Q0,13.705,0,23.746A2.136,2.136,0,0,0,1.7,26.1c.013,0,.02.025.029.038H14.772c.151-.139.3-.278.208-.515s-.287-.252-.5-.252q-6.152,0-12.3,0A1.346,1.346,0,0,1,.79,24.269C.744,24.045.8,24,1.017,24Q8.01,24.009,15,24c1.146,0,2.293.007,3.439-.006.221,0,.27.063.257.269a8.589,8.589,0,0,0,0,.918c.008.163-.044.2-.2.194-.73-.008-1.461,0-2.191-.006-.22,0-.414.03-.5.263s.06.381.233.505H18.9a.851.851,0,0,0,.563-.941m-8.432-5.537a5.8,5.8,0,1,1,5.763-5.8,5.789,5.789,0,0,1-5.763,5.8m5.252.095a.744.744,0,0,1-1.29.034c-.112-.149-.294-.307-.292-.459,0-.111.252-.218.388-.33a6.485,6.485,0,0,0,2.336-3.859c.034-.17.079-.255.272-.187.151.053.316.063.47.108a.742.742,0,0,1,.528.7.805.805,0,0,1-.147.453c-.755,1.179-1.506,2.36-2.266,3.537m1.138-.017c-.13-.1-.114-.17-.038-.287q.686-1.056,1.359-2.121c.075-.118.133-.136.258-.072,1.846.943,3.7,1.876,5.54,2.824a1.356,1.356,0,0,1,.547,1.975c-.252.413-.516.818-.782,1.221a1.336,1.336,0,0,1-1.152.632,1.318,1.318,0,0,1-.87-.305q-2.43-1.935-4.862-3.867" transform="translate(0)" fill="#cba400"/>
        <path id="Trazado_140416" data-name="Trazado 140416" d="M13.777.162c.17.286.062.491-.275.521-.11.01-.221,0-.331.006-.343.008-.392.058-.4.406,0,.077,0,.153,0,.23q0,3.5,0,6.994c0,.1,0,.2-.007.306a.285.285,0,0,1-.236.293c-.172.028-.264-.089-.322-.231a1.108,1.108,0,0,1-.044-.429q0-3.472,0-6.943c0-.1,0-.2,0-.306,0-.207-.089-.318-.3-.318A5.381,5.381,0,0,0,11.269.7a1.373,1.373,0,0,0-1.035.621,1.877,1.877,0,0,0-.268,1.1q0,10.159,0,20.319c0,.094,0,.187,0,.281,0,.183.086.288.277.291q.815.012,1.63,0c.19,0,.274-.1.279-.289s0-.34,0-.511q0-5.986,0-11.972a1.2,1.2,0,0,1,.032-.38c.045-.138.122-.254.285-.244a.291.291,0,0,1,.281.28,2.341,2.341,0,0,1,.01.331q0,4.212,0,8.424c0,1.319,0,2.638,0,3.957,0,.35.055.4.4.407h15.49a2.166,2.166,0,0,0,.305-.012.213.213,0,0,0,.2-.2.69.69,0,0,0-.224-.713c-.853-.662-1.688-1.345-2.536-2.013a.305.305,0,0,0-.467.018,1.354,1.354,0,0,1-.7.391,1.521,1.521,0,0,1-1.643-.763c-.271-.389-.273-.381-.7-.208a6.279,6.279,0,0,1-5.939-.4,6.254,6.254,0,0,1-3.09-6.27,5.977,5.977,0,0,1,2.459-4.39,6.233,6.233,0,0,1,6.886-.67,6.225,6.225,0,0,1,3.472,4.786c.061.353.066.711.1,1.066a.343.343,0,0,0,.305.348c.15.028.3.058.448.1a1.419,1.419,0,0,1,1.051,1.846c-.1.341-.036.454.3.567.186.062.253.025.281-.166a2.409,2.409,0,0,0,.009-.357q0-7.492,0-14.984c0-.6,0-.6-.589-.6H15.5a1.833,1.833,0,0,1-.381-.015.293.293,0,0,1-.221-.443c.034-.075.11-.134.093-.23-.154.138-.3.283-.205.517s.289.261.5.25c.059,0,.119,0,.178,0q6.7,0,13.4,0c.17,0,.246.012.246.223Q29.1,8.8,29.106,16.609c0,.06.034.133-.04.19-.113-.056-.223-.118-.34-.166-.138-.057-.174-.112-.105-.275a1.5,1.5,0,0,0-1.062-2.06,3.129,3.129,0,0,0-.473-.1c-.193-.014-.255-.087-.248-.287a5.8,5.8,0,0,0-.144-1.443,6.557,6.557,0,1,0-9.466,7.2,6.43,6.43,0,0,0,5.855.135c.151-.068.234-.072.322.08a3.657,3.657,0,0,0,.3.413,1.493,1.493,0,0,0,2.329.11c.114-.123.168-.1.277-.013.354.291.717.571,1.076.857q.807.643,1.612,1.288a.865.865,0,0,1,.106.64c-.075.132-.215.056-.321.056q-7.81.007-15.619.01c-.244,0-.3-.056-.3-.3q.013-6.255.006-12.509a2.176,2.176,0,0,0-.01-.306.346.346,0,0,0-.344-.316.341.341,0,0,0-.381.269,1.314,1.314,0,0,0-.028.328q0,6.293,0,12.586c0,.2-.045.257-.247.251-.5-.016-1-.019-1.5,0-.24.01-.307-.047-.307-.3q.012-10.3.006-20.6c0-.094,0-.187,0-.281A1.33,1.33,0,0,1,11.171.787c.232-.038.475-.006.711-.026.179-.015.223.043.222.222-.008,1.37,0,2.74,0,4.11q0,1.7,0,3.4c0,.343.132.527.377.534s.384-.18.387-.518c0-.051,0-.1,0-.153v-7c0-.589,0-.594.588-.589.22,0,.415-.032.5-.264s-.057-.383-.235-.5c-.012.067.033.112.063.163" transform="translate(-9.287 0.001)" fill="#cba400"/>
        <path id="Trazado_140417" data-name="Trazado 140417" d="M382.622,308.9q0,.276,0,.552c0,.01,0,.02,0,.03s.017,0,.026.016v-.613c-.01.013-.019.018-.026.015" transform="translate(-356.563 -287.845)" fill="#cba400"/>
        <path id="Trazado_140418" data-name="Trazado 140418" d="M382.357,309.365c0-.01,0-.02,0-.03q0-.276,0-.552c-.006,0-.011-.01-.015-.023l0,.626c.006-.013.012-.019.02-.021" transform="translate(-356.298 -287.732)" fill="#cba400"/>
        <path id="Trazado_140419" data-name="Trazado 140419" d="M382.621,308.624s0,0,0,.007v.022c.007,0,.016,0,.026-.015l-.018-.018Z" transform="translate(-356.562 -287.601)" fill="#cba400"/>
        <path id="Trazado_140420" data-name="Trazado 140420" d="M382.42,308.7v-.022s0,0,0-.007l-.015.006c0,.014.009.021.015.023" transform="translate(-356.361 -287.65)" fill="#cba400"/>
        <path id="Trazado_140421" data-name="Trazado 140421" d="M382.624,317.639c0,.005,0,.01,0,.016h.026c-.009-.013-.018-.018-.026-.016" transform="translate(-356.565 -296.005)" fill="#cba400"/>
        <path id="Trazado_140422" data-name="Trazado 140422" d="M382.337,317.665l.02,0c0-.005,0-.01,0-.016s-.014.008-.02.021" transform="translate(-356.298 -296.011)" fill="#cba400"/>
        <path id="Trazado_140423" data-name="Trazado 140423" d="M105.811,38.032a1.072,1.072,0,0,0,.276.026q1.987,0,3.974,0h3.948a.748.748,0,0,0,.326-.039.357.357,0,0,0,.222-.391.341.341,0,0,0-.3-.326,1.5,1.5,0,0,0-.254-.01h-7.9a2.12,2.12,0,0,0-.229.006.352.352,0,0,0-.336.353.344.344,0,0,0,.273.379" transform="translate(-98.349 -34.754)" fill="#cba400"/>
        <path id="Trazado_140424" data-name="Trazado 140424" d="M139.906,66.467c-.67,0-1.341,0-2.011,0s-1.341,0-2.011,0c-.293,0-.471.153-.465.386s.177.377.455.378q2.024.006,4.048,0c.287,0,.443-.146.446-.381s-.155-.381-.462-.383" transform="translate(-126.195 -61.939)" fill="#cba400"/>
        <path id="Trazado_140425" data-name="Trazado 140425" d="M97.92,135.006a4.67,4.67,0,1,0,4.609,4.694,4.658,4.658,0,0,0-4.609-4.694m-.057,8.574a3.9,3.9,0,1,1,3.9-3.9,3.893,3.893,0,0,1-3.9,3.9" transform="translate(-86.871 -125.811)" fill="#cba400"/>
        <path id="Trazado_140426" data-name="Trazado 140426" d="M315.49,300.4a.386.386,0,0,0-.162-.294c-.54-.349-1.079-.7-1.626-1.039a.375.375,0,0,0-.412.622c.547.368,1.1.728,1.667,1.067a.372.372,0,0,0,.533-.355" transform="translate(-291.812 -278.643)" fill="#cba400"/>
      </g>
    </g>
  </g>
</svg>
