<svg id="Grupo_210936" data-name="Grupo 210936" xmlns="http://www.w3.org/2000/svg" xmlns:xlink="http://www.w3.org/1999/xlink" width="39.193" height="39.193" viewBox="0 0 39.193 39.193">
  <defs>
    <clipPath id="clip-path">
      <rect id="Rectángulo_66405" data-name="Rectángulo 66405" width="39.193" height="39.194" fill="#11578e"/>
    </clipPath>
  </defs>
  <g id="Grupo_210935" data-name="Grupo 210935" clip-path="url(#clip-path)">
    <path id="Trazado_132144" data-name="Trazado 132144" d="M3.528.1A4.514,4.514,0,0,0,0,4.6Q0,12.616,0,20.632,0,27.614,0,34.6a4.489,4.489,0,0,0,3.5,4.478,5.229,5.229,0,0,0,1.252.119q14.826,0,29.652,0a4.514,4.514,0,0,0,4.7-3.566c.018-.067-.013-.161.092-.185V3.827c-.142-.1-.1-.274-.133-.409a4.454,4.454,0,0,0-3.7-3.349c-.027,0-.049-.045-.073-.069H3.828c-.061.144-.2.076-.3.1m.914,1.439c1.81-.006,3.62,0,5.43.006.127,0,.254-.013.382-.013H34.475a2.972,2.972,0,0,1,3.072,2.2,3.331,3.331,0,0,1,.115.945q0,14.923,0,29.846a2.971,2.971,0,0,1-3.072,3.139q-12.264.01-24.528,0c-.063,0-.127-.009-.19-.013-1.81,0-3.621.041-5.43,0a2.94,2.94,0,0,1-2.907-2.906c0-.089,0-.178,0-.268q0-14.878,0-29.757a2.96,2.96,0,0,1,2.2-3.067,2.631,2.631,0,0,1,.714-.111" transform="translate(0)" fill="#11578e"/>
    <path id="Trazado_132145" data-name="Trazado 132145" d="M48.848,73.968a2.475,2.475,0,0,1,.723-.046q11.534,0,23.069,0a2.3,2.3,0,0,0,1.669-.525,2.049,2.049,0,0,0,.655-1.381c.012-.127.01-.255.01-.382q0-13.046,0-26.091a2.252,2.252,0,0,0-.547-1.66,2.057,2.057,0,0,0-1.392-.632c-.191-.016-.382-.008-.574-.008H49.582a2.716,2.716,0,0,1-.722-.041.248.248,0,0,1-.116-.079c-.134.138-.314.113-.481.115-.574.007-1.148.019-1.722,0a2.091,2.091,0,0,0-2.258,2.26q.024,10.828.008,21.656,0,2.3,0,4.592a2.153,2.153,0,0,0,.473,1.458,2.02,2.02,0,0,0,1.584.719c.638.012,1.275,0,1.913.006.167,0,.347-.023.481.115a.24.24,0,0,1,.1-.074m-2.5-1.458a.587.587,0,0,1-.65-.637c0-.089,0-.178,0-.268V45.55c0-.747.151-.9.888-.9,3.367,0,6.734,0,10.1-.007.3,0,.385.068.374.371-.029.751-.021,1.5-.027,2.255.005,1.184.007,2.369.019,3.553,0,.2-.062.282-.262.259a1.074,1.074,0,0,0-.267,0,.722.722,0,0,1-.829-.443,2.195,2.195,0,0,0-2.611-.97,2.279,2.279,0,0,0,.192,4.407,2.239,2.239,0,0,0,2.507-1.16.472.472,0,0,1,.52-.31c.433.017.866.006,1.3,0,.711,0,.977-.258.976-.963,0-2.191-.014-4.383-.017-6.574,0-.134-.053-.279.046-.4h0c.86-.007,1.721-.009,2.582-.024.178,0,.206.068.2.222-.009.8-.009,1.6-.013,2.394q.005,2.468.01,4.935c0,.772.258,1.026,1.041,1.026q2.889,0,5.778,0c.594,0,.508-.077.516.5,0,.357-.007.715,0,1.071a.763.763,0,0,0,.714.8.739.739,0,0,0,.78-.685,14.782,14.782,0,0,0,0-2.519c-.043-.49-.359-.693-.929-.693-1.964,0-3.929-.014-5.892.01-.408,0-.5-.112-.49-.5.028-1.313.016-2.627.019-3.94h0c0-.79,0-1.58-.015-2.369,0-.213.072-.247.261-.246q4.854.007,9.708.006a.587.587,0,0,1,.673.65c.007.675,0,1.35-.009,2.025,0,.14.011.28.011.42q0,11.92,0,23.839c0,.788-.141.927-.94.927-3.941,0-7.883-.005-11.824.009-.352,0-.417-.1-.41-.425.022-.943.015-1.888,0-2.831,0-.233.065-.309.3-.3q.937.022,1.875,0a.413.413,0,0,1,.434.273,2.289,2.289,0,1,0,.006-2.1.461.461,0,0,1-.493.3c-.612-.019-1.224-.014-1.836,0-.214,0-.285-.06-.285-.281q.01-3.769,0-7.538c0-.217.062-.308.279-.275a.269.269,0,0,0,.076,0,.935.935,0,0,1,1.088.537,2.16,2.16,0,0,0,2.619.85,2.282,2.282,0,0,0-.248-4.379,2.238,2.238,0,0,0-2.522,1.137.5.5,0,0,1-.546.333c-.47-.031-.943-.016-1.415-.006a.79.79,0,0,0-.855.863c-.008.523-.013,1.046,0,1.569.007.238-.046.33-.31.328q-2.391-.019-4.783,0c-.284,0-.333-.1-.33-.353.012-1.135.006-2.27,0-3.406,0-.8-.252-1.054-1.044-1.057l-2.256-.013h0c-.667.042-.667.042-.667-.63V49.958c0-.064,0-.127,0-.191-.007-.623-.294-.987-.771-.981s-.759.367-.76,1q0,3.269,0,6.538c0,.7.273.969.967.976l1.222.012c.5,0,.994,0,1.49-.019.252-.011.293.1.291.318-.008,1.122,0,2.244,0,3.366,0,.884.248,1.129,1.137,1.129,1.823,0,3.647.005,5.47-.006.261,0,.344.058.343.333q-.015,4.877,0,9.754c0,.273-.078.338-.342.335q-1.912-.02-3.825,0c-.279,0-.365-.06-.363-.354.015-1.861.008-3.723.007-5.585,0-.736-.278-1.014-1.015-1.018-.472,0-.944-.006-1.415,0a.3.3,0,0,1-.324-.2,2.273,2.273,0,0,0-1.5-1.257,2.3,2.3,0,0,0-2.716,1.427,2.2,2.2,0,0,0,.44,2.316A2.263,2.263,0,0,0,51.6,67.3c.087-.2.222-.2.395-.2.826-.007.826-.01.826.8,0,1.425-.009,2.85.007,4.275,0,.291-.079.363-.361.354-.75-.023-1.5-.014-2.251-.018-1.288,0-2.576.013-3.863.009M54.52,51.832a.762.762,0,0,1-.726.774.763.763,0,1,1,.726-.774M64.28,68.184a.753.753,0,1,1,.771.763.752.752,0,0,1-.771-.763m-1.35-9.607a.76.76,0,1,1,.757.764.789.789,0,0,1-.757-.764M50.291,66.333a.763.763,0,0,1-1.525.026.762.762,0,1,1,1.525-.026" transform="translate(-40.036 -38.985)" fill="#11578e"/>
    <path id="Trazado_132146" data-name="Trazado 132146" d="M90.913,43.046a2.716,2.716,0,0,0,.722.041h22.878c.191,0,.383-.007.574.008a2.058,2.058,0,0,1,1.392.632,2.252,2.252,0,0,1,.547,1.66q0,13.046,0,26.091c0,.127,0,.255-.01.382a2.048,2.048,0,0,1-.655,1.381,2.3,2.3,0,0,1-1.669.525q-11.534,0-23.069,0a2.474,2.474,0,0,0-.723.046.24.24,0,0,0-.1.074c.006.006.011.01.017.016.153,0,.305-.014.458-.014h23.459a2.155,2.155,0,0,0,2.418-2.432q0-13.031,0-26.061a2.155,2.155,0,0,0-2.418-2.432H91.272c-.153,0-.305-.009-.458-.014-.005.006-.011.011-.017.016a.247.247,0,0,0,.116.079" transform="translate(-82.089 -38.832)" fill="#11578e"/>
    <path id="Trazado_132147" data-name="Trazado 132147" d="M47.2,73.774c-.638-.008-1.275.006-1.913-.006a2.02,2.02,0,0,1-1.584-.719,2.153,2.153,0,0,1-.473-1.458q0-2.3,0-4.592,0-10.828-.008-21.657a2.091,2.091,0,0,1,2.258-2.26c.573.02,1.148.008,1.722,0,.167,0,.347.023.481-.115,0-.005-.009-.01-.013-.016l-2.3.014a2.114,2.114,0,0,0-2.256,2.245q0,13.217,0,26.434a2.114,2.114,0,0,0,2.256,2.245l2.3.014c0-.006.009-.011.013-.016-.134-.138-.314-.113-.482-.115" transform="translate(-38.971 -38.833)" fill="#11578e"/>
    <path id="Trazado_132148" data-name="Trazado 132148" d="M90.676,365.524a.2.2,0,0,0-.013.016h.03c-.005-.006-.011-.01-.017-.016" transform="translate(-81.968 -330.467)" fill="#11578e"/>
    <path id="Trazado_132149" data-name="Trazado 132149" d="M90.689,42.951h-.03l.013.016c.006-.006.012-.01.017-.016" transform="translate(-81.964 -38.832)" fill="#11578e"/>
    <path id="Trazado_132150" data-name="Trazado 132150" d="M285.541,220.9a2.3,2.3,0,0,0,.014-4.59,2.3,2.3,0,0,0-.014,4.59m0-3.058a.762.762,0,0,1,.021,1.524.762.762,0,0,1-.021-1.524" transform="translate(-256.088 -195.56)" fill="#11578e"/>
    <path id="Trazado_132151" data-name="Trazado 132151" d="M299.984,187.808a.769.769,0,0,0,.773-.739.786.786,0,0,0-.749-.77.757.757,0,0,0-.762.746.741.741,0,0,0,.738.763" transform="translate(-270.545 -168.432)" fill="#11578e"/>
    <path id="Trazado_132152" data-name="Trazado 132152" d="M83.493,74.98a.763.763,0,1,0-.757-.749.773.773,0,0,0,.757.749" transform="translate(-74.801 -66.408)" fill="#11578e"/>
  </g>
</svg>
