<svg xmlns="http://www.w3.org/2000/svg" width="39.193" height="42.696" viewBox="0 0 39.193 42.696">
  <g id="_011-hard_disk_drive" data-name="011-hard disk drive" transform="translate(-21)">
    <path id="Trazado_132113" data-name="Trazado 132113" d="M55.607,0H25.586A4.592,4.592,0,0,0,21,4.586V38.109A4.592,4.592,0,0,0,25.586,42.7H55.607a4.592,4.592,0,0,0,4.586-4.586V4.586A4.592,4.592,0,0,0,55.607,0Zm2.085,38.109a2.087,2.087,0,0,1-2.085,2.085H25.586A2.087,2.087,0,0,1,23.5,38.109V4.586A2.087,2.087,0,0,1,25.586,2.5H55.607a2.087,2.087,0,0,1,2.085,2.085Z" fill="#11578e"/>
    <path id="Trazado_132114" data-name="Trazado 132114" d="M205.586,171a4.586,4.586,0,1,0,4.586,4.586A4.592,4.592,0,0,0,205.586,171Zm0,6.671a2.085,2.085,0,1,1,2.085-2.085A2.087,2.087,0,0,1,205.586,177.671Z" transform="translate(-164.99 -156.74)" fill="#11578e"/>
    <path id="Trazado_132115" data-name="Trazado 132115" d="M95.592,61c-12.362-.064-18.451,15.411-9.417,23.788l-3.432,2.059a3.594,3.594,0,1,0,4.93,4.93l2.6-4.328c8.847,3.864,19.224-3.025,19.08-12.69A13.775,13.775,0,0,0,95.592,61ZM85.529,90.488a1.092,1.092,0,1,1-1.5-1.5l3.745-2.247Zm10.063-4.473a11.143,11.143,0,0,1-4.019-.738L92.5,83.74a1.251,1.251,0,0,0-1.716-1.716l-2.355,1.413c-8.075-6.673-3.33-19.927,7.168-19.937C110.506,64.065,110.5,85.451,95.592,86.015Z" transform="translate(-54.995 -55.911)" fill="#11578e"/>
    <path id="Trazado_132116" data-name="Trazado 132116" d="M82.251,63.589A1.251,1.251,0,1,0,81,62.338,1.251,1.251,0,0,0,82.251,63.589Z" transform="translate(-54.997 -56)" fill="#11578e"/>
    <path id="Trazado_132117" data-name="Trazado 132117" d="M402.251,61a1.251,1.251,0,1,0,1.251,1.251A1.251,1.251,0,0,0,402.251,61Z" transform="translate(-348.312 -55.913)" fill="#11578e"/>
    <path id="Trazado_132118" data-name="Trazado 132118" d="M402.251,421a1.251,1.251,0,1,0,1.251,1.251A1.251,1.251,0,0,0,402.251,421Z" transform="translate(-348.312 -385.893)" fill="#11578e"/>
    <path id="Trazado_132119" data-name="Trazado 132119" d="M342.251,421a1.251,1.251,0,1,0,1.251,1.251A1.251,1.251,0,0,0,342.251,421Z" transform="translate(-293.315 -385.893)" fill="#11578e"/>
    <path id="Trazado_132120" data-name="Trazado 132120" d="M282.251,421a1.251,1.251,0,1,0,1.251,1.251A1.251,1.251,0,0,0,282.251,421Z" transform="translate(-238.318 -385.893)" fill="#11578e"/>
  </g>
</svg>
