<svg xmlns="http://www.w3.org/2000/svg" xmlns:xlink="http://www.w3.org/1999/xlink" width="101" height="101" viewBox="0 0 101 101">
  <defs>
    <clipPath id="clip-path">
      <rect id="Rectángulo_41544" data-name="Rectángulo 41544" width="60.032" height="49.802" fill="#1f4889"/>
    </clipPath>
  </defs>
  <g id="Grupo_211381" data-name="Grupo 211381" transform="translate(-750 -8665.279)">
    <circle id="Elipse_1142" data-name="Elipse 1142" cx="50.5" cy="50.5" r="50.5" transform="translate(750 8665.279)" fill="#f7cb50"/>
    <g id="Grupo_98716" data-name="Grupo 98716" transform="translate(770.503 8690.67)">
      <g id="Grupo_98715" data-name="Grupo 98715" clip-path="url(#clip-path)">
        <path id="Trazado_131012" data-name="Trazado 131012" d="M53.934,0H6.1A6.105,6.105,0,0,0,0,6.1V43.7a6.105,6.105,0,0,0,6.1,6.1H53.934a6.105,6.105,0,0,0,6.1-6.1V6.1a6.105,6.105,0,0,0-6.1-6.1m4.64,43.7a4.646,4.646,0,0,1-4.64,4.641H6.1A4.646,4.646,0,0,1,1.459,43.7V6.1A4.645,4.645,0,0,1,6.1,1.458H53.934a4.645,4.645,0,0,1,4.64,4.64Z" fill="#1f4889"/>
        <path id="Trazado_131013" data-name="Trazado 131013" d="M83.687,350.627H56.757a.729.729,0,1,0,0,1.458h26.93a2.545,2.545,0,0,1,0-1.458" transform="translate(-48.948 -306.32)" fill="#1f4889"/>
        <path id="Trazado_131014" data-name="Trazado 131014" d="M83.687,350.627H56.757a.729.729,0,1,0,0,1.458h26.93a2.545,2.545,0,0,1,0-1.458" transform="translate(-48.948 -306.32)" fill="#1f4889"/>
        <path id="Trazado_131015" data-name="Trazado 131015" d="M83.687,350.627H56.757a.729.729,0,1,0,0,1.458h26.93a2.545,2.545,0,0,1,0-1.458" transform="translate(-48.948 -306.32)" fill="#1f4889"/>
        <path id="Trazado_131016" data-name="Trazado 131016" d="M325.478,350.627H313.6a2.544,2.544,0,0,1,0,1.458h11.875a.729.729,0,1,0,0-1.458" transform="translate(-273.974 -306.32)" fill="#1f4889"/>
        <path id="Trazado_131017" data-name="Trazado 131017" d="M325.478,350.627H313.6a2.544,2.544,0,0,1,0,1.458h11.875a.729.729,0,1,0,0-1.458" transform="translate(-273.974 -306.32)" fill="#1f4889"/>
        <path id="Trazado_131018" data-name="Trazado 131018" d="M325.478,350.627H313.6a2.544,2.544,0,0,1,0,1.458h11.875a.729.729,0,1,0,0-1.458" transform="translate(-273.974 -306.32)" fill="#1f4889"/>
        <path id="Trazado_131019" data-name="Trazado 131019" d="M279.06,337.95a2.545,2.545,0,1,0,.107.729,2.557,2.557,0,0,0-.107-.729m-2.445,1.834a1.1,1.1,0,1,1,1.093-1.105,1.1,1.1,0,0,1-1.093,1.105" transform="translate(-239.431 -293.642)" fill="#1f4889"/>
        <path id="Trazado_131020" data-name="Trazado 131020" d="M279.06,337.95a2.545,2.545,0,1,0,.107.729,2.557,2.557,0,0,0-.107-.729m-2.445,1.834a1.1,1.1,0,1,1,1.093-1.105,1.1,1.1,0,0,1-1.093,1.105" transform="translate(-239.431 -293.642)" fill="#1f4889"/>
        <path id="Trazado_131021" data-name="Trazado 131021" d="M279.06,337.95a2.545,2.545,0,1,0,.107.729,2.557,2.557,0,0,0-.107-.729m-2.445,1.834a1.1,1.1,0,1,1,1.093-1.105,1.1,1.1,0,0,1-1.093,1.105" transform="translate(-239.431 -293.642)" fill="#1f4889"/>
        <path id="Trazado_131022" data-name="Trazado 131022" d="M79.442,32.653H37.285a4.855,4.855,0,0,0-4.837,4.863V69.339a.729.729,0,0,0,.729.729H83.55a.729.729,0,0,0,.729-.729V37.516a4.856,4.856,0,0,0-4.837-4.863M82.821,68.61H33.906V37.516a3.4,3.4,0,0,1,3.378-3.4H79.442a3.4,3.4,0,0,1,3.379,3.4Z" transform="translate(-28.348 -28.527)" fill="#1f4889"/>
        <path id="Trazado_131023" data-name="Trazado 131023" d="M79.442,32.653H37.285a4.855,4.855,0,0,0-4.837,4.863V69.339a.729.729,0,0,0,.729.729H83.55a.729.729,0,0,0,.729-.729V37.516a4.856,4.856,0,0,0-4.837-4.863M82.821,68.61H33.906V37.516a3.4,3.4,0,0,1,3.378-3.4H79.442a3.4,3.4,0,0,1,3.379,3.4Z" transform="translate(-28.348 -28.527)" fill="#1f4889"/>
        <path id="Trazado_131024" data-name="Trazado 131024" d="M79.442,32.653H37.285a4.855,4.855,0,0,0-4.837,4.863V69.339a.729.729,0,0,0,.729.729H83.55a.729.729,0,0,0,.729-.729V37.516a4.856,4.856,0,0,0-4.837-4.863M82.821,68.61H33.906V37.516a3.4,3.4,0,0,1,3.378-3.4H79.442a3.4,3.4,0,0,1,3.379,3.4Z" transform="translate(-28.348 -28.527)" fill="#1f4889"/>
        <path id="Trazado_131025" data-name="Trazado 131025" d="M367.955,158.585a1.022,1.022,0,1,0,1.021,1.022,1.022,1.022,0,0,0-1.021-1.022" transform="translate(-320.566 -138.545)" fill="#1f4889"/>
        <path id="Trazado_131026" data-name="Trazado 131026" d="M367.955,158.585a1.022,1.022,0,1,0,1.021,1.022,1.022,1.022,0,0,0-1.021-1.022" transform="translate(-320.566 -138.545)" fill="#1f4889"/>
        <path id="Trazado_131027" data-name="Trazado 131027" d="M367.955,158.585a1.022,1.022,0,1,0,1.021,1.022,1.022,1.022,0,0,0-1.021-1.022" transform="translate(-320.566 -138.545)" fill="#1f4889"/>
        <path id="Trazado_131028" data-name="Trazado 131028" d="M367.955,158.585a1.022,1.022,0,1,0,1.021,1.022,1.022,1.022,0,0,0-1.021-1.022" transform="translate(-320.566 -138.545)" fill="#1f4889"/>
        <path id="Trazado_131029" data-name="Trazado 131029" d="M367.955,158.585a1.022,1.022,0,1,0,1.021,1.022,1.022,1.022,0,0,0-1.021-1.022" transform="translate(-320.566 -138.545)" fill="#1f4889"/>
        <path id="Trazado_131030" data-name="Trazado 131030" d="M365.874,225.464a1.021,1.021,0,1,0-1.021,1.022,1.022,1.022,0,0,0,1.021-1.022" transform="translate(-317.856 -196.08)" fill="#1f4889"/>
        <path id="Trazado_131031" data-name="Trazado 131031" d="M365.874,225.464a1.021,1.021,0,1,0-1.021,1.022,1.022,1.022,0,0,0,1.021-1.022" transform="translate(-317.856 -196.08)" fill="#1f4889"/>
        <path id="Trazado_131032" data-name="Trazado 131032" d="M365.874,225.464a1.021,1.021,0,1,0-1.021,1.022,1.022,1.022,0,0,0,1.021-1.022" transform="translate(-317.856 -196.08)" fill="#1f4889"/>
        <path id="Trazado_131033" data-name="Trazado 131033" d="M365.874,225.464a1.021,1.021,0,1,0-1.021,1.022,1.022,1.022,0,0,0,1.021-1.022" transform="translate(-317.856 -196.08)" fill="#1f4889"/>
        <path id="Trazado_131034" data-name="Trazado 131034" d="M365.874,225.464a1.021,1.021,0,1,0-1.021,1.022,1.022,1.022,0,0,0,1.021-1.022" transform="translate(-317.856 -196.08)" fill="#1f4889"/>
        <path id="Trazado_131035" data-name="Trazado 131035" d="M235.342,102.05a1.022,1.022,0,1,0-1.021-1.022,1.022,1.022,0,0,0,1.021,1.022" transform="translate(-204.711 -87.369)" fill="#1f4889"/>
        <path id="Trazado_131036" data-name="Trazado 131036" d="M235.342,102.05a1.022,1.022,0,1,0-1.021-1.022,1.022,1.022,0,0,0,1.021,1.022" transform="translate(-204.711 -87.369)" fill="#1f4889"/>
        <path id="Trazado_131037" data-name="Trazado 131037" d="M235.342,102.05a1.022,1.022,0,1,0-1.021-1.022,1.022,1.022,0,0,0,1.021,1.022" transform="translate(-204.711 -87.369)" fill="#1f4889"/>
        <path id="Trazado_131038" data-name="Trazado 131038" d="M235.342,102.05a1.022,1.022,0,1,0-1.021-1.022,1.022,1.022,0,0,0,1.021,1.022" transform="translate(-204.711 -87.369)" fill="#1f4889"/>
        <path id="Trazado_131039" data-name="Trazado 131039" d="M235.342,102.05a1.022,1.022,0,1,0-1.021-1.022,1.022,1.022,0,0,0,1.021,1.022" transform="translate(-204.711 -87.369)" fill="#1f4889"/>
        <path id="Trazado_131040" data-name="Trazado 131040" d="M182.246,136.063a1.022,1.022,0,1,0-1.021-1.022,1.021,1.021,0,0,0,1.021,1.022" transform="translate(-158.324 -117.083)" fill="#1f4889"/>
        <path id="Trazado_131041" data-name="Trazado 131041" d="M182.246,136.063a1.022,1.022,0,1,0-1.021-1.022,1.021,1.021,0,0,0,1.021,1.022" transform="translate(-158.324 -117.083)" fill="#1f4889"/>
        <path id="Trazado_131042" data-name="Trazado 131042" d="M182.246,136.063a1.022,1.022,0,1,0-1.021-1.022,1.021,1.021,0,0,0,1.021,1.022" transform="translate(-158.324 -117.083)" fill="#1f4889"/>
        <path id="Trazado_131043" data-name="Trazado 131043" d="M182.246,136.063a1.022,1.022,0,1,0-1.021-1.022,1.021,1.021,0,0,0,1.021,1.022" transform="translate(-158.324 -117.083)" fill="#1f4889"/>
        <path id="Trazado_131044" data-name="Trazado 131044" d="M182.246,136.063a1.022,1.022,0,1,0-1.021-1.022,1.021,1.021,0,0,0,1.021,1.022" transform="translate(-158.324 -117.083)" fill="#1f4889"/>
        <path id="Trazado_131045" data-name="Trazado 131045" d="M118.269,154.632a1.021,1.021,0,1,0,1.021-1.022,1.022,1.022,0,0,0-1.021,1.022" transform="translate(-103.324 -134.199)" fill="#1f4889"/>
        <path id="Trazado_131046" data-name="Trazado 131046" d="M118.269,154.632a1.021,1.021,0,1,0,1.021-1.022,1.022,1.022,0,0,0-1.021,1.022" transform="translate(-103.324 -134.199)" fill="#1f4889"/>
        <path id="Trazado_131047" data-name="Trazado 131047" d="M118.269,154.632a1.021,1.021,0,1,0,1.021-1.022,1.022,1.022,0,0,0-1.021,1.022" transform="translate(-103.324 -134.199)" fill="#1f4889"/>
        <path id="Trazado_131048" data-name="Trazado 131048" d="M118.269,154.632a1.021,1.021,0,1,0,1.021-1.022,1.022,1.022,0,0,0-1.021,1.022" transform="translate(-103.324 -134.199)" fill="#1f4889"/>
        <path id="Trazado_131049" data-name="Trazado 131049" d="M118.269,154.632a1.021,1.021,0,1,0,1.021-1.022,1.022,1.022,0,0,0-1.021,1.022" transform="translate(-103.324 -134.199)" fill="#1f4889"/>
        <path id="Trazado_131050" data-name="Trazado 131050" d="M99.3,220.6a1.021,1.021,0,1,0-1.021,1.022A1.022,1.022,0,0,0,99.3,220.6" transform="translate(-84.97 -191.826)" fill="#1f4889"/>
        <path id="Trazado_131051" data-name="Trazado 131051" d="M99.3,220.6a1.021,1.021,0,1,0-1.021,1.022A1.022,1.022,0,0,0,99.3,220.6" transform="translate(-84.97 -191.826)" fill="#1f4889"/>
        <path id="Trazado_131052" data-name="Trazado 131052" d="M99.3,220.6a1.021,1.021,0,1,0-1.021,1.022A1.022,1.022,0,0,0,99.3,220.6" transform="translate(-84.97 -191.826)" fill="#1f4889"/>
        <path id="Trazado_131053" data-name="Trazado 131053" d="M99.3,220.6a1.021,1.021,0,1,0-1.021,1.022A1.022,1.022,0,0,0,99.3,220.6" transform="translate(-84.97 -191.826)" fill="#1f4889"/>
        <path id="Trazado_131054" data-name="Trazado 131054" d="M99.3,220.6a1.021,1.021,0,1,0-1.021,1.022A1.022,1.022,0,0,0,99.3,220.6" transform="translate(-84.97 -191.826)" fill="#1f4889"/>
        <path id="Trazado_131055" data-name="Trazado 131055" d="M291.6,140.015a1.021,1.021,0,1,0,1.021-1.022,1.022,1.022,0,0,0-1.021,1.022" transform="translate(-254.748 -121.429)" fill="#1f4889"/>
        <path id="Trazado_131056" data-name="Trazado 131056" d="M291.6,140.015a1.021,1.021,0,1,0,1.021-1.022,1.022,1.022,0,0,0-1.021,1.022" transform="translate(-254.748 -121.429)" fill="#1f4889"/>
        <path id="Trazado_131057" data-name="Trazado 131057" d="M291.6,140.015a1.021,1.021,0,1,0,1.021-1.022,1.022,1.022,0,0,0-1.021,1.022" transform="translate(-254.748 -121.429)" fill="#1f4889"/>
        <path id="Trazado_131058" data-name="Trazado 131058" d="M291.6,140.015a1.021,1.021,0,1,0,1.021-1.022,1.022,1.022,0,0,0-1.021,1.022" transform="translate(-254.748 -121.429)" fill="#1f4889"/>
        <path id="Trazado_131059" data-name="Trazado 131059" d="M291.6,140.015a1.021,1.021,0,1,0,1.021-1.022,1.022,1.022,0,0,0-1.021,1.022" transform="translate(-254.748 -121.429)" fill="#1f4889"/>
        <path id="Trazado_131060" data-name="Trazado 131060" d="M165.193,140.7a5.317,5.317,0,0,0-1.075.108,5.341,5.341,0,0,0-10.624-.043,5.205,5.205,0,0,0-.826-.066,5.343,5.343,0,0,0-3.724,9.172,4.395,4.395,0,0,0,.616,5.441.729.729,0,0,0,.516.214h0l17.791-.083a.729.729,0,0,0,.528-.23,4.394,4.394,0,0,0,.52-5.342,5.343,5.343,0,0,0-3.724-9.172m2.3,8.475a.729.729,0,0,0-.111,1.072,2.937,2.937,0,0,1,.147,3.741l-17.132.08a2.938,2.938,0,0,1,.084-3.821.73.73,0,0,0-.111-1.072,3.881,3.881,0,0,1,3.6-6.789.73.73,0,0,0,.971-.744c-.008-.1-.016-.193-.016-.292a3.883,3.883,0,1,1,7.766,0c0,.127-.008.252-.019.376a.729.729,0,0,0,1.011.739,3.851,3.851,0,0,1,1.515-.307,3.886,3.886,0,0,1,2.3,7.017" transform="translate(-128.709 -118.82)" fill="#1f4889"/>
        <path id="Trazado_131061" data-name="Trazado 131061" d="M165.193,140.7a5.317,5.317,0,0,0-1.075.108,5.341,5.341,0,0,0-10.624-.043,5.205,5.205,0,0,0-.826-.066,5.343,5.343,0,0,0-3.724,9.172,4.395,4.395,0,0,0,.616,5.441.729.729,0,0,0,.516.214h0l17.791-.083a.729.729,0,0,0,.528-.23,4.394,4.394,0,0,0,.52-5.342,5.343,5.343,0,0,0-3.724-9.172m2.3,8.475a.729.729,0,0,0-.111,1.072,2.937,2.937,0,0,1,.147,3.741l-17.132.08a2.938,2.938,0,0,1,.084-3.821.73.73,0,0,0-.111-1.072,3.881,3.881,0,0,1,3.6-6.789.73.73,0,0,0,.971-.744c-.008-.1-.016-.193-.016-.292a3.883,3.883,0,1,1,7.766,0c0,.127-.008.252-.019.376a.729.729,0,0,0,1.011.739,3.851,3.851,0,0,1,1.515-.307,3.886,3.886,0,0,1,2.3,7.017" transform="translate(-128.709 -118.82)" fill="#1f4889"/>
        <path id="Trazado_131062" data-name="Trazado 131062" d="M165.193,140.7a5.317,5.317,0,0,0-1.075.108,5.341,5.341,0,0,0-10.624-.043,5.205,5.205,0,0,0-.826-.066,5.343,5.343,0,0,0-3.724,9.172,4.395,4.395,0,0,0,.616,5.441.729.729,0,0,0,.516.214h0l17.791-.083a.729.729,0,0,0,.528-.23,4.394,4.394,0,0,0,.52-5.342,5.343,5.343,0,0,0-3.724-9.172m2.3,8.475a.729.729,0,0,0-.111,1.072,2.937,2.937,0,0,1,.147,3.741l-17.132.08a2.938,2.938,0,0,1,.084-3.821.73.73,0,0,0-.111-1.072,3.881,3.881,0,0,1,3.6-6.789.73.73,0,0,0,.971-.744c-.008-.1-.016-.193-.016-.292a3.883,3.883,0,1,1,7.766,0c0,.127-.008.252-.019.376a.729.729,0,0,0,1.011.739,3.851,3.851,0,0,1,1.515-.307,3.886,3.886,0,0,1,2.3,7.017" transform="translate(-128.709 -118.82)" fill="#1f4889"/>
        <path id="Trazado_131063" data-name="Trazado 131063" d="M165.193,140.7a5.317,5.317,0,0,0-1.075.108,5.341,5.341,0,0,0-10.624-.043,5.205,5.205,0,0,0-.826-.066,5.343,5.343,0,0,0-3.724,9.172,4.395,4.395,0,0,0,.616,5.441.729.729,0,0,0,.516.214h0l17.791-.083a.729.729,0,0,0,.528-.23,4.394,4.394,0,0,0,.52-5.342,5.343,5.343,0,0,0-3.724-9.172m2.3,8.475a.729.729,0,0,0-.111,1.072,2.937,2.937,0,0,1,.147,3.741l-17.132.08a2.938,2.938,0,0,1,.084-3.821.73.73,0,0,0-.111-1.072,3.881,3.881,0,0,1,3.6-6.789.73.73,0,0,0,.971-.744c-.008-.1-.016-.193-.016-.292a3.883,3.883,0,1,1,7.766,0c0,.127-.008.252-.019.376a.729.729,0,0,0,1.011.739,3.851,3.851,0,0,1,1.515-.307,3.886,3.886,0,0,1,2.3,7.017" transform="translate(-128.709 -118.82)" fill="#1f4889"/>
        <path id="Trazado_131064" data-name="Trazado 131064" d="M165.193,140.7a5.317,5.317,0,0,0-1.075.108,5.341,5.341,0,0,0-10.624-.043,5.205,5.205,0,0,0-.826-.066,5.343,5.343,0,0,0-3.724,9.172,4.395,4.395,0,0,0,.616,5.441.729.729,0,0,0,.516.214h0l17.791-.083a.729.729,0,0,0,.528-.23,4.394,4.394,0,0,0,.52-5.342,5.343,5.343,0,0,0-3.724-9.172m2.3,8.475a.729.729,0,0,0-.111,1.072,2.937,2.937,0,0,1,.147,3.741l-17.132.08a2.938,2.938,0,0,1,.084-3.821.73.73,0,0,0-.111-1.072,3.881,3.881,0,0,1,3.6-6.789.73.73,0,0,0,.971-.744c-.008-.1-.016-.193-.016-.292a3.883,3.883,0,1,1,7.766,0c0,.127-.008.252-.019.376a.729.729,0,0,0,1.011.739,3.851,3.851,0,0,1,1.515-.307,3.886,3.886,0,0,1,2.3,7.017" transform="translate(-128.709 -118.82)" fill="#1f4889"/>
        <path id="Trazado_131065" data-name="Trazado 131065" d="M231.634,203.975c-.055,0-.11,0-.164,0a2.826,2.826,0,0,0-5.267-.581.729.729,0,1,0,1.3.654,1.368,1.368,0,0,1,2.591.615c0,.045,0,.089-.007.132a.729.729,0,0,0,1.011.742,1.351,1.351,0,0,1,.534-.108,1.369,1.369,0,0,1,.809,2.473.729.729,0,0,0,.866,1.173,2.827,2.827,0,0,0-1.676-5.1" transform="translate(-197.55 -176.333)" fill="#1f4889"/>
        <path id="Trazado_131066" data-name="Trazado 131066" d="M231.634,203.975c-.055,0-.11,0-.164,0a2.826,2.826,0,0,0-5.267-.581.729.729,0,1,0,1.3.654,1.368,1.368,0,0,1,2.591.615c0,.045,0,.089-.007.132a.729.729,0,0,0,1.011.742,1.351,1.351,0,0,1,.534-.108,1.369,1.369,0,0,1,.809,2.473.729.729,0,0,0,.866,1.173,2.827,2.827,0,0,0-1.676-5.1" transform="translate(-197.55 -176.333)" fill="#1f4889"/>
        <path id="Trazado_131067" data-name="Trazado 131067" d="M231.634,203.975c-.055,0-.11,0-.164,0a2.826,2.826,0,0,0-5.267-.581.729.729,0,1,0,1.3.654,1.368,1.368,0,0,1,2.591.615c0,.045,0,.089-.007.132a.729.729,0,0,0,1.011.742,1.351,1.351,0,0,1,.534-.108,1.369,1.369,0,0,1,.809,2.473.729.729,0,0,0,.866,1.173,2.827,2.827,0,0,0-1.676-5.1" transform="translate(-197.55 -176.333)" fill="#1f4889"/>
        <path id="Trazado_131068" data-name="Trazado 131068" d="M231.634,203.975c-.055,0-.11,0-.164,0a2.826,2.826,0,0,0-5.267-.581.729.729,0,1,0,1.3.654,1.368,1.368,0,0,1,2.591.615c0,.045,0,.089-.007.132a.729.729,0,0,0,1.011.742,1.351,1.351,0,0,1,.534-.108,1.369,1.369,0,0,1,.809,2.473.729.729,0,0,0,.866,1.173,2.827,2.827,0,0,0-1.676-5.1" transform="translate(-197.55 -176.333)" fill="#1f4889"/>
        <path id="Trazado_131069" data-name="Trazado 131069" d="M231.634,203.975c-.055,0-.11,0-.164,0a2.826,2.826,0,0,0-5.267-.581.729.729,0,1,0,1.3.654,1.368,1.368,0,0,1,2.591.615c0,.045,0,.089-.007.132a.729.729,0,0,0,1.011.742,1.351,1.351,0,0,1,.534-.108,1.369,1.369,0,0,1,.809,2.473.729.729,0,0,0,.866,1.173,2.827,2.827,0,0,0-1.676-5.1" transform="translate(-197.55 -176.333)" fill="#1f4889"/>
        <path id="Trazado_131070" data-name="Trazado 131070" d="M231.634,203.975c-.055,0-.11,0-.164,0a2.826,2.826,0,0,0-5.267-.581.729.729,0,1,0,1.3.654,1.368,1.368,0,0,1,2.591.615c0,.045,0,.089-.007.132a.729.729,0,0,0,1.011.742,1.351,1.351,0,0,1,.534-.108,1.369,1.369,0,0,1,.809,2.473.729.729,0,0,0,.866,1.173,2.827,2.827,0,0,0-1.676-5.1" transform="translate(-197.55 -176.333)" fill="#1f4889"/>
        <path id="Trazado_131071" data-name="Trazado 131071" d="M231.634,203.975c-.055,0-.11,0-.164,0a2.826,2.826,0,0,0-5.267-.581.729.729,0,1,0,1.3.654,1.368,1.368,0,0,1,2.591.615c0,.045,0,.089-.007.132a.729.729,0,0,0,1.011.742,1.351,1.351,0,0,1,.534-.108,1.369,1.369,0,0,1,.809,2.473.729.729,0,0,0,.866,1.173,2.827,2.827,0,0,0-1.676-5.1" transform="translate(-197.55 -176.333)" fill="#1f4889"/>
        <path id="Trazado_131072" data-name="Trazado 131072" d="M193.176,218a2.827,2.827,0,0,0-1.676,5.1.729.729,0,0,0,.867-1.173,1.369,1.369,0,0,1,.809-2.473.729.729,0,1,0,0-1.458" transform="translate(-166.296 -190.452)" fill="#1f4889"/>
        <path id="Trazado_131073" data-name="Trazado 131073" d="M193.176,218a2.827,2.827,0,0,0-1.676,5.1.729.729,0,0,0,.867-1.173,1.369,1.369,0,0,1,.809-2.473.729.729,0,1,0,0-1.458" transform="translate(-166.296 -190.452)" fill="#1f4889"/>
        <path id="Trazado_131074" data-name="Trazado 131074" d="M193.176,218a2.827,2.827,0,0,0-1.676,5.1.729.729,0,0,0,.867-1.173,1.369,1.369,0,0,1,.809-2.473.729.729,0,1,0,0-1.458" transform="translate(-166.296 -190.452)" fill="#1f4889"/>
        <path id="Trazado_131075" data-name="Trazado 131075" d="M193.176,218a2.827,2.827,0,0,0-1.676,5.1.729.729,0,0,0,.867-1.173,1.369,1.369,0,0,1,.809-2.473.729.729,0,1,0,0-1.458" transform="translate(-166.296 -190.452)" fill="#1f4889"/>
        <path id="Trazado_131076" data-name="Trazado 131076" d="M193.176,218a2.827,2.827,0,0,0-1.676,5.1.729.729,0,0,0,.867-1.173,1.369,1.369,0,0,1,.809-2.473.729.729,0,1,0,0-1.458" transform="translate(-166.296 -190.452)" fill="#1f4889"/>
        <path id="Trazado_131077" data-name="Trazado 131077" d="M193.176,218a2.827,2.827,0,0,0-1.676,5.1.729.729,0,0,0,.867-1.173,1.369,1.369,0,0,1,.809-2.473.729.729,0,1,0,0-1.458" transform="translate(-166.296 -190.452)" fill="#1f4889"/>
        <path id="Trazado_131078" data-name="Trazado 131078" d="M193.176,218a2.827,2.827,0,0,0-1.676,5.1.729.729,0,0,0,.867-1.173,1.369,1.369,0,0,1,.809-2.473.729.729,0,1,0,0-1.458" transform="translate(-166.296 -190.452)" fill="#1f4889"/>
        <path id="Trazado_131079" data-name="Trazado 131079" d="M92.786,178.817,86.9,176.651a.724.724,0,0,0-.329-.038.72.72,0,0,1-.453,1.219.722.722,0,0,0,.278.188l5.883,2.166a.729.729,0,0,0,.5-1.368" transform="translate(-75.238 -154.291)" fill="#1f4889"/>
        <path id="Trazado_131080" data-name="Trazado 131080" d="M92.786,178.817,86.9,176.651a.724.724,0,0,0-.329-.038.72.72,0,0,1-.453,1.219.722.722,0,0,0,.278.188l5.883,2.166a.729.729,0,0,0,.5-1.368" transform="translate(-75.238 -154.291)" fill="#1f4889"/>
        <path id="Trazado_131081" data-name="Trazado 131081" d="M92.786,178.817,86.9,176.651a.724.724,0,0,0-.329-.038.72.72,0,0,1-.453,1.219.722.722,0,0,0,.278.188l5.883,2.166a.729.729,0,0,0,.5-1.368" transform="translate(-75.238 -154.291)" fill="#1f4889"/>
        <path id="Trazado_131082" data-name="Trazado 131082" d="M92.786,178.817,86.9,176.651a.724.724,0,0,0-.329-.038.72.72,0,0,1-.453,1.219.722.722,0,0,0,.278.188l5.883,2.166a.729.729,0,0,0,.5-1.368" transform="translate(-75.238 -154.291)" fill="#1f4889"/>
        <path id="Trazado_131083" data-name="Trazado 131083" d="M92.786,178.817,86.9,176.651a.724.724,0,0,0-.329-.038.72.72,0,0,1-.453,1.219.722.722,0,0,0,.278.188l5.883,2.166a.729.729,0,0,0,.5-1.368" transform="translate(-75.238 -154.291)" fill="#1f4889"/>
        <path id="Trazado_131084" data-name="Trazado 131084" d="M74.709,173.431a.737.737,0,0,0-.432-.937l-.936-.345a.729.729,0,1,0-.5,1.368l.936.345a.752.752,0,0,0,.936-.432" transform="translate(-63.215 -150.356)" fill="#1f4889"/>
        <path id="Trazado_131085" data-name="Trazado 131085" d="M74.709,173.431a.737.737,0,0,0-.432-.937l-.936-.345a.729.729,0,1,0-.5,1.368l.936.345a.752.752,0,0,0,.936-.432" transform="translate(-63.215 -150.356)" fill="#1f4889"/>
        <path id="Trazado_131086" data-name="Trazado 131086" d="M74.709,173.431a.737.737,0,0,0-.432-.937l-.936-.345a.729.729,0,1,0-.5,1.368l.936.345a.752.752,0,0,0,.936-.432" transform="translate(-63.215 -150.356)" fill="#1f4889"/>
        <path id="Trazado_131087" data-name="Trazado 131087" d="M74.709,173.431a.737.737,0,0,0-.432-.937l-.936-.345a.729.729,0,1,0-.5,1.368l.936.345a.752.752,0,0,0,.936-.432" transform="translate(-63.215 -150.356)" fill="#1f4889"/>
        <path id="Trazado_131088" data-name="Trazado 131088" d="M74.709,173.431a.737.737,0,0,0-.432-.937l-.936-.345a.729.729,0,1,0-.5,1.368l.936.345a.752.752,0,0,0,.936-.432" transform="translate(-63.215 -150.356)" fill="#1f4889"/>
        <path id="Trazado_131089" data-name="Trazado 131089" d="M87.8,251.5l-6.238.618a.722.722,0,0,0-.311.108.726.726,0,0,1,.125,1.3.722.722,0,0,0,.257.048.672.672,0,0,0,.073,0l6.238-.618A.729.729,0,1,0,87.8,251.5" transform="translate(-70.987 -219.718)" fill="#1f4889"/>
        <path id="Trazado_131090" data-name="Trazado 131090" d="M87.8,251.5l-6.238.618a.722.722,0,0,0-.311.108.726.726,0,0,1,.125,1.3.722.722,0,0,0,.257.048.672.672,0,0,0,.073,0l6.238-.618A.729.729,0,1,0,87.8,251.5" transform="translate(-70.987 -219.718)" fill="#1f4889"/>
        <path id="Trazado_131091" data-name="Trazado 131091" d="M87.8,251.5l-6.238.618a.722.722,0,0,0-.311.108.726.726,0,0,1,.125,1.3.722.722,0,0,0,.257.048.672.672,0,0,0,.073,0l6.238-.618A.729.729,0,1,0,87.8,251.5" transform="translate(-70.987 -219.718)" fill="#1f4889"/>
        <path id="Trazado_131092" data-name="Trazado 131092" d="M87.8,251.5l-6.238.618a.722.722,0,0,0-.311.108.726.726,0,0,1,.125,1.3.722.722,0,0,0,.257.048.672.672,0,0,0,.073,0l6.238-.618A.729.729,0,1,0,87.8,251.5" transform="translate(-70.987 -219.718)" fill="#1f4889"/>
        <path id="Trazado_131093" data-name="Trazado 131093" d="M87.8,251.5l-6.238.618a.722.722,0,0,0-.311.108.726.726,0,0,1,.125,1.3.722.722,0,0,0,.257.048.672.672,0,0,0,.073,0l6.238-.618A.729.729,0,1,0,87.8,251.5" transform="translate(-70.987 -219.718)" fill="#1f4889"/>
        <path id="Trazado_131094" data-name="Trazado 131094" d="M68.041,257.549a.729.729,0,0,0-.469-.609.707.707,0,0,0-.329-.044l-.993.1a.729.729,0,0,0,.071,1.455.647.647,0,0,0,.073,0l.993-.1a.719.719,0,0,0,.31-.108.727.727,0,0,0,.344-.69" transform="translate(-57.305 -224.429)" fill="#1f4889"/>
        <path id="Trazado_131095" data-name="Trazado 131095" d="M68.041,257.549a.729.729,0,0,0-.469-.609.707.707,0,0,0-.329-.044l-.993.1a.729.729,0,0,0,.071,1.455.647.647,0,0,0,.073,0l.993-.1a.719.719,0,0,0,.31-.108.727.727,0,0,0,.344-.69" transform="translate(-57.305 -224.429)" fill="#1f4889"/>
        <path id="Trazado_131096" data-name="Trazado 131096" d="M68.041,257.549a.729.729,0,0,0-.469-.609.707.707,0,0,0-.329-.044l-.993.1a.729.729,0,0,0,.071,1.455.647.647,0,0,0,.073,0l.993-.1a.719.719,0,0,0,.31-.108.727.727,0,0,0,.344-.69" transform="translate(-57.305 -224.429)" fill="#1f4889"/>
        <path id="Trazado_131097" data-name="Trazado 131097" d="M68.041,257.549a.729.729,0,0,0-.469-.609.707.707,0,0,0-.329-.044l-.993.1a.729.729,0,0,0,.071,1.455.647.647,0,0,0,.073,0l.993-.1a.719.719,0,0,0,.31-.108.727.727,0,0,0,.344-.69" transform="translate(-57.305 -224.429)" fill="#1f4889"/>
        <path id="Trazado_131098" data-name="Trazado 131098" d="M68.041,257.549a.729.729,0,0,0-.469-.609.707.707,0,0,0-.329-.044l-.993.1a.729.729,0,0,0,.071,1.455.647.647,0,0,0,.073,0l.993-.1a.719.719,0,0,0,.31-.108.727.727,0,0,0,.344-.69" transform="translate(-57.305 -224.429)" fill="#1f4889"/>
        <path id="Trazado_131099" data-name="Trazado 131099" d="M123.965,109.911a.718.718,0,0,1-.751.161.72.72,0,0,0,.168.284l4.369,4.5a.729.729,0,1,0,1.047-1.015l-4.369-4.5a.723.723,0,0,0-.28-.177.727.727,0,0,1-.183.746" transform="translate(-107.644 -95.37)" fill="#1f4889"/>
        <path id="Trazado_131100" data-name="Trazado 131100" d="M123.965,109.911a.718.718,0,0,1-.751.161.72.72,0,0,0,.168.284l4.369,4.5a.729.729,0,1,0,1.047-1.015l-4.369-4.5a.723.723,0,0,0-.28-.177.727.727,0,0,1-.183.746" transform="translate(-107.644 -95.37)" fill="#1f4889"/>
        <path id="Trazado_131101" data-name="Trazado 131101" d="M123.965,109.911a.718.718,0,0,1-.751.161.72.72,0,0,0,.168.284l4.369,4.5a.729.729,0,1,0,1.047-1.015l-4.369-4.5a.723.723,0,0,0-.28-.177.727.727,0,0,1-.183.746" transform="translate(-107.644 -95.37)" fill="#1f4889"/>
        <path id="Trazado_131102" data-name="Trazado 131102" d="M123.965,109.911a.718.718,0,0,1-.751.161.72.72,0,0,0,.168.284l4.369,4.5a.729.729,0,1,0,1.047-1.015l-4.369-4.5a.723.723,0,0,0-.28-.177.727.727,0,0,1-.183.746" transform="translate(-107.644 -95.37)" fill="#1f4889"/>
        <path id="Trazado_131103" data-name="Trazado 131103" d="M123.965,109.911a.718.718,0,0,1-.751.161.72.72,0,0,0,.168.284l4.369,4.5a.729.729,0,1,0,1.047-1.015l-4.369-4.5a.723.723,0,0,0-.28-.177.727.727,0,0,1-.183.746" transform="translate(-107.644 -95.37)" fill="#1f4889"/>
        <path id="Trazado_131104" data-name="Trazado 131104" d="M114.768,101.442a.719.719,0,0,0,.28.177.724.724,0,0,0,.935-.908.72.72,0,0,0-.168-.285l-.7-.716a.729.729,0,1,0-1.046,1.015Z" transform="translate(-99.478 -86.917)" fill="#1f4889"/>
        <path id="Trazado_131105" data-name="Trazado 131105" d="M114.768,101.442a.719.719,0,0,0,.28.177.724.724,0,0,0,.935-.908.72.72,0,0,0-.168-.285l-.7-.716a.729.729,0,1,0-1.046,1.015Z" transform="translate(-99.478 -86.917)" fill="#1f4889"/>
        <path id="Trazado_131106" data-name="Trazado 131106" d="M114.768,101.442a.719.719,0,0,0,.28.177.724.724,0,0,0,.935-.908.72.72,0,0,0-.168-.285l-.7-.716a.729.729,0,1,0-1.046,1.015Z" transform="translate(-99.478 -86.917)" fill="#1f4889"/>
        <path id="Trazado_131107" data-name="Trazado 131107" d="M114.768,101.442a.719.719,0,0,0,.28.177.724.724,0,0,0,.935-.908.72.72,0,0,0-.168-.285l-.7-.716a.729.729,0,1,0-1.046,1.015Z" transform="translate(-99.478 -86.917)" fill="#1f4889"/>
        <path id="Trazado_131108" data-name="Trazado 131108" d="M114.768,101.442a.719.719,0,0,0,.28.177.724.724,0,0,0,.935-.908.72.72,0,0,0-.168-.285l-.7-.716a.729.729,0,1,0-1.046,1.015Z" transform="translate(-99.478 -86.917)" fill="#1f4889"/>
        <path id="Trazado_131109" data-name="Trazado 131109" d="M271.633,90.754a.717.717,0,0,0,.207.031.73.73,0,0,0,.7-.522l1.663-5.609a.724.724,0,0,0,.02-.313.726.726,0,0,1-.549.261.718.718,0,0,1-.208-.031.728.728,0,0,1-.514-.6.729.729,0,0,0-.148.269l-1.663,5.609a.729.729,0,0,0,.492.906" transform="translate(-236.852 -73.359)" fill="#1f4889"/>
        <path id="Trazado_131110" data-name="Trazado 131110" d="M271.633,90.754a.717.717,0,0,0,.207.031.73.73,0,0,0,.7-.522l1.663-5.609a.724.724,0,0,0,.02-.313.726.726,0,0,1-.549.261.718.718,0,0,1-.208-.031.728.728,0,0,1-.514-.6.729.729,0,0,0-.148.269l-1.663,5.609a.729.729,0,0,0,.492.906" transform="translate(-236.852 -73.359)" fill="#1f4889"/>
        <path id="Trazado_131111" data-name="Trazado 131111" d="M271.633,90.754a.717.717,0,0,0,.207.031.73.73,0,0,0,.7-.522l1.663-5.609a.724.724,0,0,0,.02-.313.726.726,0,0,1-.549.261.718.718,0,0,1-.208-.031.728.728,0,0,1-.514-.6.729.729,0,0,0-.148.269l-1.663,5.609a.729.729,0,0,0,.492.906" transform="translate(-236.852 -73.359)" fill="#1f4889"/>
        <path id="Trazado_131112" data-name="Trazado 131112" d="M271.633,90.754a.717.717,0,0,0,.207.031.73.73,0,0,0,.7-.522l1.663-5.609a.724.724,0,0,0,.02-.313.726.726,0,0,1-.549.261.718.718,0,0,1-.208-.031.728.728,0,0,1-.514-.6.729.729,0,0,0-.148.269l-1.663,5.609a.729.729,0,0,0,.492.906" transform="translate(-236.852 -73.359)" fill="#1f4889"/>
        <path id="Trazado_131113" data-name="Trazado 131113" d="M271.633,90.754a.717.717,0,0,0,.207.031.73.73,0,0,0,.7-.522l1.663-5.609a.724.724,0,0,0,.02-.313.726.726,0,0,1-.549.261.718.718,0,0,1-.208-.031.728.728,0,0,1-.514-.6.729.729,0,0,0-.148.269l-1.663,5.609a.729.729,0,0,0,.492.906" transform="translate(-236.852 -73.359)" fill="#1f4889"/>
        <path id="Trazado_131114" data-name="Trazado 131114" d="M286.149,72.668a.718.718,0,0,0,.207.031.726.726,0,0,0,.549-.261.712.712,0,0,0,.15-.261l.265-.893a.729.729,0,0,0-1.4-.415l-.265.893a.734.734,0,0,0,.492.906" transform="translate(-249.534 -61.457)" fill="#1f4889"/>
        <path id="Trazado_131115" data-name="Trazado 131115" d="M286.149,72.668a.718.718,0,0,0,.207.031.726.726,0,0,0,.549-.261.712.712,0,0,0,.15-.261l.265-.893a.729.729,0,0,0-1.4-.415l-.265.893a.734.734,0,0,0,.492.906" transform="translate(-249.534 -61.457)" fill="#1f4889"/>
        <path id="Trazado_131116" data-name="Trazado 131116" d="M286.149,72.668a.718.718,0,0,0,.207.031.726.726,0,0,0,.549-.261.712.712,0,0,0,.15-.261l.265-.893a.729.729,0,0,0-1.4-.415l-.265.893a.734.734,0,0,0,.492.906" transform="translate(-249.534 -61.457)" fill="#1f4889"/>
        <path id="Trazado_131117" data-name="Trazado 131117" d="M286.149,72.668a.718.718,0,0,0,.207.031.726.726,0,0,0,.549-.261.712.712,0,0,0,.15-.261l.265-.893a.729.729,0,0,0-1.4-.415l-.265.893a.734.734,0,0,0,.492.906" transform="translate(-249.534 -61.457)" fill="#1f4889"/>
        <path id="Trazado_131118" data-name="Trazado 131118" d="M286.149,72.668a.718.718,0,0,0,.207.031.726.726,0,0,0,.549-.261.712.712,0,0,0,.15-.261l.265-.893a.729.729,0,0,0-1.4-.415l-.265.893a.734.734,0,0,0,.492.906" transform="translate(-249.534 -61.457)" fill="#1f4889"/>
        <path id="Trazado_131119" data-name="Trazado 131119" d="M192.193,79.494a.711.711,0,0,1-.14.014.726.726,0,0,1-.592-.316.721.721,0,0,0-.009.317l1.107,5.5a.729.729,0,0,0,.714.586.737.737,0,0,0,.145-.015.729.729,0,0,0,.571-.859l-1.107-5.5a.722.722,0,0,0-.12-.276.728.728,0,0,1-.57.549" transform="translate(-167.248 -68.969)" fill="#1f4889"/>
        <path id="Trazado_131120" data-name="Trazado 131120" d="M192.193,79.494a.711.711,0,0,1-.14.014.726.726,0,0,1-.592-.316.721.721,0,0,0-.009.317l1.107,5.5a.729.729,0,0,0,.714.586.737.737,0,0,0,.145-.015.729.729,0,0,0,.571-.859l-1.107-5.5a.722.722,0,0,0-.12-.276.728.728,0,0,1-.57.549" transform="translate(-167.248 -68.969)" fill="#1f4889"/>
        <path id="Trazado_131121" data-name="Trazado 131121" d="M192.193,79.494a.711.711,0,0,1-.14.014.726.726,0,0,1-.592-.316.721.721,0,0,0-.009.317l1.107,5.5a.729.729,0,0,0,.714.586.737.737,0,0,0,.145-.015.729.729,0,0,0,.571-.859l-1.107-5.5a.722.722,0,0,0-.12-.276.728.728,0,0,1-.57.549" transform="translate(-167.248 -68.969)" fill="#1f4889"/>
        <path id="Trazado_131122" data-name="Trazado 131122" d="M192.193,79.494a.711.711,0,0,1-.14.014.726.726,0,0,1-.592-.316.721.721,0,0,0-.009.317l1.107,5.5a.729.729,0,0,0,.714.586.737.737,0,0,0,.145-.015.729.729,0,0,0,.571-.859l-1.107-5.5a.722.722,0,0,0-.12-.276.728.728,0,0,1-.57.549" transform="translate(-167.248 -68.969)" fill="#1f4889"/>
        <path id="Trazado_131123" data-name="Trazado 131123" d="M192.193,79.494a.711.711,0,0,1-.14.014.726.726,0,0,1-.592-.316.721.721,0,0,0-.009.317l1.107,5.5a.729.729,0,0,0,.714.586.737.737,0,0,0,.145-.015.729.729,0,0,0,.571-.859l-1.107-5.5a.722.722,0,0,0-.12-.276.728.728,0,0,1-.57.549" transform="translate(-167.248 -68.969)" fill="#1f4889"/>
        <path id="Trazado_131124" data-name="Trazado 131124" d="M189.329,66.417a.716.716,0,0,0,.123.275.726.726,0,0,0,.592.316.711.711,0,0,0,.14-.014.733.733,0,0,0,.577-.854l-.176-.911a.729.729,0,0,0-1.432.277Z" transform="translate(-165.238 -56.469)" fill="#1f4889"/>
        <path id="Trazado_131125" data-name="Trazado 131125" d="M189.329,66.417a.716.716,0,0,0,.123.275.726.726,0,0,0,.592.316.711.711,0,0,0,.14-.014.733.733,0,0,0,.577-.854l-.176-.911a.729.729,0,0,0-1.432.277Z" transform="translate(-165.238 -56.469)" fill="#1f4889"/>
        <path id="Trazado_131126" data-name="Trazado 131126" d="M189.329,66.417a.716.716,0,0,0,.123.275.726.726,0,0,0,.592.316.711.711,0,0,0,.14-.014.733.733,0,0,0,.577-.854l-.176-.911a.729.729,0,0,0-1.432.277Z" transform="translate(-165.238 -56.469)" fill="#1f4889"/>
        <path id="Trazado_131127" data-name="Trazado 131127" d="M189.329,66.417a.716.716,0,0,0,.123.275.726.726,0,0,0,.592.316.711.711,0,0,0,.14-.014.733.733,0,0,0,.577-.854l-.176-.911a.729.729,0,0,0-1.432.277Z" transform="translate(-165.238 -56.469)" fill="#1f4889"/>
        <path id="Trazado_131128" data-name="Trazado 131128" d="M189.329,66.417a.716.716,0,0,0,.123.275.726.726,0,0,0,.592.316.711.711,0,0,0,.14-.014.733.733,0,0,0,.577-.854l-.176-.911a.729.729,0,0,0-1.432.277Z" transform="translate(-165.238 -56.469)" fill="#1f4889"/>
        <path id="Trazado_131129" data-name="Trazado 131129" d="M342.2,249.5a.726.726,0,0,1,.607-.471.722.722,0,0,0-.275-.184l-5.883-2.166a.729.729,0,1,0-.5,1.368l5.883,2.166a.728.728,0,0,0,.252.045c.025,0,.048-.009.073-.011a.727.727,0,0,1-.154-.748" transform="translate(-293.251 -215.465)" fill="#1f4889"/>
        <path id="Trazado_131130" data-name="Trazado 131130" d="M342.2,249.5a.726.726,0,0,1,.607-.471.722.722,0,0,0-.275-.184l-5.883-2.166a.729.729,0,1,0-.5,1.368l5.883,2.166a.728.728,0,0,0,.252.045c.025,0,.048-.009.073-.011a.727.727,0,0,1-.154-.748" transform="translate(-293.251 -215.465)" fill="#1f4889"/>
        <path id="Trazado_131131" data-name="Trazado 131131" d="M342.2,249.5a.726.726,0,0,1,.607-.471.722.722,0,0,0-.275-.184l-5.883-2.166a.729.729,0,1,0-.5,1.368l5.883,2.166a.728.728,0,0,0,.252.045c.025,0,.048-.009.073-.011a.727.727,0,0,1-.154-.748" transform="translate(-293.251 -215.465)" fill="#1f4889"/>
        <path id="Trazado_131132" data-name="Trazado 131132" d="M342.2,249.5a.726.726,0,0,1,.607-.471.722.722,0,0,0-.275-.184l-5.883-2.166a.729.729,0,1,0-.5,1.368l5.883,2.166a.728.728,0,0,0,.252.045c.025,0,.048-.009.073-.011a.727.727,0,0,1-.154-.748" transform="translate(-293.251 -215.465)" fill="#1f4889"/>
        <path id="Trazado_131133" data-name="Trazado 131133" d="M342.2,249.5a.726.726,0,0,1,.607-.471.722.722,0,0,0-.275-.184l-5.883-2.166a.729.729,0,1,0-.5,1.368l5.883,2.166a.728.728,0,0,0,.252.045c.025,0,.048-.009.073-.011a.727.727,0,0,1-.154-.748" transform="translate(-293.251 -215.465)" fill="#1f4889"/>
        <path id="Trazado_131134" data-name="Trazado 131134" d="M388.921,265.937l-.936-.345a.729.729,0,0,0-.5,1.369l.936.345a.729.729,0,0,0,.5-1.369" transform="translate(-338.1 -231.993)" fill="#1f4889"/>
        <path id="Trazado_131135" data-name="Trazado 131135" d="M388.921,265.937l-.936-.345a.729.729,0,0,0-.5,1.369l.936.345a.729.729,0,0,0,.5-1.369" transform="translate(-338.1 -231.993)" fill="#1f4889"/>
        <path id="Trazado_131136" data-name="Trazado 131136" d="M388.921,265.937l-.936-.345a.729.729,0,0,0-.5,1.369l.936.345a.729.729,0,0,0,.5-1.369" transform="translate(-338.1 -231.993)" fill="#1f4889"/>
        <path id="Trazado_131137" data-name="Trazado 131137" d="M388.921,265.937l-.936-.345a.729.729,0,0,0-.5,1.369l.936.345a.729.729,0,0,0,.5-1.369" transform="translate(-338.1 -231.993)" fill="#1f4889"/>
        <path id="Trazado_131138" data-name="Trazado 131138" d="M388.921,265.937l-.936-.345a.729.729,0,0,0-.5,1.369l.936.345a.729.729,0,0,0,.5-1.369" transform="translate(-338.1 -231.993)" fill="#1f4889"/>
        <path id="Trazado_131139" data-name="Trazado 131139" d="M345.775,194.047a.727.727,0,0,1,.344-.69.7.7,0,0,0-.33-.044l-6.238.618a.729.729,0,0,0,.071,1.454.674.674,0,0,0,.073,0l6.238-.618a.72.72,0,0,0,.31-.107.728.728,0,0,1-.468-.61" transform="translate(-296.069 -168.881)" fill="#1f4889"/>
        <path id="Trazado_131140" data-name="Trazado 131140" d="M345.775,194.047a.727.727,0,0,1,.344-.69.7.7,0,0,0-.33-.044l-6.238.618a.729.729,0,0,0,.071,1.454.674.674,0,0,0,.073,0l6.238-.618a.72.72,0,0,0,.31-.107.728.728,0,0,1-.468-.61" transform="translate(-296.069 -168.881)" fill="#1f4889"/>
        <path id="Trazado_131141" data-name="Trazado 131141" d="M345.775,194.047a.727.727,0,0,1,.344-.69.7.7,0,0,0-.33-.044l-6.238.618a.729.729,0,0,0,.071,1.454.674.674,0,0,0,.073,0l6.238-.618a.72.72,0,0,0,.31-.107.728.728,0,0,1-.468-.61" transform="translate(-296.069 -168.881)" fill="#1f4889"/>
        <path id="Trazado_131142" data-name="Trazado 131142" d="M345.775,194.047a.727.727,0,0,1,.344-.69.7.7,0,0,0-.33-.044l-6.238.618a.729.729,0,0,0,.071,1.454.674.674,0,0,0,.073,0l6.238-.618a.72.72,0,0,0,.31-.107.728.728,0,0,1-.468-.61" transform="translate(-296.069 -168.881)" fill="#1f4889"/>
        <path id="Trazado_131143" data-name="Trazado 131143" d="M345.775,194.047a.727.727,0,0,1,.344-.69.7.7,0,0,0-.33-.044l-6.238.618a.729.729,0,0,0,.071,1.454.674.674,0,0,0,.073,0l6.238-.618a.72.72,0,0,0,.31-.107.728.728,0,0,1-.468-.61" transform="translate(-296.069 -168.881)" fill="#1f4889"/>
        <path id="Trazado_131144" data-name="Trazado 131144" d="M394.973,192.039l-.993.1a.729.729,0,0,0,.071,1.455.667.667,0,0,0,.072,0l.993-.1a.729.729,0,1,0-.143-1.451" transform="translate(-343.619 -167.769)" fill="#1f4889"/>
        <path id="Trazado_131145" data-name="Trazado 131145" d="M394.973,192.039l-.993.1a.729.729,0,0,0,.071,1.455.667.667,0,0,0,.072,0l.993-.1a.729.729,0,1,0-.143-1.451" transform="translate(-343.619 -167.769)" fill="#1f4889"/>
        <path id="Trazado_131146" data-name="Trazado 131146" d="M394.973,192.039l-.993.1a.729.729,0,0,0,.071,1.455.667.667,0,0,0,.072,0l.993-.1a.729.729,0,1,0-.143-1.451" transform="translate(-343.619 -167.769)" fill="#1f4889"/>
        <path id="Trazado_131147" data-name="Trazado 131147" d="M394.973,192.039l-.993.1a.729.729,0,0,0,.071,1.455.667.667,0,0,0,.072,0l.993-.1a.729.729,0,1,0-.143-1.451" transform="translate(-343.619 -167.769)" fill="#1f4889"/>
        <path id="Trazado_131148" data-name="Trazado 131148" d="M394.973,192.039l-.993.1a.729.729,0,0,0,.071,1.455.667.667,0,0,0,.072,0l.993-.1a.729.729,0,1,0-.143-1.451" transform="translate(-343.619 -167.769)" fill="#1f4889"/>
        <path id="Trazado_131149" data-name="Trazado 131149" d="M320.783,129.049a.727.727,0,0,0,.451-.156l4.927-3.881a.72.72,0,0,0,.208-.267.719.719,0,0,1-.809-1.016.72.72,0,0,0-.3.137l-4.927,3.881a.729.729,0,0,0,.452,1.3" transform="translate(-279.609 -108.094)" fill="#1f4889"/>
        <path id="Trazado_131150" data-name="Trazado 131150" d="M320.783,129.049a.727.727,0,0,0,.451-.156l4.927-3.881a.72.72,0,0,0,.208-.267.719.719,0,0,1-.809-1.016.72.72,0,0,0-.3.137l-4.927,3.881a.729.729,0,0,0,.452,1.3" transform="translate(-279.609 -108.094)" fill="#1f4889"/>
        <path id="Trazado_131151" data-name="Trazado 131151" d="M320.783,129.049a.727.727,0,0,0,.451-.156l4.927-3.881a.72.72,0,0,0,.208-.267.719.719,0,0,1-.809-1.016.72.72,0,0,0-.3.137l-4.927,3.881a.729.729,0,0,0,.452,1.3" transform="translate(-279.609 -108.094)" fill="#1f4889"/>
        <path id="Trazado_131152" data-name="Trazado 131152" d="M320.783,129.049a.727.727,0,0,0,.451-.156l4.927-3.881a.72.72,0,0,0,.208-.267.719.719,0,0,1-.809-1.016.72.72,0,0,0-.3.137l-4.927,3.881a.729.729,0,0,0,.452,1.3" transform="translate(-279.609 -108.094)" fill="#1f4889"/>
        <path id="Trazado_131153" data-name="Trazado 131153" d="M320.783,129.049a.727.727,0,0,0,.451-.156l4.927-3.881a.72.72,0,0,0,.208-.267.719.719,0,0,1-.809-1.016.72.72,0,0,0-.3.137l-4.927,3.881a.729.729,0,0,0,.452,1.3" transform="translate(-279.609 -108.094)" fill="#1f4889"/>
        <path id="Trazado_131154" data-name="Trazado 131154" d="M363.206,117.342a.667.667,0,0,0,.726.252.713.713,0,0,0,.3-.131l.784-.618a.729.729,0,0,0-.9-1.146l-.784.618a.738.738,0,0,0-.121,1.024" transform="translate(-317.174 -100.943)" fill="#1f4889"/>
        <path id="Trazado_131155" data-name="Trazado 131155" d="M363.206,117.342a.667.667,0,0,0,.726.252.713.713,0,0,0,.3-.131l.784-.618a.729.729,0,0,0-.9-1.146l-.784.618a.738.738,0,0,0-.121,1.024" transform="translate(-317.174 -100.943)" fill="#1f4889"/>
        <path id="Trazado_131156" data-name="Trazado 131156" d="M363.206,117.342a.667.667,0,0,0,.726.252.713.713,0,0,0,.3-.131l.784-.618a.729.729,0,0,0-.9-1.146l-.784.618a.738.738,0,0,0-.121,1.024" transform="translate(-317.174 -100.943)" fill="#1f4889"/>
        <path id="Trazado_131157" data-name="Trazado 131157" d="M363.206,117.342a.667.667,0,0,0,.726.252.713.713,0,0,0,.3-.131l.784-.618a.729.729,0,0,0-.9-1.146l-.784.618a.738.738,0,0,0-.121,1.024" transform="translate(-317.174 -100.943)" fill="#1f4889"/>
        <path id="Trazado_131158" data-name="Trazado 131158" d="M363.206,117.342a.667.667,0,0,0,.726.252.713.713,0,0,0,.3-.131l.784-.618a.729.729,0,0,0-.9-1.146l-.784.618a.738.738,0,0,0-.121,1.024" transform="translate(-317.174 -100.943)" fill="#1f4889"/>
      </g>
    </g>
  </g>
</svg>
