<svg xmlns="http://www.w3.org/2000/svg" xmlns:xlink="http://www.w3.org/1999/xlink" width="101" height="101" viewBox="0 0 101 101">
  <defs>
    <clipPath id="clip-path">
      <rect id="Rectángulo_41548" data-name="Rectángulo 41548" width="66" height="53.37" fill="#1f4889"/>
    </clipPath>
  </defs>
  <g id="Grupo_211387" data-name="Grupo 211387" transform="translate(-750 -9632.279)">
    <circle id="Elipse_4819" data-name="Elipse 4819" cx="50.5" cy="50.5" r="50.5" transform="translate(750 9632.279)" fill="#f7cb50"/>
    <g id="Grupo_98722" data-name="Grupo 98722" transform="translate(768 9656.094)">
      <g id="Grupo_98721" data-name="Grupo 98721" clip-path="url(#clip-path)">
        <path id="Trazado_131186" data-name="Trazado 131186" d="M66,31.073a8.474,8.474,0,0,0-.442,1.962,20.436,20.436,0,0,1-8.517,11.931,9.369,9.369,0,0,1-1.243.8c-.468.231-.448.487-.248.9a7.23,7.23,0,0,0,3.205,3.322c.489.258.887.555.883,1.149,0,.632-.449.926-.969,1.153-4.576,2-9.582,1.242-12.956-2.382a.722.722,0,0,0-.732-.234A31.552,31.552,0,0,1,28.6,47.939c-.406-.156-.811-.325-.963-.781a1.056,1.056,0,0,1,.239-1.135,1.1,1.1,0,0,1,1.3-.231A27.331,27.331,0,0,0,33.9,47.225a29.591,29.591,0,0,0,11.452.159A1.535,1.535,0,0,1,46.97,48c2.4,2.817,5.45,3.659,9.119,2.885-.323-.317-.585-.561-.833-.819a8.6,8.6,0,0,1-2.2-3.938c-.226-.9-.1-1.241.7-1.7a21.54,21.54,0,0,0,6.671-5.677c4.931-6.5,4.412-14.749-1.3-20.769a23.352,23.352,0,0,0-8.54-5.594c-.115-.045-.24-.067-.406-.111V13q0,9.41,0,18.819a5.46,5.46,0,0,1-4.549,5.635,7.041,7.041,0,0,1-1.283.075q-7.572.007-15.145-.006a.728.728,0,0,0-.83.558,11.7,11.7,0,0,1-12.91,7.533c-1.323-.211-1.646-1.077-.788-2.135A13.54,13.54,0,0,0,17.5,37.534H11.475q-2.836,0-5.671,0A5.479,5.479,0,0,1,.178,33.442c-.036-.111-.007-.27-.178-.307V4.517c.211-.108.159-.338.211-.507a5.49,5.49,0,0,1,5.311-4c2.449-.02,4.9,0,7.347,0Q28.625,0,44.382,0a5.659,5.659,0,0,1,4.329,1.769c.567.6.614,1.234.143,1.707-.49.493-1.129.428-1.735-.2A3.385,3.385,0,0,0,44.589,2.2q-19.494,0-38.988,0A3.288,3.288,0,0,0,2.2,5.63q-.009,13.147,0,26.294a3.272,3.272,0,0,0,3.4,3.41q6.347.012,12.7,0c1.354,0,1.736.437,1.529,1.781a15.878,15.878,0,0,1-2.093,5.829q-.149.248-.291.5c-.008.014.008.041.024.115a9.588,9.588,0,0,0,9.116-7.052c.269-.961.563-1.172,1.557-1.172h16.24a3.284,3.284,0,0,0,3.6-3.594q.011-10.311.018-20.623c0-1.344.56-1.752,1.83-1.325,5.638,1.9,10.34,5.059,13.55,10.181A16.858,16.858,0,0,1,65.879,27.2c.011.1-.014.219.121.263Z" transform="translate(0 0.001)" fill="#1f4889"/>
        <path id="Trazado_131187" data-name="Trazado 131187" d="M75.383,103.778q-6.472,0-12.945,0a4.447,4.447,0,0,1-.706-.03,1.078,1.078,0,0,1-.032-2.133,3.551,3.551,0,0,1,.64-.042q13.106,0,26.212,0a3.138,3.138,0,0,1,.64.047,1,1,0,0,1,.865,1.041,1.028,1.028,0,0,1-.9,1.082,4.152,4.152,0,0,1-.705.035q-6.537,0-13.074,0" transform="translate(-50.339 -84.105)" fill="#1f4889"/>
        <path id="Trazado_131188" data-name="Trazado 131188" d="M99.556,52.547H88.734a5.077,5.077,0,0,1-.579-.013,1.016,1.016,0,0,1-.954-.969,1.03,1.03,0,0,1,.686-1.119,2.154,2.154,0,0,1,.889-.1h21.579a2.086,2.086,0,0,1,.888.1,1.032,1.032,0,0,1,.661,1.19.994.994,0,0,1-.947.895,5.157,5.157,0,0,1-.579.012H99.556" transform="translate(-72.2 -41.689)" fill="#1f4889"/>
        <path id="Trazado_131189" data-name="Trazado 131189" d="M70.265,152.036h7.787a4.673,4.673,0,0,1,.642.021.994.994,0,0,1,.921.92,1.034,1.034,0,0,1-.695,1.17,1.887,1.887,0,0,1-.761.088q-7.948,0-15.9,0a2.327,2.327,0,0,1-.7-.08,1.076,1.076,0,0,1,.2-2.1,5.333,5.333,0,0,1,.643-.019h7.852" transform="translate(-50.356 -125.894)" fill="#1f4889"/>
        <path id="Trazado_131190" data-name="Trazado 131190" d="M186.839,152.038a1.121,1.121,0,0,1,1.2,1.127,1.15,1.15,0,0,1-1.272,1.072,1.107,1.107,0,1,1,.068-2.2" transform="translate(-153.667 -125.895)" fill="#1f4889"/>
      </g>
    </g>
  </g>
</svg>
