<svg xmlns="http://www.w3.org/2000/svg" xmlns:xlink="http://www.w3.org/1999/xlink" width="101" height="101" viewBox="0 0 101 101">
  <defs>
    <clipPath id="clip-path">
      <rect id="Rectángulo_41541" data-name="Rectángulo 41541" width="72.964" height="55.534" fill="#1f4889"/>
    </clipPath>
  </defs>
  <g id="Grupo_211383" data-name="Grupo 211383" transform="translate(-750 -8987.279)">
    <circle id="Elipse_1147" data-name="Elipse 1147" cx="50.5" cy="50.5" r="50.5" transform="translate(750 8987.279)" fill="#f7cb50"/>
    <g id="Grupo_98712" data-name="Grupo 98712" transform="translate(768 9012.279)">
      <g id="Grupo_98711" data-name="Grupo 98711" clip-path="url(#clip-path)">
        <path id="Trazado_130936" data-name="Trazado 130936" d="M42.668,33.551V54H40.85v.622a.768.768,0,0,1-.768.768H37.109a.768.768,0,0,1-.768-.768V54H34.8V49.421a3.575,3.575,0,0,0-3.575-3.566H13.027a3.574,3.574,0,0,0-3.575,3.566V54H7.4v.622a.768.768,0,0,1-.768.768H3.661a.768.768,0,0,1-.768-.768V54H1.535V1.535H2.893V.768A.768.768,0,0,1,3.661,0H.768A.768.768,0,0,0,0,.768v54a.768.768,0,0,0,.768.768h9.452a.768.768,0,0,0,.768-.768V49.421a2.038,2.038,0,0,1,2.04-2.03H31.221a2.038,2.038,0,0,1,2.04,2.03v5.346a.768.768,0,0,0,.768.768h9.407a.768.768,0,0,0,.768-.768V34.313l-.145-.072-1.391-.69" fill="#1f4889"/>
        <path id="Trazado_130937" data-name="Trazado 130937" d="M50.193.768v.768h2.051V6a3.47,3.47,0,0,0,3.575,3.566H74.013A3.574,3.574,0,0,0,77.588,6V1.535h1.546V.768A.768.768,0,0,1,79.9,0H76.82a.768.768,0,0,0-.768.768V6a2.038,2.038,0,0,1-2.04,2.031H55.819A1.936,1.936,0,0,1,53.779,6V.768A.768.768,0,0,0,53.011,0H49.425a.768.768,0,0,1,.768.768" transform="translate(-42.792 0)" fill="#1f4889"/>
        <path id="Trazado_130938" data-name="Trazado 130938" d="M299.432.768v.768h1.818v25.61l1.535.744V15.464l-1.454-7.346a1.122,1.122,0,0,1,1.454-1.284V.768A.768.768,0,0,0,302.018,0h-3.354a.768.768,0,0,1,.768.768" transform="translate(-258.582 0)" fill="#1f4889"/>
        <path id="Trazado_130939" data-name="Trazado 130939" d="M92.2,119.81H74a3.575,3.575,0,0,0-3.575,3.566V140.2A3.575,3.575,0,0,0,74,143.768H92.2a3.575,3.575,0,0,0,3.575-3.566v-6.9c-.541-.283-1.054-.555-1.535-.814V140.2a2.038,2.038,0,0,1-2.04,2.03H74a2.038,2.038,0,0,1-2.04-2.03V123.376A2.038,2.038,0,0,1,74,121.345H92.2a2.038,2.038,0,0,1,2.04,2.031v2.94l1.535.744v-3.684A3.575,3.575,0,0,0,92.2,119.81" transform="translate(-60.977 -103.731)" fill="#1f4889"/>
        <path id="Trazado_130940" data-name="Trazado 130940" d="M21.556.769V3.791a1.781,1.781,0,0,0,1.78,1.778h.947a1.781,1.781,0,0,0,1.78-1.778V.769A.768.768,0,0,0,25.3,0H22.324a.768.768,0,0,0-.768.768m1.535.768h1.437V3.791a.244.244,0,0,1-.245.242h-.947a.244.244,0,0,1-.245-.242Z" transform="translate(-18.663 -0.001)" fill="#1f4889"/>
        <path id="Trazado_130941" data-name="Trazado 130941" d="M24.269,77.223h-.917a1.8,1.8,0,0,0-1.8,1.792V83.3a1.8,1.8,0,0,0,1.8,1.792h.917a1.8,1.8,0,0,0,1.8-1.792V79.015a1.8,1.8,0,0,0-1.8-1.792m.26,6.073a.259.259,0,0,1-.26.257h-.917a.259.259,0,0,1-.26-.257V79.015a.259.259,0,0,1,.26-.257h.917a.259.259,0,0,1,.26.257Z" transform="translate(-18.663 -66.859)" fill="#1f4889"/>
        <path id="Trazado_130942" data-name="Trazado 130942" d="M24.269,171.573h-.917a1.8,1.8,0,0,0-1.8,1.792v4.281a1.8,1.8,0,0,0,1.8,1.792h.917a1.8,1.8,0,0,0,1.8-1.792v-4.281a1.8,1.8,0,0,0-1.8-1.792m.26,6.073a.259.259,0,0,1-.26.257h-.917a.259.259,0,0,1-.26-.257v-4.281a.259.259,0,0,1,.26-.257h.917a.259.259,0,0,1,.26.257Z" transform="translate(-18.663 -148.547)" fill="#1f4889"/>
        <path id="Trazado_130943" data-name="Trazado 130943" d="M24.269,265.923h-.917a1.8,1.8,0,0,0-1.8,1.792V272a1.8,1.8,0,0,0,1.8,1.792h.917a1.8,1.8,0,0,0,1.8-1.792v-4.282a1.8,1.8,0,0,0-1.8-1.792m.26,6.073a.259.259,0,0,1-.26.257h-.917a.259.259,0,0,1-.26-.257v-4.282a.259.259,0,0,1,.26-.257h.917a.259.259,0,0,1,.26.257Z" transform="translate(-18.663 -230.235)" fill="#1f4889"/>
        <path id="Trazado_130944" data-name="Trazado 130944" d="M24.372,366.58H23.248a1.692,1.692,0,0,0-1.692,1.689v3.736a.768.768,0,0,0,.768.768H25.3a.768.768,0,0,0,.768-.768v-3.736a1.692,1.692,0,0,0-1.692-1.689m.156,4.658H23.091v-2.969a.156.156,0,0,1,.156-.154h1.124a.156.156,0,0,1,.156.154Z" transform="translate(-18.663 -317.384)" fill="#1f4889"/>
        <path id="Trazado_130945" data-name="Trazado 130945" d="M270.8.769V3.791a1.781,1.781,0,0,0,1.78,1.778h.947a1.781,1.781,0,0,0,1.78-1.778V.769A.768.768,0,0,0,274.536,0h-2.972a.768.768,0,0,0-.768.768m1.535.768h1.437V3.791a.244.244,0,0,1-.245.242h-.947a.244.244,0,0,1-.245-.242Z" transform="translate(-234.454 -0.001)" fill="#1f4889"/>
        <path id="Trazado_130946" data-name="Trazado 130946" d="M272.591,273.788h.917A1.8,1.8,0,0,0,275.3,272v-4.282a1.8,1.8,0,0,0-1.8-1.792h-.917a1.8,1.8,0,0,0-1.8,1.792V272a1.8,1.8,0,0,0,1.8,1.792m-.26-6.074a.259.259,0,0,1,.26-.257h.917a.259.259,0,0,1,.26.257V272a.259.259,0,0,1-.26.257h-.917a.259.259,0,0,1-.26-.257Z" transform="translate(-234.454 -230.234)" fill="#1f4889"/>
        <path id="Trazado_130947" data-name="Trazado 130947" d="M273.507,77.223h-.917a1.8,1.8,0,0,0-1.8,1.792V83.3a1.8,1.8,0,0,0,1.8,1.792h.917a1.8,1.8,0,0,0,1.8-1.792V79.015a1.8,1.8,0,0,0-1.8-1.792m.26,6.073a.259.259,0,0,1-.26.257h-.917a.259.259,0,0,1-.26-.257V79.015a.259.259,0,0,1,.26-.257h.917a.259.259,0,0,1,.26.257Z" transform="translate(-234.454 -66.859)" fill="#1f4889"/>
        <path id="Trazado_130948" data-name="Trazado 130948" d="M273.611,366.58h-1.124a1.693,1.693,0,0,0-1.692,1.689v3.736a.768.768,0,0,0,.768.768h2.972a.768.768,0,0,0,.768-.768v-3.736a1.692,1.692,0,0,0-1.692-1.689m.156,4.658H272.33v-2.969a.155.155,0,0,1,.156-.154h1.124a.156.156,0,0,1,.156.154Z" transform="translate(-234.454 -317.384)" fill="#1f4889"/>
        <path id="Trazado_130949" data-name="Trazado 130949" d="M318.965,50.613a1.116,1.116,0,0,0-.571,1.209l1.454,7.346,2.721,13.745,1.731.839-4.13-20.861a26.736,26.736,0,0,1,2.888,3.515,2.019,2.019,0,0,1,.274.671L327.12,75.12l1.747.847-4.031-19.207a3.554,3.554,0,0,0-.485-1.183,33.462,33.462,0,0,0-4.064-4.767,1.122,1.122,0,0,0-.438-.271,1.111,1.111,0,0,0-.883.075" transform="translate(-275.645 -43.705)" fill="#1f4889"/>
        <path id="Trazado_130950" data-name="Trazado 130950" d="M354.1,274.05l.073.569a10.38,10.38,0,0,0,3.9,6.291,6.437,6.437,0,0,1,1.492,8.061,4.4,4.4,0,0,1-3.005,2.184c-2.6.456-5.154-1.681-5.7-4.772a6.169,6.169,0,0,1,.763-4.332,10.383,10.383,0,0,0,1.5-7.227l-.078-.6a2.9,2.9,0,0,1-1.574-.205l.131,1.023c0,.012,0,.024.006.036a8.848,8.848,0,0,1-1.3,6.17,7.7,7.7,0,0,0-.969,5.407c.629,3.553,3.439,6.1,6.511,6.1a5.554,5.554,0,0,0,.969-.085,5.907,5.907,0,0,0,4.059-2.914,7.969,7.969,0,0,0-1.863-10.05,8.838,8.838,0,0,1-3.329-5.315l-.013-.1-1.439-.26Z" transform="translate(-302.349 -237.24)" fill="#1f4889"/>
        <path id="Trazado_130951" data-name="Trazado 130951" d="M365.179,326.955h0c.428,2.421,2.277,4.167,4.276,4.167a3.406,3.406,0,0,0,.6-.053,3.755,3.755,0,0,0,2.637-1.988,5.439,5.439,0,0,0,.529-3.549c-.471-2.661-2.657-4.509-4.874-4.115s-3.637,2.876-3.166,5.538m3.434-4.026c1.382-.242,2.771,1.043,3.095,2.871a3.9,3.9,0,0,1-.364,2.545,2.254,2.254,0,0,1-1.557,1.213c-1.382.245-2.771-1.043-3.095-2.871h0c-.323-1.828.539-3.514,1.922-3.759" transform="translate(-316.092 -278.236)" fill="#1f4889"/>
        <path id="Trazado_130952" data-name="Trazado 130952" d="M213.486,160.4a.768.768,0,0,1-.036-.608l.2-.556-1.153-.208a.738.738,0,0,0-.136-.012.759.759,0,0,0-.122.01l-1.314.211a2.293,2.293,0,0,1-1.464-.458c-.131-.072-.265-.144-.4-.214-.909-.465-2.271-1.14-3.853-1.924-4.932-2.446-13.187-6.539-14.467-7.692a23.191,23.191,0,0,1-3.106-3.836l26.484,12.84.237-.651a.768.768,0,0,1,.946-.472l.057.017-1.671-.81-1.747-.847-2.819-1.367-1.731-.839-2.721-1.319-1.536-.744-7.872-3.817-1.535-.744-6.809-3.3a1.122,1.122,0,0,0-1.4,1.627,29.926,29.926,0,0,0,4.2,5.4,26.773,26.773,0,0,0,4.015,2.439c.481.259.994.531,1.535.814,2.251,1.178,4.982,2.548,7.872,3.984l1.391.69.145.072c1.512.75,2.814,1.4,3.691,1.844.126.064.249.131.369.2a8.217,8.217,0,0,0,.858.42,2.9,2.9,0,0,0,1.574.205h.007l1.046-.168.139-.022,1.439.26.56.1c.022,0,.043,0,.065.006l-.468-.139a.767.767,0,0,1-.467-.39" transform="translate(-160.467 -123.778)" fill="#1f4889"/>
        <path id="Trazado_130953" data-name="Trazado 130953" d="M369.881,249.418a.854.854,0,1,0-.99-.692.854.854,0,0,0,.99.692" transform="translate(-319.373 -214.477)" fill="#1f4889"/>
        <path id="Trazado_130954" data-name="Trazado 130954" d="M413.777,250.452a7.964,7.964,0,0,0-9.567-3.8,8.757,8.757,0,0,1-6.375-.107c-.023-.009-.046-.018-.07-.025l-1.36-.416-.057-.017a.768.768,0,0,0-.946.472l-.237.651-.467,1.284-.2.556a.767.767,0,0,0,.5,1l.468.139.811.241a8.557,8.557,0,0,1,4.6,4.269,7.677,7.677,0,0,0,4.078,3.816,8.054,8.054,0,0,0,3.083.622,6.329,6.329,0,0,0,6.013-3.691,5.908,5.908,0,0,0-.272-4.989m-1.147,4.4c-1.01,2.436-4.189,3.441-7.089,2.238a6.232,6.232,0,0,1-3.274-3.043,10.21,10.21,0,0,0-5.438-5.056.709.709,0,0,0-.075-.027l-.536-.159.378-1.041.685.21a10.286,10.286,0,0,0,7.455.116,6.431,6.431,0,0,1,7.669,3.054,4.4,4.4,0,0,1,.224,3.708" transform="translate(-341.514 -213.029)" fill="#1f4889"/>
        <path id="Trazado_130955" data-name="Trazado 130955" d="M461.4,264.455c-2.5-1.035-5.229-.185-6.091,1.894s.468,4.614,2.964,5.649a5.683,5.683,0,0,0,2.173.441,4.09,4.09,0,0,0,3.918-2.335c.862-2.08-.468-4.614-2.964-5.649m1.546,5.06c-.538,1.3-2.37,1.774-4.085,1.064s-2.672-2.344-2.134-3.642a2.552,2.552,0,0,1,2.477-1.394,4.216,4.216,0,0,1,1.608.33c1.714.711,2.672,2.345,2.134,3.642" transform="translate(-393.975 -228.583)" fill="#1f4889"/>
      </g>
    </g>
  </g>
</svg>
