<svg xmlns="http://www.w3.org/2000/svg" width="39.193" height="39.187" viewBox="0 0 39.193 39.187">
  <g id="_035-wifi_router" data-name="035-wifi router" transform="translate(0 -0.048)">
    <path id="Trazado_132125" data-name="Trazado 132125" d="M36.131,20.118V12.824a1.148,1.148,0,0,0-1.148-1.148H33.835V1.189a1.148,1.148,0,0,0-2.3,0V11.676H30.39a1.148,1.148,0,0,0-1.148,1.148V20.1H9.951V12.824A1.148,1.148,0,0,0,8.8,11.676H7.655V1.189a1.148,1.148,0,0,0-2.3,0V11.676H4.21a1.148,1.148,0,0,0-1.148,1.148v7.294A3.449,3.449,0,0,0,0,23.541V31.2a3.45,3.45,0,0,0,2.3,3.247v2.111a2.682,2.682,0,0,0,2.679,2.679H34.218A2.682,2.682,0,0,0,36.9,36.555V34.444a3.45,3.45,0,0,0,2.3-3.247V23.541A3.449,3.449,0,0,0,36.131,20.118Zm-4.593-6.146h2.3V20.1h-2.3Zm-26.18,0h2.3V20.1h-2.3ZM34.6,36.555a.383.383,0,0,1-.383.383H4.976a.383.383,0,0,1-.383-.383V34.641H34.6ZM36.9,31.2a1.15,1.15,0,0,1-1.148,1.148H3.445A1.15,1.15,0,0,1,2.3,31.2V23.541a1.15,1.15,0,0,1,1.148-1.148h32.3A1.15,1.15,0,0,1,36.9,23.541Z" fill="#11578e"/>
    <path id="Trazado_132126" data-name="Trazado 132126" d="M422.148,326.952A1.148,1.148,0,0,0,421,328.1v2.3a1.148,1.148,0,0,0,2.3,0v-2.3A1.148,1.148,0,0,0,422.148,326.952Z" transform="translate(-388.773 -301.88)" fill="#11578e"/>
    <path id="Trazado_132127" data-name="Trazado 132127" d="M362.148,326.952A1.148,1.148,0,0,0,361,328.1v2.3a1.148,1.148,0,0,0,2.3,0v-2.3A1.148,1.148,0,0,0,362.148,326.952Z" transform="translate(-333.366 -301.88)" fill="#11578e"/>
    <path id="Trazado_132128" data-name="Trazado 132128" d="M302.148,326.952A1.148,1.148,0,0,0,301,328.1v2.3a1.148,1.148,0,0,0,2.3,0v-2.3A1.148,1.148,0,0,0,302.148,326.952Z" transform="translate(-277.959 -301.88)" fill="#11578e"/>
    <path id="Trazado_132129" data-name="Trazado 132129" d="M198.91,93.666a1.148,1.148,0,0,0,1.624,1.624,3.449,3.449,0,0,1,4.872,0,1.148,1.148,0,1,0,1.624-1.624,5.748,5.748,0,0,0-8.119,0Z" transform="translate(-183.373 -84.902)" fill="#11578e"/>
    <path id="Trazado_132130" data-name="Trazado 132130" d="M158.108,36.845a8.076,8.076,0,0,1,11.367,0,1.148,1.148,0,0,0,1.624-1.624,10.383,10.383,0,0,0-14.615,0,1.148,1.148,0,0,0,1.624,1.624Z" transform="translate(-144.195 -29.704)" fill="#11578e"/>
    <path id="Trazado_132131" data-name="Trazado 132131" d="M62.148,341.952A1.148,1.148,0,1,0,63.3,343.1,1.148,1.148,0,0,0,62.148,341.952Z" transform="translate(-56.33 -315.732)" fill="#11578e"/>
    <path id="Trazado_132132" data-name="Trazado 132132" d="M122.148,341.952A1.148,1.148,0,1,0,123.3,343.1,1.148,1.148,0,0,0,122.148,341.952Z" transform="translate(-111.738 -315.732)" fill="#11578e"/>
    <path id="Trazado_132133" data-name="Trazado 132133" d="M182.148,341.952A1.148,1.148,0,1,0,183.3,343.1,1.148,1.148,0,0,0,182.148,341.952Z" transform="translate(-167.145 -315.732)" fill="#11578e"/>
  </g>
</svg>
