<svg xmlns="http://www.w3.org/2000/svg" xmlns:xlink="http://www.w3.org/1999/xlink" width="101" height="101" viewBox="0 0 101 101">
  <defs>
    <clipPath id="clip-path">
      <rect id="Rectángulo_41546" data-name="Rectángulo 41546" width="43.426" height="52.695" fill="#1f4889"/>
    </clipPath>
  </defs>
  <g id="Grupo_211385" data-name="Grupo 211385" transform="translate(-750 -9310.279)">
    <circle id="Elipse_1150" data-name="Elipse 1150" cx="50.5" cy="50.5" r="50.5" transform="translate(750 9310.279)" fill="#f7cb50"/>
    <g id="Grupo_98719" data-name="Grupo 98719" transform="translate(778.611 9334.369)">
      <g id="Grupo_98718" data-name="Grupo 98718" clip-path="url(#clip-path)">
        <path id="Trazado_131166" data-name="Trazado 131166" d="M166.518,48.537c-1.316-.045-2.883.073-4.447-.118a10.539,10.539,0,0,1-8.858-7.64,1.355,1.355,0,0,1,.987-1.818c2.7-.946,4.691-2.6,5.426-5.49a9.055,9.055,0,0,0,.215-2.567c-.012-.351-.145-.434-.485-.432-2.272.016-4.545.009-6.817.008-1.1,0-1.58-.479-1.581-1.57,0-1.943-.015-3.887.01-5.83.006-.431-.128-.52-.529-.509-1,.027-2.006.023-3.009,0a3.978,3.978,0,0,1-3.615-5.657Q147.4,8.9,151.024.91a1.32,1.32,0,0,1,1.8-.783,1.339,1.339,0,0,1,.6,1.874q-3.538,7.852-7.082,15.7a1.812,1.812,0,0,0-.215,1.221,1.358,1.358,0,0,0,1.4,1.016c1.489.006,2.978,0,4.466,0,1.128,0,1.594.472,1.6,1.6,0,1.943.009,3.887-.008,5.83,0,.365.091.476.467.473,2.225-.018,4.451-.011,6.676-.007a1.344,1.344,0,0,1,1.53,1.258,10.9,10.9,0,0,1-1.108,7.6,10.316,10.316,0,0,1-4.651,4.168c-.34.162-.378.293-.212.61a7.7,7.7,0,0,0,6.811,4.374c2.5.119,5.014.038,7.521.049a1.352,1.352,0,0,1,1.459,1,1.3,1.3,0,0,1-1.318,1.636c-1.332.011-2.664,0-4.245,0" transform="translate(-128.696 0)" fill="#1f4889"/>
        <path id="Trazado_131167" data-name="Trazado 131167" d="M3.668,233.977A1.329,1.329,0,0,1,4.9,235.953a19.255,19.255,0,0,0-1.386,3.434c-2.187,7.939-.281,14.778,5.558,20.549.145.143.3.272.445.419a1.313,1.313,0,0,1-1.774,1.935,20.217,20.217,0,0,1-2.4-2.448A22.654,22.654,0,0,1,2.532,234.8a1.369,1.369,0,0,1,1.136-.822" transform="translate(0 -209.918)" fill="#1f4889"/>
        <path id="Trazado_131168" data-name="Trazado 131168" d="M54.828,271.939a17.877,17.877,0,0,1,1.445-7.083,1.38,1.38,0,0,1,1.11-.963,1.3,1.3,0,0,1,1.381,1.843,15.922,15.922,0,0,0-1.1,3.726A14.954,14.954,0,0,0,61.7,282.428a1.921,1.921,0,0,1,.59.884,1.332,1.332,0,0,1-.634,1.447,1.285,1.285,0,0,1-1.6-.232,17.248,17.248,0,0,1-2.311-2.836,17.6,17.6,0,0,1-2.924-9.753" transform="translate(-49.19 -236.746)" fill="#1f4889"/>
        <path id="Trazado_131169" data-name="Trazado 131169" d="M111.367,294.322a1.31,1.31,0,0,1,1.228,1.743,10.58,10.58,0,0,0-.332,4.508,10.413,10.413,0,0,0,2.076,4.867,1.312,1.312,0,0,1-.762,2.18,1.29,1.29,0,0,1-1.307-.556,12.952,12.952,0,0,1-2.218-11.676,1.338,1.338,0,0,1,1.316-1.065" transform="translate(-98.25 -264.059)" fill="#1f4889"/>
        <path id="Trazado_131170" data-name="Trazado 131170" d="M312.18,47.939a3.01,3.01,0,0,1-6.019-.093,3.01,3.01,0,1,1,6.019.093" transform="translate(-274.679 -40.252)" fill="#1f4889"/>
      </g>
    </g>
  </g>
</svg>
