<svg xmlns="http://www.w3.org/2000/svg" width="295" height="340.428" viewBox="0 0 295 340.428">
  <g id="Grupo_211380" data-name="Grupo 211380" transform="translate(-180 -10349.033)">
    <rect id="Rectángulo_35961" data-name="Rectángulo 35961" width="295" height="340.427" rx="21" transform="translate(180 10349.033)" fill="#f6f6f6"/>
    <path id="Trazado_141245" data-name="Trazado 141245" d="M63.177,15.27A1.5,1.5,0,0,0,62.591,14a7.685,7.685,0,0,0-2.109-.937,14.953,14.953,0,0,1-2.412-.972,3.941,3.941,0,0,1-2.422-3.525A3.434,3.434,0,0,1,56.3,6.5a4.236,4.236,0,0,1,1.865-1.411,7.021,7.021,0,0,1,2.729-.508,6.39,6.39,0,0,1,2.715.552A4.323,4.323,0,0,1,65.457,6.7a4.076,4.076,0,0,1,.659,2.285h-2.93a1.917,1.917,0,0,0-.615-1.519,2.529,2.529,0,0,0-1.729-.542,2.7,2.7,0,0,0-1.67.454,1.432,1.432,0,0,0-.6,1.2,1.372,1.372,0,0,0,.7,1.162,7.889,7.889,0,0,0,2.056.879,8.882,8.882,0,0,1,3.643,1.865,3.715,3.715,0,0,1,1.143,2.773,3.422,3.422,0,0,1-1.4,2.9,6.113,6.113,0,0,1-3.76,1.05,7.26,7.26,0,0,1-2.988-.6,4.729,4.729,0,0,1-2.056-1.646,4.214,4.214,0,0,1-.708-2.422h2.939q0,2.354,2.813,2.354a2.736,2.736,0,0,0,1.631-.425A1.382,1.382,0,0,0,63.177,15.27Zm7.49-5.684a3.522,3.522,0,0,1,2.822-1.348q3.437,0,3.486,3.994V19H74.153V12.3a1.971,1.971,0,0,0-.391-1.346,1.672,1.672,0,0,0-1.3-.436,1.92,1.92,0,0,0-1.8.959V19H67.845V4h2.822Zm8,4.033a6.266,6.266,0,0,1,.605-2.8,4.432,4.432,0,0,1,1.743-1.9,5.086,5.086,0,0,1,2.642-.674,4.812,4.812,0,0,1,3.491,1.309A5.252,5.252,0,0,1,88.655,13.1l.02.723a5.523,5.523,0,0,1-1.357,3.9,5.261,5.261,0,0,1-7.29,0,5.62,5.62,0,0,1-1.362-3.984Zm2.822.2a3.95,3.95,0,0,0,.566,2.3,2.035,2.035,0,0,0,3.223.01,4.322,4.322,0,0,0,.576-2.518,3.91,3.91,0,0,0-.576-2.289,1.873,1.873,0,0,0-1.621-.812,1.842,1.842,0,0,0-1.6.807A4.395,4.395,0,0,0,81.487,13.819Zm12.3-7.984v2.6H95.6V10.5H93.792v5.273a1.259,1.259,0,0,0,.225.84,1.128,1.128,0,0,0,.859.254,4.5,4.5,0,0,0,.83-.068v2.139A5.81,5.81,0,0,1,94,19.2q-2.969,0-3.027-3V10.5H89.427V8.434H90.97v-2.6Zm7.773,11.084a1.851,1.851,0,0,0,1.27-.43,1.506,1.506,0,0,0,.508-1.143h2.646a3.62,3.62,0,0,1-.586,1.968,3.866,3.866,0,0,1-1.577,1.387,4.936,4.936,0,0,1-2.212.493,4.587,4.587,0,0,1-3.574-1.44,5.7,5.7,0,0,1-1.309-3.979V13.59a5.635,5.635,0,0,1,1.3-3.9,4.534,4.534,0,0,1,3.564-1.455,4.444,4.444,0,0,1,3.179,1.128,3.994,3.994,0,0,1,1.216,3h-2.646a1.939,1.939,0,0,0-.508-1.34,1.887,1.887,0,0,0-2.778.2,4.166,4.166,0,0,0-.5,2.333v.293a4.219,4.219,0,0,0,.5,2.347A1.721,1.721,0,0,0,101.565,16.92Zm12.363,1.006a3.539,3.539,0,0,1-2.891,1.27,3.338,3.338,0,0,1-2.593-.977,4.169,4.169,0,0,1-.913-2.861V8.434h2.822v6.834q0,1.652,1.5,1.652a2.038,2.038,0,0,0,1.973-1V8.434h2.832V19h-2.656Zm8.242-12.09v2.6h1.807V10.5h-1.807v5.273a1.259,1.259,0,0,0,.225.84,1.128,1.128,0,0,0,.859.254,4.5,4.5,0,0,0,.83-.068v2.139a5.81,5.81,0,0,1-1.709.254q-2.969,0-3.027-3V10.5h-1.543V8.434h1.543v-2.6Z" transform="translate(238 10589.947)" fill="#12263f"/>
    <g id="Elipse_4913" data-name="Elipse 4913" transform="translate(248 10389.553)" fill="#fff" stroke="#f0cc66" stroke-width="1">
      <circle cx="79.5" cy="79.5" r="79.5" stroke="none"/>
      <circle cx="79.5" cy="79.5" r="79" fill="none"/>
    </g>
    <g id="Grupo_95776" data-name="Grupo 95776" transform="translate(0 3611.475)">
      <rect id="rect3833" width="20.732" height="81.89" transform="translate(286.037 6817.078)" fill="#115c77" stroke="#000" stroke-width="0.303"/>
      <rect id="rect3835" width="54.939" height="81.89" transform="translate(312.988 6817.078)" fill="#115c77" stroke="#000" stroke-width="0.303"/>
      <path id="rect3868" d="M394.2,272.7v78.78h5.183V272.7Z" transform="translate(-29.383 6545.415)" fill="#115c77"/>
      <path id="path3871" d="M386.5,272.7v78.78h5.183V272.7Z" transform="translate(-101.5 6545.415)" fill="#115c77"/>
      <text id="Shotcut" transform="translate(317.565 6830.133)" fill="#fff" font-size="12" font-family="MyriadPro-Regular, Myriad Pro"><tspan x="0" y="0">Shotcut</tspan></text>
    </g>
  </g>
</svg>
