<svg xmlns="http://www.w3.org/2000/svg" xmlns:xlink="http://www.w3.org/1999/xlink" width="295" height="340.428" viewBox="0 0 295 340.428">
  <defs>
    <radialGradient id="radial-gradient" cx="0.5" cy="0.5" r="0.5" gradientTransform="translate(0)" gradientUnits="objectBoundingBox">
      <stop offset="0.99" stop-opacity="0.502"/>
      <stop offset="1" stop-opacity="0"/>
    </radialGradient>
    <radialGradient id="radial-gradient-2" cx="0.5" cy="0.5" r="0.5" gradientUnits="objectBoundingBox">
      <stop offset="0.913"/>
      <stop offset="1" stop-opacity="0"/>
    </radialGradient>
    <radialGradient id="radial-gradient-3" cx="0.5" cy="0.5" r="0.5" gradientUnits="objectBoundingBox">
      <stop offset="0.99" stop-color="#fff"/>
      <stop offset="0.995" stop-color="#fdfdfd"/>
      <stop offset="0.997" stop-color="#f6f6f6"/>
      <stop offset="0.998" stop-color="#ebebeb"/>
      <stop offset="0.999" stop-color="#dadada"/>
      <stop offset="1" stop-color="#c7c7c7"/>
    </radialGradient>
    <clipPath id="clip-path">
      <path id="SVGID" d="M67.938,106.016A38.017,38.017,0,1,0,105.954,68a38.016,38.016,0,0,0-38.016,38.016" transform="translate(-67.938 -68)" fill="url(#radial-gradient)"/>
    </clipPath>
    <clipPath id="clip-path-2">
      <path id="Trazado_127745" data-name="Trazado 127745" d="M71.6,109.368a37.7,37.7,0,1,0,37.7-37.7,37.7,37.7,0,0,0-37.7,37.7" transform="translate(-71.603 -71.665)" fill="none"/>
    </clipPath>
    <radialGradient id="radial-gradient-6" cx="0.5" cy="0.5" r="0.5" gradientTransform="matrix(1, 0, 0, -1, 0, 2.22)" gradientUnits="objectBoundingBox">
      <stop offset="0"/>
      <stop offset="1" stop-color="#322f32"/>
    </radialGradient>
    <radialGradient id="radial-gradient-7" cx="0.5" cy="0.5" r="0.478" gradientTransform="translate(-0.049 -0.049) scale(1.097 1.097)" gradientUnits="objectBoundingBox">
      <stop offset="0" stop-color="#c2c0c2"/>
      <stop offset="1" stop-color="#ebebeb"/>
    </radialGradient>
  </defs>
  <g id="Grupo_211383" data-name="Grupo 211383" transform="translate(-1125 -10349.033)">
    <rect id="Rectángulo_66433" data-name="Rectángulo 66433" width="295" height="340.427" rx="21" transform="translate(1125 10349.033)" fill="#f6f6f6"/>
    <path id="Trazado_141248" data-name="Trazado 141248" d="M45.472,21.2a5.01,5.01,0,0,1-2.5-.669,4.515,4.515,0,0,1-1.709-1.846,6.835,6.835,0,0,1-.728-2.769,11.129,11.129,0,0,1,.342-3.418A9.121,9.121,0,0,1,42.327,9.3,6.57,6.57,0,0,1,44.666,7.24a6.055,6.055,0,0,1,2.905-.654,4.958,4.958,0,0,1,2.51.679A4.484,4.484,0,0,1,51.771,9.13a6.915,6.915,0,0,1,.7,2.759,11.485,11.485,0,0,1-.371,3.535,8.971,8.971,0,0,1-1.455,3.145,6.519,6.519,0,0,1-2.31,1.992A6.038,6.038,0,0,1,45.472,21.2Zm4.053-7.7.078-.928a4.532,4.532,0,0,0-.464-2.637A1.959,1.959,0,0,0,47.435,9,3.091,3.091,0,0,0,44.6,10.58a9.319,9.319,0,0,0-1.187,4.59,4.7,4.7,0,0,0,.459,2.661A1.954,1.954,0,0,0,45.6,18.8a2.932,2.932,0,0,0,2.539-1.2,7.238,7.238,0,0,0,1.318-3.579Zm3.73,7.5L55.726,6.781l4.434.01A5.881,5.881,0,0,1,63.87,7.8a3.11,3.11,0,0,1,1.123,2.8,3.581,3.581,0,0,1-2.49,3.154,2.389,2.389,0,0,1,1.318,1.1,3.288,3.288,0,0,1,.4,1.9,4.114,4.114,0,0,1-1.577,3.13A6.255,6.255,0,0,1,58.714,21ZM57.2,14.809l-.674,3.838,2.256.01a2.909,2.909,0,0,0,1.768-.522,2.073,2.073,0,0,0,.85-1.411,1.752,1.752,0,0,0-.239-1.372,1.586,1.586,0,0,0-1.265-.532Zm.352-2.07,1.943.02a3.094,3.094,0,0,0,1.772-.508,1.969,1.969,0,0,0,.825-1.357q.244-1.719-1.807-1.729l-2.109-.01ZM73.558,17.2q.205-1.162-1.143-1.777l-1.885-.752q-3.281-1.465-3.115-4.033A3.7,3.7,0,0,1,68.2,8.529a4.7,4.7,0,0,1,2-1.44,7.088,7.088,0,0,1,2.783-.5,4.822,4.822,0,0,1,3.33,1.226,4.084,4.084,0,0,1,1.25,3.179H74.71a2.035,2.035,0,0,0-.425-1.5,1.914,1.914,0,0,0-1.47-.557,2.963,2.963,0,0,0-1.7.444,1.823,1.823,0,0,0-.859,1.274q-.186,1.064,1.426,1.689l1.289.488.742.342q2.881,1.426,2.7,4a3.863,3.863,0,0,1-.806,2.173,4.542,4.542,0,0,1-1.953,1.4,6.957,6.957,0,0,1-2.72.459,6.092,6.092,0,0,1-2.7-.635,4.186,4.186,0,0,1-1.8-1.709,4.425,4.425,0,0,1-.537-2.344l2.861.01q-.137,2.314,2.275,2.354a2.989,2.989,0,0,0,1.719-.459A1.787,1.787,0,0,0,73.558,17.2Zm16.953,0q.205-1.162-1.143-1.777l-1.885-.752q-3.281-1.465-3.115-4.033a3.7,3.7,0,0,1,.781-2.109,4.7,4.7,0,0,1,2-1.44,7.088,7.088,0,0,1,2.783-.5,4.822,4.822,0,0,1,3.33,1.226,4.084,4.084,0,0,1,1.25,3.179H91.663a2.035,2.035,0,0,0-.425-1.5,1.914,1.914,0,0,0-1.47-.557,2.963,2.963,0,0,0-1.7.444,1.823,1.823,0,0,0-.859,1.274q-.186,1.064,1.426,1.689l1.289.488.742.342q2.881,1.426,2.7,4a3.863,3.863,0,0,1-.806,2.173,4.542,4.542,0,0,1-1.953,1.4,6.957,6.957,0,0,1-2.72.459,6.092,6.092,0,0,1-2.7-.635,4.186,4.186,0,0,1-1.8-1.709,4.425,4.425,0,0,1-.537-2.344l2.861.01q-.137,2.314,2.275,2.354a2.989,2.989,0,0,0,1.719-.459A1.787,1.787,0,0,0,90.511,17.2Zm9.609-9.365-.459,2.6h1.758l-.361,2.07H99.3L98.4,17.8a1.346,1.346,0,0,0,.078.762q.137.264.664.283.156.01.84-.049l-.2,2.158a4.632,4.632,0,0,1-1.582.225,2.482,2.482,0,0,1-2.021-.85,3.07,3.07,0,0,1-.547-2.246l.908-5.576H95.052l.361-2.07h1.494l.449-2.6Zm7.607,12.07a3.648,3.648,0,0,1-2.91,1.289,2.715,2.715,0,0,1-2.3-1.094,4,4,0,0,1-.605-2.832l1.143-6.836H105.8l-1.162,6.873a2.718,2.718,0,0,0-.01.606,1,1,0,0,0,1.084,1.007,2.517,2.517,0,0,0,2.119-.987l1.318-7.5h2.773L110.091,21h-2.568Zm9.658-9.678a3.007,3.007,0,0,1,2.383,1.182L120.8,6h2.764l-2.6,15h-2.461l.156-1.133a3.42,3.42,0,0,1-2.754,1.338,3.042,3.042,0,0,1-1.729-.518,3.259,3.259,0,0,1-1.147-1.46,5.88,5.88,0,0,1-.444-2.124,8,8,0,0,1,.029-1.191l.059-.439a8.458,8.458,0,0,1,.9-2.852,4.708,4.708,0,0,1,1.641-1.826A3.868,3.868,0,0,1,117.386,10.229Zm-2,5.684a7.908,7.908,0,0,0-.049,1.25q.1,1.719,1.387,1.748a2.357,2.357,0,0,0,2.021-1.094l.752-4.2a1.56,1.56,0,0,0-1.523-1.094,2.007,2.007,0,0,0-1.675.776A5.22,5.22,0,0,0,115.384,15.912ZM126.077,21H123.3l1.836-10.566h2.773Zm-.615-13.252a1.376,1.376,0,0,1,.43-1.084,1.653,1.653,0,0,1,2.168-.049,1.37,1.37,0,0,1,.479,1.035,1.415,1.415,0,0,1-.405,1.055,1.519,1.519,0,0,1-1.108.469,1.544,1.544,0,0,1-1.079-.371A1.363,1.363,0,0,1,125.462,7.748Zm8.994,2.49a4.238,4.238,0,0,1,2.407.718,4.042,4.042,0,0,1,1.484,1.924,5.952,5.952,0,0,1,.337,2.72,6.429,6.429,0,0,1-1.753,4.077,4.95,4.95,0,0,1-3.774,1.519,4.225,4.225,0,0,1-2.383-.708,4.027,4.027,0,0,1-1.484-1.909,5.821,5.821,0,0,1-.342-2.7,6.619,6.619,0,0,1,1.777-4.16A4.847,4.847,0,0,1,134.456,10.238Zm-2.783,6.644a2.438,2.438,0,0,0,.439,1.477,1.46,1.46,0,0,0,1.182.561,2.141,2.141,0,0,0,1.992-1.165,5.808,5.808,0,0,0,.674-3.164,2.652,2.652,0,0,0-.454-1.5,1.436,1.436,0,0,0-1.187-.58,2.143,2.143,0,0,0-1.968,1.155A5.748,5.748,0,0,0,131.673,16.882Z" transform="translate(1183 10589.947)" fill="#12263f"/>
    <g id="Elipse_4916" data-name="Elipse 4916" transform="translate(1193 10389.553)" fill="#fff" stroke="#f0cc66" stroke-width="1">
      <circle cx="79.5" cy="79.5" r="79.5" stroke="none"/>
      <circle cx="79.5" cy="79.5" r="79" fill="none"/>
    </g>
    <g id="OBS_Studio_Logo" transform="translate(1230 10426.553)">
      <path id="Trazado_127743" data-name="Trazado 127743" d="M60.5,20A42.5,42.5,0,1,1,18,62.5,42.5,42.5,0,0,1,60.5,20" transform="translate(-18 -20)" fill="url(#radial-gradient-2)"/>
      <path id="Trazado_127744" data-name="Trazado 127744" d="M67.411,25.849A41.625,41.625,0,1,1,25.786,67.473,41.624,41.624,0,0,1,67.411,25.849" transform="translate(-25.12 -25.348)" fill="url(#radial-gradient-3)"/>
      <path id="SVGID-2" data-name="SVGID" d="M67.938,106.016A38.017,38.017,0,1,0,105.954,68a38.016,38.016,0,0,0-38.016,38.016" transform="translate(-63.663 -63.891)" fill="url(#radial-gradient)"/>
      <g id="Grupo_95774" data-name="Grupo 95774" transform="translate(4.275 4.109)" clip-path="url(#clip-path)">
        <rect id="Rectángulo_39931" data-name="Rectángulo 39931" width="76.033" height="76.033" transform="translate(0)" fill="url(#radial-gradient)"/>
      </g>
      <g id="Grupo_95775" data-name="Grupo 95775" transform="translate(4.588 4.422)" clip-path="url(#clip-path-2)">
        <rect id="Rectángulo_39932" data-name="Rectángulo 39932" width="75.406" height="75.405" transform="translate(0 0)" fill="url(#radial-gradient-6)"/>
      </g>
      <path id="Trazado_127746" data-name="Trazado 127746" d="M279.63,126.256a17.055,17.055,0,0,1-23.732,6.031,17.356,17.356,0,0,1-3.845-3.233,17.027,17.027,0,0,1-4.271-12.081c.024-.5.066-.99.131-1.482s.149-.967.255-1.444.238-.974.389-1.452.314-.924.5-1.376c.195-.47.412-.929.646-1.38.247-.475.52-.937.812-1.385q.4-.62.86-1.2c.33-.424.681-.833,1.05-1.222s.763-.769,1.17-1.127.849-.706,1.3-1.029q.346-.25.705-.48a20.92,20.92,0,0,0-9.337,27.69q.07.146.143.291l.066.131a.4.4,0,0,0,.04.079c.028.031.035.026.077.025.221,0,.442,0,.662,0q.612.013,1.221.07a17.064,17.064,0,0,1,11.354,28.11,17.308,17.308,0,0,1-4.261,3.577,17.108,17.108,0,0,1-10.627,2.268,17.383,17.383,0,0,1-1.986-.345c-.424-.1-.844-.217-1.259-.348a20.766,20.766,0,0,0,5.868,1.624,21.146,21.146,0,0,0,5.685-.068,20.846,20.846,0,0,0,9.3-3.842,21.061,21.061,0,0,0,5.113-5.4q.089-.136.176-.273c.023-.036.073-.092.066-.129a.727.727,0,0,0-.09-.166q-.171-.322-.329-.65-.317-.661-.575-1.347a16.948,16.948,0,0,1-.8-2.856,17.2,17.2,0,0,1,0-6.333,17.076,17.076,0,0,1,16.645-13.894q.628,0,1.255.036.6.04,1.206.121t1.184.2q.576.122,1.143.282t1.1.353q.551.2,1.088.433t1.075.518q.528.278,1.036.591c.318.2.63.4.934.621s.619.459.918.7.606.515.9.788q.462.435.891.9t.819.965c.291.37.568.751.827,1.144s.517.818.749,1.242a17.136,17.136,0,0,1,.862,1.829,17.715,17.715,0,0,1,.682,2.086A20.926,20.926,0,0,0,280.362,126.3Q280,126.272,279.63,126.256Z" transform="translate(-222.544 -96.253)" fill="url(#radial-gradient-7)"/>
    </g>
  </g>
</svg>
