<svg xmlns="http://www.w3.org/2000/svg" xmlns:xlink="http://www.w3.org/1999/xlink" width="295" height="340.428" viewBox="0 0 295 340.428">
  <defs>
    <linearGradient id="linear-gradient" x1="0.5" y1="1.003" x2="0.5" y2="0.003" gradientUnits="objectBoundingBox">
      <stop offset="0" stop-color="#97c93d"/>
      <stop offset="1" stop-color="#3d9544"/>
    </linearGradient>
  </defs>
  <g id="Grupo_211385" data-name="Grupo 211385" transform="translate(-495 -10713.342)">
    <rect id="Rectángulo_66435" data-name="Rectángulo 66435" width="295" height="340.427" rx="21" transform="translate(495 10713.342)" fill="#f6f6f6"/>
    <path id="Trazado_141249" data-name="Trazado 141249" d="M53.846,14.264a5.031,5.031,0,0,1-1.694,3.613A5.951,5.951,0,0,1,48.123,19.2a5.351,5.351,0,0,1-4.3-1.841A7.548,7.548,0,0,1,42.254,12.3v-.869a8.523,8.523,0,0,1,.723-3.613,5.415,5.415,0,0,1,2.065-2.4,6.455,6.455,0,0,1,7.085.483,5.407,5.407,0,0,1,1.738,3.7h-2.93a2.97,2.97,0,0,0-.767-2,2.839,2.839,0,0,0-2.007-.62,2.489,2.489,0,0,0-2.192,1.05,5.883,5.883,0,0,0-.747,3.257v1.074a6.3,6.3,0,0,0,.7,3.369,2.443,2.443,0,0,0,2.2,1.064,2.892,2.892,0,0,0,2.026-.62,2.8,2.8,0,0,0,.767-1.919ZM61.707,19a3.134,3.134,0,0,1-.283-.947A3.415,3.415,0,0,1,58.758,19.2a3.752,3.752,0,0,1-2.573-.9,2.89,2.89,0,0,1-1.021-2.266,2.986,2.986,0,0,1,1.245-2.578,6.144,6.144,0,0,1,3.6-.908h1.3v-.605a1.741,1.741,0,0,0-.376-1.172,1.479,1.479,0,0,0-1.187-.439,1.682,1.682,0,0,0-1.118.342,1.161,1.161,0,0,0-.405.938H55.4a2.835,2.835,0,0,1,.566-1.7,3.744,3.744,0,0,1,1.6-1.226,5.837,5.837,0,0,1,2.324-.444,4.611,4.611,0,0,1,3.1.981,3.433,3.433,0,0,1,1.147,2.759v4.58a5.052,5.052,0,0,0,.42,2.275V19Zm-2.334-1.963a2.431,2.431,0,0,0,1.152-.278,1.828,1.828,0,0,0,.781-.747V14.2H60.252Q58.133,14.2,58,15.66l-.01.166a1.13,1.13,0,0,0,.371.869A1.441,1.441,0,0,0,59.373,17.037Zm9.58-8.6.088,1.182a3.713,3.713,0,0,1,3.037-1.377,2.818,2.818,0,0,1,2.8,1.611,3.628,3.628,0,0,1,3.174-1.611,3.152,3.152,0,0,1,2.559,1,4.6,4.6,0,0,1,.84,3.013V19H78.621V12.246a2.02,2.02,0,0,0-.352-1.316,1.556,1.556,0,0,0-1.24-.416,1.762,1.762,0,0,0-1.758,1.214L75.281,19H72.459V12.256a2,2,0,0,0-.361-1.331,1.571,1.571,0,0,0-1.23-.411,1.828,1.828,0,0,0-1.738,1V19H66.307V8.434Zm24.18,5.381a6.337,6.337,0,0,1-1.108,3.911,3.554,3.554,0,0,1-2.993,1.47,3.292,3.292,0,0,1-2.588-1.113v4.98H83.621V8.434h2.617l.1,1.035a3.317,3.317,0,0,1,2.676-1.23,3.578,3.578,0,0,1,3.037,1.445,6.509,6.509,0,0,1,1.084,3.984ZM90.311,13.6a4.182,4.182,0,0,0-.522-2.282,1.7,1.7,0,0,0-1.519-.8,1.847,1.847,0,0,0-1.826,1.019v4.339a1.879,1.879,0,0,0,1.846,1.048Q90.311,16.92,90.311,13.6ZM98.26,5.836v2.6h1.807V10.5H98.26v5.273a1.259,1.259,0,0,0,.225.84,1.128,1.128,0,0,0,.859.254,4.5,4.5,0,0,0,.83-.068v2.139a5.81,5.81,0,0,1-1.709.254q-2.969,0-3.027-3V10.5H93.895V8.434h1.543v-2.6ZM107.762,19a3.134,3.134,0,0,1-.283-.947,3.415,3.415,0,0,1-2.666,1.143,3.752,3.752,0,0,1-2.573-.9,2.89,2.89,0,0,1-1.021-2.266,2.986,2.986,0,0,1,1.245-2.578,6.144,6.144,0,0,1,3.6-.908h1.3v-.605a1.741,1.741,0,0,0-.376-1.172,1.479,1.479,0,0,0-1.187-.439,1.682,1.682,0,0,0-1.118.342,1.161,1.161,0,0,0-.405.938h-2.822a2.835,2.835,0,0,1,.566-1.7,3.744,3.744,0,0,1,1.6-1.226,5.837,5.837,0,0,1,2.324-.444,4.611,4.611,0,0,1,3.1.981,3.433,3.433,0,0,1,1.147,2.759v4.58a5.052,5.052,0,0,0,.42,2.275V19Zm-2.334-1.963a2.431,2.431,0,0,0,1.152-.278,1.828,1.828,0,0,0,.781-.747V14.2h-1.055q-2.119,0-2.256,1.465l-.01.166a1.13,1.13,0,0,0,.371.869A1.441,1.441,0,0,0,105.428,17.037Zm12.656-.957a.909.909,0,0,0-.513-.815,5.824,5.824,0,0,0-1.646-.532q-3.77-.791-3.77-3.2a2.9,2.9,0,0,1,1.167-2.349,4.708,4.708,0,0,1,3.052-.942,5.067,5.067,0,0,1,3.218.947,2.985,2.985,0,0,1,1.206,2.461h-2.822a1.366,1.366,0,0,0-.391-1,1.653,1.653,0,0,0-1.221-.4,1.689,1.689,0,0,0-1.1.322,1.017,1.017,0,0,0-.391.82.87.87,0,0,0,.444.757,4.571,4.571,0,0,0,1.5.5,12.244,12.244,0,0,1,1.777.474,2.92,2.92,0,0,1,2.236,2.842,2.756,2.756,0,0,1-1.24,2.339,5.35,5.35,0,0,1-3.2.894,5.588,5.588,0,0,1-2.358-.474,3.957,3.957,0,0,1-1.616-1.3,3.018,3.018,0,0,1-.586-1.782H114.5a1.473,1.473,0,0,0,.557,1.152,2.208,2.208,0,0,0,1.387.4,2.044,2.044,0,0,0,1.226-.308A.957.957,0,0,0,118.084,16.08ZM125.623,19h-2.832V8.434h2.832Zm-3-13.3a1.39,1.39,0,0,1,.425-1.045,1.831,1.831,0,0,1,2.31,0,1.382,1.382,0,0,1,.43,1.045,1.386,1.386,0,0,1-.435,1.055,1.81,1.81,0,0,1-2.295,0A1.386,1.386,0,0,1,122.625,5.7ZM134.07,19a3.134,3.134,0,0,1-.283-.947,3.415,3.415,0,0,1-2.666,1.143,3.752,3.752,0,0,1-2.573-.9,2.89,2.89,0,0,1-1.021-2.266,2.986,2.986,0,0,1,1.245-2.578,6.144,6.144,0,0,1,3.6-.908h1.3v-.605a1.741,1.741,0,0,0-.376-1.172,1.479,1.479,0,0,0-1.187-.439,1.682,1.682,0,0,0-1.118.342,1.161,1.161,0,0,0-.405.938h-2.822a2.835,2.835,0,0,1,.566-1.7,3.744,3.744,0,0,1,1.6-1.226,5.837,5.837,0,0,1,2.324-.444,4.611,4.611,0,0,1,3.1.981,3.433,3.433,0,0,1,1.147,2.759v4.58a5.052,5.052,0,0,0,.42,2.275V19Zm-2.334-1.963a2.431,2.431,0,0,0,1.152-.278,1.828,1.828,0,0,0,.781-.747V14.2h-1.055q-2.119,0-2.256,1.465l-.01.166a1.13,1.13,0,0,0,.371.869A1.441,1.441,0,0,0,131.736,17.037Z" transform="translate(553 10954.256)" fill="#12263f"/>
    <g id="Elipse_4918" data-name="Elipse 4918" transform="translate(563 10753.861)" fill="#fff" stroke="#f0cc66" stroke-width="1">
      <circle cx="79.5" cy="79.5" r="79.5" stroke="none"/>
      <circle cx="79.5" cy="79.5" r="79" fill="none"/>
    </g>
    <g id="camtasia_logo" data-name="camtasia logo" transform="translate(584 10774.861)">
      <g id="Grupo_95777" data-name="Grupo 95777" transform="translate(16 16)">
        <path id="Trazado_127747" data-name="Trazado 127747" d="M58.5,16A42.5,42.5,0,0,1,101,58.5h0A42.5,42.5,0,0,1,58.5,101h0A42.5,42.5,0,0,1,16,58.5h0A42.5,42.5,0,0,1,58.5,16Z" transform="translate(-16 -16)" fill="url(#linear-gradient)"/>
      </g>
      <g id="Grupo_95778" data-name="Grupo 95778" transform="translate(38.335 34.494)">
        <path id="Trazado_127748" data-name="Trazado 127748" d="M226.931,183.388l-9.131,9.363h31.864a.914.914,0,0,0,.664-.288l7.526-7.714a.975.975,0,0,0-.011-1.372,1.026,1.026,0,0,0-.653-.277h-29.6A.96.96,0,0,0,226.931,183.388Z" transform="translate(-217.8 -183.1)" fill="#fff"/>
        <path id="Trazado_127749" data-name="Trazado 127749" d="M226.931,539.063,217.8,529.7h31.864a.915.915,0,0,1,.664.288l7.526,7.714a.975.975,0,0,1-.011,1.372,1.026,1.026,0,0,1-.653.277h-29.6a1.034,1.034,0,0,1-.664-.288" transform="translate(-217.8 -491.339)" fill="#fff"/>
        <path id="Trazado_127750" data-name="Trazado 127750" d="M227.54,270.4H217.9v28.7h9.64V270.4" transform="translate(-217.889 -260.738)" fill="#fff" opacity="0.74"/>
      </g>
    </g>
  </g>
</svg>
